<svg id="Layer_2" data-name="Layer 2" xmlns="http://www.w3.org/2000/svg" viewBox="0 0 1200 1000"><defs><style>.cls-1{fill:#b0ce99;}.cls-2{fill:#178fa7;}</style></defs><title>Beans Talk</title><path class="cls-1" d="M220.12,313c-4.79-14-8.93-20.11-18.29-31.5-1.42-1.72-3.59-4.25-6.38-4.17-3.68.12-7,4.76-8.41,8.5-1.61,4.25-.42,6.51-2,7.58-2.64,1.72-6.56-3.63-12.09-3.69-6.42-.08-13.33,6.93-14.5,12.27-1.22,5.6,3.35,11.86,11.9,18.85a12.5,12.5,0,0,0-1.66,3.38c-1.14,3.72.46,5.74-.8,7.36-1.77,2.29-5.29-1.33-10.14.49-3.49,1.31-6.88,5.14-8.6,9.35-6.17.62-11.55,2.31-12.59,5.61-1.57,5,8.39,9.44,7.73,18.63-.42,5.75-4.5,6.56-4.14,11.46.5,7,9.21,11.79,13.82,13.9a11.53,11.53,0,0,0-.17,6.61,15.58,15.58,0,0,0,3.05,14.53,4,4,0,0,0,.28.3,11.38,11.38,0,0,0-2.3,3.73c-1.79,5,.16,11.89,4.32,15.52.92.82,5.12,4.24,15.4,2.42,11.64-2.07,18.35-8.61,33.14-22.93A113.89,113.89,0,0,0,222,406.91c24.82-10.07,47.77-10.81,63.22-10.54L288,397c-4.88,10.76-7.24,12.49-7.66,19.85-.22,4-.42,19.38,11.71,29.81a34.74,34.74,0,0,0,32.54,6.67c10.74-3.51,8.83-10,22.08-16.15,11.52-5.36,24.44-5.8,30.55-6,10.78-.37,16.87,1.13,17.59-.92.95-2.69-9.13-6.24-19.92-18.36a62,62,0,0,1-10.51-15.32c-5.11-10.89-2.3-14.42-6.06-23-3.88-8.91-12.65-18.39-24.94-21.62-1.83-.48-17.84-4.45-28.86,4.6-6.92,5.68-5.09,10.91-12.07,29.67C282.58,377,271.72,366.81,260,355.7,224,321.44,222,318.4,220.12,313Z"/><path class="cls-1" d="M564.63,220.25c14-4.79,20.12-8.93,31.5-18.29,1.73-1.42,4.26-3.59,4.17-6.38-.11-3.68-4.76-7-8.49-8.41-4.26-1.61-6.51-.42-7.58-2-1.72-2.63,3.62-6.55,3.69-12.08.08-6.42-6.94-13.34-12.27-14.5-5.61-1.22-11.86,3.35-18.85,11.9a12.56,12.56,0,0,0-3.39-1.66c-3.71-1.14-5.74.46-7.36-.8-2.29-1.77,1.34-5.29-.48-10.14-1.31-3.49-5.15-6.88-9.36-8.61-.62-6.16-2.3-11.55-5.6-12.58-5-1.57-9.45,8.38-18.63,7.72-5.75-.41-6.56-4.49-11.46-4.13-7,.5-11.79,9.21-13.91,13.82a11.49,11.49,0,0,0-6.6-.17,15.6,15.6,0,0,0-14.54,3.05,3.83,3.83,0,0,0-.29.28,11.33,11.33,0,0,0-3.74-2.3c-5-1.79-11.88.16-15.52,4.31-.81.93-4.23,5.13-2.41,15.41,2.06,11.64,8.6,18.35,22.92,33.13a114.61,114.61,0,0,0,4.34,14.32c10.07,24.81,10.81,47.77,10.54,63.22-.22.93-.44,1.87-.67,2.82-10.75-4.88-12.48-7.24-19.84-7.66-4-.22-19.38-.42-29.81,11.71a34.74,34.74,0,0,0-6.67,32.54c3.51,10.74,10,8.83,16.15,22.08,5.35,11.52,5.8,24.44,6,30.55.38,10.78-1.13,16.87.93,17.59,2.68.95,6.23-9.13,18.35-19.92a62,62,0,0,1,15.32-10.51c10.89-5.11,14.43-2.3,23.06-6.06,8.91-3.88,18.38-12.65,21.62-24.94.48-1.83,4.44-17.84-4.6-28.87-5.68-6.91-10.91-5.08-29.67-12.06,9.18-9.87,19.38-20.73,30.49-32.43C556.23,224.07,559.27,222.08,564.63,220.25Z"/><path class="cls-1" d="M655.86,590.42c4.79,14,8.94,20.12,18.29,31.5,1.42,1.73,3.59,4.26,6.38,4.17,3.68-.11,7-4.76,8.41-8.49,1.61-4.26.42-6.52,2-7.58,2.63-1.73,6.56,3.62,12.09,3.69,6.41.08,13.33-6.94,14.49-12.27,1.22-5.61-3.35-11.86-11.9-18.85a12.41,12.41,0,0,0,1.66-3.39c1.14-3.72-.46-5.74.8-7.36,1.77-2.29,5.29,1.34,10.14-.48,3.49-1.31,6.88-5.15,8.61-9.36,6.17-.62,11.55-2.31,12.58-5.6,1.57-5-8.38-9.45-7.72-18.64.41-5.74,4.49-6.56,4.14-11.46-.51-7-9.22-11.79-13.83-13.9a11.5,11.5,0,0,0,.17-6.6,15.59,15.59,0,0,0-3-14.54l-.29-.3a11.12,11.12,0,0,0,2.3-3.73c1.8-5-.16-11.88-4.31-15.52-.93-.81-5.13-4.23-15.41-2.41-11.64,2.06-18.35,8.6-33.13,22.92A113.78,113.78,0,0,0,654,496.55c-24.81,10.07-47.76,10.81-63.22,10.54l-2.81-.66c4.87-10.76,7.24-12.49,7.65-19.84.22-4,.42-19.39-11.71-29.82a34.77,34.77,0,0,0-32.54-6.67c-10.74,3.52-8.82,10-22.08,16.16-11.51,5.35-24.43,5.8-30.55,6-10.78.37-16.87-1.13-17.59.92-.95,2.69,9.13,6.24,19.92,18.36a62,62,0,0,1,10.51,15.32c5.11,10.89,2.3,14.42,6.06,23,3.88,8.91,12.65,18.39,25,21.62,1.82.48,17.83,4.45,28.86-4.6,6.91-5.67,5.08-10.9,12.07-29.67,9.86,9.19,20.72,19.38,32.42,30.49C652,582,654,585.06,655.86,590.42Z"/><path class="cls-1" d="M309.09,672.16c-14,4.79-20.12,8.93-31.5,18.29-1.72,1.41-4.26,3.59-4.17,6.38.11,3.68,4.76,7,8.5,8.41,4.25,1.6,6.51.41,7.57,2,1.73,2.64-3.62,6.56-3.69,12.09-.07,6.42,6.94,13.33,12.28,14.5,5.6,1.22,11.86-3.35,18.85-11.9a12.8,12.8,0,0,0,3.38,1.66c3.72,1.14,5.74-.46,7.36.8,2.29,1.77-1.34,5.29.49,10.14,1.3,3.49,5.14,6.87,9.35,8.6.62,6.17,2.31,11.55,5.61,12.58,5,1.58,9.44-8.38,18.63-7.72,5.74.42,6.56,4.5,11.46,4.14,7-.5,11.79-9.21,13.9-13.82a11.53,11.53,0,0,0,6.61.17,15.6,15.6,0,0,0,14.53-3l.3-.28a11.1,11.1,0,0,0,3.73,2.29c5,1.8,11.89-.15,15.52-4.31.81-.92,4.23-5.12,2.41-15.4-2.06-11.64-8.6-18.35-22.92-33.14A113.89,113.89,0,0,0,403,670.32c-10.07-24.82-10.81-47.77-10.54-63.22q.33-1.4.66-2.82c10.76,4.88,12.49,7.24,19.84,7.66,4,.22,19.39.42,29.82-11.71a34.74,34.74,0,0,0,6.67-32.54c-3.52-10.74-10-8.83-16.16-22.08-5.35-11.52-5.8-24.44-6-30.55-.37-10.78,1.13-16.87-.92-17.59-2.69-1-6.24,9.13-18.36,19.92a62,62,0,0,1-15.32,10.51c-10.89,5.11-14.42,2.3-23.05,6.06-8.91,3.88-18.39,12.65-21.62,24.94-.48,1.83-4.45,17.84,4.6,28.86,5.67,6.92,10.91,5.09,29.67,12.07-9.19,9.87-19.38,20.73-30.49,32.43C317.49,668.33,314.45,670.33,309.09,672.16Z"/><path class="cls-1" d="M392.1,159.15c-3.28-2.6-9.58-1-13.53,1.22-4.52,2.53-5.13,5.36-7.33,5.1-3.55-.43-3.05-7.95-7.81-12.06-5.2-4.49-15.39-3.8-21.58.05a17.5,17.5,0,0,0-4.75,4.4,14,14,0,0,0-1.26-5.12c-2.38-5-8.46-9.1-13.6-8.17-3.73.66-6.25,3.83-7.83,6.5a30.85,30.85,0,0,0-1.85,3.39,18.91,18.91,0,0,0-1.68,5,9.28,9.28,0,0,0-1.79-.85c-5-1.78-12.83,0-17.59,4a13.26,13.26,0,0,0-3,3.68,21.26,21.26,0,0,0-3.13,11c-5.8-1.27-13.68-.28-16.87,4.25a7.2,7.2,0,0,0-.45.73h0c-4,5.65,2.45,12.35-2,20.19l0,.05c-2.48,3.72-5.35,3.21-9.55,9.18-.64.91-1.44,2-2.2,3.31-1.74,2.75-3.49,6.34-2.87,10a10.2,10.2,0,0,0,1.36,3.61,20.48,20.48,0,0,0-5.42.64,11.75,11.75,0,0,0-2.83,1.18c-5.23,3-8.57,10.44-7.62,16.65.21,1.38,1.36,7.43,11.62,13.37,12.75,7.37,24.27,5.74,52.64,3.85l9.6-.61c-.09.55-.16,1.07-.22,1.53-1,6.82-1.45,10.22-.52,14.09,1.69,7,4.9,5.74,10.62,17.35,0,0,5.81,11.76,9.72,16.62,1,1.26.49.5,7.34,8.33,5.2,5.93,5.9,6.82,6.5,7.63,3.32,4.4,3.8,6.15,6.84,10.8a95.79,95.79,0,0,0,8.25,10.66c6.51,7.65,8,7.76,15,15.37,6.47,7,5,6.66,14,16.73,7.56,8.51,8.36,8.49,11.39,13,3.86,5.74,4.14,8.13,8,11.57,3.43,3,5,2.81,8.53,6.38,2.49,2.56,2.85,3.89,5.82,8.25,3.24,4.75,8.26,12.12,10.11,11.41,2.56-1-1.85-17.28-2.31-19a151.3,151.3,0,0,0-5.72-16.3c-5-12.62-5.8-12.52-6.68-17-1.63-8.26,1.09-9.41.53-19.46-.15-2.66-.38-3.32-5.27-22.16-4.4-17-5-19.36-5.7-23.05-1.73-8.6-1.24-8.62-2.72-14.51-2.12-8.39-3.52-9.93-5.84-18.81s-1.21-8.24-3.14-14.86a85.5,85.5,0,0,0-8.83-19.83c-4.13-7.07-6.2-10.61-10.42-14a29.07,29.07,0,0,0-9.58-5.17c1-.48,2-1,3-1.59a44.85,44.85,0,0,0,16-16.3c.69-1.12,1.3-2.16,1.85-3.1,6.82-11.68,6.94-21.38,7.17-40.77C394.62,164.91,394.58,161.11,392.1,159.15Z"/><path class="cls-1" d="M713.21,402.31c2.6-3.28,1-9.57-1.22-13.53-2.53-4.51-5.36-5.13-5.09-7.33.43-3.54,8-3.05,12.05-7.8,4.5-5.2,3.8-15.4-.05-21.59a17.49,17.49,0,0,0-4.4-4.75,13.72,13.72,0,0,0,5.12-1.26c5-2.37,9.1-8.45,8.18-13.6-.67-3.73-3.84-6.25-6.51-7.83a32.65,32.65,0,0,0-3.39-1.85,18.59,18.59,0,0,0-5-1.67,9.67,9.67,0,0,0,.85-1.8c1.78-5,0-12.82-4-17.59a13.64,13.64,0,0,0-3.68-3,21.26,21.26,0,0,0-11-3.13c1.27-5.79.28-13.68-4.25-16.87a7.07,7.07,0,0,0-.73-.44h0c-5.65-4-12.35,2.45-20.19-2l0,0c-3.72-2.48-3.21-5.35-9.18-9.55-.91-.63-2-1.43-3.31-2.19-2.75-1.75-6.34-3.5-10-2.88a10.2,10.2,0,0,0-3.61,1.36,20.41,20.41,0,0,0-.64-5.41,11.65,11.65,0,0,0-1.18-2.84c-3-5.22-10.44-8.57-16.64-7.62-1.39.22-7.44,1.36-13.38,11.63-7.37,12.74-5.74,24.26-3.85,52.63.23,3.49.43,6.68.61,9.6l-1.53-.22c-6.81-1-10.22-1.45-14.09-.51-7,1.68-5.74,4.89-17.35,10.62,0,0-11.76,5.8-16.62,9.71-1.26,1-.5.49-8.33,7.34-5.93,5.2-6.82,5.9-7.63,6.51-4.4,3.31-6.15,3.79-10.8,6.83a95.79,95.79,0,0,0-10.66,8.25c-7.65,6.52-7.76,8-15.37,15-7,6.48-6.66,5.05-16.73,14-8.51,7.55-8.49,8.35-13,11.39-5.74,3.86-8.13,4.14-11.57,8-3,3.42-2.81,5.05-6.38,8.53-2.56,2.48-3.89,2.84-8.25,5.81-4.75,3.24-12.12,8.27-11.41,10.11,1,2.57,17.28-1.85,18.95-2.31a151.3,151.3,0,0,0,16.3-5.72c12.62-4.95,12.52-5.8,17-6.68,8.26-1.62,9.41,1.1,19.46.53,2.66-.15,3.32-.38,22.16-5.26,17-4.4,19.36-5,23-5.71,8.6-1.72,8.62-1.23,14.51-2.72,8.39-2.12,9.93-3.51,18.81-5.84s8.24-1.2,14.86-3.14a84.88,84.88,0,0,0,19.83-8.83c7.07-4.13,10.61-6.2,14-10.42a29,29,0,0,0,5.17-9.57c.48,1,1,2,1.59,3a44.76,44.76,0,0,0,16.3,16c1.12.7,2.16,1.31,3.1,1.86,11.68,6.81,21.38,6.93,40.77,7.17C707.45,404.84,711.25,404.8,713.21,402.31Z"/><path class="cls-1" d="M479.84,726.65c3.28,2.6,9.57,1,13.53-1.22,4.51-2.53,5.13-5.36,7.33-5.09,3.54.43,3.05,7.95,7.8,12,5.2,4.49,15.4,3.8,21.59,0a17.65,17.65,0,0,0,4.75-4.4,13.72,13.72,0,0,0,1.26,5.12c2.37,5,8.45,9.1,13.6,8.18,3.73-.67,6.25-3.84,7.83-6.51a34.68,34.68,0,0,0,1.85-3.39,19,19,0,0,0,1.67-5,9.67,9.67,0,0,0,1.8.85c5,1.78,12.82,0,17.59-4a13.48,13.48,0,0,0,3-3.68,21.16,21.16,0,0,0,3.14-11c5.79,1.27,13.68.28,16.87-4.25a7.07,7.07,0,0,0,.44-.73h0c4-5.65-2.45-12.35,2-20.19l0-.05c2.48-3.72,5.35-3.21,9.55-9.18.63-.91,1.43-2,2.19-3.31,1.75-2.75,3.49-6.34,2.88-10a10.2,10.2,0,0,0-1.36-3.61,20.41,20.41,0,0,0,5.41-.64,11.65,11.65,0,0,0,2.84-1.18c5.22-3,8.57-10.44,7.62-16.64-.22-1.39-1.36-7.44-11.63-13.38-12.74-7.37-24.26-5.74-52.63-3.85l-9.6.61c.08-.55.15-1.06.22-1.53,1-6.81,1.45-10.22.51-14.09-1.68-7-4.89-5.74-10.62-17.35,0,0-5.8-11.76-9.71-16.62-1-1.26-.49-.5-7.34-8.33-5.2-5.93-5.9-6.82-6.51-7.63-3.31-4.4-3.79-6.15-6.83-10.8a95.79,95.79,0,0,0-8.25-10.66c-6.52-7.65-8-7.76-15-15.37-6.47-7-5-6.66-14-16.73-7.55-8.51-8.35-8.49-11.39-13-3.86-5.74-4.14-8.13-8-11.57-3.42-3-5.05-2.81-8.53-6.38-2.48-2.56-2.84-3.89-5.81-8.25-3.24-4.75-8.27-12.12-10.11-11.41-2.57,1,1.85,17.28,2.31,18.95a151.3,151.3,0,0,0,5.72,16.3c5,12.62,5.8,12.52,6.68,17,1.62,8.26-1.1,9.41-.53,19.46.15,2.66.38,3.32,5.26,22.16,4.4,17,5,19.36,5.71,23,1.72,8.6,1.23,8.62,2.72,14.51,2.12,8.39,3.51,9.93,5.84,18.81,2.29,8.73,1.2,8.24,3.14,14.86a84.88,84.88,0,0,0,8.83,19.83c4.13,7.07,6.2,10.61,10.41,14a29.19,29.19,0,0,0,9.58,5.17c-1,.48-2,1-3,1.59a44.76,44.76,0,0,0-16,16.3c-.7,1.12-1.31,2.16-1.86,3.1-6.81,11.68-6.93,21.38-7.17,40.77C477.31,720.89,477.35,724.69,479.84,726.65Z"/><path class="cls-1" d="M156,489.09c-2.6,3.29-1,9.58,1.23,13.53,2.52,4.52,5.35,5.13,5.09,7.33-.43,3.55-8,3.05-12.06,7.81-4.49,5.2-3.79,15.39,0,21.58a17.36,17.36,0,0,0,4.4,4.75,14,14,0,0,0-5.12,1.26c-5,2.38-9.09,8.46-8.17,13.6.67,3.73,3.83,6.25,6.51,7.83a30,30,0,0,0,3.38,1.85,18.87,18.87,0,0,0,5,1.68,9.29,9.29,0,0,0-.86,1.79c-1.78,5,0,12.83,4,17.59a13,13,0,0,0,3.67,3,21.3,21.3,0,0,0,11,3.13c-1.27,5.8-.28,13.68,4.26,16.87a6.24,6.24,0,0,0,.73.45h0c5.65,4,12.36-2.45,20.19,2l.06,0c3.71,2.48,3.21,5.35,9.18,9.55.9.64,2,1.44,3.3,2.2,2.76,1.74,6.35,3.49,10,2.87a10.13,10.13,0,0,0,3.62-1.36,20.45,20.45,0,0,0,.63,5.42,11.75,11.75,0,0,0,1.18,2.83c3,5.23,10.44,8.57,16.65,7.62,1.38-.21,7.43-1.36,13.37-11.62,7.38-12.75,5.74-24.27,3.85-52.64-.23-3.49-.43-6.68-.6-9.59l1.52.22c6.82,1,10.23,1.44,14.09.51,7-1.69,5.74-4.9,17.36-10.62,0,0,11.75-5.81,16.61-9.71,1.27-1,.51-.5,8.33-7.35,5.94-5.2,6.83-5.9,7.63-6.5,4.4-3.32,6.16-3.8,10.81-6.84a96.72,96.72,0,0,0,10.66-8.25c7.64-6.51,7.76-8,15.37-15,7-6.47,6.65-5,16.72-14,8.51-7.55,8.49-8.36,13-11.39,5.74-3.86,8.13-4.14,11.57-8,3-3.43,2.81-5,6.39-8.53,2.55-2.49,3.88-2.84,8.24-5.82,4.76-3.24,12.13-8.26,11.42-10.11-1-2.56-17.28,1.85-19,2.31A152.06,152.06,0,0,0,395,457c-12.62,5-12.51,5.8-17,6.68-8.26,1.63-9.41-1.09-19.46-.53-2.66.15-3.31.38-22.15,5.27-17,4.4-19.37,5-23.05,5.7-8.61,1.73-8.63,1.24-14.51,2.72-8.4,2.12-9.94,3.52-18.81,5.84s-8.25,1.21-14.86,3.15a85.06,85.06,0,0,0-19.84,8.82c-7.07,4.13-10.6,6.2-14,10.42a29.27,29.27,0,0,0-5.17,9.58c-.47-1-1-2-1.58-3a44.79,44.79,0,0,0-16.31-16c-1.11-.69-2.16-1.3-3.1-1.85-11.68-6.82-21.37-6.94-40.77-7.17C161.8,486.57,158,486.61,156,489.09Z"/><path class="cls-2" d="M475.66,412.08c19.85-27.82,21.26-57.48,10.33-89-8.28-21.86-23.55-37.07-46.12-43.73-19.73-6.41-40-8.1-60.53-6.48-47.58,3.29-95.54,7.54-143.08,11.29-7,.55-7,.55-6.48,7.08L253.35,590c.59,7.46.59,7.46,8,6.87l128.16-10.11c9.78-.77,20.07-1.12,30.18-3.79,11.5-2.78,23-5.1,34.4-9.75,36.76-15.56,48.39-46.49,46.06-81.94-.4-5.13-1.28-10.22-2.15-15.31-2.79-17.6-9.17-33-23.64-44.09-3-2.58-7.36-4.11-10.41-7.15C467.86,420.2,472.27,416.57,475.66,412.08ZM462.9,321.65c1.4-.11,2.33-.19,2.87.71a1.72,1.72,0,0,1-1.72,2,2.57,2.57,0,0,1-2.44-1.22C461,321.33,463,322.58,462.9,321.65Zm-7.26-8.81c2.48,1.68,3.52,3,2.27,5a1.75,1.75,0,0,1-1.36.58C455,317.11,454.89,315.24,455.64,312.84ZM409.7,289.26c.93-.07,1.44.36,1.47.83a2.46,2.46,0,0,1-1.6,3.4c-.9.55-1.87.15-1.94-.78A3.12,3.12,0,0,1,409.7,289.26Zm-15.15,27.93a2.42,2.42,0,0,1,1.14-3.37A2,2,0,0,1,398.6,315a57.08,57.08,0,0,1,2.84,6.33c.15,1.87-.2,3.3-1.1,3.84-1.86.15-3.33-.67-3.44-2.07C397.14,320.27,395.63,319,394.55,317.19Zm3.36-22.78c-.85,1-5.38-2.85-4,2.2.68,2.76.9,5.55,1.59,8.31.07.94.15,1.87-1.21,2.45s-1.94-.79-2.05-2.19l-2.61-15.27C396,288.47,396,288.47,397.91,294.41ZM378.65,288a4.57,4.57,0,0,1,1.68-2.47,2.55,2.55,0,0,1,2.44,1.21c.57,1.36,2.12,3.12,1.73,4.08-1.5,4.81.7,8.86,2,13.91-2.29.65-4.23-.13-4.27-.6C381.82,298.5,377.69,293.66,378.65,288Zm-38.44,18c5.52-1.37,7.21,2.25,7.93,5.47s-.95,5.7-3.14,7.75c-1.36.58-2.75.69-3.76-.17s-.58-1.36.28-2.37C344.85,311.26,344.85,311.26,340.21,306ZM325,315.64a9.35,9.35,0,0,1,.3,9.82c-2.12-3.11-1.91-6.41-4-8.59-.58-1.37-.22-2.8,1.18-2.91C323.87,312.92,324.45,314.28,325,315.64Zm-7.69-26.12c.39-1-.19-2.33.75-2.41,1.82-.61,2.4.75,3,2.11l.59,7.46a32.27,32.27,0,0,1,1.4,6c.15,1.87-.63,3.81-2.53,3.49-2.33.18-1.55-1.76-1.19-3.19C319.9,298.22,317.24,294.21,317.34,289.52ZM306.18,469.07c-.25,2.83,0,6.09-.23,8.92a3,3,0,0,1-2.08,3.45c-1.86.15-2.47-1.68-3.05-3a2.88,2.88,0,0,1-.69-2.76c2.08-3.45.81-7.57,2.89-11C305.88,465.34,306.5,467.16,306.18,469.07Zm1.16,26.63c-1.79,1.08-3.26.26-4.73-.56-1-.86-1.55-1.76-.72-3.23.39-1,1.86-.14,2.36.29C305.69,492.55,307.63,493.34,307.34,495.7ZM274.8,303.19c.94-.07,2.37.28,2.48,1.68.15,1.86-1.18,2.9-3.08,2.59-.93.07-2.36-.29-2.47-1.68C271.54,303.45,273.44,303.76,274.8,303.19Zm-15.51-12.38c2.91,1.18,3,3,2.34,5.91C258.69,295.08,258.54,293.22,259.29,290.81Zm2.47,13.41c1,.39,1,.39,1.43.35,1.62,2.69,1.3,4.59-.38,7.07-.9.54-1.4.11-1.9-.32C259.29,308.63,260.07,306.7,261.76,304.22ZM245.82,351.9c2.12,3.12,1.41,6,2.56,8.71C245.87,358.46,242.89,356.35,245.82,351.9Zm1.42,65.54c-.22-2.8-.91-5.55.31-8,2.36.28,2.51,2.14,2.66,4,.51,6.52,1.49,13,1.51,19.1.37,10.76,2.58,20.9,4.79,31,1.63,8.79-.47,17.86,4.39,25.92-3.22,6.82,2.78,11.5,2.83,18.06-.45,6.14,1.42,12.09,2.37,18.11.11,1.4.68,2.76-.68,3.33-1.83.62-2.4-.74-2.94-1.64a6,6,0,0,1-2.31-5.45c.64-3.8-1-6.95-2.71-10.57-1.73-4.08-4-8.6-1-13.05a3.51,3.51,0,0,0-.76-3.69c-3.09-3.51-2.49-7.77-2.82-12C251.13,460.75,248.93,438.88,247.24,417.44Zm24.59,163.13c-1.79,1.08-2.83-.24-3.41-1.61-3.31-6.3-7.05-12.1-6.7-19.63.24-2.84,0-6.1-2.57-8.71a5.06,5.06,0,0,1-.4-5.13,7.18,7.18,0,0,0-.59-7.45,2.84,2.84,0,0,1-.29-3.73c0-.47.85-1,1.32-1,.9-.54,1.4-.11,1.47.82,1.35,11.14,9.08,19.92,9.49,31.14.11,1.39,1.19,3.19.8,4.16-1.14,3.37.87,5.08,2,7.34C273.55,578.56,273.19,580,271.83,580.57Zm-23.6-281.38a3.13,3.13,0,0,1,1.1-3.84l1.87-.15a2.08,2.08,0,0,1,1.19,3.19c-1.65,2.95,2.27,5,2.09,8.75C250.53,304.63,249.85,301.87,248.23,299.19Zm16.42,35.75c-1.3-4.59-3.93-8.13-4.26-12.33l-.18-2.33c-.15-1.86.17-3.76,2.5-3.95,1.9.32,2.05,2.19,1.73,4.09-1.5,4.81,1.63,8.78,2.93,13.37.54.89.61,1.82-.78,1.94C265.69,336.26,264.72,335.87,264.65,334.94ZM291.2,582.33c-.93.07-1.94-.79-1.55-1.76-.07-.93.79-1.94,1.76-1.54a1.23,1.23,0,0,1,1.5,1.28C292.52,581.28,292.13,582.25,291.2,582.33ZM278.42,355a4.8,4.8,0,0,1-2.11,3c-1.83.61-2.83-.25-3.88-1.57-2.12-3.12-3.34-6.77-4.64-11.36,6.48-1,6.95-1,6.42,4.18-.32,1.9-.21,3.3,1.7,3.62C277.34,353.17,278.77,353.52,278.42,355Zm-4.13-40.48c-.54-.89.35-1.43,1.75-1.54a1.49,1.49,0,0,1,1.51,1.29c0,.46-.86,1-1.32,1C275.33,315.81,274.36,315.42,274.29,314.48ZM298.12,563a1,1,0,0,1-1.48-.82c-.68-2.76-1.33-5.05-2-7.81a3.6,3.6,0,0,0,1.83-.62,15.79,15.79,0,0,1,2.95,7.74A1.23,1.23,0,0,1,298.12,563Zm-6.73-192.2c-.56,4.73.7,8.85,1.07,13.51C288.36,380,289.39,375.19,291.39,370.82Zm3.34,36.31c-2.12-3.12-3.31-6.3-1.78-10.65,7,5.55,4.72,12.29,5.24,18.82a4.16,4.16,0,0,1-.29,2.36c-.82,1.48,1.7,3.62-1,5.24l-1-.39c-2.05-2.18-2.7-4.48-1.95-6.88.43-.5.39-1,.86-1C297.46,412.07,296.81,409.78,294.73,407.13ZM310.89,510.9c-4.23-.14-6.49,1-9.36.27C305.43,507.11,305.43,507.11,310.89,510.9Zm.23,8.89c-.39,1-1.25,2-2.22,1.58a2.88,2.88,0,0,1-1.19-3.19c.43-.5.82-1.47,1.32-1A2.57,2.57,0,0,1,311.12,519.79Zm-2.42,28.8c-1.58-2.22.25-2.84,1.11-3.84,2.57-3,3.28-5.89,1.12-9.47-1.54-1.75-2.15-3.58.49-5.67,3.17,4.44,4,9.53,5.84,14.55.65,2.29-.64,3.8-3,4C312.43,548.29,310.64,549.37,308.7,548.59Zm13,9.76c.19,2.33-.6,4.27-3.39,4.49-3.27.26-4.31-1.07-4.71-6.19.32-1.91-.87-5.1,2.85-5.39C319.21,551,321.84,554.58,321.66,558.35Zm27.51,21.75c-1.32,1-2.4-.75-3.33-.68-6.68-1.35-8.91-5.86-9-12.42-.18-2.33-1.3-4.59-2.41-6.85-1.23-3.65-1.23-3.65.7-9,3.09,3.51,3,8.2,4.64,11.36,3.17,4.44,3.18,10.53,8.56,13.39C349.38,576.8,350.46,578.59,349.17,580.1Zm57.47-38.3c-1.39.11-1-1.33-1.61-2.69,0-.46.35-1.43.82-1.47,1.39-.11,1.94.79,2,2.18C408.44,540.72,408,541.69,406.64,541.8ZM413,575.06c-.9.54-1.47-.82-1.55-1.75.21-3.3-2.84-6.35-.41-11.23,1.76,4.55,2.92,7.28,3.64,10.5C415.24,573.48,414.42,575,413,575.06Zm11.37-16.37c-2.4-.75-2.59-3.08-3.16-4.44s-.65-2.3.74-2.41a1.72,1.72,0,0,1,2.41.75C426.39,554.31,426.57,556.64,424.39,558.69Zm.15-16c.54.9-.36,1.44-1.72,2-3.16-4.44-3.1-9.6-3-14.3-.08-.93.35-1.43,1.25-2,.93-.08,1.47.82,2,1.71.5.43,1,1.33.61,1.83C422.59,535.85,423.78,539,424.54,542.73ZM428.75,495c-.54,16.92-8.27,26-29.09,29.49-12.48,2.39-25.14,2.45-37.72,3.44l-36.82,2.91c-5.12.4-5.59.44-6-4.69-1.29-16.31-2.15-33.12-3.9-49.4-.29-3.73,1-5.23,4.72-5.53l38.68-3.05c11.19-.88,21.94-1.26,33.09-2.61,6.49-1,12.7.4,18.94,2.26C424.15,472.42,429,480.48,428.75,495Zm-99.62-62a3.65,3.65,0,0,1,1.94.79c.68,2.76-1.57,3.87-3.87,4.52C326.05,435.61,326.87,434.14,329.13,433Zm9.8,5.33c.89-.55,2.18-2.05,3.69-.77,1.12,2.26-.68,3.34-2,3.92-1.32,1-3.58,2.16-4.66.36C334.81,439.61,337.57,438.92,338.93,438.35Zm78-4.28c1.38,5.52,2.75,11,6,16.41,2.19,4,1.59,8.31,1.53,13.48-3.91-2-5.57-5.19-5.75-7.52,0-6.1-3.72-11.43-3.73-17.53-.26-3.26-1.91-6.41-4.11-10.46C415.1,429.05,416.22,431.31,416.9,434.07Zm-2.4-18.57c2.63,3.55,3.31,6.3,3.21,11C415.05,422.49,413.47,420.27,414.5,415.5ZM411,407.33c-3,4-6.44,7.54-12.68,5.69-1.94-.78-4.23-.13-6.56.05l-76,6c-3.7.76-5.21-.52-5.54-4.72-.49-12.15-1.94-24.7-2.94-37.28-.95-12.12-1.44-24.27-2.87-36.35-.29-3.73,1-5.24,4.73-5.54L374,330.06c12.15-.48,23.59,1.89,34,9.51,5.5,4.26,9.67,9.56,11.11,16C422.92,373.57,422,391.46,411,407.33ZM447.3,557.82c0,.46-.36,1.43-1.33,1a1.24,1.24,0,0,1-1.5-1.29,10.08,10.08,0,0,1,1.2-8.53C447.79,552.15,447.54,555,447.3,557.82ZM427.24,309.45c-1.51-1.29-2-1.25-2-1.71-1.08-1.79.52-5.2-2.81-5.88-3.84-1.1-.6,4.27-4.33,4.56.21-3.3-.52-6.52.19-9.39,1.22-2.44,5-2.27,7.67-3.89A32.31,32.31,0,0,1,427.24,309.45Zm5.81,2.36a2,2,0,0,1,1.72-2c1.9.31,2.9,1.17,2.59,3.07,0,.47.14,1.87-1.26,2C434.2,314.53,433.63,313.17,433.05,311.81Zm3.9,13.76c.47,0,.54.89,1,1.32-.35,1.44-.75,2.41-2.11,3a11,11,0,0,1-.61-1.82C435.16,326.65,435.55,325.68,437,325.57Zm9.55,8.16c.91,5.55,3.14,10.06,3.58,15.66-2.38-6.38-8-6.41-13.28-7.87C441.43,340.69,445.55,339.43,446.5,333.73Zm-5.68,29c-1-1.33-1.65-3.15-.37-4.66.44-.51,1.37-.58,1.8-1.08a33.26,33.26,0,0,0,4.8,1.5c1.9.31,4.2-.34,3.92,2,.22,2.8-2.54,3.48-4.33,4.56C444.38,366.25,442.37,364.53,440.82,362.78Zm16.57,186.27c-1.69-3.62-.51-6.53-1.27-10.22C461.58,542.62,461.58,542.62,457.39,549.05Zm2.69-19.44a4.48,4.48,0,0,1-2,4.38.89.89,0,0,1-1.43-.36,5,5,0,0,1,0-5.63c.86-1,1.25-2,2.65-2.08C460.33,526.78,460,528.21,460.08,529.61Zm-3.66-58.33c-.82,1.47.25,3.26-1.5,4.81-2.4-.75-3-2.58-3.63-4.4-.15-1.87.68-3.34,2.43-4.88l1.4-.12C457.09,468,456.77,469.85,456.42,471.28Zm-1.61-32.23c-.89.54-1.9-.32-2-1.25a3.11,3.11,0,0,1,2.07-3.45c.93-.07,1.9.32,1.94.79C457,437,456.68,438.9,454.81,439.05Zm-3.2-40.55c-.93.08-2.79.22-3-2.1-.14-1.87,1.61-3.41,3.44-4,2.25-1.11,2,1.25,2.94,1.65C455.23,396.81,453.94,398.32,451.61,398.5Zm.8-13.66c-.46,0-1-.39-1.43-.35-1.19-3.19-2.85-6.34-4-9.53a3,3,0,0,1,2.5-3.95c2.33-.18,1.55,1.75,1.66,3.15-.67,3.34,2.27,5,2.92,7.27C454.63,383.26,454.28,384.7,452.41,384.84Zm4.64-30.38a1.69,1.69,0,0,1,1.36-.57,1.71,1.71,0,0,1,2,1.72c-.43.5-.89.53-1.83.61S457.12,355.4,457.05,354.46Zm6.53,23.41a2,2,0,0,1-1.61-2.69,1.61,1.61,0,0,1,.39-1,3.15,3.15,0,0,1,2.08,2.65Zm-1.59-44a2.57,2.57,0,0,1-2.08-2.65c.35-1.43.75-2.4,2.14-2.51s2,1.25,2.05,2.18C463.75,332.37,463.39,333.8,462,333.91Zm3.2,4.91c.36-1.44.75-2.41,2.62-2.56,1.47.83,1.11,2.26.72,3.23-.82,1.47,1.34,5.05-2,4.38C463.66,343.16,464.87,340.72,465.19,338.82Z"/><path class="cls-2" d="M543.43,416.54a57,57,0,0,0,31.11,10.26,143.3,143.3,0,0,0,47.75-5.12,42.56,42.56,0,0,0,25.21-19.84c1.63-3.38,1.85-3.94-1-6.14-4.67-4.24-9.08-8.76-14.24-12.41a24.48,24.48,0,0,1-6.38-5.45,3.53,3.53,0,0,0-1,.9c-4.76,8.22-11.39,13.34-21,15.45A66.93,66.93,0,0,1,584.55,396c-6.25-.32-12.31-1.73-17-6.77-4.1-4-5.6-9.3-7.1-14.59-1.46-4.75-1.19-4.78,3.65-5.16l78.77-6.21c1.64.14,2.11-.71,2.25-2.34.29-3.27,0-6.23.34-9.5a168.26,168.26,0,0,0-.64-28.62,87.46,87.46,0,0,0-3.34-18.41c-5.37-16.61-16-27.95-33.39-32.26-4.14-1-8.21-1.24-12-1.75a90.7,90.7,0,0,0-17.09-.55c-8.08.37-15.53,2-23.22,4a52.92,52.92,0,0,0-26.63,15.63c-7.2,8.15-10.47,18.14-12.08,28.55-1.78,11.77-.6,23.31.07,35.16a140.34,140.34,0,0,0,6.81,34.9C527.74,399.38,533.4,409.48,543.43,416.54Zm79.62-16c1.34-.11,1.18,1.26,1.51,2s.13,1.62-.94,1.7c-.79.33-1.12-.45-1.19-1.26S622,401.14,623.05,400.52Zm-5.9,7.5c.56.22,1.12.45,1.16,1,.06.81-.14,1.63-1,1.43-.54,0-.85-.48-.91-1.28C616.39,408.62,616.63,408.33,617.15,408Zm-11.63.1a1,1,0,0,1,1.39.43,4.57,4.57,0,0,1,.64,1.31c-.2.82.13,1.61-.92,2-.54.05-.85-.47-.89-1a3.83,3.83,0,0,1-.67-1.57C605,408.7,605.26,408.14,605.52,408.12Zm-4.88,6.61a2.09,2.09,0,0,1,1,1.82c0,.54-.2.83-1,.89a1.91,1.91,0,0,1-.93-1.55C599.6,415.35,600.08,414.5,600.64,414.73ZM615.37,310c1.47,1.51,2.17,3.61,4.12,4.27-1,1.7-2.23,2.61-3.66,1.64C613.55,314.43,615.29,312.4,615.37,310Zm2.39,9.82c1-.89,1.91.12,2.24.9.37,1.33,1,2.63.36,4.57-1.68-.67-2.32-2-3.21-3C616.28,321.52,617,320.38,617.76,319.78Zm16.45,2.76c.81-.07.87.74,1.18,1.26-.22.56-.45,1.12-.45,1.12-1.07.08-1.43-1-1.49-1.78C633.41,322.6,633.65,322.31,634.21,322.54Zm-9.09-26.07c.23-.56.16-1.36,1.28-.91.56.23.6.76.38,1.32a3.26,3.26,0,0,0,.61,4.28c1.71,1.22,1.3,2.88.36,4.57C627,302.82,623.54,300.39,625.12,296.47Zm2.24,14.71c-1.55.93-2.56,1.82-4,.31C624.61,310.58,625.71,310.77,627.36,311.18Zm-4.65-21.28a3.46,3.46,0,0,1,.52,3.21c-.25.29-.51.31-.82-.21C621.53,292.16,621.45,291.08,622.71,289.9Zm.38,46c-.52.31-1.08.08-1.66-.41-.62-1-1.53-2.31-2.17-3.62a1,1,0,0,1,.43-1.38,1.26,1.26,0,0,1,1.63.14,13.5,13.5,0,0,1,2.45,3.59A1.63,1.63,0,0,1,623.09,335.86Zm-5.71-34.72c2,1.74,1.14,4.24,2.14,6.6-2.51-.89-4.18-1.57-6.13-2.23l-.08-1.07A5.64,5.64,0,0,0,617.38,301.14ZM611.09,290c-.05-.54.49-.58.76-.61a1.38,1.38,0,0,1,1.18,1.26.71.71,0,0,1-.74.87C611.46,291.33,610.88,290.83,611.09,290ZM548,388.59c-.53,0-1.38-.44-1.42-1,.2-.83,1-1.16,2.06-1.25a1.16,1.16,0,0,1,1.16,1A1.81,1.81,0,0,1,548,388.59Zm-3.61-49.23c.44,2.13.82,3.46.41,5.11C542.48,342.76,542.48,342.76,544.37,339.36Zm2.77,38.47a2.82,2.82,0,0,1,1.72,1.22,1.28,1.28,0,0,1-1.24,1.45c-.83-.21-1.39-.43-1.2-1.53C546.37,378.43,546.62,378.14,547.14,377.83Zm7.39,35.4c-1.33.37-1.95-.66-2-2a2.55,2.55,0,0,1,1.11-3.07,2.46,2.46,0,0,1,2.63,2.5C556.33,412,556.14,413.1,554.53,413.23Zm8.32-4.18c2.39,2.79,3.47,6.22,4.31,9.94a1.21,1.21,0,0,1-.68,1.68c-1.06.36-1.91-.12-2-.93C564,416,562.33,412.61,562.85,409.05Zm-1.43-59.4c-.46,1.12-.62,2.49-2.25,2.34-.27,0-.31-.51-.31-.51-.13-1.62.88-2.51,2.76-2.66C561.66,349.36,561.68,349.63,561.42,349.65Zm3.36,4.88c-.54,0-1.35.1-1.41-.7s.72-1.14,1.24-1.45,1.09.18,1.13.72C565.83,354.17,565.31,354.48,564.78,354.53Zm39.8,3.89c-2.65-2.77-2.37-6-3.18-9.49C603.72,350.91,604.84,354.88,604.58,358.42Zm-1-74.85c-.48-2.67,1.7-2.57,3-2.95s1.72,1.22,1.8,2.3A29.61,29.61,0,0,1,609,288c.07.81-.14,1.64-1.23,1.45-1.08.09-2.2-.36-1.77-1.75.21-.83,1-1.7-.41-1.86-.83-.21-.7,1.41-1.8,1.22A15,15,0,0,0,603.54,283.57Zm-10.4,8.66c2.25,1.18,2.67,3,2.57,5.21,0,.54-.2.83-1,1.16a1.16,1.16,0,0,1-1.16-1C592.6,295.79,593.82,294.07,593.14,292.23Zm-2.45-13.87c.54,0,1.34-.11,1.66.41.89,1,2.36,2.52,1.12,4-1.51,1.47-.86,2.77-1.23,5-2.1-2.54-1.77-5.28-2.5-7.65C589.41,279.27,590.17,278.67,590.69,278.36Zm-5.19-.67c1.34-.11,1.69.94,1.78,2a1.92,1.92,0,0,1-1.42,2.55c-1.1-.19-1.43-1-1.52-2.05S584.44,278,585.5,277.69Zm-19.65,15.07c3.12-1.6.54-3.56.14-5.15a1.64,1.64,0,0,1,2.15-.17c1.12.46,1.22,1.8,1.31,2.88.44,2.13-.53,3.55-2.12,3.95a1.4,1.4,0,0,1-1.12-.45A.68.68,0,0,1,565.85,292.76ZM556.17,290c-.46-2.4-1.46-4.76-.57-7.26a4.94,4.94,0,0,1,2.22,4.15c.29,3.77,1.65,7.18,1.12,10.74a9.23,9.23,0,0,0,.56,3.74c.15,1.88.15,1.88-2.74,2.92C558,299.34,556.8,294.56,556.17,290Zm-.92,29.56c1.66-9.87,9.84-15.93,18.69-16.89l10.49-.83c11.35-.09,20.48,6,22.29,18.53.69,5.35,1.63,10.42,1.25,15.86-.53,3.56-.26,3.54-4,3.84l-45.43,3.58c-3,.23-3.23.25-3.46-2.7C554.75,333.68,553.92,326.71,555.25,319.57Zm-6.57,23c.25-.29.81-.06,1.37.16,1.45,1.24,1.26,2.34,0,3.52-.31-.52-.58-.49-.6-.76C548.83,344.42,547.69,343.7,548.68,342.54Zm3.68,63.83a1,1,0,0,1-1.38-.44c-.29-.24-.58-.49-.09-1.07.75-.87.35-2.46,1.88-3.67C554.35,404,554.18,405.41,552.36,406.37Zm-.57-7.26c0,.26-.52.31-.54,0-1.45-1.24.12-1.91,0-3C551.91,397.2,552.53,398.24,551.79,399.11Zm-3.49-27.05a1.15,1.15,0,0,1-1,1.16,1.38,1.38,0,0,1-1.18-1.26c.1-2.17-.09-4.59,1.06-7.12C549.83,367.34,548.14,369.91,548.3,372.06Zm-2.61-36.59c.87.75.37,1.33-.12,1.91a1.31,1.31,0,0,1-2.19-.37,3.31,3.31,0,0,1-.53-3.21C544.2,333.7,544.82,334.73,545.69,335.47Zm-4.54-16.41c1,1.82,0,3.78.42,5.38C540.89,322.6,539.41,321.09,541.15,319.06Zm-9.93-12.74c.53-.05,1.36.16,1.38.43.26,3.22,3.38,5.14,2.61,9-2.64-2.5-3.66-5.12-4.94-7.73C529.93,307.23,530.43,306.65,531.22,306.32Z"/><path class="cls-2" d="M668.38,405.87c8.83,9,19.88,12,31.78,11.83a181.74,181.74,0,0,0,21-1.65c11.22-1.7,21.17-6,28.86-14.72,1-1.17,1.69-2.57,3.8-3.28l.7,8.87c.28,3.5.28,3.5,3.5,3.24l30.92-2.44c1.61-.12,2.38-.73,2.23-2.61a61.79,61.79,0,0,0-1.07-6.68c-1.47-11.78-2.94-23.57-3.87-35.4-1.54-16.11-2.84-32.51-3.84-48.66a137.65,137.65,0,0,0-3.46-23.26c-3.85-14.58-12.23-24.74-26.66-29.28-7.22-2.41-14.58-3.18-22.18-3.39-14.6.07-29.16.67-43.11,5.56-6.57,2.42-12.86,5.07-18.19,9.55-10.4,8.67-13.54,20.28-13.06,33.23a141,141,0,0,0,1.72,15c.88,4.26.05,4,4.62,3.69,5.4-.15,11-.87,16.4-1.29l18.28-1.44-.61-7.8c-.21-2.69-.16-5.4-.1-8.11.46-7.88,5.17-13.39,12.86-15.35a48.1,48.1,0,0,1,16.42-1c6.53.57,11.9,3.4,14,10,3.49,10,4.57,20.2,5.38,30.41.16,2.16-.89,2.51-2.5,2.64-2.69.21-5.13.13-7.82.34-12.91,1-25.58,1.48-38.32,4.65-7.44,1.67-14.6,3.58-21.33,7.36-8,4.42-13.49,10.8-14.94,19.85a66,66,0,0,0,1.61,27.19A31.94,31.94,0,0,0,668.38,405.87ZM761,389.37c-.51.31-1.34.1-1.38-.43-.57-3.75-4.28-6.16-4.06-10.23A1.43,1.43,0,0,1,757,377c.08,1.07-.06,2.71,1.08,3.43,2.59,2,2.31,5.23,3.31,7.58C761.7,388.5,761.49,389.33,761,389.37Zm-4.71-18.57c2.53,1.16,2.41,3.06,2.53,4.67-.18,1.1-.7,1.41-1.5,1.48A26.36,26.36,0,0,0,756.24,370.8Zm-.13-77.08c-.83-.21-1.43-1-1.2-1.53.45-1.12.35-2.47,1.67-2.84.87.74.42,1.86.75,2.65C757.41,293.07,757.21,293.9,756.11,293.72ZM771,399.94c-.81.06-.88-.74-.9-1,0-.54-.37-1.33.73-1.14.53,0,.84.47.91,1.28C771.77,399.61,771.5,399.63,771,399.94Zm.27-6.78c0,.53.11,1.34-.7,1.4-.85-.47-1.43-1-1.25-2.06,0-.54.48-.85,1-.9C771.42,391.79,771.22,392.62,771.26,393.16Zm-.66-8.34a1.23,1.23,0,0,1-.7,1.41c-.8.06-1.12-.45-1.43-1,0-.54-.35-1.06-.12-1.61-.07-.81.12-1.91.9-2.24s1.41.7,1.54,2.31A1.63,1.63,0,0,1,770.6,384.82Zm-5.18-69.12c2.65,2.77,1.32,6.39,2.38,9.56C765.5,323.54,765,323.59,765.42,315.7Zm2.08,16.07a44,44,0,0,0,3.5,10c1.62,3.38,1.42,7.73,1.18,11.53-.37,2.2-1,4.41-.82,6.83.11,1.35-.37,2.2-2,1.79-1.1-.19-2-.66-1-2.36,1.94-2.86,1.72-9.06.93-12.25-.86-4-2.77-7.63-2.86-12.22a12.22,12.22,0,0,0-4.13-7.79C765.53,327.33,766.77,329.39,767.5,331.77Zm-5.5-32a1.16,1.16,0,0,1,1.16,1,1.5,1.5,0,0,1-1.28.92.86.86,0,0,1-.87-.75A1.17,1.17,0,0,1,762,299.74Zm-10.27-17c1.26-1.18.28-3.27,1.56-4.18,1.26-1.19,2.53,1.15,4.14,1,1.07-.08,2.42-.19,2.25,1.18-.43,1.39-1.54.93-2.64.75-1.9-.12-2.94.5-3.33,2.42a1.15,1.15,0,0,1-1.83.69C751.31,284.35,751.23,283.28,751.73,282.7Zm5.2,79.66c1.1.19.91,1.28,1,2.09-.2.83.42,1.86-.59,2.75a1,1,0,0,1-.83-.2,3.07,3.07,0,0,1-1-2.9C755.65,363.28,755.83,362.18,756.93,362.36Zm-6.1-39.55c.79-.34,1.61-.13,1.66.41.06.8-.7,1.41-1.76,1.76-.26,0-.58-.5-.85-.48A1.56,1.56,0,0,1,750.83,322.81Zm.53,27.28a2,2,0,0,1-1,.62,1.54,1.54,0,0,1-1.23-1.8,3.74,3.74,0,0,1,1-.89A3.32,3.32,0,0,1,751.36,350.09ZM742.65,274a1.46,1.46,0,0,1,.91,1.28l-.23.56a1,1,0,0,1-1.15-1C742.15,274.53,742.11,274,742.65,274Zm-63.24,7.69c.07.81-.7,1.41-1.48,1.74-.77.6-1.37-.16-1.68-.68-.62-1-1.51-2-1.08-3.43,1.32-.38,1.72,1.22,3.06,1.11C678.77,280.34,679.62,280.81,679.41,281.64Zm9.16,16.59a1.27,1.27,0,0,1-.14,1.63c-2-1.19-2.41-3.05-2.56-4.93.16-1.37.89-2.51.51-3.83a.72.72,0,0,1,.74-.87c.81-.06.85.47,1.16,1a1.94,1.94,0,0,1-.16,1.36C686.92,294.57,687.61,296.41,688.57,298.23Zm5.66-3.69c-.81.06-1.14-.72-1.21-1.53a1.25,1.25,0,0,1,1.28-.91c.54-.05.61.76.92,1.28C695,293.94,694.77,294.5,694.23,294.54Zm19-9.35a1.85,1.85,0,0,1-2.36,1c-1.39-.43-.64-1.3-.17-2.15.68-1.68.68-1.68.2-4.34a2.6,2.6,0,0,1,2.61,2.22C713.61,283,714,284.32,713.24,285.19ZM698.52,403.76c-.63-1,.43-1.38.94-1.69,1.76-1.77,2.13-4,.92-5.49-2.36-2.52-.65-4.82.51-7.34.31.51.89,1,.66,1.57a35,35,0,0,0,2.33,9c1,2.36.26,3.23-1.89,3.4C700.67,403.59,699.65,404.48,698.52,403.76Zm6.32,8.16c-1.59.4-3.08-1.38-3-3.28-.12-1.62.62-2.49,2-2.59,1.61-.13,3.1,1.65,3.23,3.26C706.93,410.94,706.18,411.81,704.84,411.92Zm1.81-49.11c9.51-2.91,19.18-3.67,28.91-3.9a52.92,52.92,0,0,1,9,.38c1.64.14,2.49.61,2.61,2.22,1.26,9.1-1.73,15.83-9.49,20.23A29.26,29.26,0,0,1,724.44,386c-4.3.34-8.58.94-13.17,1a10.66,10.66,0,0,1-4.08-.22c-6.37-1.94-8.49-4.74-8.77-11.76C697.93,368.91,700.57,364.65,706.65,362.81Zm-13.08-4.65a9.2,9.2,0,0,0,1.47-5.25c0-.54.46-1.12,1-.89.26,0,1.11.45,1.16,1-.08,2.44-.18,4.61-.26,7.05.06.81-.74.87-1.55.93C694.07,361.1,692.58,359.32,693.57,358.16Zm-3.06,43.53c.78-.33,1.09.18,1.14.72.31.52.08,1.08-.46,1.12a1,1,0,0,1-1.16-1C690,402.27,690.24,401.71,690.51,401.69Zm-25-29.14c.95-1.7-.56-3.74.9-5.75a46.73,46.73,0,0,1,4,16.73,32.87,32.87,0,0,0,1.11,7.21,1,1,0,0,1-.43,1.39c-.79.33-1.1-.18-1.41-.7-.64-1.3-1.81-2.29-1.66-3.93.32-2.73-1-5.33-2-7.69S664.06,375.1,665.48,372.55Z"/><path class="cls-2" d="M912.78,307.87c-.8.06-1.3.64-1.22,1.71.07.81.38,1.33,1.46,1.24s1.3-.64,1.25-1.18C914.17,308.3,913.86,307.78,912.78,307.87Z"/><path class="cls-2" d="M894.72,295a45.07,45.07,0,0,1,1.78,8.79l7.16,90.87c.32,4,.32,4,4.36,3.72l31.18-2.46c4-.32,4-.32,3.72-4.35l-6.81-86.31a39.57,39.57,0,0,1-.18-5.66c-.49-9.7-2-19.05-6.26-27.91-3.95-8.89-10-16.53-19.21-20.67A53.44,53.44,0,0,0,890.59,246c-2.73-.32-5.4.16-8.09.37-9.45.21-18.86,1-27.72,5.16-5.21,2.58-10.11,5.67-13.8,10.29-2.48,2.9-3.86,6-6,9.94-.73-5.89-1.68-11-2.35-16-.17-2.16-1-2.9-3.17-2.46l-28.76,2.27c-3.23.25-3.23.25-3,3.75l.08,1.07a273,273,0,0,1,4.76,32.9c2.81,32.24,5.38,64.77,7.95,97.31l1,12.63c-.1,2.17.75,2.65,3.17,2.46l33.07-2.61c2.15-.17,3.19-.8,2.75-2.92a13,13,0,0,1-.26-3.23c-2.16-27.42-4.32-54.85-6.76-82.25a81.73,81.73,0,0,1,.17-11.64c.37-9,4.17-15.75,12.82-19.14a41,41,0,0,1,11.17-2.5c3.47-.55,6.76,0,10.3.27C886.17,282.64,892.16,286.5,894.72,295Zm28.61,88.37c-1.9-.12-2.52-1.15-3-3.28.81-.06,1.07-.09,1.09.18,1.12.46,2.76.6,2.62,2.23A.72.72,0,0,1,923.33,383.32Zm9.78-23.49c-1.72-1.22-2.07-2.27-.3-3.77A3.24,3.24,0,0,1,933.11,359.83Zm-7.39-69.76c1.76,1.76,1.64,3.66.17,5.67C923.22,292.7,923.22,292.7,925.72,290.07ZM920.3,290a1,1,0,0,1-.83-.21c-1.14-.72-.67-1.57-.48-2.66.24-.29.22-.56.45-1.12.31.52.6.76.91,1.28A2.49,2.49,0,0,1,920.3,290Zm-1.86-9.86c1.8,2.29,1.8,2.29.09,4.59A4.63,4.63,0,0,1,918.44,280.1Zm-12.76-17.66c3.38,1.62,4,2.12,3.05,4.36-.64,2.21-2.37,4.24,1,5.87l0,.27c-1.78,1.49-1.16,2.52,0,3.78a9.36,9.36,0,0,1,2,4.45c.89,4.52,3.09,8.41,3.72,13,.39,4.84,1.82,9.32,1.94,14.18-.15,1.64.23,3-1,4.68-1.24,1.45,0,3.51,1.21,5,1.14.73,2,1.74,1.33,3.14-1.86.42-1.74-1.48-2.61-2.22-.58-.5-1.16-1-2-.66-1,.35-.43,1.38-.36,2.19a3.37,3.37,0,0,0,.39,1.59c1.21,1.53,1.83,2.56-.22,4.08-.76.6-.38,1.92.73,2.38.85.47,1.68.67,2.53,1.15,1.41.7,2.44.08,2.31-1.54a5.52,5.52,0,0,0-.17-2.15c0-.53.21-.82.72-1.14a1,1,0,0,1,1.16,1,12.86,12.86,0,0,0,2.17,6.87c0,.53.1,1.34.66,1.57,2.28,1.44,2.39,2.79,0,3.78.67,1.57,2,1.2,2.84,1.67,2,.93,2.07,2.27,1.17,4.51-.46,1.12-.37,2.19-.83,3.31-.2.83-1,.89-1.81,1a1.52,1.52,0,0,1-.92-1.29l-.21-2.68c-.15-1.89-.5-2.94-2.23-.91-1,.89-1.35.11-1.41-.7-.33-.79.16-1.37.63-2.21,2-2.59.41-5.18-.07-7.84,0-.54-.58-.5-1.12-.46a1.24,1.24,0,0,0-.74.87,7.44,7.44,0,0,0-.08,2.44c.08,1.08.71,2.11-.28,3.27a1,1,0,0,1-1.16-1c-.34-.78-.42-1.86-1.5-1.77s-1.5,1.47-1.15,2.52a36.39,36.39,0,0,1,1.69,7.71c.09,1.08.89,1,1.45,1.24,2.21.64,3.69,2.15,5.9,2.78,3.29.56,3.05,4.36,5.1,6.36.29.25-.18,1.1-.7,1.41-.76.6-1.1-.18-1.68-.68-.89-1-.72-2.37-1.37-3.68a2.74,2.74,0,0,0-3.15-2.18c-1.86.41-2.35,1-2.47,2.9a14.35,14.35,0,0,1-.72,4.65c.05.54-.18,1.1-.14,1.64.13,1.61,2.07,2.27,1.68,4.19a5.29,5.29,0,0,0,.32,4c1.16,1,2.07-1.25,3.25,0-.12,1.9-3.14,1.33-3,3.48.42,1.86,2.07,2.27,3.23,3.26.56.23.6.77,1.18,1.26.6.77,1.76,1.76.5,2.94s-1.9-.12-2.52-1.15a1.8,1.8,0,0,0-1.7-.95c-3-.84-4.84-3.14-4.29-6.43.8-3.58-.26-6.74-1.33-9.9-.39-1.59-.77-2.92.47-4.37a3.63,3.63,0,0,0-.34-4.3c-2.71-3.57-2.78-7.89-2.57-12a6.89,6.89,0,0,0-.58-4,15.59,15.59,0,0,1-1.21-5.05c-.91-8-2.64-16.29-3-24.65-.1-1.34-1.55-2.58-1.14-4.23.78-.34,1.07-.09,1.38.43.92,1.28,2,2,3.33,1.09a2.74,2.74,0,0,0,1.36-3.35,23.35,23.35,0,0,1-1.56-6.1,1.44,1.44,0,0,0-1.45-1.24c-1.1-.19-1,.62-1.24,1.45.09,1.07.44,2.13-.84,3-1.18-1.26-1.6-3.12-2-5-.5-2.94.36-5.71-.94-8.58,0-.27-.09-1.08.18-1.1,3.3-2.69.4-5.17-.35-7.82a21.15,21.15,0,0,0-.83-3.72C904.58,269,906.25,266.18,905.68,262.44Zm-5.75-.9c.54,0,1.3-.64,2.17.1.06.8-.72,1.14-1,1.7-.76.6-1.28.91-1.88.14-.29-.24-.58-.49-.6-.76C898.32,261.67,899.39,261.58,899.93,261.54Zm-21.26,1.4c-.65-1.3-1.56-2.58-1.13-4,.17-1.37.58-3,1.88-3.67,1.59-.39,2,1.74,3.44,2.44.45-1.12-1-1.82-.21-2.69,1-.89,1.88-.15,2.75.59a4.08,4.08,0,0,1,1.31,2.87c.35,1.06.68,1.84,1.51,2.05,1.1.18,1.55-.94,1.78-1.49.49-.58.72-1.14,1.52-1.21,2.1,2.54-.09,5.69,2.27,8.21a2.17,2.17,0,0,1-2.56-1.69,3.82,3.82,0,0,1-1.16-1c-3.08,2.14-3.63-1.34-5.32-2.29-2-1.19-3-.84-2.61,1.29.5,2.94-3,3.21-3.36,5.41,0,.53-.78.33-1.07.08a3.7,3.7,0,0,1-.67-1.57C876.65,264.73,879.64,265,878.67,262.94ZM836,326.09a1.82,1.82,0,0,1,1.43,1c.08,1.08-.17,1.37-1,1.7a1.7,1.7,0,0,1-1.72-1.21A1.29,1.29,0,0,1,836,326.09Zm-10.39,60.34c.08,1.08-.12,1.9-1.2,2-.8.06-1.14-.72-1.2-1.53l0-.27c.57-6.54-2.84-11.95-3.33-18.13-.44-5.65-.89-11.29-1-16.69,0-6.77-.5-13.22-2.87-19.26-1.71-4.46-2.09-9.3-3-13.83-1.23-5.31-1.65-10.69-2.61-16-.13-1.61-.82-3.45.67-5.2,2.28,1.45,2.15,3.35,2.3,5.23.47,5.92,2,12,3.06,18.16,1.53,9.08,4.11,17.8,4.85,27.21l.15,1.88c-1.06,7.12,1.1,14,1.38,21a12,12,0,0,0,1.51,5.3C825.66,379.66,825.39,383.2,825.65,386.43Zm-4.46-90.82c-.2-5.93-2.21-10.91-3.18-16.25C821.47,282.06,823.58,291.64,821.19,295.61Zm5.83,43.1c-1.16-1-1-2.09-.87-4.26C827.37,336.25,828.53,337.24,827,338.71ZM826.86,316c-.21.83-.71,1.41-1.53,1.2-.54,0-.87-.74-.65-1.3.15-1.64-.83-3.72.65-5.46C826.83,312.21,827.78,314,826.86,316Zm5.84,50.12c-.78.34-1.12-.45-1.43-1a1.81,1.81,0,0,1,1-1.42c.54-.05.85.47,1.16,1A1.46,1.46,0,0,1,832.7,366.12Zm8.57,12.58a27.71,27.71,0,0,0-3.06-1.11,97.73,97.73,0,0,0-.87-17.78,3.87,3.87,0,0,1-.66-1.57c.23-.56.7-1.41,1.24-1.45,1.05-.36,1.12.45,1.45,1.23,1.21,5.05,2.69,10.07,2.82,15.2C842.34,375.1,842.73,376.7,841.27,378.7ZM840.14,289c-.22.56-.43,1.39-1.23,1.45a1.39,1.39,0,0,1-1.19-1.26c-.75-2.65-1.52-5.56-.14-8.65C839.41,283.09,841,285.67,840.14,289Zm25-26.59c-1.32.38-1.68-.68-1.76-1.75s.68-1.68,1.75-1.76c1.1.18,1.68.68,1.74,1.48A1.7,1.7,0,0,1,865.1,262.39Z"/><path class="cls-2" d="M911.16,290.68a1.23,1.23,0,0,0,1-1.43c-.33-.78-.41-1.86-1.76-1.75-1.07.08-1.28.91-1.19,2C909.5,290.27,910.1,291,911.16,290.68Z"/><path class="cls-2" d="M974.38,389a69.37,69.37,0,0,0,27.12,4.36c5.67-.18,11.13.47,16.77,0,6.46-.51,12.58-1.81,18.72-2.83a57.61,57.61,0,0,0,23.89-9.19c10-6.48,15.53-15.83,16.47-27.81.71-8.17-.44-15.93-2.44-24.16-3.07-11.39-10.09-18.14-21.39-20.76a71.4,71.4,0,0,0-24-1.9c-6.72.53-13.73.81-20.45,1.34a24.93,24.93,0,0,1-6.51-.3c-5-1-9.2-3.33-11-8.6-1.75-5-3.23-10-2.83-15.2.42-8.42,5.35-14.49,13.11-15.64a90.49,90.49,0,0,1,19.09-1.5c7.88.46,14.42,4.54,16.11,12.25a53.72,53.72,0,0,1,.77,13.19c-.08,2.45.24,3,2.39,2.79,10.77-.58,21.5-1.69,32-2.52,1.63.14,2.4-.46,2.52-2.36.67-5.2,1.32-10.66.34-16.26A66.57,66.57,0,0,0,1074,267c-1.57-9.61-5.43-17.43-13.72-23a53.12,53.12,0,0,0-14.55-6.16c-9.4-2.51-18.89-2.84-28.34-2.63a106.21,106.21,0,0,0-41.54,8.41c-15.95,6.94-24.45,19.25-25.54,36.37-.68,12,1.83,23.12,5.92,33.89,6.45,16.54,20.36,24.91,37.66,24.63a184.28,184.28,0,0,0,24.55-.86,47.23,47.23,0,0,1,15.2.7c5.48.92,7.91,4.24,7.53,9.68a11.45,11.45,0,0,1-6.5,10.25c-2.6,1.29-4.94,2.56-7.63,2.77-8.87.7-17.41,2.18-26.12,1.52-9.53-.87-17.92-4.27-24.18-11.62-.6-.76-1.22-1.8-2.59-2-5.9,7.5-11.78,15.27-17.66,23a2.11,2.11,0,0,0,.24,2.95A33.67,33.67,0,0,0,974.38,389Zm81.9-110.61c-1.77-1.75-1.92-3.63-1.57-6.1C1057.57,274.26,1057.7,275.87,1056.28,278.42ZM1052,255c.52-.31.83.21,1.14.73.39,1.59.79,3.18.11,4.86-2-1.2-1.6-3.12-2.24-4.43A1.14,1.14,0,0,1,1052,255Zm-1.52,18.52c1.18,1.26,1,2.62-.24,3.81-1.7-.95-2.07-2.28-1.1-3.71A.76.76,0,0,1,1050.47,273.47Zm-2.4-13.34c.33.79.39,1.59.73,2.38,0,.54-.19,1.1-.15,1.63-.22.56-.72,1.14-1.28.92-.26,0-.82-.21-.84-.48a20.07,20.07,0,0,1-1.64-3.66,1.71,1.71,0,0,1,1.19-2C1046.87,258.6,1047.74,259.35,1048.07,260.13Zm-4.61-10.45c2.56,1.69,2.73,3.84,2.43,6.84A8.55,8.55,0,0,1,1043.46,249.68Zm-7,4.33a3,3,0,0,1,2.37,2.52c0,.54-.46,1.12-1,.89a2.87,2.87,0,0,1-2.35-2.25C1035.19,254.65,1035.71,254.34,1036.49,254Zm-8.12,3.35c-.12,1.9,1.13,4-1.14,6-.55-3.48-.78-6.43-1.82-9.33C1027.06,254.49,1028.47,255.18,1028.37,257.36Zm-5.72-7.4c.93-2,.26-3.53.11-5.42.23-.55.19-1.09,1-1.42a2.24,2.24,0,0,1,1.41.7c.37,1.32,1.31,2.87.34,4.3-1.47,2-.78,3.85-.34,6C1021.56,253.3,1021.29,253.32,1022.65,250Zm-11.06-6.43c1.08-.08,1.41.7,1.47,1.51a7.4,7.4,0,0,1,.46,2.4,5.16,5.16,0,0,0,2,4.17,1.32,1.32,0,0,1,.93,1.55c-.21.83-1,.89-1.8,1.22a1.27,1.27,0,0,1-1.45-1.23,65.71,65.71,0,0,0-2.23-7.67C1010.87,244.67,1010.81,243.86,1011.59,243.53ZM960.3,269a1,1,0,0,1,.65,1.3c-.23.56-.21.83-.75.87a1.46,1.46,0,0,1-.91-1.28C959.25,269.3,959.74,268.72,960.3,269Zm-.53,10.32c.51-.31,1.07-.08,1.65.41a.71.71,0,0,1-.74.87c-.52.31-1.08.09-1.12-.45A1,1,0,0,1,959.77,279.27Zm-2.83,15.64a.71.71,0,0,1-.87-.74.72.72,0,0,1,.74-.87c.54,0,.56.23.63,1A.53.53,0,0,1,956.94,294.91Zm5.26,11.76c-1.33.38-1.43-1-1.76-1.75-.09-1.08.09-2.17,1.44-2.28,1.07-.08,1.16,1,1.24,2.07C962.9,305.27,963.54,306.57,962.2,306.67Zm-2.37-16.31c0-.54.18-1.1.45-1.12.54,0,.85.47.89,1a.71.71,0,0,1-.74.87C960.16,291.14,959.85,290.63,959.83,290.36Zm1.5-5a12.16,12.16,0,0,0-4.14-1c-.56-.22-1.14-.72-.67-1.57.21-.82.68-1.67,1.24-1.45,1.43,1,3.31.82,4.74,1.79a1.64,1.64,0,0,1,.36,1.06C962.65,285,962.18,285.84,961.33,285.37ZM1006,248.3c.51-.31.55.23.84.47,0,.54-.18,1.1-.45,1.12-.54,0-.83-.2-.85-.47C1005.25,248.9,1005.5,248.61,1006,248.3Zm-8.64-3.11a1.49,1.49,0,0,1,1.7.95,2.05,2.05,0,0,1,.62,1c.11,1.34,1,2.35.57,3.74-3-.84-4.22-2.1-4.1-4A2.1,2.1,0,0,1,997.38,245.19Zm-4,7.09c4.11,4,4.11,4,9.44-.48,1.47,1.51-.66,1.95-.87,2.77-.47.85-.1,2.18-.86,2.78-1.32.37-2.48-.62-3.56-.53C993.44,256.87,993.44,256.87,993.34,252.28Zm-15.42,13.66c2.16,3.34,3.44,5.95,2.87,9-.22.56-.43,1.38-1.53,1.2-.53,0-.87-.74-.64-1.3C979,272.08,976.58,269.56,977.92,265.94Zm.48-7.62c1.29,2.61.07,4.33-.59,6.27C976.3,262.55,977,260.6,978.4,258.32Zm4,50.28a1,1,0,0,1,.64,1.3,1.77,1.77,0,0,1-1.26,1.18c-1.88.15-2.77-.86-3.44-2.43C979.84,307.45,981,308.44,982.37,308.6Zm-12.73-55a2,2,0,0,1,2.24.91,5.35,5.35,0,0,1,0,6.23c-1.72-1.22-2.16-3.35-3.09-4.9A1.61,1.61,0,0,1,969.64,253.6Zm3.75,13.23c0,.54-.41,1.66-1,1.43-1.36-.16-1.49-1.77-1.84-2.83-.32-.51.2-.82.72-1.14C972.93,264.44,973.29,265.49,973.39,266.83Zm-7.14,5.44c-1.08.08-1.89.15-2-.93,0-.27.2-.83.47-.85,1.08-.08,1.64.14,2,.93A.56.56,0,0,1,966.25,272.27Zm4.88,34.51c-.51.31-1.38-.43-1.18-1.26a3.12,3.12,0,0,1,1.94-2.86c.52-.31.83.21,1.16,1C972.6,304.77,973,306.36,971.13,306.78Zm.23-10.84c-.27,0-.6-.76-.62-1a1,1,0,0,1,1-1.16c.54,0,.6.76.62,1C972.41,295.59,971.92,296.17,971.36,295.94Zm-.65-4.82c-.29-.24-.29-.24-.31-.51-.34-.79-.69-1.84.34-2.46.25-.3.54,0,.83.2C972.49,289.63,971.74,290.5,970.71,291.12Zm4.29-3.85c-1-2.63-3.6-4.59-3.32-7.86.14-1.63-1.33-3.14-1.75-5a2.4,2.4,0,0,1,1.92-3.12c.83.2,1.39.43,1.16,1-.66,1.94.73,2.37,1.62,3.38a2.07,2.07,0,0,1,.73,2.38c-1.42,2.55-.18,4.61,1.07,6.68l.93,1.55a1.48,1.48,0,0,1-1,1.7C975.9,288.28,975.31,287.78,975,287.27Zm4,33.23c1.26-1.18,2.52-2.36,1.83-4.2,0-.54-.1-1.35.7-1.41.54,0,1.1.18,1.14.72a30.6,30.6,0,0,0,1.39,3.95C982.16,319.71,980.92,321.16,979,320.5Zm5.15,3.65c-.55-.23-1.36-.16-1.42-1a1.15,1.15,0,0,1,1-1.16,1.28,1.28,0,0,1,1.45,1.24C985.21,324.07,984.67,324.11,984.13,324.15Zm-1.2-32.37c-.53,0-1.09-.18-1.13-.72-.07-.81.45-1.12,1.25-1.18a1,1,0,0,1,1.16,1C984,291.7,983.76,292,982.93,291.78Zm.26-27.61a12.07,12.07,0,0,1,.21-7.59c1.54,2.31,1.21,5,1.94,7.42a1.16,1.16,0,0,1-1,1.16A1,1,0,0,1,983.19,264.17Zm2.6,9c-.89-1-.41-1.86.31-3,2-2.05,2.08-4.49,1.31-7.41-.84-3.72-1.13-7.48-2-11.47a6.09,6.09,0,0,1,.74-4.39c.68-1.68,2.31-1.53,3.24,0a4.65,4.65,0,0,1,.8,3.19,11.44,11.44,0,0,0,.53,6.72c.33.79.41,1.86-.66,1.95-1.59.39-2.05,1.51-1.65,3.1.69,1.84.59,4,3.07,4.63.27,0,.81-.06.85.47a19.06,19.06,0,0,1-3.55,3C987.78,270.84,987.38,272.76,985.79,273.16Zm26.53,58.5c-.14,1.64-1.22,1.72-2.56,1.83-4,.32-4.9-.42-4.68-4.5-.07-.81.14-1.63-.69-1.84-2-1.2-1.56-2.58-.59-4a1.84,1.84,0,0,0-.75-2.65c-3.1-1.65-3.09-4.89-3.34-8.12,5.69.09,7.43,1.58,7.33,7.27a67.4,67.4,0,0,0,.58,7.26c.12,1.61.77,2.91,2.65,2.76C1011.88,329.54,1012.49,330.3,1012.32,331.66Zm4.26-.87c-.23.56-.2.83-.74.87-.52.31-.81.06-1.12-.45a5.52,5.52,0,0,1-.73-2.38c-.39-1.59-.25-3.23-1.19-4.78a1.31,1.31,0,0,1,.37-2.19c.79-.33,1.41.7,1.45,1.24.71,2.11,1.42,4.21,1.81,5.81Zm7.06-16.79c1.08-.08,1.41.7,1.5,1.78s-.1,2.17-1.45,2.27c-1.07.09-1.16-1-1.22-1.79C1022.38,315.18,1022.3,314.11,1023.64,314Zm4.06,10.23a6.4,6.4,0,0,0,0,6.23c.26,0,0,.53.06.8a1.81,1.81,0,0,1-1.78,1.5,1.47,1.47,0,0,1-1.45-1.24,15.84,15.84,0,0,0-1.29-6.12,4.11,4.11,0,0,1,.37-2.2,2.31,2.31,0,0,1,2.6-1.28C1027,322.39,1028.15,323.11,1027.7,324.23Zm8.3,2.32c-1.85-2.83-2.48-7.38-.83-10.48C1036,319.79,1037.87,322.89,1036,326.55Zm17.38,24.87a1.8,1.8,0,0,1,.63-2.21c.83.2,1.14.72,1.47,1.5.32.52,1.48,1.51-.09,2.17C1054.35,353.51,1053.73,352.47,1053.38,351.42Zm5,21.79c-1.34.11-1.7-.95-2-2l-.08-1.08c-.09-1.07-.17-2.15.88-2.5s1.68.68,2,1.47a4.71,4.71,0,0,1,.42,1.86C1059.58,371.76,1059.42,373.13,1058.34,373.21Zm-1.11-27.77a1.21,1.21,0,0,1,1-.89c.28.24.84.47.86.74a52.79,52.79,0,0,1,1,6.14C1057.59,350,1057.67,347.57,1057.23,345.44Zm6.84,7.84c1.08-.08,1.14.72,1.19,1.26s.37,1.33-.44,1.39a1.56,1.56,0,0,1-1.74-1.49A1.18,1.18,0,0,1,1064.07,353.28Zm-2.41,3.71c.06.81.15,1.88-1.17,2.26a2.89,2.89,0,0,1,0-3C1061.33,356.2,1061.89,356.43,1061.66,357Zm-13.87-28.39c.14-1.64-.52-3.21,1.32-3.9a4,4,0,0,1,4.13,1c.29.25.31.52.61.77a1,1,0,0,0,1.38.43c.79-.33.75-.87.43-1.39a28.21,28.21,0,0,1-.79-6.7c.8-.06,1.32-.37,1.36.16.5,2.94,1,5.61,1.48,8.54.4,1.6-1.17,2.26-1.62,3.38-.95,1.7-1.18,2.25-2.9,1-.82-.21-1.32.37-1.52,1.2.1,1.34.48,2.67,1.82,2.56,1.9.12,4.08.22,5.52-2.06,1.89,3.37-1.77,5-1.27,7.95a3.4,3.4,0,0,1-2.09-2.54,1.45,1.45,0,1,0-2.63,1c0,.53.38,1.32.42,1.86.4,1.59,1.31,2.87.07,4.32-1.06-3.16-3.15-5.7-3.43-9.2C1049.85,334.11,1047.48,331.6,1047.79,328.6Zm-1.07,44.72c-.23.56-.43,1.38-1.22,1.72-.52.31-.85-.48-.89-1a1.81,1.81,0,0,1,.93-2C1046.07,372,1046.41,372.8,1046.72,373.32Zm-4.62-14c.8-.06,1.14.73,1.2,1.53a14.18,14.18,0,0,1,.55,3.48c.35,1,1,2.62-.58,3-1.61.12-1.72-1.22-1.84-2.83.18-1.1-.44-2.13-.53-3.21C1040.84,360.53,1041,359.43,1042.1,359.34Zm-4.36,3.05c1.88-.15,1.18,1.26,1,2.09-.46,1.12.7,2.11-.27,3.54a3.7,3.7,0,0,1-1.88-3.37C1036.48,363.58,1036.66,362.48,1037.74,362.39Zm-23.19,18.06c1.26-1.18.86-2.77.2-4.34s-.55-3.47-1-5.33a1.36,1.36,0,0,1,1.2-2,1.55,1.55,0,0,1,1.74,1.48,4.61,4.61,0,0,1,.42,1.86c-.31,3,1,5.61.94,8.59-.22.56.36,1,.9,1,.8-.07,1-.62,1.26-1.18a5.3,5.3,0,0,0-.32-4c-.42-1.86-1.13-4-.18-5.66.25-.29.79-.34.81-.07a6.08,6.08,0,0,1,1.48,5c-.33,2.73.85,4,3.69,5.66-3.7,1.1-6.08,1.83-7.19,4.89-.18,1.1-1.24,1.45-2.33,1.27s-1.17-1-1.25-2.07c0-.53-.11-1.34-.4-1.59C1012.3,382.8,1013,381.93,1014.55,380.45Zm-12.37-9.3c.25-.29.47-.85,1-.89a1,1,0,0,1,.56.23c.94,1.55,1.06,3.16,2.24,4.42a2.52,2.52,0,0,1-.2.83c-.54,0-1,.35-1.35.1C1003.33,375.39,1002,372.25,1002.18,371.15Zm.86,7.51c.75-.87,1.55-.94,2.15-.17.63,1-.43,1.38-1.21,1.72a2.59,2.59,0,0,1-2.11.7C1001.49,379.59,1002.55,379.24,1003,378.66Zm-8.51-5a2.2,2.2,0,0,1,1.45,1.23c.5,2.94.49,6.19,1.78,8.79,0,.54.1,1.35-.7,1.41a1,1,0,0,1-1.43-1C995.35,380.62,993.46,377.25,994.53,373.65Zm-5,1.21c.27,0,.31.51.6.76-.23.56-.16,1.37-1,1.16a1.39,1.39,0,0,1-.62-1C988.43,375.21,988.93,374.63,989.49,374.86Zm-8.42-.42c1.07-.09,1.39.43,1.45,1.24-.23.56.13,1.61-.95,1.69-1.05.36-1.41-.69-1.47-1.5A1.23,1.23,0,0,1,981.07,374.44Z"/><path class="cls-2" d="M780.44,503c3.26-.26,5-1.34,4.72-5.53-1.83-17.21-2.72-34.49-4-51.27-.3-3.72-1.81-5-5.5-4.25L527.22,461.5c-7.46.59-7.46.59-6.87,8.05l3.94,49.87c.18,2.33,1.22,3.65,4,3.43l86.22-6.8c2.79-.22,4.27.6,4.49,3.4-.29,2.36.33,4.19.47,6l18.57,235.36c.51,6.52.51,6.52,7,6l61-4.82c5.13-.4,5.09-.87,4.69-6L692.16,519.3c-.81-10.25-1.67-9.24,8.59-10L752,505.2C761.33,504.47,770.62,503.27,780.44,503Zm-199.67,1.21c-1.4.11-2.41-.74-1.59-2.22-.07-.93.86-1,1.83-.61.93-.07,1,1.33,1.58,2.22C582.13,503.6,581.27,504.6,580.77,504.17Zm3.2-30.73c-1.44-.35-2.87-.71-2.55-2.61a2.51,2.51,0,0,1,2.14-2.52c1.87-.14,2,1.72,2.13,3.12C586.22,472.32,585.91,474.23,584,473.44Zm7.84,34.08c-2.55-2.61-3.23-5.37-.66-8.39C595.1,501.64,592.53,504.65,591.81,507.52Zm29.06-12.14c-1.22,2.45-.53,5.2.16,8,.15,1.87.26,3.27-2,4.85a20.8,20.8,0,0,1-1.57-13.95c.71-2.87,1-4.77-2.38-6.37-2.87-.72-3.59-3.94-2.88-6.81a6.41,6.41,0,0,1,4.36-4.1c1.87-.15,3.84,1.11,2.59,3.08-2.11,3-.57,4.73.55,7C621.83,489.68,622.48,492,620.87,495.38Zm39.32,11c.39-1,1.32-1,2.25-1.12.51.43,1.44.36,1,1.33.07.93-.82,1.47-1.76,1.54C660.34,508.21,659.8,507.32,660.19,506.35ZM671.34,618c-2.73-4.95-2.73-4.95-1.2-9.29C672.23,611.38,671.94,613.75,671.34,618ZM653.71,460c3,2.11,3,2.11,1,6.95C653.11,464.23,653,462.37,653.71,460Zm21.56,243.55c1.33-1,1.55,1.76,1.19,3.19-.82,1.47.26,3.27-1,4.77C675.68,708.65,672.62,705.61,675.27,703.52ZM655,511.45a4.48,4.48,0,0,1,1.38,5.52c-2.15,2.51-1.46,5.27-2.57,9.11-2.16-3.58-3.31-6.3-3.57-9.56-.18-2.33.14-4.24,2.4-5.35C653.53,511.1,654.42,510.56,655,511.45Zm3,32.12c-3.09-3.5-2.89-6.8-2.71-10.57C659.71,535.93,659.78,536.86,658,543.57Zm-12.55-52c.4-1,.75-2.4,2.19-2.05s3,2.11,2.55,2.62c-3,4-.81,7.56.45,11.68,0,.47-.79,1.94-1.72,2-1.36.58-1.9-.31-2-1.25-1.15-2.72-.91-5.55-2.45-7.31C644.75,494.91,645.1,493.47,645.42,491.57Zm12.72,179.07c-.93.08-1.47-.82-1.58-2.22.39-1,.79-1.94,1.72-2,1,.39,1,1.33,1.15,2.72C659.47,669.6,660,671,658.14,670.64ZM643,508.18c2,2.18,3.16,4.44,2.45,7.31-.43.5-1.28,1.51-1.75,1.54a2.1,2.1,0,0,1-1.51-1.29A6.56,6.56,0,0,1,643,508.18Zm-2.81,29.76c0-.46.86-1,1.79-1.08a2.42,2.42,0,0,1,1.66,3.15,2.1,2.1,0,0,1-1.29,1.51C640.86,540.7,639.82,539.38,640.17,537.94Zm5.18,83.53c-2.4-.74-2.62-3.54-2-6.88,2.87.71,5.31,1.93,8.65,2.6C649.87,619.24,648.22,622.19,645.35,621.47Zm10.06,62c2.65-2.08,1.49-4.81,2.2-7.68,2.44,1.22,3.06,3,2.67,4-1.89,5.78,1.23,9.75,3,13.84,1.62,2.68,2.74,4.94-.3,8-2.74-4.94-4.08-10-7.67-13.93A3,3,0,0,1,655.41,683.52Zm8,29.85c-.43.5-1.36.58-1.4.11-1.58-2.22-.33-4.19.45-6.13l1,.39C664.49,709.53,665.14,711.83,663.39,713.37Zm7.12,30.86c-2.29.65-2.47-1.68-3-2.58-2.16-3.58-.59-7.45-1.82-11.11a5,5,0,0,0,2.29-.65c1.23,3.66,2.89,6.81,4.11,10.46A4.24,4.24,0,0,1,670.51,744.23ZM659.83,579.06c-1.87.15-3.34-.67-3-2.57-.11-1.4.71-2.87,1.68-2.48,1.44.36,2,2.19,3.06,3A1.71,1.71,0,0,1,659.83,579.06Zm-5.08-10.85a1.32,1.32,0,0,1-2.33.18c-.46,0-.57-1.36-.61-1.82-.08-.93.78-1.94.71-2.87.64-3.8,2.47-4.42,5.87-2.81,1,.39,2.37.28,3,2.11C659.69,565.48,655.93,565.3,654.75,568.21Zm6.49-18.8c.07.93-.82,1.47-1.72,2-1-.86-2-1.72-1.65-3.15-.08-.93.32-1.9,1.25-2C661,546.15,661.56,547.51,661.24,549.41Zm15.76,176c-1.43-.36-1.51-1.29-1.58-2.22a1.49,1.49,0,0,1,1.29-1.51c1.43.36,1.51,1.29,1.58,2.22C677.9,724.89,677.47,725.39,677,725.43Zm-.67-32.31a1.24,1.24,0,0,1-1.29,1.51,2.27,2.27,0,0,1-1.62-2.68c-.07-.94.83-1.48,1.79-1.08C676.14,690.79,676.72,692.16,676.33,693.12Zm.8-31.48c-.43.51-.36,1.44-.79,1.94-.39,1-1.32,1-2.25,1.12-1-.4-1.51-1.29-.69-2.76,1.25-2,1.53-4.35,1.82-6.71.88-6.64-2.79-11.51-3.73-17.53-.84-4.62-2.6-9.17-2.5-13.87.89-.54,1.39-.11,1.43.36C675.57,636,679.36,648.33,677.13,661.64ZM666.55,515.7c-.93.07-2.33.18-2-1.26-.11-1.39.78-1.93,2.22-1.58.89-.54,1,.4,1.47.82A1.72,1.72,0,0,1,666.55,515.7Zm28.91,223.75c-.93.07-1.47-.82-1.58-2.22-.08-.93.32-1.9,1.25-2a2,2,0,0,1,2,1.72C697.25,738.37,696.86,739.34,695.46,739.45Zm-.14-13.59a.87.87,0,0,1-1.39.11c-2-2.18-1.73-4.09.45-6.13C696.89,722,696.58,723.88,695.32,725.86Zm-20.17-196.3c-2.22,1.58-2.83-.25-3-2.11-.19-2.34.67-3.34,3.11-2.13,1,.86,1.91.32,1.79-1.08.43-.5-.07-.93-.61-1.82-4-3-4.49-3.4-1.09-7.89,1.68-2.47-.83-4.62,1.71-8.11,2.95,7.74,1.71,15.81,7.35,21.93C681.32,530.48,678.3,527.9,675.15,529.56Zm10.06-44.88c-.39,1-.86,1-1.36.58-2.44-1.22-1.62-2.69-1.34-5.06C685,481.88,686,482.74,685.21,484.68ZM684,469.3c.22,2.8,1.37,5.52-1.67,8.57C680,472,682.88,467,682,461.49,686.39,464,683.81,467,684,469.3Zm11,32c-.93.08-1.4.11-1.94-.78-.69-2.76-.4-5.13,1.2-8.54,2.59,3.08.91,5.56,2.06,8.28C696.79,500.65,695.42,501.22,695,501.26Zm18.15-31.44c0-.47-.58-1.36-.61-1.83-.62-1.83-.73-3.22-1.41-6C717.51,466.19,717.51,466.19,713.11,469.82ZM722.28,485c-.82,1.47-1.79,1.08-3.22.72-1-.86-1.58-2.22-.73-3.22.79-1.94,1.87-.15,2.84.24A1.7,1.7,0,0,1,722.28,485Zm19.56,10.18a3.48,3.48,0,0,1-3.54,2.62,3,3,0,0,1-2.16-3.58,51.9,51.9,0,0,1,.31-8c.28-2.37.06-5.17-2-6.89-4.06-3.9-2.56-8.7-1.5-13,.75-2.4,1.54-4.34,0-6.56a6.77,6.77,0,0,1,.07-5.16c1.25-2,4-2.2,5.12-.41a4,4,0,0,1,1.62,2.69c-.31,8,4,15.62,3.78,24.09C745.3,485.57,743.34,490.41,741.84,495.22Zm8.86-36.34a1.75,1.75,0,0,0,1.44.36c5.48-1.84,6-1.41,6.28,2.31-.31,8-.3,14.1-.29,20.19.11,1.4-.24,2.83-2.14,2.52-.94.07-1.51-1.29-1.59-2.22l-.51-6.53c-.3-3.73-.59-7.46-4.07-10-.54-.9-1.12-2.26-1.66-3.16C748,460.5,747.4,458.67,750.7,458.88Z"/><path class="cls-2" d="M860.62,656.74c-1.54-16.11-2.83-32.51-3.84-48.66a136.62,136.62,0,0,0-3.45-23.26c-3.86-14.58-12.24-24.74-26.66-29.28-7.22-2.4-14.59-3.18-22.18-3.39-14.6.07-29.16.68-43.12,5.57-6.57,2.41-12.85,5.07-18.18,9.55-10.41,8.66-13.55,20.27-13.07,33.22a140.46,140.46,0,0,0,1.73,15c.87,4.26,0,4.06,4.62,3.7,5.39-.16,11-.87,16.4-1.3l18.28-1.44-.62-7.8c-.21-2.68-.15-5.39-.1-8.1.47-7.89,5.17-13.4,12.86-15.36a48.11,48.11,0,0,1,16.42-1c6.54.57,11.9,3.39,14,10,3.5,10,4.57,20.2,5.38,30.42.17,2.15-.88,2.5-2.5,2.63-2.69.21-5.13.13-7.81.35-12.91,1-25.59,1.47-38.32,4.64-7.45,1.67-14.6,3.59-21.33,7.37-8,4.42-13.49,10.8-14.94,19.84a66.27,66.27,0,0,0,1.6,27.2,31.87,31.87,0,0,0,7,13c8.83,9,19.88,12,31.77,11.83a181.74,181.74,0,0,0,21-1.65c11.23-1.7,21.17-6,28.87-14.72,1-1.16,1.69-2.57,3.8-3.28l.7,8.88c.27,3.49.27,3.49,3.5,3.24l30.92-2.44c1.61-.13,2.37-.73,2.23-2.61a61.4,61.4,0,0,0-1.07-6.68C863,680.36,861.56,668.57,860.62,656.74ZM753.84,575.35c.06.81-.7,1.41-1.49,1.74-.76.61-1.36-.16-1.67-.67-.63-1-1.52-2-1.09-3.44,1.33-.37,1.72,1.22,3.07,1.11C753.19,574.05,754,574.53,753.84,575.35ZM763,592a1.26,1.26,0,0,1-.14,1.63c-2-1.2-2.4-3.06-2.55-4.94.16-1.37.88-2.5.51-3.83a.71.71,0,0,1,.74-.87c.81-.06.85.48,1.16,1a2.1,2.1,0,0,1-.16,1.37C761.35,588.29,762,590.13,763,592Zm5.66-3.7c-.8.07-1.14-.72-1.2-1.53a1.24,1.24,0,0,1,1.28-.91c.54,0,.6.77.91,1.28C769.42,587.65,769.19,588.21,768.65,588.25Zm19-9.34a1.84,1.84,0,0,1-2.35,1c-1.39-.43-.65-1.3-.17-2.15.68-1.67.68-1.67.2-4.34a2.61,2.61,0,0,1,2.61,2.23C788,576.71,788.41,578,787.66,578.91ZM745.51,685.84c-.78.34-1.1-.18-1.41-.7-.64-1.3-1.8-2.29-1.66-3.92.33-2.74-1-5.34-2-7.69s-2-4.72-.57-7.26c1-1.7-.57-3.75.9-5.75a46.41,46.41,0,0,1,4,16.72,33.05,33.05,0,0,0,1.11,7.22A1,1,0,0,1,745.51,685.84Zm20.11,11.4a1,1,0,0,1-1.16-1c0-.27.2-.83.47-.85.79-.33,1.1.19,1.14.72C766.38,696.64,766.16,697.2,765.62,697.24ZM768,651.88a9.19,9.19,0,0,0,1.48-5.26c0-.54.45-1.12,1-.89.27,0,1.12.45,1.16,1-.08,2.44-.17,4.61-.25,7,.06.81-.75.87-1.55.94C768.49,654.81,767,653,768,651.88Zm5,45.6c-.62-1,.43-1.39.95-1.7,1.75-1.76,2.12-4,.92-5.48-2.36-2.52-.65-4.82.5-7.35.31.52.89,1,.67,1.57a34.29,34.29,0,0,0,2.33,9c1,2.35.25,3.22-1.89,3.39C775.09,697.31,774.08,698.2,772.94,697.48Zm6.32,8.15c-1.59.4-3.08-1.38-3-3.28-.13-1.61.62-2.48,2-2.59,1.61-.13,3.11,1.65,3.23,3.26C781.35,704.66,780.61,705.53,779.26,705.63Zm32.79-30.18a29.22,29.22,0,0,1-13.19,4.29c-4.3.34-8.58,1-13.17,1a10.41,10.41,0,0,1-4.07-.22c-6.38-1.93-8.49-4.74-8.78-11.75-.48-6.18,2.15-10.45,8.23-12.28,9.51-2.92,19.19-3.68,28.91-3.91a53,53,0,0,1,9,.38c1.63.14,2.48.61,2.61,2.23C822.81,664.33,819.82,671.05,812.05,675.45Zm27.8-66c2.65,2.76,1.31,6.39,2.37,9.55C839.92,617.26,839.39,617.3,839.85,609.42Zm-3.43-16a1.15,1.15,0,0,1,1.16,1,1.48,1.48,0,0,1-1.28.91.87.87,0,0,1-.87-.74A1.16,1.16,0,0,1,836.42,593.46Zm-5.07,62.62c1.1.18.92,1.28,1,2.08-.21.83.42,1.86-.59,2.76a1,1,0,0,1-.83-.21,3,3,0,0,1-1-2.89C830.07,657,830.26,655.89,831.35,656.08Zm1.85,13.11c-.18,1.09-.7,1.41-1.51,1.47a26.75,26.75,0,0,0-1-6.14C833.19,665.67,833.07,667.57,833.2,669.19ZM816.6,568.51c0-.27-.06-.81.47-.85a1.5,1.5,0,0,1,.92,1.28l-.23.56A1,1,0,0,1,816.6,568.51Zm8.15,75.91a1.53,1.53,0,0,1-1.22-1.79,3.83,3.83,0,0,1,1-.89,3.35,3.35,0,0,1,1.25,2.06A2.05,2.05,0,0,1,824.75,644.42Zm-.44-26.2a1.54,1.54,0,0,1,1-1.7c.78-.33,1.61-.13,1.65.41.07.81-.7,1.41-1.75,1.76C824.89,618.71,824.58,618.2,824.31,618.22Zm11.07,64.86c-.52.31-1.35.11-1.39-.43-.56-3.74-4.27-6.15-4-10.23a1.43,1.43,0,0,1,1.48-1.74c.09,1.08,0,2.71,1.09,3.43,2.59,2,2.3,5.23,3.3,7.58C836.12,682.21,835.92,683,835.38,683.08Zm-4.84-95.65c-.83-.21-1.43-1-1.21-1.53.46-1.12.35-2.46,1.67-2.84.87.75.42,1.86.75,2.65C831.84,586.79,831.63,587.61,830.54,587.43Zm.93-12.25c-1.91-.12-2.94.5-3.33,2.43a1.16,1.16,0,0,1-1.84.68c-.56-.22-.64-1.3-.15-1.88,1.26-1.18.29-3.27,1.57-4.18,1.26-1.18,2.52,1.15,4.13,1,1.08-.09,2.42-.19,2.26,1.17C833.68,575.82,832.56,575.37,831.47,575.18Zm13.94,118.47c-.81.07-.87-.74-.89-1,0-.54-.38-1.32.72-1.14.54,0,.85.48.91,1.28C846.19,693.32,845.93,693.34,845.41,693.65Zm.28-6.78c0,.54.1,1.34-.7,1.41-.85-.48-1.43-1-1.25-2.07,0-.54.47-.85,1-.89C845.85,685.5,845.64,686.33,845.69,686.87Zm-.66-8.34a1.25,1.25,0,0,1-.7,1.41c-.81.06-1.12-.45-1.43-1,0-.53-.35-1.05-.13-1.61-.06-.81.12-1.9.91-2.24s1.41.7,1.53,2.32A1.59,1.59,0,0,1,845,678.53ZM846.6,647a27.14,27.14,0,0,0-.81,6.83c.1,1.34-.37,2.19-2,1.78-1.09-.19-1.94-.66-1-2.36,1.94-2.86,1.72-9.06.92-12.24-.85-4-2.76-7.63-2.85-12.22A12.21,12.21,0,0,0,836.7,621c3.25,0,4.5,2.08,5.23,4.45a43.83,43.83,0,0,0,3.49,10C847,638.88,846.84,643.22,846.6,647Z"/><path class="cls-2" d="M903.24,519.31a8.51,8.51,0,0,1,.65-1c.23-.56.7-1.41.41-1.65-1.16-1.32-.84-2.75-.66-4a8.73,8.73,0,0,0-1.12,3.13A4.75,4.75,0,0,0,903.24,519.31Z"/><path class="cls-2" d="M949.26,669.23c-.46-2.4-.63-4.55-1.09-7-.37-1.32-1-2.35-3.08-1.38-3.87,2.47-8.15,3.08-12.74,3.17-5.69-.09-10.51-3-11.52-8.83-.5-2.94-1-5.6-1.21-8.56L902.33,435.61c-.3-3.76-.3-3.76-4.06-3.46l-29.84,2.35c-5.38.42-5.15-.13-4.73,5.24l12.24,147.08c2.18,27.69,4.35,55.12,6.8,82.79.79,9.94,5,18.54,13.55,24.36,5.74,4.14,12.34,5.52,19.42,6a77.8,77.8,0,0,0,13.73-.81,62.08,62.08,0,0,0,20.36-5.94c3.39-1.62,3.39-1.62,2.85-5.09C951.6,681.76,950.31,675.64,949.26,669.23ZM907.14,557c0,.54-.46,1.12-1,.89a1.68,1.68,0,0,1-1.51-2,1.44,1.44,0,1,1,2.53,1.16Zm-1.67,37.19c.33.79-.45,1.12-1.26,1.18-.54.05-1.08.09-1.41-.7a1,1,0,0,1,1-1.16A1.21,1.21,0,0,1,905.47,594.23Zm-5.22-53.56c-2-4.71-1.28-9.37,1.36-13.64C901.43,531.65,902.06,536.2,900.25,540.67ZM906,600.41c0-.53.14-1.63.95-1.69,1.07-.09,1.16,1,1.2,1.52.06.81-.14,1.64-1,1.7A1.18,1.18,0,0,1,906,600.41Zm-9.47-131.32c1.89-.15,2.06,2,2.43,3.33a2,2,0,0,1-1.69,2.57c-1.61.12-2.5-.89-2.65-2.77C894.47,470.88,894.59,469,896.49,469.09ZM894.89,483a4.1,4.1,0,0,1,1.62-3.38c.23-.56.17-1.36,1-.89.83.21.6.76.37,1.32a16.45,16.45,0,0,1,0,3.52,1.26,1.26,0,0,1-1.51,1.47A1.66,1.66,0,0,1,894.89,483Zm3.1,11.92a6.47,6.47,0,0,1-2.26-4.69c-.06-.8.1-2.17,1.46-2,1.1.19,1.43,1,1.25,2.07.13,1.61-.84,3-.45,4.63,1,5.61-.74,11.16-.3,16.8.07.81-.14,1.64-1.23,1.45-.81.07-.87-.74-.94-1.55,0-4.05.44-8.15.12-12.18C895.25,497.87,895,495.18,898,494.94Zm1.06,62.47c-2.07-2.28-2.76-4.12-1.63-6.91C898.69,552.84,899.62,554.38,899.05,557.41Zm-7.24-92.82c1.43,1,2.05,2,1.33,3.15l-.81.06C891.2,467.08,891.11,466,891.81,464.59Zm-.25,7.06a.79.79,0,0,0,.56.22,3,3,0,0,1,1,2.36l-.51.31c-.83-.2-.89-1-1.21-1.53A3.58,3.58,0,0,1,891.56,471.65Zm-.16,4.88c.27,0,1.59-.4,1.74,1.48.11,1.35-1.22,1.72-2.27,2.08-1.34.1-2-.93-2.07-2.27S889.79,476.66,891.4,476.53Zm-10.26-20.29c-.12-1.62,0-3.52,1.26-4.7a5.93,5.93,0,0,0,1.29-4.16,4.24,4.24,0,0,1,1.32-3.89c1.45,4.75,1,8.85.48,12.94-.12,1.91-2,2.06-3.06,2.41C881.36,458.92,881,457.33,881.14,456.24Zm15.51,122.18c.33.79.1,1.35-.66,2-.52.31-.83-.2-.87-.74a2.06,2.06,0,0,1,.43-1.39C895.8,578,896.63,578.16,896.65,578.42Zm-13.3-114.78a1.44,1.44,0,0,1-1.45-1.24,1.23,1.23,0,0,1,1-1.43c.8-.06,1.92.39,2,1.2C884.9,462.7,884.14,463.3,883.35,463.64Zm6.35,64.48a.71.71,0,0,1-.74.87c-.27,0-.83-.21-.85-.48a.8.8,0,0,1,.72-1.14A.86.86,0,0,1,889.7,528.12Zm-1.43,19.59c-2-1.47-2.11-2.81-1.7-4.47C888.54,544.17,888.1,545.55,888.27,547.71Zm-12.78-19.07c-1.21-5-.24-10,.7-15.2.55-3.29.49-4.1-3.16-5.7a9,9,0,0,0,2.39-4c1.3-4.16,1-8.19.64-12.5-.54-3.47-.55-7-1.36-10.44-.8-3.18,1.93-6.37-.75-9.41-.31-.51.46-1.12,1-1.43a2,2,0,0,0-.27-3.49c-.87-.74-1.74-1.49-1.31-2.87.78-3.85,1.53-8,2.31-11.82.19-1.1.66-1.95,2-1.78,1.12.45,1.2,1.53,1.28,2.6a2.81,2.81,0,0,1-1.46,2c-1.57.67-1.47,2-1.61,3.64-.1,2.18-.49,4.1,1.28,5.86.87.74.43,2.13.54,3.47-.67,5.19.31,10.79-.07,16.24-.63,5.73.62,11.31,1.87,16.89.09,1.08.71,2.11.24,3a8.94,8.94,0,0,0-.53,7.07,3.68,3.68,0,0,1,.08,1.88,3.53,3.53,0,0,1,1.25-1.12,1.14,1.14,0,0,1,1.68.68c.93,1.55,3.19,2.73,1.5,5.29a6.44,6.44,0,0,0-.76,4.12,4.24,4.24,0,0,1-1.32,3.89c-.71-2.1-.87-4.26-2.64-6a1.74,1.74,0,0,1-.11-.18,8.5,8.5,0,0,0-.89,7c.4,1.59.24,3-1.62,3.37C876.09,529.41,875.78,528.89,875.49,528.64ZM892.37,634a.84.84,0,0,0,.52-.31,3.55,3.55,0,0,1,.37,1.32c-.22.56-.16,1.37-1,1.7l-.55-.23A3,3,0,0,1,892.37,634ZM890.71,630c-.89-1-.44-2.13.82-3.31.91,1.28,1,2.36,0,3.25Zm-10.45-53.55c0-.54-.39-1.59.68-1.67.79-.34,1.12.45,1.45,1.23.36,1.06.46,2.4.84,3.72-.19,1.1.79,3.19-.82,3.32-2.16.17-2.06-2-1.62-3.39C881.24,578.56,880.62,577.53,880.26,576.47Zm1.33,13.42c1.7,1,3.36,1.36,2.68,3-.21.83-1,1.43-1.53,1.2C880.79,593.47,881.74,591.77,881.59,589.89Zm4.15,45.67c.16-1.37,0-3.52,1.87-3.67,1.86-.42,2.28,1.44,2.39,2.79.14,1.88-.58,3-2.19,3.15A2,2,0,0,1,885.74,635.56Zm2.36,6c.77-.6.83.21,1.14.72a4.12,4.12,0,0,1,2.14,3.08,1.68,1.68,0,0,1-1.17,2.26,1.26,1.26,0,0,1-1.72-1.22,16.61,16.61,0,0,1-.55-3.48C887.63,642.44,887.32,641.92,888.1,641.59Zm6.46,33.85c-1,.35-1.38-.43-1.45-1.24-.44-5.65-3-10.85-2.93-16.54.15-1.64-1-2.9-1.16-4.51-.36-1-.15-1.88.9-2.24,1.33-.37,1.7,1,1.76,1.76a6.49,6.49,0,0,1-1.5,5c3-.24,3.17,2.45,3,4.09.32,4,1.45,8,2,12C895.3,674.57,895.37,675.37,894.56,675.44Zm.33-33.57c-1.1-.19-2.46-.35-2.57-1.69-.15-1.89,1.22-1.72,1.49-1.74,1.61-.13,2.66-.49,2.77.86S896.23,641.76,894.89,641.87Zm-6.72-92a15,15,0,0,0,3.53,3.51,1.65,1.65,0,0,1,.41,1.86c-.47.85-1.3.64-2.1.7C886.43,555.16,886.05,553.83,888.17,549.88Zm6.54,52a4.56,4.56,0,0,1-.3-3.76C895.86,599.32,896.21,600.37,894.71,601.84Zm5,22.6c-.83-.2-1.68-.68-1.72-1.22-.07-.8,1-1.42,1.77-1.49A1.24,1.24,0,0,1,901,623,1.45,1.45,0,0,1,899.74,624.44Zm.15-4.88c-1.09-.18-3,0-3.39-1.9-1.13-4-2.25-7.93-1.56-12.86a4.23,4.23,0,0,1,1.91,3.64,6,6,0,0,0,1.93,3.9c1.43,1,1.85,2.83,2,4.45C901.11,617.84,901,619.47,899.89,619.56Zm-3.32-49c-1.18-1.26-.69-1.84-.75-2.65s-.44-2.13.89-2.5,2.87-1.31,4.26-.88a.57.57,0,0,1,.57.49c.05.54-.18,1.1-.45,1.12C898.69,566.63,897.75,568.33,896.57,570.59Zm18,101.91c1.75,5,3.47,9.74,3.07,14.91-.25.29-.47.85-.72,1.14-1.91-.12-2.28-1.44-2.14-3.08a8.32,8.32,0,0,0-2.76-7.63c-.32-.51-.92-1.28-.67-1.57,1.44-2.27-.61-4.28-.2-5.93a9,9,0,0,0-1.62-6.91c-.61-.76-.15-1.88-.24-2.95.36-5.72.73-11.42-.8-17-1.23-5.31-1.13-11-2.61-16-.11-1.34-.75-2.65,0-3.52,1.47-2,.78-3.84.34-6-.39-1.6-.5-2.94-2.16-3.35a2.87,2.87,0,0,1-1.76-1.76c-.08-1.07-.17-2.15.87-2.77,1.32-.38,1.92.39,2.27,1.44,1.38,3.68,2.77,7.63,4.14,11.31.65,1.3-.1,2.17-.84,3a2,2,0,0,0,.27,3.5c.56.22,1.41.7,1.19,1.26-2.17,3.41,1,6.14.74,9.41-.26,3.53.28,7,.29,10.52.34,4.31.66,8.34,2.59,12.24a8.86,8.86,0,0,0,3,3.56C913.5,668.53,913.56,669.34,914.62,672.5ZM926,682.7c-2.49-4.13-2.58-8.72-3.47-13.25C925.77,673.25,927.21,677.73,926,682.7Z"/><path class="cls-2" d="M1094.94,681.27l-.93-1.55c-6.83-7.58-12.88-15.75-19.2-23.91-8.71-10.95-17.44-22.16-26.42-33.09-2.7-3.3-2.7-3.3-.24-6.47,7.55-10.6,14.83-21.19,21.82-32a75.91,75.91,0,0,0,11.22-46.33c-.36-4.57-.36-4.57-4.93-4.21-9.7.49-19.38,1.26-29,2-6.73.53-6.73.53-6.71,7.56a53.65,53.65,0,0,1-5.73,23.45c-6.51,13.5-15,25.8-23.21,38.35a3.64,3.64,0,0,1-3.12,1.6l-9.41.74c-6.45.51-5.59,1.25-6.12-5.47L979.3,429.34c-.32-4-.32-4-4.35-3.72l-31.46,2.48c-4.3.34-4,0-3.69,4.62L960.1,690c.31,4,.31,4,4.35,3.71l31.72-2.5c3.76-.3,3.76-.3,3.47-4.06l-3.54-44.9c-.4-1.59.63-2.22,2-2.32l12.9-1a3.39,3.39,0,0,1,3.09,1.38c3.65,5.12,7.82,9.93,11.47,15.06,7.79,9.66,15.32,19.35,22.85,29a5.3,5.3,0,0,0,5.32,2.29l40-3.16C1095.38,683.4,1095.58,682.57,1094.94,681.27ZM964.49,440.93c.77,2.91,2.2,3.88,4.35,3.71,1.07-.09,1.67.68,1.49,1.78-.16,1.36-1,.89-1.84.68C963.61,447,962.74,446.2,964.49,440.93Zm-12.07-5.55c1.07-.08,2,1.47,3.31.83s.9-2.24,2.18-3.15c1.07,3.16,2.37,6,.72,9.14-1.42-1-1-2.9-2.2-3.89-.87-.74-2.48-.61-2.37.73.17,2.15-1.88,3.67-1.44,5.8C949.66,441.55,951,438.47,952.42,435.38Zm10.35,79.4c.07.8.65,1.3,1.74,1.48,1.39.43,2.65-.75,5.11-.4a5.56,5.56,0,0,0-2.28,5.32c0,.54-.46,1.12-1,.89-.81.06-1.66-.41-1.46-1.24,1.16-2.52-.21-2.69-1.88-3.37-2.53-1.15-3.18-6-1.43-7.73a.27.27,0,0,0,.25-.29c1-1.16,3.07,1.11,3.72-.83.46-1.12-.19-2.42.8-3.58a1.64,1.64,0,0,1,1.06-.36c.29.25.6.77.89,1a5.09,5.09,0,0,1-2.51,5.88c-.52.31-1.57.67-2.09,1C962.62,512.89,962.42,513.72,962.77,514.78ZM976,521c-1.63-.14-1.72-1.22-2.05-2-.9-4.52-2.07-9-3-13.56-.36-1.05.08-2.44.24-3.8a1.49,1.49,0,0,1,1.28-.92,1.28,1.28,0,0,1,1.45,1.24C973.1,508.55,975.47,514.59,976,521Zm0,24.07a1.36,1.36,0,0,1,1.49,1.78c-.16,1.36-1,.89-1.84.69-4.88-.16-5.75-.9-4-6.18C972.41,544.31,973.84,545.28,976,545.11Zm-12.65,55.65c.35,1-.71,1.41-1.49,1.74a1.55,1.55,0,0,1-1.74-1.49c-.15-1.88.82-3.31,1.52-4.72.81-.06,1.55-.93,2.15-.17.58.5.64,1.31-.14,1.64A2.19,2.19,0,0,0,963.34,600.76Zm-4.28-6.16s.23-.56.5-.58c1.34-.1.93,1.55,1.78,2C960.26,596.13,959.17,596,959.06,594.6Zm10.24,64.66c1.39.43,1.74,1.49,1.33,3.14C969.2,661.43,968.87,660.65,969.3,659.26ZM968,632c-.29-.24-.85-.47-.89-1,0-.27.76-.6,1-.62s.58.49.87.74C969,631.69,968.77,632,968,632Zm-5.11-71.55c-1.24-2.07-1-2.63,2-5.84.44,2.13,1.66,3.93.46,5.91C964.31,561.72,963.51,561.79,962.86,560.49Zm2-12.33c2.27,1.44.77,2.91.63,4.54C963,551.28,965,549.5,964.87,548.16Zm-1.28-9.37c-.87-.75-2.49-.62-2.38.73.17,2.15-1.88,3.66-1.44,5.79-3-3.28-1.58-6.37-.2-9.45,1.07-.09,2,1.46,3.31.82s.9-2.24,2.18-3.15c1.07,3.16,2.37,6,.73,9.14C964.36,541.7,964.75,539.78,963.59,538.79Zm-8.19-18c-1.56-2.58-1.15-4.24-.51-6.45C956.47,517.17,956.47,517.17,955.4,520.77Zm3.11,5.16c2.08,2.27,3.1,4.9.64,8.07C958.92,531,957.38,528.73,958.51,525.93Zm3.34-19.47c-2-1.46-2.92-2.74-2-5,.21-.83.39-1.92,1.76-1.76a2.26,2.26,0,0,1,1.78,2C963.5,503.36,962.8,504.76,961.85,506.46ZM955.71,460c-1.24-2.06-1-2.62,2-5.83.44,2.13,1.66,3.92.46,5.91C957.16,461.25,956.36,461.31,955.71,460Zm2-12.33c2.28,1.44.78,2.92.63,4.55C955.8,450.81,957.82,449,957.71,447.68Zm-8.1,34.46c.62-2.49,3.14-1.33,4.67-2.54.25-.29.85.48,1.16,1,.07.81-.12,1.91-.66,2-3.31-.82-2,2.59-3.24,3.5a.81.81,0,0,0-.51.31C949.84,485.09,948.69,484.1,949.61,482.14Zm7.15,100.47c.62-2.48,3.15-1.33,4.67-2.53.25-.29.85.47,1.16,1,.07.8-.12,1.9-.65,1.94-3.32-.82-2,2.59-3.25,3.51a.81.81,0,0,0-.51.31C957,585.57,955.84,584.58,956.76,582.61Zm3.94,56.77c.18-1.1-.79-3.18,1.07-3.6,1.59-.4,1.51,2,2.13,3.08,1.83,2.56-.38,5.44.64,8.06,1,2.36,3.07,4.63,1.4,7.47-.45,1.11,1,2.62-.17,4.61-.86-4-1.94-7.42-2.78-11.14C962.49,644.92,959.88,642.69,960.7,639.38ZM966,662c2,1.46,1.89,3.36,1.5,5.29C966.56,665.7,965.63,664.15,966,662Zm6.57,18.15c-1.57.66-3.52,0-3.64-1.61-.21-2.69-1.23-5.31-.39-8.36.77,2.92,3.09,4.9,4.36,7.23C973.5,678.14,974.14,679.44,972.57,680.11Zm7.76,2.36c-.16,1.36-.93,2-2,1.51-1.37-.16-1.16-1-.69-1.84,1-1.16.64-2.21.28-3.27a1.83,1.83,0,0,1,1.16-2.52A12.81,12.81,0,0,1,980.33,682.47Zm6.77,0c-.48.85-.93,2-2,1.79-1.36-.17-1.47-1.51-1.56-2.58.33-2.74-.91-4.8-1.37-7.2-.17-2.15-1.13-4-4-2.93-.52.31-1.33.38-1.64-.14-1.58-2.85-3.1-1.65-5.06.94.22-4.07,2-5.3,4.54-4.15,4.2,1.84,4.47,1.82,4.65-2.8-.05-.53.2-.82.41-1.65,2.28,1.44.36,4.57,2.88,5.72,1.6-.39.62-2.48,2.46-3.17,1.31,2.87,1.56,6.1,2.09,9.31A8.68,8.68,0,0,1,987.1,682.47Zm-15.81-83.69c1.1.18,2.22.63,2.3,1.71l.66,8.33c-5.43-3.63-7.53-9.68-5.76-14.69,1.12.45.67,1.57.73,2.38C969.6,597.83,970,598.88,971.29,598.78Zm13.54,58.45c-1.43-1-1.53-2.32-1.64-3.66C986.23,654.41,986.23,654.41,984.83,657.23Zm2,1.46c.23,3,.23,3-1.52,4.72C984.36,661.59,985.65,660.68,986.84,658.69Zm-3.69-15.94c-.5.58-1.32.37-1.9-.12-1.21-1.53-2.14-3.08-1.53-5.56,1.48,1.5,2.64,2.49,3.82,3.75C984.12,641.32,983.91,642.15,983.15,642.75Zm-2.8-35.49c-1-2.35-3.32-4.34-1.71-8C980.48,602.11,980.16,604.84,980.35,607.26Zm.4,25.67c.36,1.05-.41,1.65-1.17,2.26a55,55,0,0,1-2.93-6.27A7.06,7.06,0,0,1,980.75,632.93ZM976.22,620c-.52.31-.83-.2-.87-.74s-.11-1.35.43-1.39c.78-.33,1.09.18,1.14.72C977,619.43,977,620,976.22,620Zm1.48,25.58c1.08,3.44,2.7,6.82,1.92,10.67-3-6.53-3.28-14.08-5.44-20.94C977.62,637.78,976.86,641.89,977.7,645.61ZM971,628.83c-.85-.47.26-3.54,1.32-3.89a1.23,1.23,0,0,1,1.42,1c.44,2.13,1.15,4.24.83,7C972.81,631.66,972.39,629.8,971,628.83Zm13.81-13.53c-.22.56-.47.85-1,.62-.27,0-.56-.23-.6-.76.22-.56.49-.58,1-.63C984.44,614.51,985,614.74,984.77,615.3Zm-3.16-29.78c-.83-.21-1.88.15-2-.93a2.06,2.06,0,0,1,1.4-2.81c1.35-.11,1.45,1.23,1.77,1.75C983.18,584.85,982.69,585.44,981.61,585.52Zm7,54.1c1.45,1.23,1.81,2.29.3,3.76A3.77,3.77,0,0,1,988.58,639.62Zm-2.24-35.27c1.39.43.67,1.57.48,2.67A3.22,3.22,0,0,1,986.34,604.35Zm4.95,45.6c-2-.93-1.8-2.29-1.43-4.48C990.79,647,991.68,648,991.29,650Zm-5.92-58a1.28,1.28,0,0,1-1.45-1.24,1.46,1.46,0,0,1,1.77-1.49,1.8,1.8,0,0,1,1.2,1.52A1.48,1.48,0,0,1,985.37,592Zm-1.11-17.5c-2.61,1.29-4.88,3.36-8.25,1.73-1.1-.18-2.92.77-4.24,1.15-1.55.93-1.42,2.54-.78,3.85,1.66,3.92,2,8,2,12.28.09,1.07.44,2.13-.57,3-2-.93-1.83-2.56-1.71-4.46.16-4.89-1.57-9.62-2.78-14.66-.06-.81-1.22-1.8-1-2.63.36-2.19-3.92-1.58-1.93-3.9.72-1.14,2-1.79,3-3.22.91,1.28,1.8,2.3,1.62,3.39-.87,2.78.79,3.19,3,3.29,2.71,0,5.73.63,8-1.72.5-.58,1.57-.66,2.36-1a1.81,1.81,0,0,1,2.52,1.15C985.83,573.83,985,574.16,984.26,574.49Zm-.08-18.12c0,.27,0,.54-.23.56l-4.71,2c-.76.61-1.92-.38-2.52-1.15.94-1.7,2.58-1.56,3.65-1.64,1.59-.4,2.63-1,1.16-2.53-.62-1-.94-1.55.39-1.92.78-.33,1.86-.42,1.94.66A20.17,20.17,0,0,1,984.18,556.37Zm-2.73-20.88a1.9,1.9,0,0,1-2.07-2.28,2.07,2.07,0,0,1,1.71-2.29c1.63.14,1.2,1.52,1.54,2.31C982.42,534.06,982.8,535.38,981.45,535.49ZM977.11,474c-2.61,1.28-4.88,3.36-8.25,1.73-1.1-.18-2.92.77-4.24,1.14-1.55.94-1.42,2.55-.78,3.85,1.66,3.93,2,8,2,12.29.09,1.07.44,2.12-.57,3-2-.93-1.83-2.57-1.71-4.47.16-4.88-1.57-9.61-2.78-14.66-.06-.8-1.22-1.8-1-2.62.37-2.2-3.91-1.59-1.93-3.91.72-1.14,2-1.78,3-3.21.91,1.28,1.8,2.29,1.62,3.39-.87,2.77.79,3.18,3,3.28,2.71.06,5.73.63,8-1.71.5-.58,1.57-.66,2.36-1a1.82,1.82,0,0,1,2.52,1.16C978.68,473.35,977.89,473.68,977.11,474ZM977,455.9c0,.27,0,.53-.23.55l-4.71,2c-.76.6-1.92-.39-2.52-1.15.94-1.7,2.58-1.56,3.65-1.64,1.59-.4,2.63-1,1.16-2.53-.63-1-.94-1.55.39-1.93.78-.33,1.86-.41,1.94.66A20.27,20.27,0,0,1,977,455.9Zm15,162.61c-1-2.09-2.22-4.15-1.11-7.22,1.53,2.32.9,4.53,2.88,5.73.85.47,1.45,1.24.44,2.13A1.42,1.42,0,0,1,992.06,618.51Zm4.53,12.9a1.48,1.48,0,0,1-1.2-1.53c-.42-1.86-.3-3.76-2-5.25-.6-.76-.1-1.34.66-2a1.09,1.09,0,0,1,1.66.42C997.41,624.58,997.75,628.88,996.59,631.41ZM1003.8,613c0-.27.74-.87.74-.87a1.77,1.77,0,0,1,1.18,1.26,3.46,3.46,0,0,1-1.05,3.86c-.74.88-2.15.17-3.56-.53C1001.79,615,1003.94,614.87,1003.8,613Zm4.79,19.64c-.2.82-.41,1.65-1.24,1.45s-.87-.75-.91-1.28c.33-2.73-.38-4.84-3.18-6,1-1.42,2-2.32,3.2-4C1007.32,626.78,1009.14,629.34,1008.59,632.63Zm50,16.07c.92,1.28.46,2.4-.24,3.81a1.16,1.16,0,0,1-1.84.69c-.85-.48-1.71-1.22-1-2.36A3.74,3.74,0,0,1,1058.55,648.7Zm-8.92-6.87c.16-1.36.32-2.73,2.31-1.53.27,0,.29.25.58.49.83.21,1.46-2,2.4-.46a2.31,2.31,0,0,1-1.65,3.11c-1.34.11-1.22,1.72-2.54,2.09A3.32,3.32,0,0,1,1049.63,641.83Zm0-57.89c-.79.33-.85-.47-.89-1-.29-.25-.07-.81.47-.85.81-.07.85.47,1.16,1C1050.17,583.63,1050.19,583.9,1049.66,583.94Zm12.7-7c-.78.34-1.11-.45-1.42-1a13,13,0,0,1-.89-7.78c1.78,2,2.27,4.69,3,7.34C1063.4,576.36,1063.17,576.92,1062.36,577Zm-4.42-18.31c2.91,2.47,2.91,2.47.74,5.89C1058.51,562.41,1058.65,560.78,1057.94,558.67Zm-.82-10.49c-.07-.8-.11-1.34.7-1.41s1.16,1,.93,1.55c-1.11,3.07.36,4.57,3.36,4.88a1.54,1.54,0,0,1,1.23,1.8,1.73,1.73,0,0,1-1.78,1.49c-1.37-.16-2.46-.35-4.1-.49A75.52,75.52,0,0,1,1057.12,548.18Zm-.07,30c2,1.19,1.58,2.85,2,4.17.65,1.3.77,2.92,2.66,2.77a.94.94,0,0,1,.91,1.28c-.72,1.14-.86,2.77-2.74,2.92-.81.06-1.15-.72-1.19-1.26C1057.85,584.92,1056.79,581.75,1057.05,578.22Zm-11.12-27.8c.23-.56.45-1.12,1.26-1.19a1.16,1.16,0,0,1,1.16,1c.77,2.91,3.16,5.7,1,8.85-.74.87-.41,1.65-.06,2.71.73,2.37.73,2.37-.69,4.92C1045.46,561.55,1045.3,556.15,1045.93,550.42Zm.15,36.31c-.79-1.65-2.32-3.07-.71-5.7C1046.9,583,1045.73,584.92,1046.08,586.73Zm-2.94-13.37s.52-.31.54,0c1.16,1,1.24,2.06.54,3.47C1042.53,575.84,1042.44,574.77,1043.14,573.36Zm1.35,34.25c-.1-1.34.1-2.17,1.42-2.55,1.37.17,2,.93,1.79,2a1.93,1.93,0,0,1-1.72,2.3C1044.39,609.78,1044.56,608.42,1044.49,607.61Zm-4.31-17c1.09.18,2.19.37,1.76,1.75a5.17,5.17,0,0,1-1.65,3.11c-1.43-1-1-2.09-1.06-3.16C1039.17,591.53,1038.81,590.47,1040.18,590.64Zm-3.65,5.16c.33.78-.15,1.63-.89,2.5a2.1,2.1,0,0,1-1.16-1c-.06-.81.12-1.9.91-2.24C1035.9,594.76,1036.46,595,1036.53,595.8Zm-5.52,2.05c-.7,1.41-2,2-2.17,3.42a6.82,6.82,0,0,0,1.13,4,24.86,24.86,0,0,1,1.5,8.81c.19,2.42,1.42,4.21,1.07,6.68,0,.54.13,1.61-1,1.69-.8.07-1.14-.72-1.18-1.25-.73-2.38-1.73-4.74-1.33-6.66.57-3-.43-5.38-1.18-8-1.37-3.68-.86-7.51-2.25-11.46C1027.14,596.81,1029.06,597.2,1031,597.85Zm-14.68,36.87c-3.12-1.92-2.45-3.59-1.54-5.83C1016.28,630.67,1016.14,632.3,1016.33,634.72Zm10.22-11.09c-1.26,1.19-1.67,2.84-2.35,4.52-1.22,1.72-1.67,2.84.83,3.72.85.47.63,1,.15,1.88-1.92,3.13-1.43,5.8,1.49,8.54,1.74,1.49,1.68,4.2,2.39,6.31.27,0-.23.55-.47.84-.52.32-.81.07-1.1-.18-1.52-2-3-3.82-4.52-5.86-.29-.25-.58-.5-.6-.77,1-3.87-2.64-6-3.19-9.49a6,6,0,0,1-.29-3.76c.39-1.93.51-3.83-1.73-4.73a1.4,1.4,0,0,1-.46-2.4c1.51-1.47,1.13-2.8.74-4.39-.46-2.4-.63-4.55-1.61-6.64-1.56-2.58,0-3.78,2-5.83,1.12,4,.86,7.5,2.43,10.36.36,1,.75,2.64,2.08,2.27,1.3-.65,1.19-2,.57-3-.31-.52-.35-1.06.39-1.93a31.91,31.91,0,0,1,4.09,7.25A2.94,2.94,0,0,1,1026.55,623.63Zm8.68,7.17c-.06,2.7-1.09,3.33-3.33,2.42a9,9,0,0,1-2.81-1.4c-1.14-.72-1-1.82.63-2.21,1.87-.42,2.3-1.81,2.75-2.92.21-.83.43-1.39,1.26-1.19,1.1.19,1.16,1,1.2,1.53a5.43,5.43,0,0,0-.12,1.9C1034.88,629.74,1035.19,630.26,1035.23,630.8Zm-2.12-47.45c1.18,1.26,1,2.89,2,4.17.58.5.65,1.31-.14,1.64-1,.62-1.63-.14-2-.93C1032,586.68,1032.43,585,1033.11,583.35Zm1.34,20.45a1.72,1.72,0,0,1,1.22-1.72c1-.35.6.77,1.18,1.26.33.79-.18,1.1-.72,1.14S1034.52,604.61,1034.45,603.8Zm3.93,18.9a.72.72,0,0,1-.74.87c-.3-.25-.58-.49-.36-1.05,0-.27.21-.83.77-.6C1038.31,621.89,1038.63,622.41,1038.38,622.7Zm-2-14.72a5.45,5.45,0,0,1,.1,4.59C1035.27,610.77,1034.63,609.47,1036.4,608Zm2,32.57a2.45,2.45,0,0,1-.25-3.22c2.27-2.08,1.54-4.45,1.06-7.12,1.37.16,2.21.63,1.72,1.22-1.15,2.52.34,4.3.78,6.43.1,1.34.73,2.37-.58,3A2,2,0,0,1,1038.43,640.55Zm7.6,24.29c-.81.06-1.14-.72-1.2-1.53.22-.56.45-1.12,1-1.16.81-.06,1.14.72,1.2,1.53A1,1,0,0,1,1046,664.84Zm4-.85c-1.2-1.53-1.91-3.64-4.14-4.55-.56-.22-.09-1.07.14-1.63.45-1.12,1.77-1.49,1.91-3.13a3,3,0,0,1-2.92-2.74,1.84,1.84,0,0,0-2-1.74c-2.93.51-2.28-1.44-2.4-3.05a5.68,5.68,0,0,1,.65-1.95c.48-.85.62-2.48,1.74-2,1.68.68.68,1.84-.06,2.71-.22.56-.43,1.39.13,1.61,2.73.33,2.69,3.31,4.68,4.5,2,1.47,2.28,1.45,4.28-.61.91,1.28.82,3.46,2.25,4.43s2.61,2.23,1.64,3.65c-1.22,1.72-1.82,4.48-4.77,4.71C1050.87,664.46,1050,664.25,1050,664Zm8.2,14.77c-.74.87-1.53,1.2-2.4.46-1.72-1.22-3.73-2.68-3.67-5.39l-.09-1.08c2.36-1,1.7-2.57,1-4.14a2.14,2.14,0,0,1,.45-1.12,1.41,1.41,0,0,1,1.12.46,3.91,3.91,0,0,1,.67,1.57c.21,2.69.42,5.38,3,7.33A1.67,1.67,0,0,1,1058.22,678.76Zm4.23-4.66c-1.49-1.78-3.75-3-4.75-5.31a5.41,5.41,0,0,1-.77-2.92,1.5,1.5,0,0,1,1.28-.91c.52-.31.81-.06,1.12.45,1.29,2.61,2.6,5.48,3.88,8.09C1063,673.78,1062.7,673.81,1062.45,674.1Z"/><path class="cls-2" d="M1075.61,655.77c-.83-.2-1,.62-1,1.16,0,.27.35,1.06.62,1,.83.2.77-.61,1-1.17C1076.19,656.27,1076.15,655.73,1075.61,655.77Z"/><path class="cls-2" d="M1008.77,672.68c-1,.35-.68,1.67-.35,2.46.38,1.32-.32,2.73,1.13,4a4.48,4.48,0,0,0,1-4.41C1010.49,673.89,1010.36,672.28,1008.77,672.68Z"/><path class="cls-2" d="M1046.58,620.46c-1.34.1-1,1.43-.88,2.5.06.81-.1,2.17,1.24,2.07,1.08-.09,1.26-1.18,1.18-2.26S1047.93,620.35,1046.58,620.46Z"/></svg>