<svg id="Layer_2" data-name="Layer 2" xmlns="http://www.w3.org/2000/svg" viewBox="0 0 1200 1000"><defs><style>.cls-1{fill:#b0ce99;}.cls-2{fill:#368740;}</style></defs><title>Beans Talk</title><path class="cls-1" d="M200.2,308.35c-4.79-14-8.93-20.11-18.29-31.5-1.42-1.72-3.59-4.25-6.38-4.17-3.68.12-7,4.76-8.41,8.5-1.61,4.25-.42,6.51-2.05,7.58-2.63,1.72-6.55-3.63-12.08-3.69-6.42-.08-13.34,6.93-14.5,12.27-1.22,5.6,3.35,11.86,11.9,18.85a12.22,12.22,0,0,0-1.66,3.38c-1.14,3.72.46,5.74-.8,7.36-1.77,2.29-5.29-1.33-10.14.49-3.49,1.31-6.88,5.14-8.61,9.35-6.16.62-11.55,2.31-12.58,5.61-1.57,5,8.38,9.44,7.72,18.63-.41,5.75-4.49,6.56-4.13,11.46.5,7,9.21,11.79,13.82,13.9a11.53,11.53,0,0,0-.17,6.61,15.58,15.58,0,0,0,3,14.53,4,4,0,0,0,.28.3,11.38,11.38,0,0,0-2.3,3.73c-1.79,5,.16,11.89,4.31,15.52.93.82,5.13,4.24,15.41,2.42,11.64-2.07,18.35-8.61,33.13-22.93A113.78,113.78,0,0,0,202,402.22c24.81-10.07,47.77-10.81,63.22-10.54l2.81.66c-4.87,10.76-7.23,12.49-7.65,19.85-.22,4-.42,19.38,11.71,29.81a34.74,34.74,0,0,0,32.54,6.67c10.74-3.51,8.83-10,22.08-16.15,11.51-5.36,24.44-5.8,30.55-6,10.78-.37,16.87,1.13,17.59-.92.95-2.69-9.13-6.24-19.92-18.36a62,62,0,0,1-10.51-15.32c-5.11-10.89-2.3-14.42-6.06-23-3.88-8.91-12.65-18.39-24.94-21.62-1.83-.48-17.84-4.45-28.87,4.6-6.91,5.68-5.08,10.91-12.06,29.67-9.87-9.19-20.73-19.38-32.43-30.49C204,316.75,202,313.71,200.2,308.35Z"/><path class="cls-1" d="M544.71,215.56c14-4.79,20.12-8.93,31.5-18.29,1.73-1.42,4.26-3.59,4.17-6.38-.11-3.68-4.76-7-8.49-8.41-4.26-1.61-6.51-.42-7.58-2-1.72-2.63,3.62-6.55,3.69-12.08.08-6.42-6.94-13.34-12.27-14.5-5.61-1.22-11.86,3.35-18.85,11.9a12.56,12.56,0,0,0-3.39-1.66c-3.71-1.14-5.74.46-7.36-.8-2.29-1.77,1.34-5.29-.48-10.14-1.31-3.49-5.15-6.88-9.36-8.61-.62-6.16-2.3-11.55-5.6-12.58-5-1.57-9.45,8.38-18.63,7.72-5.75-.41-6.56-4.49-11.46-4.13-7,.5-11.79,9.21-13.91,13.82a11.5,11.5,0,0,0-6.6-.17,15.6,15.6,0,0,0-14.54,3.05l-.3.28a11.18,11.18,0,0,0-3.73-2.3c-5-1.79-11.88.16-15.52,4.31-.81.93-4.23,5.13-2.41,15.41,2.06,11.64,8.6,18.35,22.92,33.13a114.61,114.61,0,0,0,4.34,14.32c10.06,24.81,10.81,47.77,10.53,63.22q-.31,1.39-.66,2.82c-10.75-4.88-12.49-7.24-19.84-7.66-4-.22-19.39-.42-29.81,11.71A34.74,34.74,0,0,0,404.4,320c3.51,10.74,10,8.83,16.15,22.08,5.35,11.52,5.8,24.44,6,30.55.37,10.78-1.13,16.87.92,17.59,2.69.95,6.24-9.13,18.36-19.92a62,62,0,0,1,15.32-10.51c10.89-5.11,14.43-2.3,23.06-6.06,8.9-3.88,18.38-12.65,21.62-24.94.48-1.83,4.44-17.84-4.61-28.87-5.67-6.91-10.9-5.08-29.67-12.06,9.19-9.87,19.38-20.73,30.5-32.43C536.31,219.39,539.35,217.39,544.71,215.56Z"/><path class="cls-1" d="M635.94,585.73c4.79,14,8.93,20.12,18.29,31.5,1.42,1.73,3.59,4.26,6.38,4.17,3.68-.11,7-4.76,8.41-8.49,1.61-4.26.42-6.52,2.05-7.58,2.63-1.73,6.55,3.62,12.08,3.69,6.42.08,13.34-6.94,14.5-12.27,1.22-5.61-3.35-11.86-11.9-18.85a12.7,12.7,0,0,0,1.66-3.39c1.14-3.72-.46-5.74.8-7.36,1.77-2.29,5.29,1.34,10.14-.48,3.49-1.31,6.88-5.15,8.61-9.36,6.16-.62,11.55-2.31,12.58-5.6,1.57-5.05-8.38-9.45-7.72-18.64.41-5.74,4.49-6.56,4.13-11.46-.5-7-9.21-11.79-13.82-13.9a11.5,11.5,0,0,0,.17-6.6,15.6,15.6,0,0,0-3-14.54l-.28-.3a11.28,11.28,0,0,0,2.3-3.73c1.79-5-.16-11.88-4.31-15.52-.93-.81-5.13-4.23-15.41-2.41-11.64,2.06-18.35,8.6-33.13,22.92a113.78,113.78,0,0,0-14.32,4.33c-24.81,10.07-47.77,10.81-63.22,10.54l-2.82-.66c4.88-10.76,7.24-12.49,7.66-19.84.22-4,.42-19.39-11.71-29.82a34.77,34.77,0,0,0-32.54-6.67c-10.74,3.52-8.83,10-22.08,16.16-11.52,5.35-24.44,5.8-30.55,6-10.78.37-16.87-1.13-17.59.92-.95,2.69,9.13,6.24,19.92,18.36a62,62,0,0,1,10.51,15.32c5.11,10.89,2.3,14.42,6.06,23.05,3.88,8.91,12.65,18.39,24.94,21.62,1.83.48,17.84,4.45,28.87-4.6,6.91-5.67,5.08-10.9,12.06-29.67,9.87,9.19,20.73,19.38,32.43,30.49C632.12,577.33,634.11,580.37,635.94,585.73Z"/><path class="cls-1" d="M289.17,667.47c-14,4.79-20.12,8.93-31.5,18.29-1.73,1.41-4.26,3.59-4.17,6.38.11,3.68,4.76,7,8.49,8.41,4.26,1.6,6.52.41,7.58,2,1.72,2.64-3.62,6.56-3.69,12.09-.08,6.42,6.94,13.33,12.27,14.5,5.61,1.22,11.86-3.35,18.85-11.9a13,13,0,0,0,3.39,1.66c3.71,1.14,5.74-.46,7.36.8,2.29,1.77-1.34,5.29.48,10.14,1.31,3.49,5.15,6.87,9.36,8.6.62,6.17,2.3,11.55,5.6,12.58,5.05,1.58,9.45-8.38,18.64-7.72,5.74.42,6.55,4.5,11.46,4.14,7-.5,11.79-9.21,13.9-13.82a11.5,11.5,0,0,0,6.6.17,15.62,15.62,0,0,0,14.54-3.05l.3-.28a11.1,11.1,0,0,0,3.73,2.29c5,1.8,11.88-.15,15.52-4.31.81-.92,4.23-5.12,2.41-15.4-2.06-11.64-8.6-18.35-22.92-33.14A116.05,116.05,0,0,0,383,665.63c-10.07-24.82-10.81-47.77-10.54-63.22q.31-1.39.66-2.82c10.76,4.88,12.49,7.24,19.84,7.66,4,.22,19.39.42,29.81-11.71A34.74,34.74,0,0,0,429.48,563c-3.51-10.74-10-8.83-16.15-22.08-5.35-11.52-5.8-24.44-6-30.55-.37-10.78,1.13-16.87-.92-17.59-2.69-.95-6.24,9.13-18.36,19.92a62,62,0,0,1-15.32,10.51c-10.89,5.11-14.42,2.3-23.05,6.06-8.91,3.88-18.39,12.65-21.62,24.94-.48,1.83-4.45,17.84,4.6,28.86,5.67,6.92,10.9,5.09,29.67,12.07-9.19,9.87-19.38,20.73-30.49,32.43C297.57,663.64,294.53,665.64,289.17,667.47Z"/><path class="cls-1" d="M372.18,154.46c-3.29-2.6-9.58-1-13.53,1.22-4.52,2.53-5.13,5.36-7.33,5.1-3.55-.43-3.05-7.95-7.81-12.06-5.2-4.49-15.39-3.8-21.58.05a17.36,17.36,0,0,0-4.75,4.4,14,14,0,0,0-1.26-5.12c-2.38-5-8.46-9.1-13.6-8.17-3.73.66-6.25,3.83-7.83,6.5a30.85,30.85,0,0,0-1.85,3.39,18.91,18.91,0,0,0-1.68,5,9.28,9.28,0,0,0-1.79-.85c-5-1.78-12.83,0-17.59,4a13.26,13.26,0,0,0-3,3.68,21.26,21.26,0,0,0-3.13,11c-5.8-1.27-13.68-.28-16.87,4.25a7.2,7.2,0,0,0-.45.73h0c-4,5.65,2.45,12.35-2,20.19l0,.05c-2.49,3.72-5.35,3.21-9.55,9.18-.64.91-1.44,2-2.2,3.31-1.74,2.75-3.49,6.34-2.87,10a10,10,0,0,0,1.36,3.61,20.48,20.48,0,0,0-5.42.64,11.75,11.75,0,0,0-2.83,1.18c-5.23,3-8.57,10.44-7.62,16.65.21,1.38,1.36,7.43,11.62,13.37,12.74,7.37,24.27,5.74,52.64,3.85l9.59-.61c-.08.55-.15,1.07-.22,1.53-1,6.82-1.44,10.22-.51,14.09,1.69,7,4.89,5.74,10.62,17.35,0,0,5.81,11.76,9.71,16.62,1,1.26.5.5,7.35,8.33,5.2,5.93,5.89,6.82,6.5,7.63,3.32,4.4,3.8,6.15,6.84,10.8A94.61,94.61,0,0,0,339.36,346c6.51,7.65,8,7.76,15,15.37,6.47,7,5,6.66,14,16.73,7.55,8.51,8.36,8.49,11.39,13,3.86,5.74,4.14,8.13,8,11.57,3.43,3,5.05,2.81,8.53,6.38,2.49,2.56,2.84,3.89,5.82,8.25,3.24,4.75,8.26,12.12,10.11,11.41,2.56-1-1.85-17.28-2.31-19a151.3,151.3,0,0,0-5.72-16.3c-4.95-12.62-5.8-12.52-6.68-17-1.63-8.26,1.09-9.41.53-19.46-.15-2.66-.38-3.32-5.27-22.16-4.4-17-5-19.36-5.7-23.05-1.73-8.6-1.24-8.62-2.72-14.51-2.12-8.39-3.52-9.93-5.84-18.81s-1.21-8.24-3.15-14.86a85.14,85.14,0,0,0-8.82-19.83c-4.13-7.07-6.2-10.61-10.42-14a29.07,29.07,0,0,0-9.58-5.17c1-.48,2-1,3-1.59a44.8,44.8,0,0,0,16-16.3c.69-1.12,1.3-2.16,1.85-3.1,6.82-11.68,6.94-21.38,7.17-40.77C374.7,160.22,374.66,156.42,372.18,154.46Z"/><path class="cls-1" d="M693.29,397.62c2.6-3.28,1-9.57-1.22-13.53-2.53-4.51-5.36-5.13-5.1-7.33.43-3.54,7.95-3.05,12.06-7.8,4.49-5.2,3.8-15.4,0-21.59a17.65,17.65,0,0,0-4.4-4.75,13.77,13.77,0,0,0,5.12-1.26c5-2.37,9.1-8.45,8.17-13.6-.66-3.73-3.83-6.25-6.5-7.83a32.65,32.65,0,0,0-3.39-1.85,18.56,18.56,0,0,0-5-1.67,9.09,9.09,0,0,0,.86-1.8c1.78-5,0-12.82-4-17.59a13.64,13.64,0,0,0-3.68-3,21.26,21.26,0,0,0-11-3.13c1.27-5.79.28-13.68-4.25-16.87a7.07,7.07,0,0,0-.73-.44h0c-5.65-4-12.35,2.45-20.19-2l0,0c-3.72-2.48-3.21-5.35-9.19-9.55-.9-.63-2-1.43-3.3-2.19-2.75-1.75-6.34-3.5-10-2.88a10.2,10.2,0,0,0-3.61,1.36,20.41,20.41,0,0,0-.64-5.41,11.65,11.65,0,0,0-1.18-2.84c-3-5.22-10.44-8.57-16.65-7.62-1.38.22-7.43,1.36-13.37,11.63-7.37,12.74-5.74,24.26-3.85,52.63.23,3.49.43,6.68.61,9.6l-1.53-.22c-6.82-1-10.22-1.45-14.09-.51-7,1.68-5.74,4.89-17.35,10.62,0,0-11.76,5.8-16.62,9.71-1.26,1-.5.49-8.33,7.34-5.93,5.2-6.82,5.9-7.63,6.51-4.4,3.31-6.15,3.79-10.8,6.83a95.79,95.79,0,0,0-10.66,8.25c-7.65,6.52-7.77,8-15.37,15-7,6.48-6.66,5.05-16.73,14-8.51,7.55-8.49,8.35-13,11.39-5.74,3.86-8.13,4.14-11.57,8-3,3.42-2.81,5.05-6.38,8.53-2.56,2.48-3.89,2.84-8.25,5.81-4.75,3.24-12.12,8.27-11.41,10.11,1,2.57,17.27-1.85,19-2.31a151.3,151.3,0,0,0,16.3-5.72c12.62-4.95,12.52-5.8,17-6.68,8.26-1.62,9.41,1.1,19.46.53,2.66-.15,3.32-.38,22.16-5.26,17-4.4,19.36-5,23-5.71,8.6-1.72,8.62-1.23,14.51-2.72,8.39-2.12,9.93-3.51,18.81-5.84,8.73-2.29,8.24-1.2,14.86-3.14A85.08,85.08,0,0,0,604,392c7.07-4.13,10.61-6.2,14-10.42a29.18,29.18,0,0,0,5.17-9.57c.48,1,1,2,1.59,3a44.69,44.69,0,0,0,16.3,16c1.12.7,2.16,1.31,3.1,1.86,11.68,6.81,21.38,6.93,40.77,7.17C687.53,400.15,691.33,400.11,693.29,397.62Z"/><path class="cls-1" d="M459.91,722c3.29,2.6,9.58,1,13.54-1.22,4.51-2.53,5.13-5.36,7.32-5.09,3.55.43,3.05,8,7.81,12.05,5.2,4.49,15.4,3.8,21.59-.05a17.65,17.65,0,0,0,4.75-4.4,13.89,13.89,0,0,0,1.25,5.12c2.38,5,8.46,9.1,13.61,8.18,3.73-.67,6.25-3.84,7.83-6.51a34.68,34.68,0,0,0,1.85-3.39,19.32,19.32,0,0,0,1.67-5,9.57,9.57,0,0,0,1.79.85c5,1.78,12.83,0,17.59-4a13.26,13.26,0,0,0,3-3.68,21.16,21.16,0,0,0,3.14-11c5.79,1.27,13.68.28,16.87-4.25a7.07,7.07,0,0,0,.44-.73h0c4-5.65-2.45-12.35,2-20.19l0,0c2.48-3.72,5.35-3.21,9.55-9.18.63-.91,1.43-2,2.19-3.31,1.74-2.75,3.49-6.34,2.88-10a10.2,10.2,0,0,0-1.36-3.61,20.41,20.41,0,0,0,5.41-.64,11.81,11.81,0,0,0,2.84-1.18c5.22-3,8.56-10.44,7.61-16.64-.21-1.39-1.36-7.44-11.62-13.38-12.74-7.37-24.26-5.74-52.63-3.85l-9.6.61c.08-.55.15-1.06.22-1.53,1-6.81,1.45-10.22.51-14.09-1.68-7-4.89-5.74-10.62-17.35,0,0-5.8-11.76-9.71-16.62-1-1.26-.49-.5-7.35-8.33-5.19-5.93-5.89-6.82-6.5-7.63-3.31-4.4-3.8-6.15-6.83-10.8a97,97,0,0,0-8.25-10.66c-6.52-7.65-8-7.76-15.05-15.37-6.47-7-5-6.66-14-16.73-7.55-8.51-8.35-8.49-11.39-13-3.86-5.74-4.14-8.13-8-11.57-3.43-3-5-2.81-8.53-6.38-2.48-2.56-2.84-3.89-5.81-8.25-3.24-4.75-8.27-12.12-10.11-11.41-2.57,1,1.84,17.28,2.3,18.95a153.7,153.7,0,0,0,5.73,16.3c4.95,12.62,5.79,12.52,6.68,17,1.62,8.26-1.1,9.41-.53,19.46.14,2.66.38,3.32,5.26,22.16,4.4,17,5,19.36,5.71,23,1.72,8.6,1.23,8.62,2.72,14.51,2.12,8.39,3.51,9.93,5.84,18.81s1.2,8.24,3.14,14.86a85.37,85.37,0,0,0,8.82,19.83c4.14,7.07,6.2,10.61,10.42,14a29.19,29.19,0,0,0,9.58,5.17c-1,.48-2,1-3,1.59a44.76,44.76,0,0,0-16,16.3c-.7,1.12-1.31,2.16-1.86,3.1-6.81,11.68-6.93,21.38-7.17,40.77C457.39,716.2,457.43,720,459.91,722Z"/><path class="cls-1" d="M136.12,484.4c-2.6,3.29-1,9.58,1.23,13.53,2.52,4.52,5.35,5.13,5.09,7.33-.43,3.55-7.95,3.05-12.06,7.81-4.49,5.2-3.79,15.39.05,21.58a17.36,17.36,0,0,0,4.4,4.75,14,14,0,0,0-5.12,1.26c-5,2.38-9.09,8.46-8.17,13.6.66,3.73,3.83,6.25,6.5,7.83a30.85,30.85,0,0,0,3.39,1.85,18.87,18.87,0,0,0,5,1.68,9.29,9.29,0,0,0-.86,1.79c-1.78,5,0,12.83,4,17.59a13.26,13.26,0,0,0,3.68,3,21.26,21.26,0,0,0,11,3.13C153,597,154,604.84,158.49,608a7.09,7.09,0,0,0,.72.45h0c5.65,4,12.36-2.45,20.19,2l.06,0c3.71,2.48,3.2,5.35,9.18,9.55.9.64,2,1.44,3.3,2.2,2.75,1.74,6.34,3.49,10,2.87a10,10,0,0,0,3.61-1.36,20.48,20.48,0,0,0,.64,5.42,11.75,11.75,0,0,0,1.18,2.83c3,5.23,10.44,8.57,16.65,7.62,1.38-.21,7.43-1.36,13.37-11.62,7.37-12.75,5.74-24.27,3.85-52.64-.23-3.49-.43-6.68-.61-9.59l1.53.22c6.82,1,10.22,1.44,14.09.51,7-1.69,5.74-4.9,17.35-10.62,0,0,11.76-5.81,16.62-9.71,1.26-1,.5-.5,8.33-7.35,5.93-5.2,6.82-5.9,7.63-6.5,4.4-3.32,6.16-3.8,10.8-6.84a96.84,96.84,0,0,0,10.67-8.25c7.64-6.51,7.76-8,15.36-15,7-6.47,6.66-5,16.73-14,8.51-7.55,8.49-8.36,13-11.39,5.74-3.86,8.13-4.14,11.57-8,3-3.43,2.81-5,6.38-8.53,2.56-2.49,3.89-2.84,8.25-5.82,4.75-3.24,12.13-8.26,11.41-10.11-1-2.56-17.27,1.85-18.95,2.31a152.06,152.06,0,0,0-16.3,5.72c-12.62,5-12.52,5.8-17,6.68-8.26,1.63-9.41-1.09-19.46-.53-2.66.15-3.32.38-22.15,5.27-17,4.4-19.37,5-23,5.7-8.61,1.73-8.63,1.24-14.51,2.72-8.4,2.12-9.94,3.52-18.81,5.84s-8.25,1.21-14.86,3.15A85.06,85.06,0,0,0,225.39,490c-7.07,4.13-10.61,6.2-14,10.42a29.27,29.27,0,0,0-5.17,9.58c-.48-1-1-2-1.59-3a44.77,44.77,0,0,0-16.3-16c-1.12-.69-2.16-1.3-3.1-1.85-11.68-6.82-21.37-6.94-40.77-7.17C141.88,481.88,138.09,481.92,136.12,484.4Z"/><path class="cls-2" d="M455.74,407.39c19.85-27.82,21.26-57.48,10.33-89-8.29-21.86-23.55-37.07-46.12-43.73-19.73-6.41-40-8.1-60.54-6.48-47.57,3.29-95.54,7.54-143.07,11.29-7,.55-7,.55-6.48,7.08l23.57,298.73c.59,7.46.59,7.46,8,6.87l128.17-10.11c9.78-.77,20.07-1.12,30.18-3.79,11.5-2.78,23-5.1,34.4-9.75C471,553,482.61,522,480.28,486.59c-.41-5.13-1.28-10.22-2.15-15.31-2.79-17.6-9.17-33-23.64-44.09-3-2.58-7.36-4.11-10.41-7.15C447.94,415.51,452.34,411.88,455.74,407.39ZM443,317c1.4-.11,2.33-.19,2.87.71a1.72,1.72,0,0,1-1.72,2,2.57,2.57,0,0,1-2.44-1.22C441.08,316.64,443.05,317.89,443,317Zm-7.26-8.81c2.48,1.68,3.52,3,2.27,5a1.75,1.75,0,0,1-1.36.58C435.12,312.42,435,310.55,435.72,308.15Zm-45.94-23.58c.93-.07,1.43.36,1.47.83a2.46,2.46,0,0,1-1.61,3.4c-.89.55-1.86.15-1.93-.78A3.12,3.12,0,0,1,389.78,284.57ZM374.63,312.5a2.42,2.42,0,0,1,1.14-3.37,2,2,0,0,1,2.91,1.18,57.08,57.08,0,0,1,2.84,6.33c.15,1.87-.21,3.3-1.1,3.84-1.86.15-3.34-.67-3.45-2.07C377.22,315.58,375.71,314.29,374.63,312.5ZM378,289.72c-.86,1-5.38-2.85-4,2.2.68,2.76.9,5.55,1.59,8.31.07.94.15,1.87-1.21,2.45s-1.94-.79-2.05-2.19l-2.61-15.27C376.12,283.78,376.12,283.78,378,289.72Zm-19.26-6.45a4.57,4.57,0,0,1,1.68-2.47,2.55,2.55,0,0,1,2.44,1.21c.57,1.36,2.12,3.12,1.73,4.08-1.5,4.81.7,8.86,2,13.91-2.29.65-4.23-.13-4.27-.6C361.9,293.81,357.77,289,358.73,283.27Zm-38.44,18c5.52-1.37,7.21,2.25,7.93,5.47s-1,5.7-3.14,7.75c-1.36.58-2.76.69-3.76-.17s-.58-1.36.28-2.37C324.93,306.57,324.93,306.57,320.29,301.31ZM305.11,311a9.37,9.37,0,0,1,.3,9.82c-2.12-3.11-1.91-6.41-4-8.59-.58-1.37-.22-2.8,1.18-2.91C304,308.23,304.53,309.59,305.11,311Zm-7.69-26.12c.39-1-.19-2.33.74-2.41,1.83-.61,2.41.75,3,2.11l.58,7.46a31.58,31.58,0,0,1,1.41,6c.15,1.87-.63,3.81-2.53,3.49-2.33.18-1.55-1.76-1.2-3.19C300,293.53,297.32,289.52,297.42,284.83ZM286.26,464.38c-.25,2.83,0,6.09-.24,8.92a3,3,0,0,1-2.07,3.45c-1.86.15-2.48-1.68-3.05-3a2.88,2.88,0,0,1-.69-2.76c2.07-3.45.81-7.57,2.88-11C286,460.65,286.58,462.47,286.26,464.38ZM287.42,491c-1.79,1.08-3.26.26-4.73-.56-1-.86-1.55-1.76-.73-3.23.4-1,1.87-.14,2.37.29C285.77,487.86,287.7,488.65,287.42,491ZM254.88,298.5c.94-.07,2.37.28,2.48,1.68.15,1.86-1.18,2.9-3.08,2.59-.93.07-2.36-.29-2.47-1.68C251.62,298.76,253.52,299.07,254.88,298.5Zm-15.51-12.38c2.91,1.18,3,3,2.34,5.91C238.77,290.39,238.62,288.53,239.37,286.12Zm2.47,13.41c1,.39,1,.39,1.43.35,1.62,2.69,1.3,4.59-.38,7.07-.9.54-1.4.11-1.9-.32C239.37,303.94,240.15,302,241.84,299.53ZM225.9,347.21c2.12,3.12,1.41,6,2.56,8.71C226,353.77,223,351.66,225.9,347.21Zm1.42,65.54c-.22-2.8-.91-5.55.31-8,2.36.28,2.51,2.14,2.66,4,.51,6.52,1.49,13,1.5,19.1.38,10.76,2.59,20.9,4.8,31,1.63,8.79-.47,17.86,4.39,25.92-3.22,6.82,2.78,11.5,2.83,18.06-.45,6.14,1.42,12.09,2.36,18.11.11,1.4.69,2.76-.67,3.33-1.83.62-2.4-.74-2.94-1.64a6,6,0,0,1-2.31-5.45c.64-3.8-1-6.95-2.71-10.57-1.73-4.08-4-8.59-1-13.05a3.51,3.51,0,0,0-.76-3.69c-3.09-3.51-2.49-7.77-2.82-12C231.2,456.06,229,434.19,227.32,412.75Zm24.59,163.13c-1.79,1.08-2.83-.24-3.41-1.61-3.31-6.3-7.05-12.1-6.7-19.63.24-2.84,0-6.1-2.57-8.71a5.06,5.06,0,0,1-.4-5.13,7.18,7.18,0,0,0-.59-7.45,2.84,2.84,0,0,1-.29-3.73c0-.47.85-1,1.32-1,.9-.54,1.4-.11,1.47.82,1.35,11.14,9.08,19.92,9.49,31.14.11,1.39,1.19,3.19.8,4.16-1.14,3.37.87,5.08,2,7.34C253.63,573.87,253.27,575.3,251.91,575.88ZM228.31,294.5a3.13,3.13,0,0,1,1.1-3.84l1.86-.15a2.07,2.07,0,0,1,1.19,3.19c-1.64,2.95,2.27,5,2.1,8.75C230.61,299.94,229.93,297.18,228.31,294.5Zm16.42,35.75c-1.3-4.59-3.93-8.13-4.26-12.33l-.18-2.33c-.15-1.86.17-3.76,2.5-3.95,1.9.32,2.05,2.19,1.73,4.09-1.5,4.81,1.63,8.78,2.93,13.37.54.89.61,1.82-.79,1.94C245.77,331.57,244.8,331.18,244.73,330.25Zm26.55,247.39c-.94.07-1.94-.79-1.55-1.76-.07-.93.79-1.94,1.76-1.54a1.23,1.23,0,0,1,1.5,1.28C272.6,576.59,272.21,577.56,271.28,577.64ZM258.5,350.27a4.84,4.84,0,0,1-2.11,3c-1.83.61-2.83-.25-3.88-1.57-2.12-3.12-3.34-6.77-4.64-11.36,6.48-1,6.95-1,6.42,4.18-.32,1.9-.21,3.3,1.69,3.62C257.42,348.48,258.85,348.83,258.5,350.27Zm-4.13-40.48c-.54-.89.35-1.43,1.75-1.54a1.49,1.49,0,0,1,1.51,1.29c0,.46-.86,1-1.32,1C255.41,311.12,254.44,310.73,254.37,309.79ZM278.2,558.33a1,1,0,0,1-1.48-.82c-.68-2.76-1.33-5-2-7.81a3.6,3.6,0,0,0,1.83-.62,15.79,15.79,0,0,1,3,7.74A1.23,1.23,0,0,1,278.2,558.33Zm-6.73-192.2c-.56,4.73.7,8.85,1.07,13.51C268.44,375.27,269.47,370.5,271.47,366.13Zm3.34,36.31c-2.12-3.12-3.31-6.3-1.78-10.65,7,5.55,4.72,12.29,5.23,18.82A4.15,4.15,0,0,1,278,413c-.82,1.48,1.7,3.62-1,5.24l-1-.39c-2-2.18-2.7-4.48-1.95-6.88.43-.5.39-1,.86-1C277.54,407.38,276.89,405.09,274.81,402.44ZM291,506.21c-4.24-.14-6.49,1-9.36.27C285.51,502.42,285.51,502.42,291,506.21Zm.23,8.89c-.4,1-1.25,2-2.22,1.58a2.88,2.88,0,0,1-1.19-3.19c.43-.5.82-1.47,1.32-1A2.57,2.57,0,0,1,291.2,515.1Zm-2.42,28.8c-1.58-2.22.24-2.84,1.1-3.84,2.58-3,3.29-5.89,1.13-9.47-1.54-1.75-2.16-3.58.49-5.67,3.17,4.44,4,9.53,5.84,14.55.65,2.29-.64,3.8-3,4C292.51,543.6,290.72,544.68,288.78,543.9Zm13,9.76c.19,2.33-.6,4.27-3.39,4.49-3.27.26-4.31-1.07-4.71-6.19.32-1.91-.87-5.1,2.85-5.39C299.29,546.35,301.91,549.89,301.74,553.66Zm27.51,21.75c-1.32,1-2.4-.75-3.34-.68-6.67-1.35-8.9-5.86-9-12.42-.18-2.33-1.3-4.59-2.41-6.85-1.23-3.65-1.23-3.65.7-9,3.09,3.51,3,8.2,4.64,11.36,3.17,4.44,3.18,10.53,8.56,13.39C329.46,572.11,330.54,573.9,329.25,575.41Zm57.47-38.3c-1.4.11-1-1.33-1.62-2.69,0-.46.36-1.43.82-1.47,1.4-.11,1.94.79,2.05,2.18C388.51,536,388.12,537,386.72,537.11Zm6.38,33.26c-.9.54-1.47-.82-1.55-1.75.21-3.3-2.84-6.35-.41-11.23,1.76,4.55,2.92,7.28,3.64,10.5C395.32,568.79,394.5,570.26,393.1,570.37ZM404.47,554c-2.41-.75-2.59-3.08-3.17-4.44s-.65-2.3.75-2.41a1.72,1.72,0,0,1,2.41.75C406.47,549.62,406.65,552,404.47,554Zm.15-16c.54.9-.36,1.44-1.72,2-3.16-4.44-3.1-9.6-3-14.3-.07-.93.36-1.43,1.26-2,.93-.08,1.47.82,2,1.71.5.43,1,1.33.61,1.83C402.67,531.16,403.86,534.35,404.62,538Zm4.21-47.69c-.54,16.92-8.27,26-29.1,29.49-12.47,2.39-25.13,2.45-37.71,3.44l-36.82,2.91c-5.12.4-5.59.44-6-4.69-1.29-16.31-2.15-33.12-3.9-49.4-.3-3.73,1-5.23,4.72-5.53l38.68-3.05c11.19-.88,21.94-1.26,33.09-2.61,6.49-1,12.7.4,18.94,2.26C404.23,467.73,409.08,475.79,408.83,490.35Zm-99.62-62a3.59,3.59,0,0,1,1.93.79c.69,2.76-1.57,3.87-3.86,4.52C306.13,430.92,307,429.45,309.21,428.33Zm9.8,5.33c.89-.55,2.18-2.05,3.69-.77,1.11,2.26-.68,3.34-2,3.92-1.32,1-3.58,2.16-4.66.36C314.89,434.92,317.64,434.23,319,433.66Zm78-4.28c1.37,5.52,2.75,11,6,16.41,2.19,4,1.59,8.31,1.53,13.48-3.91-2-5.57-5.19-5.75-7.52,0-6.1-3.72-11.43-3.73-17.53-.26-3.26-1.91-6.41-4.11-10.46C395.18,424.36,396.29,426.62,397,429.38Zm-2.4-18.57c2.62,3.55,3.31,6.3,3.21,11C395.13,417.8,393.55,415.58,394.58,410.81Zm-3.46-8.17c-3,4-6.44,7.54-12.68,5.69-1.94-.78-4.23-.13-6.56.05l-76,6c-3.69.76-5.2-.52-5.53-4.72-.49-12.15-1.95-24.7-2.94-37.28-.95-12.12-1.44-24.27-2.87-36.35-.29-3.73,1-5.24,4.73-5.53l64.77-5.12c12.16-.48,23.6,1.89,34.05,9.51,5.5,4.26,9.66,9.56,11.11,16C403,368.88,402.06,386.77,391.12,402.64Zm36.26,150.49c0,.46-.36,1.43-1.33,1a1.25,1.25,0,0,1-1.51-1.29,10.09,10.09,0,0,1,1.21-8.53C427.87,547.46,427.62,550.3,427.38,553.13ZM407.32,304.76c-1.51-1.29-2-1.25-2-1.71-1.07-1.79.53-5.2-2.8-5.88-3.84-1.1-.6,4.27-4.33,4.56.21-3.3-.52-6.52.19-9.39,1.22-2.44,5-2.27,7.67-3.89A32.31,32.31,0,0,1,407.32,304.76Zm5.81,2.36a2,2,0,0,1,1.72-2c1.9.31,2.9,1.17,2.58,3.07,0,.47.15,1.87-1.25,2C414.28,309.84,413.71,308.48,413.13,307.12Zm3.9,13.76c.46,0,.54.89,1,1.32-.36,1.44-.75,2.41-2.11,3a10.14,10.14,0,0,1-.61-1.82C415.24,322,415.63,321,417,320.88Zm9.55,8.16c.91,5.55,3.14,10.06,3.58,15.66-2.38-6.38-8-6.41-13.28-7.87C421.5,336,425.62,334.74,426.58,329Zm-5.68,29c-1-1.33-1.65-3.15-.37-4.66.43-.51,1.36-.58,1.8-1.08a33.26,33.26,0,0,0,4.8,1.5c1.9.31,4.2-.34,3.91,2,.22,2.8-2.54,3.48-4.32,4.56C424.46,361.56,422.45,359.84,420.9,358.09Zm16.57,186.27c-1.69-3.62-.51-6.53-1.27-10.22C441.65,537.93,441.65,537.93,437.47,544.36Zm2.69-19.44a4.48,4.48,0,0,1-2,4.38.89.89,0,0,1-1.43-.36,5,5,0,0,1,0-5.63c.86-1,1.25-2,2.65-2.08C440.4,522.09,440.05,523.52,440.16,524.92Zm-3.67-58.33c-.82,1.47.26,3.26-1.49,4.81-2.4-.75-3-2.58-3.63-4.4-.15-1.87.67-3.34,2.43-4.88l1.4-.12C437.17,463.26,436.85,465.16,436.49,466.59Zm-1.6-32.23c-.9.54-1.9-.32-2-1.25a3.11,3.11,0,0,1,2.07-3.45c.93-.07,1.9.32,1.94.79C437.07,432.31,436.76,434.21,434.89,434.36Zm-3.2-40.55c-.93.08-2.79.22-3-2.1-.15-1.87,1.61-3.41,3.44-4,2.25-1.11,2,1.25,2.94,1.65C435.31,392.12,434,393.63,431.69,393.81Zm.8-13.66c-.47,0-1-.39-1.43-.35-1.2-3.19-2.85-6.34-4-9.53a3,3,0,0,1,2.5-3.95c2.33-.18,1.55,1.75,1.66,3.15-.68,3.34,2.27,5,2.92,7.27C434.71,378.57,434.35,380,432.49,380.15Zm4.64-30.38a1.69,1.69,0,0,1,1.36-.57,1.71,1.71,0,0,1,2,1.72c-.43.5-.89.53-1.83.61S437.2,350.71,437.13,349.77Zm6.53,23.41a2,2,0,0,1-1.62-2.69,1.66,1.66,0,0,1,.4-1,3.15,3.15,0,0,1,2.08,2.65Zm-1.59-44a2.57,2.57,0,0,1-2.08-2.65c.35-1.43.74-2.4,2.14-2.51s2,1.25,2.05,2.18C443.83,327.68,443.47,329.11,442.07,329.22Zm3.2,4.91c.36-1.44.75-2.41,2.61-2.56,1.48.83,1.12,2.26.73,3.23-.82,1.47,1.33,5.05-2,4.38C443.74,338.47,445,336,445.27,334.13Z"/><path class="cls-2" d="M523.5,411.85a57.08,57.08,0,0,0,31.11,10.26A143.24,143.24,0,0,0,602.36,417a42.55,42.55,0,0,0,25.22-19.84c1.63-3.38,1.85-3.94-1-6.14-4.66-4.24-9.07-8.76-14.23-12.41a24.48,24.48,0,0,1-6.38-5.45,3.4,3.4,0,0,0-1,.9c-4.76,8.22-11.4,13.34-21,15.45a67,67,0,0,1-19.33,1.79c-6.25-.32-12.31-1.73-17-6.77-4.1-4-5.6-9.3-7.1-14.59-1.46-4.75-1.19-4.78,3.65-5.16l78.77-6.21c1.64.14,2.11-.71,2.25-2.34.29-3.27.05-6.23.34-9.5a168.26,168.26,0,0,0-.64-28.62,87.46,87.46,0,0,0-3.34-18.41c-5.37-16.61-16-27.95-33.39-32.26-4.14-1-8.21-1.24-12-1.75a90.7,90.7,0,0,0-17.09-.55c-8.08.37-15.53,2-23.22,4a52.88,52.88,0,0,0-26.63,15.63c-7.2,8.15-10.47,18.14-12.08,28.55-1.78,11.77-.6,23.31.06,35.16a141.25,141.25,0,0,0,6.81,34.9C507.81,394.69,513.48,404.79,523.5,411.85Zm79.63-16c1.34-.11,1.18,1.26,1.51,2s.13,1.62-.94,1.7c-.79.33-1.12-.45-1.19-1.26S602.1,396.45,603.13,395.83Zm-5.9,7.5c.56.22,1.12.45,1.16,1,.06.81-.14,1.63-1,1.43-.54,0-.85-.48-.91-1.28C596.46,403.93,596.71,403.64,597.23,403.33Zm-11.63.1a1,1,0,0,1,1.39.43,4.57,4.57,0,0,1,.64,1.31c-.2.82.13,1.61-.92,2-.54.05-.85-.47-.89-1a3.7,3.7,0,0,1-.67-1.57C585.11,404,585.34,403.45,585.6,403.43ZM580.71,410a2.1,2.1,0,0,1,1,1.82c0,.54-.21.83-1,.89a2,2,0,0,1-.94-1.55C579.68,410.66,580.16,409.81,580.71,410Zm14.73-104.77c1.48,1.51,2.18,3.61,4.13,4.27-1,1.7-2.23,2.61-3.66,1.64C593.63,309.74,595.37,307.71,595.44,305.27Zm2.4,9.82c1-.89,1.91.12,2.24.9.37,1.33,1,2.63.36,4.57-1.68-.67-2.32-2-3.21-3C596.36,316.83,597.08,315.69,597.84,315.09Zm16.45,2.76c.81-.07.87.74,1.18,1.26-.22.56-.45,1.12-.45,1.12-1.08.08-1.43-1-1.49-1.78C613.48,317.91,613.73,317.62,614.29,317.85Zm-9.09-26.07c.23-.56.16-1.36,1.28-.91.56.23.6.76.38,1.32a3.27,3.27,0,0,0,.6,4.28c1.72,1.22,1.31,2.88.37,4.58C607.05,298.13,603.61,295.7,605.2,291.78Zm2.24,14.71c-1.55.93-2.56,1.82-4,.31C604.69,305.89,605.79,306.08,607.44,306.49Zm-4.65-21.28a3.49,3.49,0,0,1,.52,3.21c-.25.29-.51.31-.83-.21C601.61,287.47,601.53,286.39,602.79,285.21Zm.38,46c-.52.31-1.08.08-1.66-.41-.62-1-1.53-2.31-2.18-3.62a1,1,0,0,1,.44-1.38,1.26,1.26,0,0,1,1.63.14,13.74,13.74,0,0,1,2.45,3.59A1.65,1.65,0,0,1,603.17,331.17Zm-5.72-34.72c2,1.74,1.15,4.24,2.15,6.6-2.51-.89-4.19-1.57-6.13-2.23l-.09-1.07A5.64,5.64,0,0,0,597.45,296.45Zm-6.29-11.13c0-.54.5-.58.77-.61a1.38,1.38,0,0,1,1.18,1.26.72.72,0,0,1-.74.87C591.54,286.64,591,286.14,591.16,285.32Zm-63.1,98.58c-.53,0-1.38-.44-1.43-1,.21-.83,1-1.16,2.07-1.25a1.16,1.16,0,0,1,1.16,1A1.81,1.81,0,0,1,528.06,383.9Zm-3.61-49.23c.44,2.13.81,3.46.4,5.11C522.55,338.07,522.55,338.07,524.45,334.67Zm2.76,38.47a2.76,2.76,0,0,1,1.72,1.22,1.27,1.27,0,0,1-1.23,1.45c-.83-.21-1.39-.43-1.21-1.53C526.45,373.74,526.7,373.45,527.21,373.14Zm7.4,35.4c-1.33.37-2-.66-2.06-2a2.56,2.56,0,0,1,1.12-3.07,2.46,2.46,0,0,1,2.63,2.5C536.4,407.31,536.22,408.41,534.61,408.54Zm8.32-4.18c2.39,2.79,3.47,6.22,4.3,9.94a1.2,1.2,0,0,1-.67,1.68c-1.06.36-1.91-.12-2-.93C544,411.31,542.4,407.92,542.93,404.36ZM541.5,345c-.46,1.12-.62,2.49-2.26,2.34-.26,0-.31-.51-.31-.51-.12-1.62.89-2.51,2.77-2.66C541.74,344.67,541.76,344.94,541.5,345Zm3.35,4.88c-.53,0-1.34.1-1.4-.7s.72-1.14,1.23-1.45a.8.8,0,0,1,1.14.72C545.91,349.48,545.39,349.79,544.85,349.84Zm39.81,3.89c-2.66-2.77-2.37-6-3.19-9.49C583.8,346.22,584.92,350.19,584.66,353.73Zm-1-74.85c-.48-2.67,1.69-2.57,3-2.95s1.72,1.22,1.8,2.3a30.64,30.64,0,0,1,.67,5.08c.07.81-.14,1.64-1.24,1.45-1.07.09-2.19-.36-1.76-1.75.21-.83.95-1.7-.41-1.86-.83-.21-.7,1.41-1.8,1.22A15,15,0,0,0,583.62,278.88Zm-10.41,8.66c2.26,1.18,2.68,3,2.58,5.21,0,.54-.21.83-1,1.16a1.16,1.16,0,0,1-1.16-1C572.68,291.1,573.9,289.38,573.21,287.54Zm-2.44-13.87c.53,0,1.34-.11,1.65.41.89,1,2.37,2.52,1.13,4-1.51,1.47-.87,2.77-1.23,5-2.1-2.54-1.77-5.28-2.5-7.65C569.49,274.58,570.25,274,570.77,273.67Zm-5.19-.67c1.34-.11,1.69.94,1.78,2a1.92,1.92,0,0,1-1.42,2.55c-1.1-.19-1.43-1-1.52-2.05S564.52,273.35,565.58,273Zm-19.65,15.07c3.12-1.6.53-3.56.14-5.15a1.64,1.64,0,0,1,2.15-.17c1.12.46,1.22,1.8,1.31,2.88.44,2.13-.53,3.55-2.12,3.95a1.4,1.4,0,0,1-1.12-.45A.68.68,0,0,1,545.93,288.07Zm-9.68-2.75c-.46-2.4-1.46-4.75-.58-7.26a5,5,0,0,1,2.23,4.15c.29,3.77,1.65,7.18,1.11,10.74a9.26,9.26,0,0,0,.57,3.74c.15,1.88.15,1.88-2.75,2.92C538.07,294.65,536.88,289.87,536.25,285.32Zm-.92,29.56C537,305,545.17,299,554,298l10.48-.83c11.36-.09,20.49,6,22.3,18.53.69,5.35,1.63,10.42,1.25,15.86-.53,3.56-.26,3.54-4,3.84L538.59,339c-3,.23-3.23.25-3.46-2.7C534.82,329,534,322,535.33,314.88Zm-6.57,23c.25-.29.81-.06,1.37.16,1.45,1.24,1.26,2.34,0,3.52-.31-.52-.58-.49-.6-.76C528.91,339.73,527.77,339,528.76,337.85Zm3.68,63.83a1,1,0,0,1-1.38-.44c-.3-.24-.58-.49-.09-1.07.74-.87.35-2.46,1.88-3.67C534.42,399.35,534.26,400.72,532.44,401.68Zm-.57-7.26c0,.26-.52.31-.54,0-1.45-1.24.12-1.91,0-3C532,392.51,532.61,393.55,531.87,394.42Zm-3.49-27.05a1.15,1.15,0,0,1-1,1.16,1.38,1.38,0,0,1-1.18-1.26c.1-2.17-.09-4.59,1.06-7.12C529.9,362.65,528.21,365.22,528.38,367.37Zm-2.61-36.59c.87.75.37,1.33-.12,1.91a1.32,1.32,0,0,1-2.2-.37,3.34,3.34,0,0,1-.52-3.21C524.27,329,524.9,330,525.77,330.78Zm-4.54-16.41c.95,1.82,0,3.78.42,5.38C521,317.91,519.49,316.4,521.23,314.37Zm-9.94-12.74c.54-.05,1.37.16,1.39.43.26,3.22,3.38,5.14,2.6,9-2.63-2.5-3.65-5.12-4.94-7.73C510,302.54,510.51,302,511.29,301.63Z"/><path class="cls-2" d="M648.46,401.18c8.83,9,19.88,12,31.77,11.83a181.39,181.39,0,0,0,21-1.65c11.23-1.7,21.17-6,28.87-14.72,1-1.17,1.69-2.57,3.8-3.28l.7,8.87c.28,3.5.28,3.5,3.5,3.24L769,403c1.61-.12,2.38-.73,2.23-2.61a61.79,61.79,0,0,0-1.07-6.68c-1.47-11.78-2.94-23.57-3.87-35.4-1.54-16.11-2.84-32.51-3.84-48.66A137.65,137.65,0,0,0,759,286.42c-3.86-14.58-12.23-24.74-26.66-29.28-7.22-2.41-14.59-3.18-22.18-3.39-14.6.07-29.16.67-43.11,5.56-6.58,2.42-12.86,5.07-18.19,9.55-10.4,8.67-13.55,20.28-13.07,33.23a143.69,143.69,0,0,0,1.73,15c.88,4.26,0,4,4.62,3.69,5.4-.15,11-.87,16.4-1.29l18.28-1.44-.61-7.8a78.3,78.3,0,0,1-.1-8.11c.46-7.88,5.16-13.39,12.85-15.35a48.13,48.13,0,0,1,16.42-1c6.54.57,11.91,3.4,14,10,3.49,10,4.57,20.2,5.37,30.41.17,2.16-.88,2.51-2.49,2.64-2.69.21-5.13.13-7.82.34-12.91,1-25.59,1.48-38.32,4.65-7.44,1.67-14.6,3.59-21.33,7.36-8,4.42-13.49,10.8-14.94,19.85a66,66,0,0,0,1.61,27.19A31.82,31.82,0,0,0,648.46,401.18ZM741,384.68c-.52.31-1.34.1-1.39-.43-.56-3.75-4.27-6.16-4-10.23a1.43,1.43,0,0,1,1.49-1.74c.08,1.07-.06,2.71,1.08,3.43,2.59,2,2.31,5.23,3.3,7.58C741.77,383.81,741.57,384.64,741,384.68Zm-4.71-18.57c2.53,1.16,2.41,3.06,2.53,4.67-.18,1.1-.7,1.41-1.5,1.48A26.36,26.36,0,0,0,736.32,366.11ZM736.19,289c-.83-.21-1.43-1-1.2-1.53.45-1.12.34-2.47,1.67-2.84.87.74.42,1.86.75,2.65C737.49,288.38,737.29,289.21,736.19,289Zm14.87,106.22c-.8.06-.87-.74-.89-1,0-.54-.37-1.33.72-1.14.54,0,.85.47.92,1.28C751.85,394.92,751.58,394.94,751.06,395.25Zm.28-6.78c0,.53.1,1.34-.7,1.4-.85-.47-1.43-1-1.25-2.06,0-.54.48-.85,1-.9C751.5,387.1,751.3,387.93,751.34,388.47Zm-.66-8.34a1.25,1.25,0,0,1-.7,1.41c-.8.06-1.12-.45-1.43-1,0-.54-.35-1.06-.12-1.61-.07-.81.12-1.91.9-2.24s1.41.7,1.54,2.31A1.63,1.63,0,0,1,750.68,380.13ZM745.5,311c2.65,2.77,1.32,6.39,2.38,9.56C745.58,318.85,745,318.9,745.5,311Zm2.08,16.07a44.48,44.48,0,0,0,3.49,10c1.62,3.38,1.43,7.73,1.18,11.53-.36,2.2-1,4.41-.81,6.83.11,1.35-.37,2.2-2,1.79-1.1-.19-1.95-.66-1-2.36,1.94-2.86,1.72-9.06.93-12.25-.86-4-2.77-7.63-2.86-12.22a12.22,12.22,0,0,0-4.13-7.79C745.61,322.64,746.85,324.7,747.58,327.08Zm-5.5-32a1.17,1.17,0,0,1,1.16,1A1.52,1.52,0,0,1,742,297a.86.86,0,0,1-.87-.75A1.16,1.16,0,0,1,742.08,295.05Zm-10.27-17c1.25-1.18.28-3.27,1.56-4.18,1.26-1.19,2.52,1.15,4.14,1,1.07-.08,2.42-.19,2.25,1.18-.43,1.39-1.55.93-2.64.75-1.91-.12-2.94.5-3.33,2.42a1.16,1.16,0,0,1-1.84.69C731.39,279.66,731.31,278.59,731.81,278Zm5.2,79.66c1.09.19.91,1.28,1,2.09-.2.83.42,1.86-.59,2.75a1,1,0,0,1-.83-.2,3.07,3.07,0,0,1-1-2.9C735.73,358.59,735.91,357.49,737,357.67Zm-6.1-39.55c.79-.34,1.61-.13,1.66.41.06.8-.7,1.41-1.76,1.76-.27,0-.58-.5-.85-.48A1.56,1.56,0,0,1,730.91,318.12Zm.53,27.28a2,2,0,0,1-1,.62,1.54,1.54,0,0,1-1.23-1.8,3.74,3.74,0,0,1,1-.89A3.32,3.32,0,0,1,731.44,345.4Zm-8.71-76.14a1.46,1.46,0,0,1,.91,1.28l-.23.56a1,1,0,0,1-1.16-1C722.23,269.84,722.19,269.3,722.73,269.26ZM659.49,277c.06.81-.7,1.41-1.48,1.74-.77.6-1.37-.16-1.68-.68-.62-1-1.52-2-1.08-3.43,1.32-.38,1.72,1.22,3.06,1.11C658.85,275.65,659.7,276.12,659.49,277Zm9.15,16.59a1.25,1.25,0,0,1-.14,1.63c-2-1.19-2.4-3.05-2.55-4.93.16-1.37.88-2.51.51-3.83a.71.71,0,0,1,.74-.87c.81-.06.85.47,1.16,1a1.94,1.94,0,0,1-.16,1.36C667,289.88,667.69,291.72,668.64,293.54Zm5.66-3.69c-.8.06-1.13-.72-1.2-1.53a1.25,1.25,0,0,1,1.28-.91c.54-.05.6.76.92,1.28C675.07,289.25,674.84,289.81,674.3,289.85Zm19-9.35a1.85,1.85,0,0,1-2.36,1c-1.39-.43-.64-1.3-.17-2.15.68-1.68.68-1.68.2-4.34a2.61,2.61,0,0,1,2.61,2.22C693.68,278.31,694.06,279.63,693.32,280.5ZM678.59,399.07c-.62-1,.44-1.38.95-1.69,1.76-1.77,2.13-4,.92-5.49-2.36-2.52-.65-4.82.51-7.34.31.51.89,1,.66,1.57a34.22,34.22,0,0,0,2.33,9c1,2.36.26,3.23-1.89,3.4C680.75,398.9,679.73,399.79,678.59,399.07Zm6.33,8.16c-1.59.4-3.09-1.38-3-3.28-.12-1.62.62-2.49,2-2.59,1.62-.13,3.11,1.65,3.24,3.26C687,406.25,686.26,407.12,684.92,407.23Zm1.81-49.11c9.5-2.91,19.18-3.67,28.9-3.9a53,53,0,0,1,9,.38c1.63.14,2.48.61,2.61,2.22,1.26,9.1-1.73,15.83-9.49,20.23a29.26,29.26,0,0,1-13.19,4.29c-4.3.34-8.58.94-13.18,1a10.61,10.61,0,0,1-4.07-.22c-6.38-1.94-8.49-4.74-8.77-11.76C678,364.22,680.65,360,686.73,358.12Zm-13.09-4.65a9.14,9.14,0,0,0,1.48-5.25c0-.54.46-1.12,1-.89.27,0,1.12.45,1.17,1-.08,2.44-.18,4.61-.26,7.05.06.81-.74.87-1.55.93C674.15,356.41,672.65,354.63,673.64,353.47Zm-3,43.53c.78-.33,1.09.18,1.13.72.32.52.09,1.08-.45,1.12a1,1,0,0,1-1.16-1C670.09,397.58,670.32,397,670.59,397Zm-25-29.14c1-1.7-.56-3.74.9-5.75a46.73,46.73,0,0,1,4,16.73,32.87,32.87,0,0,0,1.11,7.21,1,1,0,0,1-.43,1.39c-.79.33-1.1-.18-1.41-.7-.65-1.3-1.81-2.29-1.67-3.93.33-2.73-1-5.33-2-7.69S644.14,370.41,645.56,367.86Z"/><path class="cls-2" d="M892.86,303.18c-.81.06-1.3.64-1.22,1.71.07.81.38,1.33,1.45,1.24s1.31-.64,1.26-1.18C894.25,303.61,893.94,303.09,892.86,303.18Z"/><path class="cls-2" d="M874.8,290.26a44.37,44.37,0,0,1,1.77,8.79l7.17,90.87c.32,4,.32,4,4.35,3.72l31.19-2.46c4-.32,4-.32,3.71-4.35l-6.8-86.31a39.57,39.57,0,0,1-.18-5.66c-.49-9.7-2-19.05-6.26-27.91-4-8.89-10-16.53-19.21-20.67a53.44,53.44,0,0,0-19.87-4.93c-2.73-.32-5.4.16-8.09.37-9.45.21-18.86.95-27.72,5.16-5.21,2.58-10.11,5.67-13.8,10.29-2.48,2.9-3.86,6-6,9.94-.74-5.89-1.68-11-2.35-16-.17-2.16-1-2.9-3.17-2.46l-28.76,2.27c-3.23.25-3.23.25-2.95,3.75l.08,1.07a275,275,0,0,1,4.76,32.9c2.81,32.24,5.38,64.77,7.95,97.31l1,12.63c-.1,2.17.75,2.65,3.17,2.46l33.07-2.61c2.15-.17,3.18-.79,2.75-2.92a13,13,0,0,1-.26-3.23C828.2,364.82,826,337.39,823.6,310a81.73,81.73,0,0,1,.17-11.64c.37-9,4.16-15.75,12.82-19.14a40.88,40.88,0,0,1,11.17-2.5c3.47-.55,6.76,0,10.3.27C866.25,278,872.24,281.81,874.8,290.26Zm28.61,88.37c-1.9-.12-2.52-1.15-3-3.28.8-.06,1.07-.09,1.09.18,1.12.46,2.76.6,2.62,2.23A.72.72,0,0,1,903.41,378.63Zm9.78-23.49c-1.72-1.22-2.07-2.27-.3-3.77A3.24,3.24,0,0,1,913.19,355.14Zm-7.4-69.76c1.77,1.76,1.65,3.66.18,5.67C903.3,288,903.3,288,905.79,285.38Zm-5.42-.11a1,1,0,0,1-.82-.21c-1.14-.72-.67-1.57-.48-2.66.24-.29.22-.56.45-1.12.31.52.6.76.91,1.28A2.47,2.47,0,0,1,900.37,285.27Zm-1.86-9.86c1.81,2.29,1.81,2.29.1,4.59A4.66,4.66,0,0,1,898.51,275.41Zm-12.75-17.66c3.37,1.62,4,2.12,3,4.36-.64,2.21-2.37,4.24,1,5.87l0,.27c-1.77,1.49-1.15,2.52,0,3.78a9.45,9.45,0,0,1,2,4.45c.89,4.52,3.09,8.41,3.72,13,.39,4.84,1.82,9.32,1.93,14.18-.14,1.64.24,3-1,4.68-1.24,1.45,0,3.51,1.21,5,1.14.73,2,1.74,1.33,3.14-1.86.42-1.74-1.48-2.61-2.22-.58-.5-1.16-1-2-.66-1,.35-.43,1.38-.36,2.19a3.37,3.37,0,0,0,.39,1.59c1.2,1.53,1.83,2.56-.22,4.08-.76.6-.39,1.92.73,2.38.85.47,1.68.67,2.53,1.15,1.4.7,2.44.08,2.31-1.54a5.72,5.72,0,0,0-.17-2.15c0-.53.21-.82.72-1.14a1,1,0,0,1,1.16,1,12.77,12.77,0,0,0,2.17,6.87c0,.53.1,1.34.66,1.57,2.28,1.44,2.39,2.79,0,3.78.66,1.57,2,1.2,2.84,1.67,2,.93,2.07,2.27,1.16,4.51-.45,1.12-.36,2.19-.82,3.31-.2.83-1,.89-1.82,1a1.51,1.51,0,0,1-.91-1.29l-.21-2.68c-.15-1.89-.5-2.94-2.23-.91-1,.89-1.35.11-1.41-.7-.34-.79.16-1.37.63-2.21,2-2.59.41-5.18-.07-7.84-.05-.54-.58-.5-1.12-.46a1.26,1.26,0,0,0-.75.87,7.43,7.43,0,0,0-.07,2.44c.08,1.08.7,2.11-.29,3.27a1,1,0,0,1-1.16-1c-.33-.78-.41-1.86-1.49-1.77s-1.51,1.47-1.15,2.52a36.39,36.39,0,0,1,1.69,7.71c.08,1.08.89,1,1.45,1.24,2.21.64,3.68,2.15,5.9,2.78,3.29.56,3,4.36,5.1,6.36.29.25-.18,1.1-.7,1.41-.76.6-1.1-.18-1.68-.68-.89-1-.73-2.37-1.37-3.68a2.74,2.74,0,0,0-3.15-2.18c-1.86.41-2.35,1-2.47,2.9a14.35,14.35,0,0,1-.72,4.65c0,.54-.18,1.1-.14,1.64.13,1.61,2.07,2.27,1.68,4.19a5.29,5.29,0,0,0,.32,4c1.16,1,2.07-1.25,3.25,0-.12,1.9-3.14,1.33-3,3.48.41,1.86,2.07,2.27,3.23,3.26.56.23.6.77,1.18,1.26.6.77,1.76,1.76.5,2.94s-1.9-.12-2.52-1.15a1.8,1.8,0,0,0-1.7-.95c-3-.84-4.85-3.14-4.29-6.43.8-3.58-.27-6.74-1.33-9.9-.39-1.59-.77-2.92.47-4.37a3.64,3.64,0,0,0-.34-4.3c-2.71-3.57-2.79-7.89-2.57-12a6.89,6.89,0,0,0-.58-4,15.59,15.59,0,0,1-1.21-5.05c-.91-8-2.64-16.29-3-24.65-.11-1.34-1.56-2.58-1.15-4.23.79-.34,1.08-.09,1.39.43.91,1.28,2.05,2,3.33,1.09a2.74,2.74,0,0,0,1.36-3.35,23.35,23.35,0,0,1-1.56-6.1,1.45,1.45,0,0,0-1.45-1.24c-1.1-.19-1,.62-1.24,1.45.08,1.07.44,2.13-.84,3-1.18-1.26-1.6-3.12-2-5-.5-2.94.36-5.71-.94-8.58,0-.27-.09-1.08.18-1.1,3.3-2.69.4-5.17-.35-7.82a21.15,21.15,0,0,0-.83-3.72C884.65,264.33,886.33,261.49,885.76,257.75Zm-5.75-.9c.54,0,1.3-.64,2.17.1.06.8-.72,1.14-.95,1.7-.76.6-1.28.91-1.88.14-.29-.24-.58-.49-.6-.76C878.39,257,879.47,256.89,880,256.85Zm-21.26,1.4c-.65-1.3-1.56-2.58-1.13-4,.16-1.37.58-3,1.88-3.67,1.59-.39,2,1.74,3.44,2.44.45-1.12-1-1.82-.22-2.69,1-.89,1.89-.15,2.76.59a4,4,0,0,1,1.3,2.87c.36,1.06.69,1.84,1.52,2,1.09.18,1.55-.94,1.77-1.49.5-.58.73-1.14,1.53-1.21,2.1,2.54-.09,5.69,2.27,8.21a2.17,2.17,0,0,1-2.56-1.69,3.82,3.82,0,0,1-1.16-1c-3.08,2.14-3.63-1.34-5.33-2.29-2-1.19-3-.84-2.6,1.29.5,2.94-3,3.21-3.36,5.41,0,.53-.79.33-1.07.08a3.7,3.7,0,0,1-.67-1.57C856.72,260,859.72,260.34,858.75,258.25ZM816.12,321.4a1.84,1.84,0,0,1,1.43,1c.08,1.08-.17,1.37-.95,1.7a1.7,1.7,0,0,1-1.72-1.21A1.28,1.28,0,0,1,816.12,321.4Zm-10.39,60.34c.08,1.08-.12,1.9-1.2,2-.81.06-1.14-.72-1.2-1.53l0-.27c.56-6.54-2.84-11.95-3.33-18.13-.44-5.65-.89-11.29-1-16.69,0-6.77-.5-13.22-2.87-19.26-1.71-4.46-2.09-9.3-3-13.83-1.23-5.31-1.65-10.69-2.62-16-.12-1.61-.81-3.45.68-5.2,2.27,1.45,2.15,3.35,2.3,5.23.47,5.92,2,12,3.06,18.16,1.53,9.08,4.11,17.8,4.85,27.21l.15,1.88c-1.06,7.12,1.1,14,1.38,21a12.15,12.15,0,0,0,1.5,5.3C805.73,375,805.47,378.51,805.73,381.74Zm-4.46-90.82c-.2-5.93-2.22-10.91-3.18-16.25C801.55,277.37,803.66,287,801.27,290.92ZM807.1,334c-1.16-1-1-2.09-.87-4.26C807.45,331.56,808.61,332.55,807.1,334Zm-.17-22.71c-.2.83-.7,1.41-1.52,1.2-.54,0-.88-.74-.65-1.3.14-1.64-.83-3.72.65-5.46C806.91,307.52,807.86,309.34,806.93,311.31Zm5.85,50.12c-.78.34-1.12-.45-1.43-1a1.81,1.81,0,0,1,1-1.42c.54-.05.85.47,1.16,1A1.46,1.46,0,0,1,812.78,361.43ZM821.35,374a28.46,28.46,0,0,0-3.06-1.11,97.73,97.73,0,0,0-.87-17.78,3.87,3.87,0,0,1-.66-1.57c.23-.56.7-1.41,1.24-1.45,1-.36,1.11.45,1.45,1.23,1.21,5.05,2.68,10.07,2.82,15.2C822.42,370.41,822.81,372,821.35,374Zm-1.13-89.72c-.22.56-.43,1.39-1.24,1.45a1.38,1.38,0,0,1-1.18-1.26c-.75-2.65-1.52-5.56-.14-8.65C819.49,278.4,821,281,820.22,284.29Zm25-26.59c-1.33.38-1.68-.68-1.76-1.75s.67-1.68,1.75-1.76c1.1.18,1.68.68,1.74,1.48A1.7,1.7,0,0,1,845.18,257.7Z"/><path class="cls-2" d="M891.23,286a1.23,1.23,0,0,0,1-1.43c-.33-.78-.41-1.86-1.76-1.75-1.07.08-1.28.91-1.19,2C889.58,285.58,890.18,286.34,891.23,286Z"/><path class="cls-2" d="M954.45,384.34a69.42,69.42,0,0,0,27.13,4.36c5.67-.18,11.13.47,16.77,0,6.46-.51,12.58-1.81,18.72-2.83a57.61,57.61,0,0,0,23.89-9.19c10-6.48,15.52-15.83,16.47-27.81.71-8.17-.44-15.93-2.44-24.16-3.07-11.39-10.09-18.14-21.39-20.76a71.4,71.4,0,0,0-24-1.9c-6.72.53-13.73.81-20.45,1.34a25,25,0,0,1-6.52-.3c-4.94-1-9.19-3.33-11-8.6-1.74-5-3.22-10-2.82-15.2.42-8.42,5.35-14.49,13.11-15.64a90.45,90.45,0,0,1,19.08-1.5c7.89.46,14.43,4.54,16.12,12.25a53.72,53.72,0,0,1,.77,13.19c-.08,2.45.24,3,2.39,2.79,10.77-.58,21.5-1.69,32-2.52,1.63.14,2.4-.46,2.52-2.36.67-5.2,1.32-10.66.34-16.26a66.57,66.57,0,0,0-1.09-6.95c-1.57-9.61-5.43-17.43-13.72-23a53.12,53.12,0,0,0-14.55-6.16c-9.4-2.51-18.89-2.84-28.34-2.63A106.21,106.21,0,0,0,956,239c-16,6.94-24.45,19.25-25.54,36.37-.68,12,1.83,23.12,5.92,33.89,6.45,16.54,20.36,24.91,37.65,24.63a184.23,184.23,0,0,0,24.55-.86,47.29,47.29,0,0,1,15.21.7c5.48.92,7.91,4.24,7.53,9.68a11.47,11.47,0,0,1-6.5,10.25c-2.6,1.29-4.94,2.56-7.63,2.77-8.87.7-17.41,2.18-26.12,1.52-9.53-.87-17.92-4.27-24.18-11.62-.6-.76-1.22-1.8-2.59-2-5.9,7.5-11.78,15.27-17.66,23a2.1,2.1,0,0,0,.24,2.95A33.68,33.68,0,0,0,954.45,384.34Zm81.9-110.61c-1.76-1.75-1.91-3.63-1.56-6.1C1037.65,269.57,1037.78,271.18,1036.35,273.73Zm-4.28-23.47c.51-.31.82.21,1.14.73.39,1.59.79,3.18.11,4.86-2-1.2-1.6-3.12-2.24-4.43A1.14,1.14,0,0,1,1032.07,250.26Zm-1.52,18.52c1.18,1.26,1,2.62-.24,3.81-1.7-.95-2.07-2.28-1.1-3.71A.76.76,0,0,1,1030.55,268.78Zm-2.4-13.34c.33.79.39,1.59.73,2.38,0,.54-.19,1.1-.15,1.63-.22.56-.72,1.14-1.28.92-.26,0-.82-.21-.84-.48a20.83,20.83,0,0,1-1.65-3.66,1.72,1.72,0,0,1,1.2-2C1026.94,253.91,1027.81,254.66,1028.15,255.44ZM1023.54,245c2.56,1.69,2.73,3.84,2.43,6.84A8.55,8.55,0,0,1,1023.54,245Zm-7,4.33a3,3,0,0,1,2.37,2.52c0,.54-.46,1.12-1,.89a2.87,2.87,0,0,1-2.34-2.25C1015.27,250,1015.79,249.65,1016.57,249.32Zm-8.12,3.35c-.12,1.9,1.13,4-1.15,6-.54-3.48-.77-6.43-1.81-9.33C1007.14,249.8,1008.55,250.49,1008.45,252.67Zm-5.72-7.4c.92-2,.26-3.53.11-5.42.23-.55.19-1.09,1-1.42a2.24,2.24,0,0,1,1.41.7c.37,1.32,1.31,2.87.34,4.3-1.47,2-.78,3.85-.34,6C1001.64,248.61,1001.37,248.63,1002.73,245.27Zm-11.06-6.43c1.07-.08,1.41.7,1.47,1.51a7.4,7.4,0,0,1,.46,2.4c.13,1.61.52,3.2,1.95,4.17a1.32,1.32,0,0,1,.94,1.55c-.21.83-1,.89-1.8,1.23a1.28,1.28,0,0,1-1.45-1.24,65.71,65.71,0,0,0-2.23-7.67C991,240,990.88,239.17,991.67,238.84Zm-51.29,25.42a1,1,0,0,1,.65,1.3c-.23.56-.21.83-.75.87a1.46,1.46,0,0,1-.91-1.28C939.33,264.61,939.82,264,940.38,264.26Zm-.54,10.32c.52-.31,1.08-.08,1.66.41a.72.72,0,0,1-.74.87c-.52.31-1.08.09-1.12-.45A1,1,0,0,1,939.84,274.58ZM937,290.22a.71.71,0,0,1-.87-.74.72.72,0,0,1,.74-.87c.54,0,.56.23.62,1A.52.52,0,0,1,937,290.22ZM942.27,302c-1.32.38-1.42-1-1.76-1.75-.08-1.08.1-2.17,1.45-2.28,1.07-.08,1.16,1,1.24,2.07C943,300.58,943.62,301.88,942.27,302Zm-2.36-16.31c0-.54.18-1.1.45-1.12.54,0,.85.47.89,1a.72.72,0,0,1-.74.87C940.24,286.45,939.93,285.94,939.91,285.67Zm1.5-5a12.16,12.16,0,0,0-4.14-1c-.56-.22-1.14-.72-.67-1.57.21-.82.68-1.67,1.24-1.45,1.43,1,3.31.82,4.74,1.79a1.7,1.7,0,0,1,.36,1.06C942.73,280.31,942.26,281.15,941.41,280.68Zm44.68-37.07c.52-.31.56.23.85.47,0,.54-.18,1.1-.45,1.12-.54,0-.83-.2-.85-.47C985.33,244.21,985.58,243.92,986.09,243.61Zm-8.63-3.11a1.49,1.49,0,0,1,1.7.95,2.05,2.05,0,0,1,.62,1c.11,1.34,1,2.35.57,3.74-3-.84-4.22-2.1-4.1-4A2.1,2.1,0,0,1,977.46,240.5Zm-4,7.09c4.11,4,4.11,4,9.43-.48,1.48,1.51-.65,1.95-.86,2.77-.47.85-.1,2.18-.86,2.78-1.33.37-2.49-.62-3.56-.53C973.52,252.18,973.52,252.18,973.42,247.59ZM958,261.25c2.16,3.34,3.44,5.95,2.87,9-.23.56-.43,1.38-1.53,1.2-.54,0-.87-.74-.64-1.3C959,267.39,956.66,264.87,958,261.25Zm.48-7.62c1.29,2.61.07,4.33-.59,6.27C956.38,257.86,957,255.91,958.48,253.63Zm4,50.28a1,1,0,0,1,.64,1.3c-.23.56-.72,1.14-1.26,1.18-1.88.15-2.77-.86-3.44-2.43C959.92,302.76,961.08,303.75,962.45,303.91Zm-12.73-55a2,2,0,0,1,2.24.91,5.35,5.35,0,0,1-.05,6.23c-1.72-1.22-2.16-3.35-3.1-4.9A1.62,1.62,0,0,1,949.72,248.91Zm3.75,13.23c0,.54-.41,1.66-1,1.43-1.37-.16-1.49-1.77-1.85-2.83-.31-.51.21-.82.73-1.14C953,259.75,953.36,260.8,953.47,262.14Zm-7.15,5.44c-1.07.08-1.88.15-2-.93,0-.27.2-.83.47-.85,1.08-.08,1.64.14,2,.93C947.11,267.24,946.59,267.56,946.32,267.58Zm4.89,34.51c-.51.31-1.39-.43-1.18-1.26A3.12,3.12,0,0,1,952,298c.51-.31.83.21,1.16,1C952.67,300.08,953.07,301.67,951.21,302.09Zm.23-10.84c-.27,0-.6-.76-.62-1a1,1,0,0,1,1-1.16c.53,0,.6.76.62,1C952.49,290.9,952,291.48,951.44,291.25Zm-.65-4.82c-.29-.24-.29-.24-.31-.51-.34-.79-.69-1.84.34-2.46.25-.3.54,0,.83.2C952.56,284.94,951.82,285.81,950.79,286.43Zm4.29-3.85c-1-2.63-3.61-4.59-3.32-7.86.14-1.63-1.33-3.14-1.75-5a2.39,2.39,0,0,1,1.92-3.12c.82.2,1.39.43,1.16,1-.66,1.94.73,2.37,1.62,3.38a2.07,2.07,0,0,1,.73,2.38c-1.42,2.55-.18,4.61,1.06,6.68l.94,1.55a1.48,1.48,0,0,1-1,1.7C956,283.59,955.39,283.09,955.08,282.58Zm4,33.23c1.26-1.18,2.52-2.36,1.83-4.2,0-.54-.11-1.35.7-1.41.54,0,1.1.18,1.14.72a30.6,30.6,0,0,0,1.39,3.95C962.24,315,961,316.47,959.06,315.81Zm5.15,3.65c-.56-.23-1.36-.16-1.43-1a1.16,1.16,0,0,1,1-1.16,1.28,1.28,0,0,1,1.45,1.24C965.29,319.38,964.75,319.42,964.21,319.46ZM963,287.09c-.53,0-1.09-.18-1.14-.72-.06-.81.46-1.12,1.26-1.18a1,1,0,0,1,1.16,1C964.09,287,963.84,287.3,963,287.09Zm.26-27.61a12.07,12.07,0,0,1,.21-7.59c1.54,2.31,1.21,5,1.94,7.42a1.16,1.16,0,0,1-1,1.16A1,1,0,0,1,963.27,259.48Zm2.6,9c-.89-1-.42-1.86.31-3,2-2.05,2.08-4.49,1.31-7.41-.84-3.72-1.14-7.48-2-11.47a6.13,6.13,0,0,1,.73-4.39c.68-1.68,2.32-1.53,3.25,0a4.65,4.65,0,0,1,.8,3.19,11.44,11.44,0,0,0,.53,6.72c.33.79.41,1.86-.66,1.95-1.6.39-2,1.51-1.65,3.1.68,1.84.58,4,3.07,4.63.27,0,.8-.06.85.47a19.06,19.06,0,0,1-3.55,3C967.85,266.15,967.46,268.07,965.87,268.47ZM992.4,327c-.14,1.64-1.22,1.72-2.56,1.83-4,.32-4.9-.42-4.68-4.5-.07-.81.14-1.63-.69-1.84-2-1.2-1.56-2.58-.59-4a1.84,1.84,0,0,0-.75-2.65c-3.1-1.65-3.09-4.89-3.34-8.12,5.68.09,7.43,1.58,7.33,7.27a67.48,67.48,0,0,0,.57,7.26c.13,1.61.78,2.91,2.66,2.76C992,324.85,992.56,325.61,992.4,327Zm4.26-.87c-.23.56-.21.83-.74.87-.52.31-.81.06-1.12-.45a5.39,5.39,0,0,1-.73-2.38c-.4-1.59-.25-3.23-1.19-4.78a1.31,1.31,0,0,1,.37-2.19c.78-.33,1.41.7,1.45,1.24.71,2.11,1.41,4.21,1.81,5.81Zm7.06-16.79c1.08-.08,1.41.7,1.49,1.78s-.1,2.17-1.44,2.27c-1.07.09-1.16-1-1.22-1.79C1002.46,310.49,1002.38,309.42,1003.72,309.31Zm4,10.23a6.45,6.45,0,0,0,0,6.23c.27,0,0,.53.07.8a1.81,1.81,0,0,1-1.78,1.5,1.47,1.47,0,0,1-1.45-1.24,15.84,15.84,0,0,0-1.29-6.12,4.11,4.11,0,0,1,.37-2.2,2.31,2.31,0,0,1,2.6-1.28C1007.09,317.7,1008.23,318.42,1007.77,319.54Zm8.3,2.32c-1.84-2.83-2.47-7.38-.82-10.48C1016.08,315.1,1018,318.2,1016.07,321.86Zm17.39,24.87a1.8,1.8,0,0,1,.63-2.21c.83.2,1.14.72,1.47,1.5.31.52,1.47,1.51-.1,2.17C1034.43,348.82,1033.81,347.78,1033.46,346.73Zm5,21.79c-1.34.11-1.7-.95-2.05-2l-.09-1.08c-.08-1.07-.16-2.15.89-2.5s1.68.68,2,1.47a4.71,4.71,0,0,1,.42,1.86C1039.66,367.07,1039.5,368.44,1038.42,368.52Zm-1.11-27.77a1.21,1.21,0,0,1,1-.89c.29.24.85.47.87.74a52.79,52.79,0,0,1,1,6.14C1037.67,345.32,1037.75,342.88,1037.31,340.75Zm6.84,7.84c1.08-.08,1.14.72,1.18,1.26s.38,1.33-.43,1.39a1.56,1.56,0,0,1-1.74-1.49A1.18,1.18,0,0,1,1044.15,348.59Zm-2.41,3.71c.06.81.15,1.88-1.17,2.26a2.89,2.89,0,0,1,0-3C1041.41,351.51,1042,351.74,1041.74,352.3Zm-13.87-28.39c.14-1.64-.53-3.21,1.31-3.9a4,4,0,0,1,4.14,1c.29.25.31.52.6.77a1,1,0,0,0,1.39.43c.79-.33.74-.87.43-1.39a28.77,28.77,0,0,1-.8-6.7c.81-.06,1.33-.37,1.37.16.5,2.94,1,5.61,1.48,8.54.4,1.6-1.17,2.26-1.62,3.38-1,1.7-1.18,2.25-2.9,1-.83-.21-1.32.37-1.53,1.2.11,1.34.49,2.67,1.83,2.56,1.9.12,4.08.22,5.52-2.06,1.89,3.37-1.77,5-1.27,7.95a3.38,3.38,0,0,1-2.09-2.54,1.45,1.45,0,1,0-2.63,1c0,.53.38,1.32.42,1.86.4,1.59,1.31,2.87.07,4.32-1.06-3.16-3.16-5.7-3.43-9.2C1029.93,329.42,1027.56,326.91,1027.87,323.91Zm-1.07,44.72c-.23.56-.44,1.38-1.22,1.72-.52.31-.85-.48-.89-1a1.81,1.81,0,0,1,.93-2C1026.15,367.33,1026.49,368.11,1026.8,368.63Zm-4.62-14c.8-.06,1.14.73,1.2,1.53a14.67,14.67,0,0,1,.55,3.48c.35,1,1,2.62-.58,3-1.61.12-1.72-1.22-1.85-2.83.19-1.1-.43-2.13-.52-3.21C1020.92,355.84,1021.1,354.74,1022.18,354.65Zm-4.36,3.05c1.88-.15,1.18,1.26,1,2.09-.45,1.12.71,2.11-.26,3.54a3.7,3.7,0,0,1-1.88-3.37C1016.56,358.89,1016.74,357.79,1017.82,357.7Zm-23.19,18.06c1.25-1.18.86-2.77.19-4.34s-.54-3.47-1-5.33a1.36,1.36,0,0,1,1.2-2,1.55,1.55,0,0,1,1.74,1.48,4.78,4.78,0,0,1,.42,1.86c-.31,3,1,5.61.94,8.59-.22.56.36,1.05.89,1,.81-.07,1-.62,1.26-1.18a5.26,5.26,0,0,0-.31-4c-.42-1.86-1.13-4-.18-5.66.25-.29.78-.34.81-.07a6.08,6.08,0,0,1,1.48,5c-.33,2.73.85,4,3.69,5.66-3.7,1.1-6.08,1.83-7.19,4.89-.18,1.1-1.24,1.45-2.34,1.27s-1.16-1-1.24-2.07c0-.53-.11-1.34-.4-1.59C992.38,378.11,993.12,377.24,994.63,375.76Zm-12.37-9.3c.25-.29.47-.85,1-.89a1,1,0,0,1,.56.23c.93,1.55,1.06,3.16,2.24,4.42a2.8,2.8,0,0,1-.2.83c-.54,0-1.06.35-1.35.1C983.41,370.7,982.07,367.56,982.26,366.46Zm.86,7.51c.74-.87,1.55-.94,2.15-.17.62,1-.43,1.38-1.21,1.72a2.6,2.6,0,0,1-2.11.7C981.57,374.9,982.63,374.55,983.12,374Zm-8.51-5a2.2,2.2,0,0,1,1.45,1.23c.5,2.94.49,6.19,1.78,8.79,0,.54.1,1.35-.7,1.41a1,1,0,0,1-1.43-1C975.43,375.93,973.54,372.56,974.61,369Zm-5,1.21c.27,0,.31.51.6.76-.23.56-.16,1.37-1,1.16a1.42,1.42,0,0,1-.63-1C968.51,370.52,969,369.94,969.57,370.17Zm-8.42-.42c1.07-.09,1.38.43,1.45,1.24-.23.56.13,1.61-1,1.69-1,.36-1.41-.69-1.47-1.5A1.23,1.23,0,0,1,961.15,369.75Z"/><path class="cls-2" d="M760.52,498.27c3.26-.26,5.05-1.34,4.72-5.53-1.83-17.21-2.72-34.49-4-51.27-.3-3.72-1.81-5-5.5-4.25L507.3,456.81c-7.46.59-7.46.59-6.87,8.05l3.94,49.87c.18,2.33,1.22,3.65,4,3.43l86.22-6.8c2.79-.22,4.26.6,4.48,3.4-.28,2.36.34,4.19.48,6l18.57,235.36c.51,6.52.51,6.52,7,6l61.05-4.82c5.13-.4,5.09-.87,4.69-6L672.24,514.61c-.81-10.25-1.67-9.24,8.58-10.05l51.27-4.05C741.41,499.78,750.69,498.58,760.52,498.27Zm-199.68,1.21c-1.39.11-2.4-.74-1.58-2.22-.07-.93.86-1,1.83-.61.93-.07,1,1.33,1.58,2.22C562.2,498.91,561.35,499.91,560.84,499.48Zm3.21-30.73c-1.44-.35-2.87-.71-2.56-2.61a2.52,2.52,0,0,1,2.15-2.52c1.87-.14,2,1.72,2.12,3.12C566.3,467.63,566,469.54,564.05,468.75Zm7.84,34.08c-2.55-2.61-3.23-5.37-.66-8.39C575.18,497,572.61,500,571.89,502.83ZM601,490.69c-1.22,2.45-.53,5.2.16,8,.14,1.87.25,3.27-2,4.85a20.85,20.85,0,0,1-1.56-13.95c.71-2.87,1-4.77-2.38-6.37-2.87-.72-3.6-3.94-2.89-6.81a6.45,6.45,0,0,1,4.37-4.1c1.87-.15,3.84,1.11,2.59,3.08-2.11,3-.57,4.73.55,7C601.9,485,602.55,487.28,601,490.69Zm39.32,11c.39-1,1.32-1,2.25-1.12.51.43,1.44.36,1.05,1.33.07.93-.83,1.47-1.76,1.54C640.41,503.52,639.87,502.63,640.27,501.66Zm11.15,111.67c-2.73-5-2.73-5-1.2-9.29C652.3,606.69,652,609.06,651.42,613.33ZM633.79,455.28c3,2.11,3,2.11,1,7C633.19,459.54,633.05,457.68,633.79,455.28Zm21.56,243.55c1.33-1,1.55,1.76,1.19,3.19-.82,1.47.26,3.27-1,4.77C655.76,704,652.7,700.92,655.35,698.83ZM635,506.76a4.46,4.46,0,0,1,1.37,5.52c-2.14,2.51-1.46,5.27-2.56,9.11-2.16-3.58-3.31-6.3-3.57-9.56-.18-2.33.14-4.24,2.4-5.35C633.61,506.41,634.5,505.87,635,506.76Zm3,32.12c-3.08-3.5-2.88-6.8-2.71-10.57C639.79,531.24,639.86,532.17,638,538.88Zm-12.54-52c.39-1,.75-2.4,2.18-2.05s3,2.11,2.56,2.62c-3,4-.82,7.56.45,11.68,0,.47-.79,1.94-1.72,2-1.36.58-1.9-.31-2-1.25-1.16-2.72-.91-5.55-2.46-7.31C624.83,490.22,625.18,488.78,625.5,486.88ZM638.22,666c-.93.08-1.47-.82-1.58-2.22.39-1,.79-1.94,1.72-2,1,.39,1,1.33,1.15,2.72C639.54,664.91,640.12,666.27,638.22,666ZM623.06,503.49c2.05,2.18,3.16,4.44,2.45,7.31-.43.5-1.29,1.51-1.75,1.54a2.1,2.1,0,0,1-1.51-1.29A6.56,6.56,0,0,1,623.06,503.49Zm-2.81,29.76c0-.46.86-1,1.79-1.08a2.42,2.42,0,0,1,1.66,3.15,2.12,2.12,0,0,1-1.29,1.51C620.94,536,619.89,534.69,620.25,533.25Zm5.18,83.53c-2.4-.74-2.62-3.54-1.95-6.88,2.87.71,5.31,1.93,8.65,2.6C630,614.55,628.3,617.5,625.43,616.78Zm10.06,62.05c2.64-2.08,1.49-4.81,2.2-7.68,2.44,1.22,3.06,3,2.66,4-1.88,5.78,1.24,9.75,3,13.84,1.62,2.68,2.74,4.94-.31,8-2.73-4.94-4.07-10-7.66-13.93A3,3,0,0,1,635.49,678.83Zm8,29.85c-.43.5-1.36.58-1.4.11-1.58-2.22-.33-4.19.45-6.13l1,.39C644.57,704.84,645.22,707.14,643.47,708.68Zm7.12,30.86c-2.29.65-2.48-1.68-3-2.58-2.16-3.58-.59-7.45-1.82-11.11a5,5,0,0,0,2.29-.65c1.23,3.66,2.89,6.81,4.11,10.46A4.24,4.24,0,0,1,650.59,739.54ZM639.91,574.37c-1.87.15-3.34-.67-3-2.57-.11-1.4.71-2.87,1.68-2.48,1.44.36,2,2.19,3,3A1.71,1.71,0,0,1,639.91,574.37Zm-5.08-10.85a1.32,1.32,0,0,1-2.33.18c-.47,0-.58-1.36-.61-1.82-.08-.93.78-1.94.71-2.87.64-3.8,2.46-4.42,5.87-2.81,1,.39,2.37.28,3,2.11C639.77,560.79,636,560.61,634.83,563.52Zm6.49-18.8c.07.93-.82,1.47-1.72,2-1-.86-2-1.72-1.65-3.15-.08-.93.32-1.9,1.25-2C641.06,541.46,641.64,542.82,641.32,544.72Zm15.76,176c-1.43-.36-1.51-1.29-1.58-2.22a1.48,1.48,0,0,1,1.29-1.51c1.43.36,1.5,1.29,1.58,2.22C658,720.2,657.55,720.7,657.08,720.74Zm-.67-32.31a1.24,1.24,0,0,1-1.29,1.51,2.27,2.27,0,0,1-1.62-2.68c-.07-.94.82-1.48,1.79-1.08C656.22,686.1,656.8,687.47,656.41,688.43Zm.8-31.48c-.43.51-.36,1.44-.79,1.94-.39,1-1.32,1-2.26,1.12-1-.4-1.5-1.29-.68-2.76,1.25-2,1.53-4.35,1.81-6.71.89-6.64-2.78-11.51-3.72-17.53-.84-4.62-2.6-9.17-2.5-13.87.89-.54,1.39-.11,1.43.36C655.65,631.28,659.44,643.64,657.21,657ZM646.63,511c-.93.07-2.33.18-2-1.26-.11-1.39.78-1.93,2.22-1.58.89-.54,1,.4,1.47.82A1.72,1.72,0,0,1,646.63,511Zm28.91,223.75c-.94.07-1.47-.82-1.58-2.22-.08-.93.31-1.9,1.25-2a2,2,0,0,1,2,1.72C677.33,733.68,676.94,734.65,675.54,734.76Zm-.14-13.59a.88.88,0,0,1-1.4.11c-2-2.18-1.72-4.09.46-6.13C677,717.29,676.65,719.19,675.4,721.17Zm-20.17-196.3c-2.22,1.58-2.84-.25-3-2.11-.19-2.34.67-3.34,3.11-2.13,1,.86,1.9.32,1.79-1.08.43-.5-.07-.93-.61-1.82-4-3-4.49-3.4-1.09-7.89,1.68-2.47-.83-4.62,1.7-8.11,3,7.74,1.72,15.81,7.36,21.93C661.4,525.79,658.38,523.21,655.23,524.87ZM665.29,480c-.4,1-.86,1-1.36.58-2.44-1.22-1.62-2.69-1.34-5.06C665.07,477.19,666.07,478.05,665.29,480Zm-1.22-15.38c.22,2.8,1.38,5.52-1.66,8.57-2.35-5.91.55-10.83-.36-16.38C666.47,459.26,663.89,462.28,664.07,464.61Zm11,32c-.94.08-1.4.11-1.94-.78-.69-2.76-.41-5.13,1.2-8.54,2.59,3.08.91,5.56,2.06,8.28C676.86,496,675.5,496.53,675,496.57Zm18.15-31.44c0-.47-.58-1.36-.61-1.83-.62-1.83-.73-3.22-1.41-6C697.59,461.5,697.59,461.5,693.19,465.13Zm9.17,15.22c-.82,1.47-1.79,1.08-3.22.72-1-.86-1.59-2.22-.73-3.22.79-1.94,1.87-.15,2.84.24A1.71,1.71,0,0,1,702.36,480.35Zm19.56,10.18a3.48,3.48,0,0,1-3.54,2.62,3,3,0,0,1-2.16-3.58,51.9,51.9,0,0,1,.31-8c.28-2.37.06-5.17-1.95-6.89-4.06-3.9-2.56-8.7-1.5-13,.75-2.4,1.53-4.34-.05-6.56a6.77,6.77,0,0,1,.07-5.16c1.25-2,4-2.2,5.12-.41a4,4,0,0,1,1.62,2.69c-.31,8,4,15.62,3.78,24.09C725.38,480.88,723.42,485.72,721.92,490.53Zm8.86-36.34a1.75,1.75,0,0,0,1.44.36c5.48-1.84,6-1.41,6.27,2.31-.3,8-.29,14.1-.28,20.19.11,1.4-.24,2.83-2.15,2.52-.93.07-1.5-1.29-1.58-2.22l-.51-6.53c-.3-3.73-.59-7.46-4.07-10-.54-.9-1.12-2.26-1.66-3.16C728.09,455.81,727.48,454,730.78,454.19Z"/><path class="cls-2" d="M840.7,652.05c-1.54-16.11-2.83-32.51-3.84-48.66a136.64,136.64,0,0,0-3.46-23.26c-3.85-14.58-12.23-24.74-26.65-29.28-7.23-2.4-14.59-3.18-22.18-3.39-14.61.07-29.17.68-43.12,5.57-6.57,2.41-12.85,5.07-18.18,9.55-10.41,8.66-13.55,20.27-13.07,33.22a137.93,137.93,0,0,0,1.73,15c.87,4.26,0,4.06,4.61,3.7,5.4-.16,11-.87,16.41-1.3l18.28-1.44-.62-7.8c-.21-2.68-.15-5.39-.1-8.1.46-7.89,5.17-13.4,12.86-15.36a48.11,48.11,0,0,1,16.42-1c6.54.57,11.9,3.39,14,10,3.5,10,4.57,20.2,5.38,30.42.17,2.15-.88,2.5-2.5,2.63-2.69.21-5.13.13-7.82.35-12.9,1-25.58,1.47-38.31,4.64-7.45,1.67-14.6,3.59-21.34,7.37-8,4.42-13.48,10.8-14.93,19.84a66.27,66.27,0,0,0,1.6,27.2,31.87,31.87,0,0,0,7,13c8.83,9.05,19.88,12,31.77,11.83a181.74,181.74,0,0,0,21-1.65c11.23-1.7,21.17-6,28.87-14.72,1-1.16,1.69-2.57,3.8-3.28L809,696c.27,3.49.27,3.49,3.5,3.24l30.92-2.44c1.61-.13,2.37-.73,2.22-2.61a58.94,58.94,0,0,0-1.06-6.68C843.11,675.67,841.63,663.88,840.7,652.05ZM733.92,570.66c.06.81-.7,1.41-1.49,1.74-.76.61-1.36-.16-1.68-.67-.62-1-1.51-2.05-1.08-3.44,1.32-.37,1.72,1.22,3.07,1.11C733.27,569.36,734.12,569.84,733.92,570.66Zm9.15,16.6a1.27,1.27,0,0,1-.14,1.63c-2-1.2-2.41-3.06-2.55-4.94.16-1.37.88-2.5.51-3.83a.71.71,0,0,1,.74-.87c.8-.06.85.48,1.16,1a2,2,0,0,1-.17,1.37C741.43,583.6,742.12,585.44,743.07,587.26Zm5.66-3.7c-.8.07-1.14-.72-1.2-1.53a1.24,1.24,0,0,1,1.28-.91c.54,0,.6.77.91,1.28C749.49,583,749.27,583.52,748.73,583.56Zm19-9.34a1.84,1.84,0,0,1-2.35,1c-1.39-.43-.65-1.3-.17-2.15.68-1.67.68-1.67.2-4.34A2.61,2.61,0,0,1,768,571C768.11,572,768.49,573.35,767.74,574.22ZM725.59,681.15c-.79.34-1.1-.18-1.41-.7-.64-1.3-1.8-2.29-1.66-3.92.33-2.74-1-5.34-2-7.69s-2-4.72-.57-7.26c1-1.7-.57-3.75.9-5.75a46.61,46.61,0,0,1,4,16.72,33.05,33.05,0,0,0,1.11,7.22A1,1,0,0,1,725.59,681.15Zm20.11,11.4a1,1,0,0,1-1.16-1c0-.27.2-.83.47-.85.78-.33,1.1.19,1.14.72C746.46,692,746.23,692.51,745.7,692.55Zm2.37-45.36a9.19,9.19,0,0,0,1.48-5.26c0-.54.45-1.12,1-.89.27,0,1.12.45,1.16,1-.08,2.44-.18,4.61-.26,7.05.07.81-.74.87-1.54.94C748.57,650.12,747.08,648.35,748.07,647.19Zm4.95,45.6c-.62-1,.43-1.39,1-1.7,1.75-1.76,2.12-4,.92-5.48-2.36-2.52-.65-4.82.5-7.35.31.52.89,1,.67,1.57a34.29,34.29,0,0,0,2.33,9c1,2.35.25,3.22-1.9,3.39C755.17,692.62,754.16,693.51,753,692.79Zm6.32,8.15c-1.59.4-3.08-1.38-3-3.28-.13-1.61.61-2.48,2-2.59,1.61-.13,3.11,1.65,3.23,3.26C761.43,700,760.69,700.84,759.34,700.94Zm32.79-30.18a29.22,29.22,0,0,1-13.19,4.29c-4.3.34-8.58,1-13.17,1a10.47,10.47,0,0,1-4.08-.22c-6.37-1.93-8.49-4.74-8.77-11.75-.49-6.18,2.15-10.45,8.23-12.28,9.51-2.92,19.19-3.68,28.91-3.91a53,53,0,0,1,9,.38c1.63.14,2.48.61,2.61,2.23C802.89,659.64,799.9,666.36,792.13,670.76Zm27.8-66c2.65,2.76,1.31,6.39,2.37,9.55C820,612.57,819.47,612.61,819.93,604.73Zm-3.43-16a1.15,1.15,0,0,1,1.16,1,1.48,1.48,0,0,1-1.28.91.86.86,0,0,1-.87-.74A1.16,1.16,0,0,1,816.5,588.77Zm-5.07,62.62c1.1.18.92,1.28,1,2.08-.21.83.42,1.86-.6,2.76A1,1,0,0,1,811,656a3,3,0,0,1-1-2.89C810.15,652.3,810.34,651.2,811.43,651.39Zm1.85,13.11c-.19,1.09-.7,1.41-1.51,1.47a26.75,26.75,0,0,0-1-6.14C813.27,661,813.15,662.88,813.28,664.5Zm-16.6-100.68c0-.27-.06-.81.47-.85a1.5,1.5,0,0,1,.92,1.28l-.23.56A1,1,0,0,1,796.68,563.82Zm8.15,75.91a1.52,1.52,0,0,1-1.22-1.79,3.67,3.67,0,0,1,1-.89,3.35,3.35,0,0,1,1.25,2.06A2.05,2.05,0,0,1,804.83,639.73Zm-.44-26.2a1.54,1.54,0,0,1,1-1.7c.78-.33,1.61-.13,1.65.41.06.81-.7,1.41-1.75,1.76C805,614,804.66,613.51,804.39,613.53Zm11.07,64.86c-.52.31-1.35.11-1.39-.43-.57-3.74-4.27-6.15-4.05-10.23A1.43,1.43,0,0,1,811.5,666c.09,1.08,0,2.71,1.09,3.43,2.58,2,2.3,5.23,3.3,7.58C816.2,677.52,816,678.35,815.46,678.39Zm-4.84-95.65c-.83-.21-1.43-1-1.21-1.53.46-1.12.35-2.46,1.67-2.84.87.75.42,1.86.75,2.65C811.92,582.1,811.71,582.92,810.62,582.74Zm.92-12.25c-1.9-.12-2.93.5-3.32,2.43a1.16,1.16,0,0,1-1.84.68c-.56-.22-.65-1.3-.15-1.88,1.26-1.18.28-3.27,1.56-4.18,1.26-1.18,2.53,1.15,4.14,1,1.08-.09,2.42-.19,2.26,1.17C813.76,571.13,812.64,570.68,811.54,570.49Zm14,118.47c-.81.07-.87-.74-.89-1-.05-.54-.38-1.32.72-1.14.54,0,.85.48.91,1.28C826.27,688.63,826,688.65,825.49,689Zm.27-6.78c0,.54.11,1.34-.7,1.41-.84-.48-1.42-1-1.24-2.07,0-.54.47-.85,1-.89C825.93,680.81,825.72,681.64,825.76,682.18Zm-.65-8.34a1.26,1.26,0,0,1-.7,1.41c-.81.06-1.12-.45-1.43-1,0-.53-.36-1-.13-1.61-.06-.81.12-1.9.91-2.24s1.4.7,1.53,2.32A1.65,1.65,0,0,1,825.11,673.84Zm1.57-31.5c-.37,2.19-1,4.41-.81,6.83.1,1.34-.37,2.19-2,1.78-1.09-.19-1.94-.66-1-2.36,1.93-2.86,1.71-9.06.92-12.24-.85-4-2.76-7.63-2.86-12.22a12.15,12.15,0,0,0-4.13-7.79c3.25,0,4.5,2.08,5.22,4.45a44.33,44.33,0,0,0,3.5,10C827.12,634.19,826.92,638.53,826.68,642.34Z"/><path class="cls-2" d="M883.32,514.62a8.51,8.51,0,0,1,.65-1c.23-.56.7-1.41.41-1.65-1.16-1.32-.84-2.75-.66-4a8.73,8.73,0,0,0-1.12,3.13A4.75,4.75,0,0,0,883.32,514.62Z"/><path class="cls-2" d="M929.34,664.54c-.46-2.4-.63-4.55-1.09-6.95-.38-1.32-1-2.35-3.09-1.38-3.86,2.47-8.14,3.08-12.73,3.17-5.69-.09-10.51-3-11.52-8.83-.5-2.94-1-5.6-1.21-8.56L882.41,430.92c-.3-3.76-.3-3.76-4.06-3.46l-29.85,2.35c-5.37.42-5.15-.13-4.72,5.24L856,582.13c2.18,27.69,4.35,55.12,6.8,82.79.78,9.94,5,18.54,13.55,24.36,5.74,4.14,12.34,5.52,19.42,6a77.8,77.8,0,0,0,13.73-.81,62.08,62.08,0,0,0,20.36-5.94c3.39-1.62,3.39-1.62,2.85-5.09C931.68,677.07,930.39,671,929.34,664.54ZM887.21,552.35c0,.54-.45,1.12-1,.89a1.66,1.66,0,0,1-1.51-2,1.43,1.43,0,1,1,2.52,1.16Zm-1.66,37.19c.33.79-.46,1.12-1.26,1.18-.54,0-1.08.09-1.41-.7a1,1,0,0,1,1-1.16A1.21,1.21,0,0,1,885.55,589.54ZM880.33,536c-2-4.71-1.28-9.37,1.36-13.64C881.51,527,882.14,531.51,880.33,536ZM886,595.72c0-.53.14-1.63.94-1.69,1.08-.09,1.16,1,1.21,1.52.06.81-.14,1.64-1,1.7A1.18,1.18,0,0,1,886,595.72ZM876.57,464.4c1.88-.15,2,2,2.43,3.33a2,2,0,0,1-1.69,2.57c-1.61.12-2.51-.89-2.65-2.77C874.55,466.19,874.67,464.28,876.57,464.4ZM875,478.33a4.1,4.1,0,0,1,1.62-3.38c.23-.56.17-1.36,1-.89.82.21.6.76.37,1.32a16.45,16.45,0,0,1,0,3.52,1.26,1.26,0,0,1-1.51,1.47A1.66,1.66,0,0,1,875,478.33Zm3.1,11.92a6.47,6.47,0,0,1-2.26-4.69c-.07-.8.1-2.17,1.46-2,1.1.19,1.43,1,1.25,2.07.13,1.61-.84,3-.45,4.63,1,5.61-.74,11.16-.3,16.8.07.81-.14,1.64-1.24,1.45-.8.07-.86-.74-.93-1.55-.05-4.05.44-8.15.12-12.18C875.33,493.18,875.11,490.49,878.07,490.25Zm1.06,62.47c-2.08-2.28-2.76-4.12-1.63-6.91C878.77,548.15,879.7,549.69,879.13,552.72Zm-7.24-92.82c1.43,1,2.05,2,1.33,3.15l-.81.06C871.27,462.39,871.19,461.31,871.89,459.9Zm-.25,7.06a.77.77,0,0,0,.55.22,3,3,0,0,1,1,2.36l-.51.31c-.83-.2-.9-1-1.21-1.53A3.58,3.58,0,0,1,871.64,467Zm-.16,4.88c.27,0,1.59-.4,1.74,1.48.11,1.35-1.22,1.72-2.27,2.08-1.35.1-2-.93-2.07-2.27S869.87,472,871.48,471.84Zm-10.26-20.29c-.13-1.62,0-3.52,1.25-4.7a5.94,5.94,0,0,0,1.3-4.16,4.23,4.23,0,0,1,1.31-3.89c1.46,4.75,1,8.85.49,12.94-.12,1.91-2,2.06-3.06,2.41C861.43,454.23,861,452.64,861.22,451.55Zm15.51,122.18c.33.79.1,1.35-.66,1.95-.52.31-.83-.2-.87-.74a2.06,2.06,0,0,1,.43-1.39C875.88,573.26,876.71,573.47,876.73,573.73ZM863.43,459a1.44,1.44,0,0,1-1.45-1.24,1.23,1.23,0,0,1,1-1.43c.8-.06,1.92.39,2,1.2C865,458,864.21,458.61,863.43,459Zm6.35,64.48a.72.72,0,0,1-.74.87c-.27,0-.83-.21-.85-.48a.8.8,0,0,1,.72-1.14A.86.86,0,0,1,869.78,523.43ZM868.35,543c-2-1.47-2.11-2.81-1.7-4.47C868.61,539.48,868.18,540.86,868.35,543ZM855.57,524c-1.21-5-.25-10,.7-15.2.55-3.29.48-4.1-3.16-5.7a9,9,0,0,0,2.39-4c1.3-4.16,1-8.19.64-12.5-.54-3.47-.55-7-1.37-10.44-.79-3.18,1.94-6.37-.74-9.41-.31-.51.45-1.12,1-1.43a2,2,0,0,0-.27-3.49c-.87-.74-1.74-1.49-1.31-2.87.78-3.85,1.53-8,2.31-11.82.19-1.1.66-1.95,2-1.78,1.12.45,1.21,1.53,1.29,2.6a2.84,2.84,0,0,1-1.46,2c-1.57.67-1.47,2-1.61,3.64-.1,2.18-.49,4.1,1.28,5.86.86.74.43,2.13.54,3.47-.67,5.19.31,10.79-.07,16.24-.63,5.73.62,11.31,1.87,16.89.09,1.08.71,2.11.23,3a9,9,0,0,0-.52,7.07,3.58,3.58,0,0,1,.07,1.88,3.66,3.66,0,0,1,1.26-1.12,1.14,1.14,0,0,1,1.68.68c.93,1.55,3.18,2.73,1.49,5.29a6.5,6.5,0,0,0-.75,4.12,4.24,4.24,0,0,1-1.32,3.89c-.71-2.1-.88-4.26-2.64-6-.05-.06-.07-.12-.12-.18a8.49,8.49,0,0,0-.88,7c.4,1.59.23,3-1.63,3.37C856.17,524.72,855.86,524.2,855.57,524Zm16.88,105.31A.84.84,0,0,0,873,629a3.55,3.55,0,0,1,.37,1.32c-.22.56-.16,1.37-1,1.7l-.56-.23A3,3,0,0,1,872.45,629.26Zm-1.66-3.93c-.89-1-.44-2.13.82-3.31.91,1.28,1,2.36,0,3.25Zm-10.45-53.55c0-.54-.39-1.59.68-1.67.79-.34,1.12.45,1.45,1.23.36,1.06.46,2.4.84,3.72-.19,1.1.79,3.19-.83,3.32-2.15.17-2.05-2-1.62-3.39C861.32,573.87,860.7,572.84,860.34,571.78Zm1.33,13.42c1.7.95,3.35,1.36,2.67,3-.2.83-1,1.43-1.52,1.2C860.87,588.78,861.82,587.08,861.67,585.2Zm4.14,45.67c.17-1.37,0-3.52,1.88-3.67,1.86-.42,2.28,1.44,2.38,2.79.15,1.88-.57,3-2.18,3.15A2,2,0,0,1,865.81,630.87Zm2.37,6c.77-.6.83.21,1.14.72a4.12,4.12,0,0,1,2.14,3.08,1.67,1.67,0,0,1-1.18,2.26,1.26,1.26,0,0,1-1.72-1.22,17.22,17.22,0,0,1-.54-3.48C867.71,637.75,867.4,637.23,868.18,636.9Zm6.46,33.85c-1,.35-1.38-.43-1.45-1.24-.44-5.65-3-10.85-2.93-16.54.15-1.64-1-2.9-1.16-4.51-.36-1.05-.15-1.88.9-2.24,1.33-.37,1.7.95,1.76,1.76a6.49,6.49,0,0,1-1.5,5c3-.24,3.17,2.45,3,4.09.32,4,1.44,8,2,12C875.38,669.88,875.45,670.68,874.64,670.75Zm.33-33.57c-1.1-.19-2.46-.35-2.57-1.69-.15-1.89,1.22-1.72,1.49-1.74,1.61-.13,2.66-.49,2.77.86S876.31,637.07,875,637.18Zm-6.72-92a15,15,0,0,0,3.53,3.51,1.65,1.65,0,0,1,.41,1.86c-.47.85-1.3.64-2.11.7C866.51,550.47,866.13,549.14,868.25,545.19Zm6.54,52a4.56,4.56,0,0,1-.3-3.76C875.94,594.63,876.29,595.68,874.79,597.15Zm5,22.6c-.83-.2-1.68-.68-1.72-1.22-.07-.8,1-1.42,1.77-1.49a1.23,1.23,0,0,1,1.18,1.26A1.43,1.43,0,0,1,879.82,619.75Zm.15-4.88c-1.09-.18-3,0-3.39-1.9-1.13-4-2.25-7.93-1.56-12.86a4.23,4.23,0,0,1,1.91,3.64,6,6,0,0,0,1.93,3.9c1.43,1,1.85,2.83,2,4.45C881.19,613.15,881.05,614.78,880,614.87Zm-3.32-49c-1.18-1.26-.69-1.84-.75-2.65s-.44-2.13.88-2.5,2.88-1.31,4.26-.88a.57.57,0,0,1,.58.49c0,.54-.18,1.1-.45,1.12C878.77,561.94,877.82,563.64,876.65,565.9ZM894.7,667.81c1.75,5,3.47,9.74,3.07,14.91-.25.29-.48.85-.72,1.14-1.91-.12-2.28-1.44-2.14-3.08a8.34,8.34,0,0,0-2.76-7.63c-.32-.51-.92-1.28-.67-1.57,1.44-2.27-.61-4.28-.2-5.93a9,9,0,0,0-1.62-6.91c-.61-.76-.15-1.88-.24-3,.36-5.72.72-11.42-.8-17-1.23-5.31-1.14-11-2.61-16-.11-1.34-.75-2.65,0-3.52,1.46-2,.78-3.84.34-6-.4-1.6-.5-2.94-2.16-3.35a2.85,2.85,0,0,1-1.76-1.76c-.09-1.07-.17-2.15.86-2.77,1.33-.38,1.93.39,2.28,1.44,1.37,3.68,2.77,7.63,4.14,11.31.64,1.3-.1,2.17-.84,3a2,2,0,0,0,.27,3.5c.56.22,1.41.7,1.19,1.26-2.17,3.41,1,6.14.74,9.41-.26,3.53.28,7,.29,10.52.34,4.31.65,8.34,2.59,12.24a8.86,8.86,0,0,0,3,3.56C893.57,663.84,893.64,664.65,894.7,667.81ZM906.05,678c-2.49-4.13-2.58-8.72-3.48-13.25C905.85,668.56,907.29,673,906.05,678Z"/><path class="cls-2" d="M1075,676.58l-.94-1.55c-6.82-7.58-12.87-15.75-19.2-23.91-8.7-11-17.44-22.16-26.41-33.09-2.7-3.3-2.7-3.3-.24-6.47,7.55-10.6,14.83-21.19,21.82-32a75.91,75.91,0,0,0,11.22-46.33c-.36-4.57-.36-4.57-4.93-4.21-9.7.49-19.38,1.26-29.06,2-6.72.53-6.72.53-6.7,7.56a53.65,53.65,0,0,1-5.73,23.45c-6.51,13.5-15,25.8-23.21,38.35a3.65,3.65,0,0,1-3.12,1.6l-9.41.74c-6.46.51-5.59,1.25-6.12-5.47l-13.61-172.6c-.32-4-.32-4-4.35-3.72l-31.46,2.48c-4.3.34-4.05,0-3.69,4.62l20.29,257.3c.32,4,.32,4,4.36,3.71l31.72-2.5c3.76-.3,3.76-.3,3.47-4.06l-3.55-44.9c-.39-1.59.64-2.22,2-2.32l12.9-1a3.39,3.39,0,0,1,3.09,1.38c3.65,5.12,7.81,9.93,11.46,15.06,7.8,9.66,15.33,19.35,22.85,29a5.31,5.31,0,0,0,5.32,2.29l40.06-3.16C1075.46,678.71,1075.66,677.88,1075,676.58ZM944.56,436.24c.78,2.91,2.2,3.88,4.36,3.71,1.07-.09,1.67.68,1.49,1.78-.16,1.36-1,.89-1.84.68C943.69,442.26,942.82,441.51,944.56,436.24ZM932.5,430.7c1.07-.09,2,1.46,3.31.82s.9-2.24,2.18-3.15c1.06,3.16,2.37,6,.72,9.14-1.43-1-1-2.9-2.2-3.89-.87-.74-2.48-.61-2.37.73.17,2.15-1.88,3.67-1.44,5.8C929.74,436.86,931.12,433.78,932.5,430.7Zm10.35,79.39c.07.8.65,1.3,1.74,1.48,1.39.43,2.65-.75,5.11-.4a5.59,5.59,0,0,0-2.29,5.32c.05.54-.45,1.12-1,.89-.8.06-1.65-.41-1.45-1.24,1.16-2.52-.21-2.69-1.89-3.37-2.52-1.15-3.17-6-1.42-7.73a.27.27,0,0,0,.25-.29c1-1.16,3.06,1.11,3.72-.83.46-1.12-.19-2.42.8-3.58a1.64,1.64,0,0,1,1.06-.36c.29.25.6.77.89,1a5.09,5.09,0,0,1-2.51,5.88c-.52.31-1.58.67-2.09,1C942.7,508.2,942.5,509,942.85,510.09Zm13.21,6.26c-1.63-.14-1.72-1.22-2-2-.9-4.52-2.07-9-3-13.56-.36-1,.07-2.44.24-3.8a1.49,1.49,0,0,1,1.28-.92A1.28,1.28,0,0,1,954,497.3C953.18,503.86,955.55,509.9,956.06,516.35Zm0,24.07c1.07-.08,1.67.68,1.49,1.78-.16,1.36-1,.89-1.84.69-4.88-.16-5.75-.9-4-6.18C952.49,539.62,953.92,540.59,956.07,540.42Zm-12.66,55.65c.36,1-.7,1.41-1.48,1.74a1.55,1.55,0,0,1-1.74-1.49c-.15-1.88.82-3.31,1.52-4.72.81-.06,1.55-.93,2.15-.17.58.5.64,1.31-.14,1.64A2.2,2.2,0,0,0,943.41,596.07Zm-4.27-6.16s.23-.56.5-.58c1.34-.1.93,1.55,1.78,2C940.34,591.44,939.25,591.26,939.14,589.91Zm10.24,64.66c1.39.43,1.74,1.49,1.33,3.14C949.28,656.74,949,656,949.38,654.57Zm-1.33-27.22c-.29-.24-.85-.47-.9-1,0-.27.77-.6,1-.62s.58.49.87.74C949.1,627,948.85,627.29,948.05,627.35Zm-5.11-71.55c-1.24-2.07-1-2.63,2-5.84.44,2.13,1.66,3.93.46,5.91C944.39,557,943.59,557.1,942.94,555.8Zm2-12.33c2.28,1.44.77,2.91.63,4.54C943,546.59,945.05,544.81,944.94,543.47Zm-1.28-9.37c-.87-.75-2.48-.62-2.37.73.17,2.15-1.88,3.66-1.44,5.79-3-3.28-1.58-6.37-.2-9.45,1.07-.09,2,1.46,3.31.82s.9-2.24,2.18-3.15c1.06,3.16,2.37,6,.72,9.14C944.44,537,944.82,535.09,943.66,534.1Zm-8.18-18c-1.56-2.58-1.15-4.24-.51-6.45C936.55,512.48,936.55,512.48,935.48,516.08Zm3.11,5.16c2.07,2.27,3.09,4.9.64,8.07C939,526.35,937.46,524,938.59,521.24Zm3.34-19.47c-2-1.46-2.93-2.74-2-5,.21-.83.39-1.92,1.75-1.76a2.27,2.27,0,0,1,1.79,2C943.57,498.67,942.87,500.07,941.93,501.77Zm-6.14-46.45c-1.24-2.06-1-2.62,2-5.83.44,2.13,1.67,3.92.47,5.91C937.24,456.56,936.43,456.62,935.79,455.32Zm2-12.33c2.28,1.44.77,2.92.63,4.55C935.88,446.12,937.9,444.34,937.79,443Zm-8.1,34.46c.62-2.49,3.14-1.33,4.67-2.54.25-.29.85.48,1.16,1,.07.81-.12,1.91-.66,2-3.31-.82-2,2.59-3.24,3.5a.81.81,0,0,0-.51.31C929.92,480.4,928.76,479.41,929.69,477.45Zm7.15,100.47c.62-2.48,3.14-1.33,4.67-2.53.25-.29.85.47,1.16,1,.07.8-.12,1.9-.66,1.94-3.31-.82-2,2.59-3.24,3.51a.81.81,0,0,0-.51.31C937.07,580.88,935.91,579.89,936.84,577.92Zm3.94,56.77c.18-1.1-.79-3.18,1.07-3.6,1.59-.4,1.51,2,2.13,3.08,1.83,2.56-.38,5.44.64,8.06,1,2.36,3.07,4.63,1.4,7.47-.45,1.11,1,2.62-.18,4.61-.85-4-1.93-7.42-2.77-11.14C942.57,640.23,940,638,940.78,634.69Zm5.3,22.58c2,1.46,1.89,3.36,1.5,5.29C946.64,661,945.71,659.46,946.08,657.27Zm6.57,18.15c-1.57.66-3.52,0-3.64-1.61-.22-2.69-1.24-5.31-.39-8.36.77,2.92,3.09,4.9,4.36,7.23C953.58,673.45,954.22,674.75,952.65,675.42Zm7.76,2.36c-.16,1.36-.93,2-2,1.51-1.36-.16-1.15-1-.68-1.84,1-1.16.64-2.21.28-3.27a1.83,1.83,0,0,1,1.16-2.52A12.81,12.81,0,0,1,960.41,677.78Zm6.76,0c-.47.85-.92,2-2,1.79-1.37-.17-1.47-1.51-1.56-2.58.33-2.74-.92-4.8-1.38-7.2-.17-2.15-1.12-4-4-2.93-.52.31-1.33.38-1.64-.14-1.58-2.85-3.1-1.65-5.06.94.21-4.07,2-5.3,4.54-4.15,4.2,1.84,4.47,1.82,4.65-2.8-.05-.53.2-.82.41-1.65,2.27,1.44.36,4.57,2.88,5.72,1.6-.39.62-2.48,2.46-3.17,1.31,2.87,1.56,6.1,2.09,9.31A8.65,8.65,0,0,1,967.17,677.78Zm-15.8-83.69c1.1.18,2.22.63,2.3,1.71l.66,8.33c-5.43-3.63-7.53-9.68-5.76-14.69,1.12.45.67,1.57.73,2.38C949.67,593.14,950,594.19,951.37,594.09Zm13.54,58.45c-1.43-1-1.53-2.32-1.64-3.66C966.31,649.72,966.31,649.72,964.91,652.54Zm2,1.46c.23,3,.23,3-1.52,4.72C964.44,656.9,965.72,656,966.92,654Zm-3.69-15.94a1.33,1.33,0,0,1-1.9-.12c-1.21-1.53-2.14-3.08-1.53-5.56,1.47,1.5,2.64,2.49,3.82,3.75C964.2,636.63,964,637.46,963.23,638.06Zm-2.8-35.49c-1-2.35-3.32-4.34-1.71-8C960.56,597.42,960.24,600.15,960.43,602.57Zm.4,25.67c.35,1-.41,1.65-1.18,2.26a56.92,56.92,0,0,1-2.92-6.27A7.09,7.09,0,0,1,960.83,628.24Zm-4.53-12.9c-.52.31-.83-.2-.87-.74s-.11-1.35.43-1.39c.78-.33,1.09.18,1.14.72C957.06,614.74,957.1,615.28,956.3,615.34Zm1.47,25.58c1.08,3.44,2.7,6.82,1.93,10.67-3-6.53-3.28-14.08-5.44-20.94C957.7,633.09,956.94,637.2,957.77,640.92ZM951,624.14c-.85-.47.26-3.54,1.31-3.89a1.23,1.23,0,0,1,1.43,1c.44,2.13,1.15,4.24.82,7C952.88,627,952.47,625.11,951,624.14Zm13.81-13.53c-.23.56-.47.85-1,.62-.27,0-.56-.23-.6-.76.22-.56.49-.58,1-.63C964.52,609.82,965.08,610.05,964.85,610.61Zm-3.16-29.78c-.83-.21-1.88.15-2-.93a2.06,2.06,0,0,1,1.4-2.81c1.35-.11,1.45,1.23,1.77,1.75C963.26,580.16,962.76,580.75,961.69,580.83Zm7,54.1c1.45,1.23,1.81,2.29.3,3.76A3.75,3.75,0,0,1,968.66,634.93Zm-2.24-35.27c1.39.44.67,1.57.48,2.67A3.22,3.22,0,0,1,966.42,599.66Zm5,45.6c-2-.93-1.8-2.29-1.44-4.48C970.87,642.33,971.76,643.34,971.37,645.26Zm-5.92-58a1.28,1.28,0,0,1-1.45-1.24,1.46,1.46,0,0,1,1.77-1.49,1.8,1.8,0,0,1,1.2,1.52A1.48,1.48,0,0,1,965.45,587.3Zm-1.11-17.5c-2.61,1.29-4.88,3.36-8.25,1.73-1.1-.18-2.92.77-4.24,1.15-1.55.93-1.42,2.54-.78,3.85,1.66,3.92,2,8,2,12.28.08,1.07.44,2.13-.57,3-2-.93-1.83-2.56-1.71-4.46.16-4.89-1.57-9.62-2.78-14.66-.06-.81-1.22-1.8-1-2.63.37-2.19-3.91-1.58-1.93-3.9.72-1.14,2-1.79,3-3.22.91,1.28,1.8,2.3,1.62,3.39-.87,2.78.79,3.19,3,3.29,2.71.05,5.73.63,8-1.72.5-.58,1.57-.66,2.36-1a1.81,1.81,0,0,1,2.52,1.15C965.91,569.14,965.12,569.47,964.34,569.8Zm-.08-18.12c0,.27,0,.54-.23.56l-4.71,2c-.76.61-1.92-.38-2.52-1.15.94-1.7,2.58-1.56,3.65-1.64,1.59-.4,2.63-1,1.16-2.53-.63-1-.94-1.55.38-1.92.79-.33,1.87-.42,2,.66A20.17,20.17,0,0,1,964.26,551.68Zm-2.73-20.88a1.9,1.9,0,0,1-2.07-2.28,2.07,2.07,0,0,1,1.71-2.29c1.63.14,1.2,1.52,1.53,2.31C962.5,529.37,962.87,530.69,961.53,530.8Zm-4.35-61.47c-2.6,1.28-4.87,3.36-8.24,1.73-1.1-.18-2.92.77-4.24,1.14-1.55.94-1.42,2.55-.78,3.85,1.66,3.93,2,8,2.05,12.29.08,1.07.44,2.12-.57,3-2-.93-1.83-2.57-1.71-4.47.16-4.88-1.57-9.61-2.78-14.66-.06-.8-1.22-1.8-1-2.62.37-2.2-3.91-1.59-1.93-3.91.72-1.14,2-1.78,3-3.21.91,1.28,1.8,2.29,1.62,3.39-.87,2.77.79,3.18,3,3.28,2.71.06,5.73.63,8-1.71.5-.58,1.57-.66,2.36-1a1.82,1.82,0,0,1,2.52,1.16C958.76,468.66,958,469,957.18,469.33Zm-.07-18.12c0,.27,0,.53-.23.55l-4.71,2c-.76.6-1.92-.39-2.53-1.15,1-1.7,2.59-1.56,3.66-1.64,1.59-.4,2.63-1,1.16-2.53-.63-1-.94-1.55.38-1.92.79-.34,1.86-.42,1.95.65A20.27,20.27,0,0,1,957.11,451.21Zm15,162.61c-1-2.09-2.22-4.15-1.11-7.22,1.53,2.32.9,4.53,2.88,5.73.85.47,1.45,1.24.44,2.13A1.42,1.42,0,0,1,972.14,613.82Zm4.53,12.9a1.47,1.47,0,0,1-1.2-1.53c-.42-1.86-.3-3.76-2-5.25-.6-.76-.1-1.34.66-2a1.08,1.08,0,0,1,1.65.42C977.48,619.89,977.82,624.19,976.67,626.72Zm7.2-18.42c0-.27.75-.87.75-.87a1.77,1.77,0,0,1,1.18,1.26,3.46,3.46,0,0,1-1,3.86c-.74.88-2.15.17-3.56-.53C981.87,610.35,984,610.18,983.87,608.3Zm4.8,19.64c-.21.82-.41,1.65-1.24,1.45s-.87-.75-.91-1.28c.32-2.73-.38-4.84-3.18-6,1-1.42,2-2.32,3.2-4C987.4,622.09,989.22,624.65,988.67,627.94Zm50,16.07c.92,1.29.46,2.4-.24,3.81a1.16,1.16,0,0,1-1.84.69c-.85-.48-1.72-1.22-1-2.36A3.77,3.77,0,0,1,1038.63,644Zm-8.93-6.87c.17-1.36.33-2.73,2.32-1.53.27,0,.29.25.58.49.83.21,1.46-2,2.4-.46a2.31,2.31,0,0,1-1.65,3.11c-1.35.11-1.22,1.72-2.54,2.09A3.34,3.34,0,0,1,1029.7,637.14Zm0-57.89c-.79.33-.85-.47-.9-1-.28-.25-.06-.81.48-.85.8-.07.85.47,1.16,1C1030.25,578.94,1030.27,579.21,1029.74,579.25Zm12.7-7c-.78.34-1.11-.45-1.43-1a13,13,0,0,1-.88-7.78c1.78,2,2.26,4.69,3,7.34C1043.48,571.67,1043.25,572.23,1042.44,572.29ZM1038,554c2.9,2.47,2.9,2.47.74,5.89C1038.59,557.72,1038.73,556.09,1038,554Zm-.82-10.49c-.07-.8-.11-1.34.7-1.41s1.16,1,.93,1.55c-1.11,3.07.36,4.57,3.36,4.88a1.53,1.53,0,0,1,1.22,1.8,1.72,1.72,0,0,1-1.77,1.49c-1.37-.16-2.46-.35-4.1-.49A75.52,75.52,0,0,1,1037.2,543.49Zm-.07,30c2,1.19,1.58,2.85,1.95,4.17.65,1.3.77,2.92,2.65,2.77a.94.94,0,0,1,.92,1.28c-.72,1.14-.86,2.77-2.75,2.92-.8.06-1.14-.72-1.18-1.26C1037.93,580.23,1036.87,577.06,1037.13,573.53ZM1026,545.73c.23-.56.45-1.12,1.26-1.19a1.16,1.16,0,0,1,1.16,1c.77,2.91,3.15,5.7,1,8.85-.74.87-.41,1.65-.06,2.71.73,2.37.73,2.37-.69,4.92C1025.54,556.86,1025.38,551.46,1026,545.73Zm.15,36.31c-.79-1.65-2.32-3.07-.71-5.7C1027,578.28,1025.81,580.23,1026.16,582Zm-2.94-13.37s.52-.31.54,0c1.16,1,1.24,2.06.54,3.47C1022.61,571.15,1022.52,570.08,1023.22,568.67Zm1.35,34.25c-.11-1.34.1-2.17,1.42-2.55,1.37.17,2,.93,1.79,2a1.93,1.93,0,0,1-1.72,2.3C1024.47,605.09,1024.63,603.73,1024.57,602.92Zm-4.31-17c1.09.18,2.19.37,1.76,1.75a5.17,5.17,0,0,1-1.65,3.11c-1.43-1-1-2.09-1.06-3.16C1019.24,586.84,1018.89,585.78,1020.26,586Zm-3.66,5.16c.34.78-.14,1.63-.88,2.5a2.1,2.1,0,0,1-1.16-1c-.06-.81.12-1.9.91-2.24C1016,590.07,1016.54,590.3,1016.6,591.11Zm-5.51,2c-.7,1.41-2,2.05-2.17,3.42a6.88,6.88,0,0,0,1.12,4,24.65,24.65,0,0,1,1.51,8.81c.19,2.42,1.42,4.21,1.07,6.68,0,.54.13,1.61-1,1.7-.81.06-1.14-.73-1.18-1.26-.73-2.38-1.73-4.74-1.34-6.66.58-3-.42-5.38-1.17-8-1.37-3.68-.86-7.51-2.26-11.46C1007.21,592.12,1009.14,592.51,1011.09,593.16ZM996.41,630c-3.13-1.92-2.45-3.59-1.54-5.83C996.36,626,996.22,627.61,996.41,630Zm10.22-11.09c-1.26,1.19-1.67,2.84-2.35,4.52-1.22,1.72-1.67,2.84.83,3.72.85.47.63,1,.15,1.88-1.92,3.13-1.43,5.8,1.49,8.54,1.74,1.49,1.68,4.2,2.39,6.31.27,0-.23.55-.48.84-.51.32-.8.07-1.09-.18-1.52-2-3-3.82-4.52-5.86-.29-.25-.58-.5-.61-.77,1-3.87-2.63-6-3.18-9.49a6.06,6.06,0,0,1-.3-3.76c.39-1.93.51-3.83-1.72-4.73a1.4,1.4,0,0,1-.46-2.4c1.51-1.47,1.13-2.8.74-4.39-.46-2.4-.63-4.55-1.61-6.64-1.56-2.58,0-3.78,2-5.83,1.13,4,.87,7.5,2.44,10.36.36,1.05.75,2.64,2.08,2.27,1.3-.65,1.19-2,.57-3-.31-.52-.35-1.06.39-1.93a31.91,31.91,0,0,1,4.09,7.25A3,3,0,0,1,1006.63,618.94Zm8.68,7.17c-.06,2.7-1.09,3.33-3.33,2.42a8.92,8.92,0,0,1-2.81-1.4c-1.14-.72-1-1.82.63-2.21,1.86-.42,2.3-1.81,2.75-2.92.2-.83.43-1.39,1.26-1.19a1.39,1.39,0,0,1,1.2,1.53,5.43,5.43,0,0,0-.12,1.9C1015,625.05,1015.26,625.57,1015.31,626.11Zm-2.12-47.45c1.18,1.26,1,2.89,1.95,4.17.58.5.64,1.31-.14,1.64-1,.62-1.64-.14-2-.93C1012.1,582,1012.51,580.34,1013.19,578.66Zm1.34,20.45a1.72,1.72,0,0,1,1.22-1.72c1-.35.6.77,1.18,1.26.33.79-.18,1.1-.72,1.14S1014.59,599.92,1014.53,599.11Zm3.93,18.9a.72.72,0,0,1-.75.87c-.29-.25-.58-.49-.35-1,0-.27.21-.83.76-.6C1018.39,617.2,1018.7,617.72,1018.46,618Zm-2-14.72a5.45,5.45,0,0,1,.09,4.59C1015.35,606.08,1014.71,604.78,1016.48,603.29Zm2,32.57a2.44,2.44,0,0,1-.25-3.22c2.27-2.08,1.54-4.45,1.06-7.12,1.36.16,2.21.63,1.72,1.22-1.15,2.52.34,4.3.78,6.43.1,1.34.73,2.37-.58,3A2,2,0,0,1,1018.51,635.86Zm7.6,24.29c-.81.06-1.14-.72-1.2-1.53.22-.56.45-1.11,1-1.16.8-.06,1.14.72,1.2,1.53A1,1,0,0,1,1026.11,660.15Zm4-.85c-1.2-1.53-1.91-3.64-4.15-4.55-.55-.22-.08-1.07.14-1.63.46-1.12,1.78-1.49,1.92-3.13a3,3,0,0,1-2.92-2.74,1.84,1.84,0,0,0-2-1.74c-2.93.51-2.28-1.44-2.41-3a5.93,5.93,0,0,1,.66-2c.48-.85.62-2.48,1.74-2,1.67.68.68,1.84-.06,2.71-.23.56-.43,1.39.13,1.61,2.73.33,2.69,3.31,4.68,4.5,2,1.47,2.28,1.45,4.28-.61.91,1.28.81,3.46,2.24,4.43s2.61,2.23,1.65,3.65c-1.22,1.72-1.82,4.48-4.77,4.71C1031,659.77,1030.12,659.56,1030.1,659.3Zm8.2,14.77c-.74.87-1.53,1.2-2.4.46-1.72-1.22-3.73-2.68-3.67-5.39l-.09-1.08c2.36-1,1.69-2.57,1-4.14a2.14,2.14,0,0,1,.45-1.12,1.41,1.41,0,0,1,1.12.46,3.91,3.91,0,0,1,.67,1.57c.21,2.69.42,5.38,3,7.33A1.68,1.68,0,0,1,1038.3,674.07Zm4.23-4.66c-1.49-1.78-3.75-2.95-4.75-5.31a5.41,5.41,0,0,1-.77-2.92,1.5,1.5,0,0,1,1.28-.91c.52-.31.81-.06,1.12.45,1.29,2.61,2.6,5.48,3.88,8.09C1043.05,669.09,1042.78,669.12,1042.53,669.41Z"/><path class="cls-2" d="M1055.69,651.08c-.83-.2-1,.62-1,1.16,0,.27.35,1.06.62,1,.83.2.76-.61,1-1.17C1056.27,651.58,1056.23,651,1055.69,651.08Z"/><path class="cls-2" d="M988.85,668c-1.05.35-.68,1.67-.35,2.46.38,1.32-.32,2.73,1.13,4a4.48,4.48,0,0,0,1-4.41C990.57,669.2,990.44,667.59,988.85,668Z"/><path class="cls-2" d="M1026.66,615.77c-1.34.1-1,1.43-.88,2.5.06.81-.1,2.17,1.24,2.07,1.08-.09,1.26-1.18,1.18-2.26S1028,615.66,1026.66,615.77Z"/></svg>