<svg id="Layer_2" data-name="Layer 2" xmlns="http://www.w3.org/2000/svg" viewBox="0 0 1200 1000"><defs><style>.cls-1{fill:#b0ce99;}.cls-2{fill:#6c756b;}</style></defs><title>Beans Talk</title><path class="cls-1" d="M193.22,312.06c-4.79-14-8.93-20.12-18.28-31.5-1.42-1.73-3.6-4.26-6.38-4.17-3.69.11-7,4.76-8.42,8.49-1.6,4.26-.41,6.52-2,7.58-2.63,1.72-6.56-3.62-12.09-3.69-6.42-.08-13.33,6.94-14.5,12.27-1.22,5.61,3.36,11.86,11.9,18.85a13,13,0,0,0-1.66,3.39c-1.14,3.71.46,5.74-.79,7.36-1.78,2.29-5.29-1.34-10.14.48-3.49,1.31-6.88,5.15-8.61,9.36-6.17.62-11.55,2.3-12.58,5.6-1.58,5.05,8.38,9.45,7.72,18.64-.41,5.74-4.49,6.55-4.14,11.46.5,7,9.21,11.79,13.83,13.9a11.49,11.49,0,0,0-.18,6.6,15.62,15.62,0,0,0,3,14.54l.28.3a11.16,11.16,0,0,0-2.29,3.73c-1.8,5,.15,11.88,4.31,15.52.92.81,5.13,4.23,15.4,2.41,11.64-2.06,18.35-8.6,33.14-22.92a115.32,115.32,0,0,0,14.31-4.33c24.82-10.07,47.77-10.82,63.23-10.54l2.81.66c-4.87,10.76-7.24,12.49-7.65,19.84-.23,4-.43,19.39,11.7,29.81a34.75,34.75,0,0,0,32.54,6.67c10.74-3.51,8.83-10,22.09-16.15,11.51-5.35,24.43-5.8,30.55-6,10.77-.37,16.86,1.13,17.59-.92.94-2.69-9.13-6.24-19.93-18.36a62,62,0,0,1-10.5-15.32c-5.12-10.89-2.3-14.42-6.06-23.05-3.88-8.91-12.65-18.39-24.95-21.63-1.82-.48-17.84-4.44-28.86,4.61-6.92,5.67-5.09,10.9-12.07,29.67-9.87-9.19-20.73-19.38-32.43-30.49C197.05,320.46,195.05,317.42,193.22,312.06Z"/><path class="cls-1" d="M537.74,219.26c14-4.79,20.11-8.93,31.49-18.28,1.73-1.42,4.26-3.6,4.18-6.38-.12-3.69-4.76-7-8.5-8.42-4.26-1.6-6.51-.41-7.58-2-1.72-2.63,3.62-6.56,3.69-12.09.08-6.42-6.93-13.33-12.27-14.49-5.6-1.23-11.86,3.35-18.85,11.89a12.8,12.8,0,0,0-3.38-1.66c-3.72-1.14-5.74.46-7.36-.79-2.3-1.77,1.33-5.29-.49-10.14-1.31-3.49-5.14-6.88-9.35-8.61-.62-6.17-2.31-11.55-5.61-12.58-5-1.58-9.44,8.38-18.63,7.72-5.75-.41-6.56-4.49-11.46-4.14-7,.51-11.79,9.22-13.9,13.83a11.53,11.53,0,0,0-6.61-.17,15.57,15.57,0,0,0-14.53,3,4.11,4.11,0,0,0-.3.29,11.22,11.22,0,0,0-3.73-2.3c-5-1.8-11.89.15-15.53,4.31-.81.93-4.23,5.13-2.41,15.4,2.07,11.65,8.61,18.36,22.93,33.14a113.78,113.78,0,0,0,4.33,14.32c10.07,24.81,10.81,47.76,10.54,63.22-.22.93-.44,1.86-.66,2.81-10.76-4.87-12.49-7.24-19.85-7.65-4-.22-19.38-.43-29.81,11.71a34.74,34.74,0,0,0-6.67,32.54c3.51,10.74,10,8.82,16.15,22.08,5.36,11.51,5.8,24.43,6,30.55.37,10.78-1.13,16.87.92,17.59,2.69,1,6.24-9.13,18.36-19.93a62,62,0,0,1,15.32-10.5c10.89-5.11,14.42-2.3,23.05-6.06,8.91-3.88,18.39-12.65,21.62-25,.48-1.82,4.45-17.83-4.6-28.86-5.68-6.91-10.91-5.09-29.67-12.07,9.18-9.87,19.38-20.73,30.49-32.43C529.34,223.09,532.38,221.1,537.74,219.26Z"/><path class="cls-1" d="M629,589.43c4.79,14,8.93,20.12,18.28,31.5,1.42,1.73,3.6,4.26,6.38,4.18,3.69-.12,7-4.76,8.42-8.5,1.6-4.26.41-6.51,2-7.58,2.63-1.72,6.56,3.62,12.09,3.69,6.42.08,13.33-6.93,14.49-12.27,1.23-5.6-3.35-11.86-11.89-18.85a12.8,12.8,0,0,0,1.66-3.38c1.14-3.72-.46-5.74.79-7.37,1.77-2.29,5.29,1.34,10.14-.48,3.49-1.31,6.88-5.14,8.61-9.35,6.17-.62,11.55-2.31,12.58-5.61,1.58-5-8.38-9.44-7.72-18.63.41-5.75,4.49-6.56,4.14-11.46-.51-7-9.21-11.79-13.83-13.91a11.41,11.41,0,0,0,.17-6.6,15.57,15.57,0,0,0-3-14.53c-.09-.11-.19-.2-.28-.3a11.36,11.36,0,0,0,2.29-3.73c1.8-5-.15-11.89-4.31-15.53-.93-.81-5.13-4.23-15.4-2.41-11.64,2.07-18.35,8.61-33.14,22.93a113.18,113.18,0,0,0-14.31,4.33c-24.82,10.07-47.77,10.81-63.23,10.54l-2.81-.66c4.87-10.76,7.24-12.49,7.65-19.85.22-4,.43-19.38-11.71-29.81a34.73,34.73,0,0,0-32.53-6.67c-10.75,3.51-8.83,10-22.09,16.15-11.51,5.35-24.43,5.8-30.55,6-10.78.37-16.86-1.14-17.59.92-.94,2.69,9.13,6.24,19.93,18.35a62.28,62.28,0,0,1,10.5,15.33c5.12,10.89,2.3,14.42,6.06,23.05,3.88,8.91,12.65,18.39,25,21.62,1.82.48,17.84,4.45,28.86-4.6,6.92-5.68,5.09-10.91,12.07-29.67,9.87,9.18,20.73,19.38,32.43,30.49C625.14,581,627.14,584.08,629,589.43Z"/><path class="cls-1" d="M282.2,671.18c-14,4.79-20.12,8.93-31.5,18.28-1.73,1.42-4.26,3.6-4.18,6.38.12,3.69,4.76,7,8.5,8.42,4.26,1.6,6.51.41,7.58,2,1.72,2.63-3.62,6.56-3.69,12.09-.08,6.42,6.93,13.33,12.27,14.49C276.79,734.11,283,729.53,290,721a12.8,12.8,0,0,0,3.38,1.66c3.72,1.14,5.74-.46,7.37.79,2.29,1.77-1.34,5.29.48,10.14,1.31,3.49,5.14,6.88,9.35,8.61.62,6.17,2.31,11.55,5.61,12.58,5,1.58,9.45-8.38,18.63-7.72,5.75.41,6.56,4.49,11.46,4.14,7-.51,11.79-9.21,13.91-13.83a11.41,11.41,0,0,0,6.6.17,15.6,15.6,0,0,0,14.54-3l.29-.28a11.31,11.31,0,0,0,3.74,2.29c5,1.8,11.88-.15,15.52-4.31.81-.93,4.23-5.13,2.41-15.4-2.07-11.64-8.61-18.35-22.93-33.14a113.78,113.78,0,0,0-4.33-14.32c-10.07-24.81-10.81-47.76-10.54-63.22.22-.93.44-1.86.66-2.81,10.76,4.87,12.49,7.24,19.85,7.65,4,.22,19.38.43,29.81-11.71a34.74,34.74,0,0,0,6.67-32.54c-3.51-10.74-10-8.82-16.15-22.08-5.35-11.51-5.8-24.43-6-30.55-.38-10.78,1.13-16.86-.93-17.59-2.68-.94-6.24,9.13-18.35,19.93a62.08,62.08,0,0,1-15.33,10.5c-10.89,5.12-14.42,2.3-23.05,6.06-8.91,3.88-18.39,12.65-21.62,24.95-.48,1.82-4.45,17.84,4.6,28.86,5.68,6.91,10.91,5.09,29.67,12.07-9.18,9.87-19.38,20.73-30.49,32.43C290.59,667.35,287.55,669.35,282.2,671.18Z"/><path class="cls-1" d="M365.2,158.17c-3.28-2.6-9.57-1-13.53,1.22-4.51,2.53-5.13,5.36-7.33,5.09-3.54-.43-3-7.95-7.8-12.06-5.2-4.49-15.4-3.79-21.59.06a17.49,17.49,0,0,0-4.75,4.4,13.67,13.67,0,0,0-1.26-5.12c-2.38-5-8.45-9.1-13.6-8.18-3.73.67-6.25,3.84-7.83,6.51a33.71,33.71,0,0,0-1.85,3.38,18.68,18.68,0,0,0-1.67,5,9.68,9.68,0,0,0-1.8-.86c-5-1.78-12.82,0-17.59,4a13.53,13.53,0,0,0-3,3.67,21.31,21.31,0,0,0-3.13,11c-5.79-1.27-13.68-.29-16.87,4.25a8,8,0,0,0-.45.73h0c-4,5.64,2.45,12.35-2,20.18l0,.06c-2.48,3.72-5.35,3.21-9.55,9.18-.63.91-1.43,2-2.19,3.31-1.75,2.75-3.5,6.34-2.88,9.95a10.25,10.25,0,0,0,1.36,3.62,20.38,20.38,0,0,0-5.41.63,12.06,12.06,0,0,0-2.84,1.18c-5.22,3-8.57,10.45-7.62,16.65.22,1.38,1.36,7.43,11.63,13.37,12.74,7.38,24.26,5.75,52.63,3.86,3.49-.24,6.68-.43,9.6-.61-.08.55-.16,1.06-.22,1.53-1,6.81-1.45,10.22-.52,14.08,1.69,7,4.9,5.74,10.63,17.36,0,0,5.8,11.75,9.71,16.61,1,1.27.49.51,7.34,8.33,5.2,5.94,5.9,6.83,6.51,7.63,3.31,4.4,3.79,6.16,6.83,10.81a95.79,95.79,0,0,0,8.25,10.66c6.52,7.65,8,7.76,15,15.37,6.48,7,5.05,6.66,14,16.73,7.56,8.51,8.36,8.48,11.4,13,3.85,5.74,4.14,8.12,8,11.57,3.42,3,5.05,2.81,8.52,6.38,2.49,2.55,2.85,3.89,5.82,8.25,3.24,4.75,8.27,12.12,10.11,11.41,2.57-1-1.85-17.28-2.31-19a151.94,151.94,0,0,0-5.72-16.29c-4.95-12.63-5.8-12.52-6.68-17-1.62-8.26,1.1-9.4.53-19.46-.15-2.66-.38-3.31-5.26-22.15-4.4-17-5-19.37-5.71-23.05-1.72-8.6-1.24-8.63-2.72-14.51-2.12-8.4-3.51-9.94-5.84-18.81s-1.2-8.25-3.14-14.86a85.19,85.19,0,0,0-8.83-19.84c-4.13-7.07-6.2-10.6-10.42-14a29,29,0,0,0-9.58-5.17c1-.48,2-1,3-1.59a44.7,44.7,0,0,0,16-16.31c.7-1.11,1.31-2.16,1.86-3.1,6.81-11.67,6.93-21.37,7.17-40.76C367.73,163.92,367.69,160.13,365.2,158.17Z"/><path class="cls-1" d="M686.32,401.33c2.59-3.28,1-9.58-1.23-13.53-2.53-4.52-5.36-5.13-5.09-7.33.43-3.55,8-3.05,12.06-7.81,4.49-5.2,3.79-15.39-.06-21.58a17.31,17.31,0,0,0-4.39-4.75,13.87,13.87,0,0,0,5.11-1.26c5-2.38,9.1-8.45,8.18-13.6-.67-3.73-3.84-6.25-6.51-7.83a31.79,31.79,0,0,0-3.38-1.85,19,19,0,0,0-5-1.68,9.29,9.29,0,0,0,.86-1.79c1.78-5,0-12.83-4-17.59a13.16,13.16,0,0,0-3.67-3,21.3,21.3,0,0,0-11-3.13c1.26-5.8.28-13.68-4.26-16.87a6.24,6.24,0,0,0-.73-.45h0c-5.64-4-12.35,2.44-20.18-2l-.06,0c-3.72-2.48-3.21-5.35-9.18-9.55-.9-.64-2-1.44-3.31-2.2-2.75-1.74-6.34-3.49-10-2.87a10.25,10.25,0,0,0-3.62,1.36,20.45,20.45,0,0,0-.63-5.42,12.17,12.17,0,0,0-1.18-2.83c-3-5.23-10.44-8.57-16.65-7.62-1.38.21-7.43,1.36-13.37,11.62-7.38,12.75-5.75,24.27-3.86,52.64.24,3.49.44,6.68.61,9.6-.55-.09-1.06-.16-1.53-.22-6.81-1-10.22-1.45-14.08-.52-7,1.69-5.74,4.9-17.36,10.62,0,0-11.75,5.81-16.61,9.72-1.27,1-.51.49-8.33,7.34-5.94,5.2-6.83,5.9-7.63,6.5-4.4,3.32-6.16,3.8-10.81,6.84a95.79,95.79,0,0,0-10.66,8.25c-7.65,6.51-7.76,8-15.37,15-7,6.47-6.66,5-16.73,14-8.51,7.56-8.48,8.36-13,11.39-5.73,3.86-8.12,4.14-11.57,8-3,3.43-2.81,5.05-6.38,8.53-2.55,2.49-3.88,2.85-8.25,5.82-4.75,3.24-12.12,8.26-11.41,10.11,1,2.56,17.28-1.85,19-2.31a152.83,152.83,0,0,0,16.3-5.72c12.62-4.95,12.51-5.8,17-6.68,8.26-1.63,9.41,1.09,19.46.53,2.66-.15,3.31-.38,22.15-5.27,17-4.4,19.37-5,23-5.7,8.6-1.73,8.63-1.24,14.51-2.72,8.4-2.12,9.94-3.52,18.81-5.84s8.25-1.21,14.86-3.14a85.42,85.42,0,0,0,19.84-8.83c7.07-4.13,10.6-6.2,14-10.42a29.32,29.32,0,0,0,5.16-9.58c.48,1,1,2,1.59,3a44.79,44.79,0,0,0,16.31,16c1.11.69,2.16,1.3,3.1,1.85,11.67,6.82,21.37,6.94,40.77,7.17C680.56,403.85,684.35,403.81,686.32,401.33Z"/><path class="cls-1" d="M452.94,725.67c3.28,2.6,9.57,1,13.53-1.23,4.52-2.52,5.13-5.35,7.33-5.09,3.55.43,3.05,7.95,7.81,12.06,5.2,4.49,15.39,3.79,21.58,0a17.5,17.5,0,0,0,4.75-4.4,14,14,0,0,0,1.26,5.12c2.38,5,8.45,9.09,13.6,8.17,3.73-.67,6.25-3.83,7.83-6.51a30,30,0,0,0,1.85-3.38,18.87,18.87,0,0,0,1.68-5,9.29,9.29,0,0,0,1.79.86c5,1.78,12.83,0,17.59-4a13.17,13.17,0,0,0,3-3.67,21.3,21.3,0,0,0,3.13-11c5.8,1.27,13.68.28,16.87-4.26a8,8,0,0,0,.45-.73h0c4-5.65-2.44-12.36,2-20.19l0-.06c2.48-3.71,5.35-3.21,9.55-9.18.64-.9,1.43-2,2.2-3.3,1.74-2.76,3.49-6.35,2.87-10a10.33,10.33,0,0,0-1.36-3.62,20.5,20.5,0,0,0,5.42-.63,11.75,11.75,0,0,0,2.83-1.18c5.22-3,8.57-10.44,7.62-16.65-.21-1.38-1.36-7.43-11.63-13.37-12.74-7.38-24.26-5.74-52.63-3.85-3.49.23-6.68.43-9.6.6.08-.54.16-1.06.22-1.52,1-6.82,1.45-10.23.52-14.09-1.69-7-4.9-5.74-10.63-17.36,0,0-5.8-11.75-9.71-16.61-1-1.27-.49-.51-7.34-8.33-5.2-5.94-5.9-6.83-6.5-7.63-3.32-4.4-3.8-6.16-6.84-10.81a96.72,96.72,0,0,0-8.25-10.66c-6.51-7.64-8-7.76-15-15.37-6.47-7-5.05-6.65-14-16.72-7.56-8.51-8.36-8.49-11.39-13-3.86-5.74-4.15-8.13-8-11.57-3.43-3-5.05-2.81-8.53-6.39-2.49-2.55-2.85-3.88-5.82-8.24-3.24-4.75-8.26-12.13-10.11-11.42-2.56,1,1.85,17.28,2.31,19a152.06,152.06,0,0,0,5.72,16.3c4.95,12.62,5.8,12.51,6.68,17,1.63,8.26-1.09,9.41-.53,19.46.15,2.66.38,3.31,5.26,22.15,4.4,17,5,19.37,5.71,23,1.73,8.61,1.24,8.63,2.72,14.51,2.12,8.4,3.51,9.94,5.84,18.81s1.21,8.25,3.14,14.86a85.42,85.42,0,0,0,8.83,19.84c4.13,7.07,6.2,10.6,10.42,14a29.27,29.27,0,0,0,9.58,5.17c-1,.47-2,1-3,1.58a44.79,44.79,0,0,0-16,16.31c-.69,1.11-1.3,2.16-1.85,3.1-6.82,11.68-6.94,21.37-7.17,40.77C450.42,719.91,450.46,723.7,452.94,725.67Z"/><path class="cls-1" d="M129.15,488.11c-2.6,3.28-1,9.57,1.22,13.53,2.53,4.51,5.36,5.13,5.09,7.33-.43,3.55-8,3-12.06,7.8-4.49,5.2-3.79,15.4.06,21.59a17.49,17.49,0,0,0,4.4,4.75,13.67,13.67,0,0,0-5.12,1.26c-5,2.38-9.1,8.45-8.18,13.6.67,3.73,3.84,6.25,6.51,7.83a33.71,33.71,0,0,0,3.38,1.85,18.68,18.68,0,0,0,5,1.67,9.68,9.68,0,0,0-.86,1.8c-1.78,5,0,12.82,4,17.59a13.34,13.34,0,0,0,3.67,3,21.31,21.31,0,0,0,11,3.13c-1.27,5.79-.28,13.68,4.25,16.87a8,8,0,0,0,.73.45h0c5.64,4,12.35-2.45,20.18,2l.06,0c3.72,2.48,3.21,5.35,9.18,9.55.91.63,2,1.43,3.31,2.19,2.75,1.75,6.34,3.5,10,2.88a10.25,10.25,0,0,0,3.62-1.36,20.38,20.38,0,0,0,.63,5.41,12.06,12.06,0,0,0,1.18,2.84c3,5.22,10.45,8.57,16.65,7.62,1.38-.21,7.44-1.36,13.38-11.63,7.37-12.74,5.74-24.26,3.85-52.63-.23-3.49-.43-6.68-.61-9.6l1.53.22c6.81,1,10.22,1.45,14.09.52,7-1.69,5.74-4.9,17.35-10.63,0,0,11.75-5.8,16.61-9.71,1.27-1,.51-.49,8.33-7.34,5.94-5.2,6.83-5.9,7.63-6.51,4.4-3.31,6.16-3.79,10.81-6.83a95.79,95.79,0,0,0,10.66-8.25c7.65-6.52,7.76-8,15.37-15,7-6.48,6.66-5.05,16.73-14,8.51-7.56,8.48-8.36,13-11.4,5.74-3.85,8.12-4.14,11.57-8,3-3.42,2.81-5.05,6.38-8.52,2.55-2.49,3.89-2.85,8.25-5.82,4.75-3.24,12.12-8.27,11.41-10.11-1-2.57-17.28,1.85-19,2.31a151.94,151.94,0,0,0-16.29,5.72c-12.63,4.95-12.52,5.8-17,6.68-8.26,1.62-9.4-1.1-19.46-.53-2.66.15-3.31.38-22.15,5.26-17,4.4-19.37,5-23.05,5.71-8.6,1.72-8.62,1.24-14.51,2.72-8.4,2.12-9.94,3.51-18.81,5.84s-8.24,1.2-14.86,3.14a84.88,84.88,0,0,0-19.83,8.83c-7.08,4.13-10.61,6.2-14,10.42a29,29,0,0,0-5.17,9.58c-.48-1-1-2-1.59-3a44.76,44.76,0,0,0-16.3-16c-1.12-.7-2.17-1.31-3.11-1.86-11.67-6.81-21.37-6.93-40.76-7.16C134.9,485.58,131.11,485.62,129.15,488.11Z"/><path class="cls-2" d="M448.77,411.1c19.84-27.83,21.25-57.48,10.33-89-8.29-21.85-23.56-37.06-46.12-43.72-19.74-6.42-40-8.1-60.54-6.48-47.57,3.28-95.54,7.53-143.08,11.28-7,.56-7,.56-6.47,7.08L226.45,589c.59,7.45.59,7.45,8.05,6.86l128.16-10.11c9.79-.77,20.08-1.11,30.18-3.78,11.51-2.79,23.05-5.1,34.41-9.75,36.75-15.56,48.38-46.49,46.05-81.95-.4-5.13-1.27-10.22-2.14-15.3-2.8-17.6-9.17-33-23.64-44.1-3-2.57-7.36-4.11-10.42-7.15C441,419.22,445.37,415.59,448.77,411.1ZM436,320.66c1.4-.11,2.33-.18,2.88.71a1.71,1.71,0,0,1-1.72,2,2.57,2.57,0,0,1-2.44-1.21C434.1,320.34,436.08,321.59,436,320.66Zm-7.26-8.8c2.48,1.68,3.52,3,2.27,5a1.72,1.72,0,0,1-1.36.57C428.14,316.12,428,314.26,428.74,311.86ZM382.8,288.28c.94-.07,1.44.36,1.48.82a2.48,2.48,0,0,1-1.61,3.41c-.9.54-1.87.15-1.94-.78A3.11,3.11,0,0,1,382.8,288.28ZM367.66,316.2a2.41,2.41,0,0,1,1.14-3.37,2,2,0,0,1,2.9,1.18,55.58,55.58,0,0,1,2.85,6.34c.14,1.87-.21,3.3-1.11,3.84-1.86.15-3.33-.68-3.44-2.07C370.24,319.28,368.73,318,367.66,316.2ZM371,293.43c-.86,1-5.39-2.86-4,2.2.69,2.76.91,5.55,1.59,8.31.08.93.15,1.87-1.21,2.44s-1.94-.78-2.05-2.18l-2.61-15.27C369.14,287.48,369.14,287.48,371,293.43ZM351.75,287a4.69,4.69,0,0,1,1.68-2.48,2.57,2.57,0,0,1,2.44,1.22c.58,1.36,2.12,3.11,1.73,4.08-1.5,4.81.7,8.85,2,13.91-2.3.65-4.23-.14-4.27-.6C354.93,297.51,350.79,292.68,351.75,287Zm-38.44,18c5.52-1.38,7.21,2.24,7.94,5.47s-1,5.7-3.14,7.75a3.53,3.53,0,0,1-3.77-.17c-1-.86-.57-1.37.29-2.37C318,310.28,318,310.28,313.31,305Zm-15.18,9.64a9.34,9.34,0,0,1,.3,9.82c-2.11-3.12-1.91-6.42-3.95-8.6-.58-1.36-.23-2.79,1.17-2.9C297,311.93,297.55,313.29,298.13,314.66Zm-7.69-26.13c.39-1-.18-2.33.75-2.4,1.83-.61,2.4.75,3,2.11l.59,7.45a32.64,32.64,0,0,1,1.41,6c.14,1.86-.64,3.8-2.54,3.48-2.33.19-1.55-1.75-1.19-3.19C293,297.24,290.34,293.23,290.44,288.53ZM279.28,468.08c-.24,2.83,0,6.1-.23,8.93a3,3,0,0,1-2.07,3.45c-1.87.14-2.48-1.69-3.06-3a2.86,2.86,0,0,1-.68-2.76c2.07-3.44.81-7.56,2.88-11C279,464.35,279.6,466.18,279.28,468.08Zm1.17,26.64c-1.79,1.08-3.27.26-4.74-.56-1-.86-1.54-1.76-.72-3.23.39-1,1.86-.15,2.37.28C278.79,491.57,280.73,492.35,280.45,494.72ZM247.91,302.2c.93-.07,2.37.29,2.48,1.69.14,1.86-1.18,2.9-3.08,2.58-.93.08-2.37-.28-2.48-1.68C244.65,302.46,246.55,302.78,247.91,302.2ZM232.4,289.83c2.9,1.18,3,3,2.34,5.91C231.79,294.1,231.65,292.23,232.4,289.83Zm2.46,13.4c1,.4,1,.4,1.43.36,1.62,2.69,1.3,4.59-.38,7.06-.89.54-1.39.11-1.9-.31C232.39,307.65,233.18,305.71,234.86,303.23Zm-15.94,47.69c2.13,3.11,1.42,6,2.57,8.71C219,357.48,216,355.37,218.92,350.92Zm1.42,65.54c-.22-2.8-.9-5.56.31-8,2.37.28,2.52,2.15,2.66,4,.52,6.53,1.5,13,1.51,19.11.38,10.76,2.59,20.9,4.79,31,1.63,8.78-.46,17.86,4.39,25.92-3.21,6.81,2.78,11.5,2.83,18.06-.45,6.13,1.43,12.08,2.37,18.1.11,1.4.69,2.76-.67,3.34-1.83.61-2.41-.75-2.95-1.64a6,6,0,0,1-2.3-5.45c.63-3.8-1-7-2.71-10.57-1.73-4.09-4-8.6-1-13.05.35-1.44.24-2.83-.76-3.69-3.09-3.51-2.49-7.78-2.82-12C224.23,459.76,222,437.89,220.34,416.46Zm24.6,163.13c-1.79,1.07-2.84-.25-3.41-1.61-3.31-6.31-7.05-12.11-6.71-19.64.24-2.83,0-6.09-2.56-8.7a5.08,5.08,0,0,1-.41-5.13,7.15,7.15,0,0,0-.59-7.46,2.85,2.85,0,0,1-.29-3.73c0-.46.86-1,1.32-1,.9-.54,1.4-.11,1.48.82,1.35,11.15,9.07,19.92,9.49,31.14.11,1.4,1.19,3.19.79,4.16-1.14,3.37.88,5.09,2,7.35C246.65,577.58,246.3,579,244.94,579.59ZM221.33,298.21a3.13,3.13,0,0,1,1.11-3.84l1.86-.15a2.07,2.07,0,0,1,1.19,3.19c-1.64,2.94,2.27,5,2.1,8.74C223.64,303.65,223,300.89,221.33,298.21ZM237.75,334c-1.3-4.59-3.92-8.14-4.25-12.33l-.19-2.33c-.14-1.86.17-3.77,2.51-3.95,1.9.32,2,2.19,1.72,4.09-1.49,4.8,1.64,8.78,2.93,13.36.54.9.62,1.83-.78,1.94C238.79,335.28,237.83,334.89,237.75,334ZM264.3,581.34c-.93.08-1.94-.78-1.54-1.75-.08-.94.78-1.94,1.75-1.55a1.25,1.25,0,0,1,1.51,1.29C265.63,580.3,265.23,581.27,264.3,581.34ZM251.52,354a4.74,4.74,0,0,1-2.11,3c-1.82.62-2.83-.24-3.87-1.57-2.12-3.11-3.35-6.77-4.65-11.35,6.49-1,7-1,6.43,4.18-.32,1.9-.21,3.3,1.69,3.62C250.44,352.18,251.88,352.54,251.52,354Zm-4.13-40.47c-.54-.89.36-1.44,1.76-1.55a1.51,1.51,0,0,1,1.51,1.29c0,.47-.86,1-1.33,1C248.43,314.83,247.47,314.43,247.39,313.5ZM271.22,562a1,1,0,0,1-1.47-.82c-.69-2.76-1.34-5.06-2-7.82a3.44,3.44,0,0,0,1.83-.61,15.77,15.77,0,0,1,3,7.74A1.25,1.25,0,0,1,271.22,562ZM264.5,369.83c-.57,4.73.7,8.86,1.06,13.52C261.47,379,262.5,374.21,264.5,369.83Zm3.33,36.32c-2.12-3.12-3.31-6.31-1.78-10.65,7,5.54,4.72,12.29,5.24,18.81a4.27,4.27,0,0,1-.28,2.37c-.82,1.47,1.69,3.62-1,5.24l-1-.4q-3.07-3.27-1.95-6.87c.42-.51.39-1,.85-1C270.57,411.09,269.92,408.8,267.83,406.15ZM284,509.91c-4.23-.13-6.49,1-9.36.27C278.53,506.12,278.53,506.12,284,509.91Zm.23,8.9c-.39,1-1.25,2-2.22,1.58a2.91,2.91,0,0,1-1.19-3.19c.43-.5.83-1.47,1.33-1A2.56,2.56,0,0,1,284.22,518.81ZM281.8,547.6c-1.58-2.22.25-2.83,1.11-3.84,2.57-3,3.29-5.88,1.13-9.46-1.55-1.76-2.16-3.59.49-5.67,3.16,4.44,4,9.53,5.84,14.55.64,2.29-.64,3.8-3,4C285.53,547.31,283.74,548.39,281.8,547.6Zm13,9.77c.18,2.33-.6,4.26-3.4,4.48-3.26.26-4.31-1.06-4.71-6.19.32-1.9-.87-5.09,2.86-5.38C292.32,550.06,294.94,553.6,294.77,557.37Zm27.5,21.74c-1.32,1-2.4-.75-3.33-.67-6.67-1.35-8.9-5.86-8.95-12.43a19.65,19.65,0,0,0-2.42-6.84c-1.22-3.65-1.22-3.65.7-9,3.09,3.51,3,8.21,4.65,11.36,3.16,4.44,3.18,10.54,8.56,13.39C322.48,575.81,323.56,577.6,322.27,579.11Zm57.48-38.3c-1.4.11-1.05-1.32-1.62-2.68,0-.47.35-1.44.82-1.47,1.4-.11,1.94.78,2.05,2.18C381.54,539.73,381.15,540.7,379.75,540.81Zm6.37,33.27c-.89.53-1.47-.83-1.54-1.76.21-3.3-2.85-6.34-.42-11.22,1.77,4.55,2.92,7.27,3.64,10.5C388.34,572.49,387.52,574,386.12,574.08Zm11.37-16.38c-2.4-.75-2.58-3.07-3.16-4.44s-.65-2.29.75-2.4a1.7,1.7,0,0,1,2.4.75C399.49,553.32,399.68,555.66,397.49,557.7Zm.15-16c.54.89-.35,1.43-1.72,2-3.16-4.44-3.1-9.6-3-14.3-.07-.93.35-1.44,1.25-2,.93-.07,1.47.83,2,1.72.5.43,1,1.33.62,1.83C395.69,534.87,396.88,538.06,397.64,541.75Zm4.21-47.7c-.54,16.93-8.27,26-29.09,29.5-12.47,2.39-25.13,2.45-37.71,3.44l-36.82,2.91c-5.13.4-5.59.44-6-4.69-1.29-16.31-2.14-33.13-3.9-49.4-.29-3.73,1-5.24,4.73-5.53l38.68-3c11.18-.89,21.94-1.27,33.09-2.61,6.49-1,12.69.4,18.93,2.25C397.25,471.44,402.11,479.49,401.85,494.05Zm-99.62-62a3.49,3.49,0,0,1,1.94.78c.69,2.76-1.57,3.88-3.86,4.53C299.15,434.63,300,433.15,302.23,432Zm9.8,5.32c.9-.54,2.18-2.05,3.69-.76,1.12,2.26-.67,3.34-2,3.91-1.33,1.05-3.58,2.16-4.67.37C307.91,438.62,310.67,437.94,312,437.36Zm78-4.27c1.37,5.51,2.74,11,6,16.41,2.2,4,1.6,8.31,1.53,13.47-3.91-2-5.56-5.18-5.75-7.51,0-6.1-3.71-11.43-3.72-17.53-.26-3.26-1.92-6.41-4.11-10.46C388.2,428.07,389.32,430.33,390,433.09Zm-2.41-18.57c2.63,3.54,3.32,6.3,3.22,11C388.16,421.51,386.57,419.29,387.6,414.52Zm-3.45-8.17c-3,4-6.44,7.54-12.68,5.69-1.94-.79-4.24-.14-6.57,0l-76,6c-3.69.76-5.2-.53-5.53-4.72-.49-12.16-2-24.7-2.94-37.29-1-12.11-1.45-24.27-2.87-36.35-.3-3.73,1-5.23,4.72-5.53l64.78-5.11c12.15-.49,23.6,1.89,34,9.51,5.49,4.26,9.66,9.55,11.11,16C396,372.59,395.09,390.48,384.15,406.35ZM420.4,556.83c0,.47-.35,1.44-1.32,1a1.24,1.24,0,0,1-1.51-1.29,10.11,10.11,0,0,1,1.2-8.54C420.89,551.17,420.65,554,420.4,556.83ZM400.34,308.47c-1.51-1.29-2-1.25-2-1.72-1.08-1.79.53-5.2-2.81-5.87-3.84-1.11-.6,4.26-4.33,4.56.21-3.3-.51-6.53.2-9.4,1.21-2.44,5-2.26,7.66-3.88A32.31,32.31,0,0,1,400.34,308.47Zm5.81,2.35a2,2,0,0,1,1.72-2c1.9.32,2.91,1.18,2.59,3.08,0,.47.15,1.86-1.25,2C407.31,313.55,406.73,312.18,406.15,310.82Zm3.9,13.76c.47,0,.54.9,1,1.33-.35,1.43-.74,2.4-2.1,3a10.69,10.69,0,0,1-.62-1.83C408.26,325.66,408.65,324.7,410.05,324.58Zm9.56,8.16c.9,5.56,3.14,10.07,3.58,15.66-2.38-6.38-8-6.4-13.29-7.86C414.53,339.71,418.65,338.44,419.61,332.74Zm-5.68,29.05c-1.05-1.32-1.66-3.15-.37-4.66.43-.5,1.36-.57,1.79-1.07a33.16,33.16,0,0,0,4.81,1.49c1.9.32,4.19-.33,3.91,2,.22,2.79-2.54,3.48-4.33,4.56C417.48,365.27,415.47,363.55,413.93,361.79ZM430.5,548.07c-1.69-3.62-.52-6.53-1.28-10.22C434.68,541.64,434.68,541.64,430.5,548.07Zm2.68-19.44a4.47,4.47,0,0,1-2,4.38.89.89,0,0,1-1.43-.36,5,5,0,0,1,0-5.63c.86-1,1.26-2,2.65-2.09C433.43,525.79,433.07,527.23,433.18,528.63Zm-3.66-58.33c-.82,1.47.26,3.26-1.5,4.81-2.4-.75-3-2.58-3.63-4.41-.14-1.86.68-3.33,2.43-4.88l1.4-.11C430.2,467,429.88,468.86,429.52,470.3Zm-1.6-32.23c-.9.54-1.9-.32-2-1.25a3.11,3.11,0,0,1,2.07-3.45c.94-.07,1.9.32,1.94.78C430.1,436,429.78,437.92,427.92,438.07Zm-3.2-40.55c-.94.07-2.8.22-3-2.11-.15-1.86,1.6-3.41,3.43-4,2.26-1.12,2,1.25,2.94,1.64C428.34,395.83,427.05,397.34,424.72,397.52Zm.8-13.66c-.47,0-1-.39-1.44-.36-1.19-3.19-2.84-6.34-4-9.53a3,3,0,0,1,2.5-3.94c2.33-.19,1.54,1.75,1.65,3.15-.67,3.33,2.27,5,2.92,7.27C427.73,382.28,427.38,383.71,425.52,383.86Zm4.63-30.38a1.75,1.75,0,0,1,1.36-.58,1.71,1.71,0,0,1,2,1.72c-.42.5-.89.54-1.82.61S430.23,354.41,430.15,353.48Zm6.54,23.4a2,2,0,0,1-1.62-2.69,1.6,1.6,0,0,1,.39-1,3.15,3.15,0,0,1,2.09,2.64Zm-1.59-43.95a2.57,2.57,0,0,1-2.09-2.65c.36-1.44.75-2.41,2.15-2.52s2,1.25,2,2.19C436.85,331.38,436.49,332.81,435.1,332.93Zm3.2,4.9c.35-1.43.75-2.4,2.61-2.55,1.47.82,1.11,2.26.72,3.23-.82,1.47,1.34,5.05-2,4.37C436.76,342.17,438,339.73,438.3,337.83Z"/><path class="cls-2" d="M516.53,415.55a57,57,0,0,0,31.11,10.26,143.3,143.3,0,0,0,47.75-5.12,42.49,42.49,0,0,0,25.21-19.84c1.63-3.37,1.86-3.93-1-6.14-4.66-4.23-9.08-8.75-14.24-12.4a25.2,25.2,0,0,1-6.38-5.45,3.83,3.83,0,0,0-1,.89c-4.76,8.22-11.39,13.34-21,15.45a67,67,0,0,1-19.34,1.8c-6.24-.32-12.31-1.74-17-6.77-4.11-4-5.61-9.3-7.11-14.59-1.45-4.76-1.19-4.78,3.65-5.16l78.78-6.22c1.63.15,2.11-.7,2.25-2.34.28-3.27,0-6.22.33-9.49a168.36,168.36,0,0,0-.63-28.63,87.5,87.5,0,0,0-3.35-18.4c-5.37-16.62-16-27.95-33.39-32.26-4.13-1-8.21-1.25-12-1.76-5.75-.9-11.42-.72-17.08-.54-8.09.36-15.53,2-23.22,4a52.77,52.77,0,0,0-26.63,15.63C495,296.6,491.7,306.6,490.09,317c-1.78,11.77-.6,23.31.07,35.16a140.42,140.42,0,0,0,6.81,34.9C500.84,398.4,506.51,408.5,516.53,415.55Zm79.62-16c1.35-.1,1.18,1.26,1.52,2.05s.12,1.61-.95,1.7c-.79.33-1.12-.46-1.18-1.26S595.12,400.16,596.15,399.53Zm-5.9,7.5c.56.23,1.12.46,1.16,1,.07.81-.14,1.64-1,1.43-.53.05-.85-.47-.91-1.28C589.49,407.64,589.74,407.34,590.25,407Zm-11.62.11a1,1,0,0,1,1.38.43,4.38,4.38,0,0,1,.65,1.3c-.21.83.13,1.61-.93,2-.54,0-.85-.47-.89-1a3.87,3.87,0,0,1-.66-1.57C578.13,407.72,578.36,407.16,578.63,407.14Zm-4.89,6.61a2.08,2.08,0,0,1,1,1.82c0,.53-.2.82-1,.89a1.93,1.93,0,0,1-.93-1.55C572.71,414.37,573.18,413.52,573.74,413.75ZM588.47,309c1.47,1.51,2.18,3.62,4.12,4.28-.94,1.7-2.23,2.61-3.65,1.64C586.66,313.44,588.39,311.41,588.47,309Zm2.4,9.82c1-.89,1.9.13,2.23.91.38,1.32,1,2.62.36,4.57-1.67-.68-2.32-2-3.21-3C589.38,320.54,590.1,319.4,590.87,318.79Zm16.45,2.76c.8-.06.87.75,1.18,1.26l-.46,1.12c-1.07.09-1.43-1-1.49-1.77C606.51,321.62,606.76,321.33,607.32,321.55Zm-9.09-26.06c.22-.56.16-1.37,1.28-.91.56.22.6.76.37,1.32a3.28,3.28,0,0,0,.61,4.28c1.72,1.22,1.31,2.87.36,4.57C600.08,301.84,596.64,299.4,598.23,295.49Zm2.24,14.7c-1.55.93-2.56,1.83-4,.32C597.72,309.6,598.81,309.78,600.47,310.19Zm-4.66-21.27a3.45,3.45,0,0,1,.53,3.2c-.25.29-.52.31-.83-.2C594.64,291.17,594.55,290.1,595.81,288.92Zm.38,46c-.51.31-1.07.08-1.65-.41-.62-1-1.54-2.32-2.18-3.62a1,1,0,0,1,.43-1.39,1.27,1.27,0,0,1,1.63.14,13.46,13.46,0,0,1,2.45,3.6A1.62,1.62,0,0,1,596.19,334.88Zm-5.71-34.72c2,1.73,1.14,4.24,2.14,6.59-2.5-.88-4.18-1.56-6.13-2.22l-.08-1.07A5.64,5.64,0,0,0,590.48,300.16ZM584.19,289c0-.54.49-.58.76-.6a1.37,1.37,0,0,1,1.18,1.26.71.71,0,0,1-.74.87C584.56,290.34,584,289.85,584.19,289Zm-63.1,98.58c-.54,0-1.39-.43-1.43-1,.2-.83,1-1.16,2.07-1.24a1.14,1.14,0,0,1,1.15,1A1.8,1.8,0,0,1,521.09,387.6Zm-3.61-49.22c.43,2.13.81,3.45.4,5.11C515.58,341.78,515.58,341.78,517.48,338.38Zm2.76,38.47a2.75,2.75,0,0,1,1.72,1.21,1.27,1.27,0,0,1-1.24,1.45c-.83-.2-1.39-.43-1.2-1.52C519.48,377.45,519.72,377.16,520.24,376.85Zm7.39,35.39c-1.32.38-1.94-.65-2-2a2.56,2.56,0,0,1,1.11-3.06,2.45,2.45,0,0,1,2.63,2.5C529.43,411,529.24,412.12,527.63,412.24Zm8.33-4.17c2.38,2.79,3.47,6.22,4.3,9.94a1.2,1.2,0,0,1-.68,1.68c-1.05.35-1.9-.12-2-.93C537.05,415,535.43,411.63,536,408.07Zm-1.44-59.4c-.45,1.12-.62,2.48-2.25,2.34-.27,0-.31-.52-.31-.52-.13-1.61.88-2.5,2.76-2.65C534.77,348.38,534.79,348.65,534.52,348.67Zm3.36,4.87c-.54,0-1.34.11-1.41-.7s.72-1.14,1.24-1.45,1.1.19,1.14.72C538.93,353.19,538.42,353.5,537.88,353.54Zm39.8,3.9c-2.65-2.77-2.37-6-3.18-9.49C576.82,349.93,578,353.9,577.68,357.44Zm-1-74.86c-.48-2.66,1.69-2.56,3-2.94s1.72,1.22,1.81,2.29a31.86,31.86,0,0,1,.67,5.09c.06.81-.14,1.63-1.24,1.45-1.08.09-2.19-.37-1.76-1.75.2-.83,1-1.7-.42-1.87-.83-.2-.7,1.41-1.8,1.23A15.13,15.13,0,0,0,576.65,282.58Zm-10.41,8.67c2.26,1.17,2.67,3,2.57,5.21.05.53-.2.83-1,1.16a1.18,1.18,0,0,1-1.16-1C565.71,294.81,566.93,293.09,566.24,291.25Zm-2.45-13.88c.54,0,1.35-.1,1.66.42.89,1,2.36,2.51,1.12,4-1.5,1.48-.86,2.78-1.23,5-2.09-2.54-1.77-5.27-2.5-7.65C562.51,278.29,563.28,277.69,563.79,277.37Zm-5.19-.67c1.34-.1,1.7.95,1.78,2a1.9,1.9,0,0,1-1.42,2.54c-1.1-.18-1.43-1-1.51-2S557.54,277.06,558.6,276.7ZM539,291.78c3.12-1.6.53-3.56.13-5.15a1.63,1.63,0,0,1,2.15-.17c1.12.45,1.23,1.8,1.31,2.87.44,2.13-.53,3.56-2.12,4a1.41,1.41,0,0,1-1.12-.46A.66.66,0,0,1,539,291.78ZM529.27,289c-.46-2.4-1.45-4.76-.57-7.26a4.92,4.92,0,0,1,2.22,4.15c.3,3.76,1.65,7.17,1.12,10.73a9.06,9.06,0,0,0,.57,3.74c.14,1.89.14,1.89-2.75,2.93C531.09,298.35,529.9,293.58,529.27,289Zm-.91,29.56c1.66-9.87,9.83-15.93,18.68-16.9l10.49-.83c11.35-.08,20.49,6,22.29,18.53.7,5.36,1.64,10.43,1.25,15.87-.53,3.56-.26,3.53-4,3.83l-45.44,3.59c-3,.23-3.22.25-3.46-2.71C527.85,332.69,527,325.72,528.36,318.59Zm-6.58,23c.25-.29.81-.07,1.37.16,1.45,1.24,1.27,2.34,0,3.52-.31-.52-.58-.5-.6-.77C521.93,343.44,520.79,342.72,521.78,341.56Zm3.69,63.82a1,1,0,0,1-1.39-.43c-.29-.25-.58-.5-.08-1.08.74-.87.34-2.46,1.87-3.66C527.45,403.06,527.29,404.43,525.47,405.38Zm-.58-7.26c0,.27-.51.31-.53.05-1.45-1.24.12-1.91,0-3C525,396.22,525.64,397.25,524.89,398.12Zm-3.48-27.05a1.16,1.16,0,0,1-1,1.16,1.36,1.36,0,0,1-1.18-1.25c.1-2.18-.1-4.6,1.06-7.12C522.93,366.36,521.24,368.92,521.41,371.07Zm-2.62-36.58c.87.74.38,1.32-.12,1.9a1.31,1.31,0,0,1-2.19-.37,3.29,3.29,0,0,1-.52-3.2C517.3,332.71,517.92,333.75,518.79,334.49Zm-4.54-16.42c1,1.82,0,3.79.42,5.38C514,321.61,512.52,320.11,514.25,318.07Zm-9.93-12.74c.54,0,1.36.17,1.39.43.25,3.23,3.38,5.15,2.6,9-2.63-2.5-3.65-5.13-4.94-7.73C503,306.24,503.53,305.66,504.32,305.33Z"/><path class="cls-2" d="M641.49,404.89c8.82,9,19.88,11.95,31.77,11.83a184,184,0,0,0,21-1.66c11.23-1.7,21.17-6,28.87-14.72,1-1.16,1.69-2.57,3.8-3.27l.7,8.87c.27,3.49.27,3.49,3.5,3.24L762,406.74c1.61-.13,2.37-.73,2.22-2.61a61.66,61.66,0,0,0-1.06-6.68c-1.47-11.79-2.95-23.57-3.88-35.4-1.54-16.11-2.83-32.51-3.84-48.67A136.79,136.79,0,0,0,752,290.12c-3.85-14.57-12.23-24.73-26.65-29.28-7.23-2.4-14.59-3.17-22.18-3.39-14.61.07-29.17.68-43.12,5.57-6.57,2.41-12.85,5.07-18.18,9.55-10.41,8.67-13.55,20.27-13.07,33.22a140.91,140.91,0,0,0,1.72,15c.88,4.26.05,4.05,4.62,3.69,5.4-.16,11-.87,16.4-1.3l18.29-1.44-.62-7.79c-.21-2.69-.15-5.4-.1-8.11.46-7.88,5.17-13.39,12.86-15.35a47.87,47.87,0,0,1,16.42-1c6.54.57,11.9,3.39,14,10,3.5,10,4.57,20.19,5.38,30.41.17,2.15-.89,2.51-2.5,2.63-2.69.22-5.13.14-7.82.35-12.9,1-25.58,1.48-38.32,4.65-7.44,1.66-14.59,3.58-21.33,7.36-8,4.42-13.48,10.8-14.93,19.84a66.25,66.25,0,0,0,1.6,27.2A31.84,31.84,0,0,0,641.49,404.89Zm92.57-16.51c-.52.32-1.35.11-1.39-.43-.57-3.74-4.27-6.15-4-10.23A1.43,1.43,0,0,1,730.1,376c.09,1.08-.06,2.71,1.08,3.43,2.59,2,2.31,5.23,3.31,7.59C734.8,387.52,734.59,388.34,734.06,388.38Zm-4.72-18.56c2.53,1.15,2.41,3.06,2.54,4.67-.19,1.1-.7,1.41-1.51,1.47A26.37,26.37,0,0,0,729.34,369.82Zm-.13-77.09c-.82-.2-1.42-1-1.2-1.53.46-1.11.35-2.46,1.67-2.83.87.74.42,1.86.75,2.64C730.52,292.09,730.31,292.91,729.21,292.73ZM744.09,399c-.81.07-.87-.74-.89-1-.05-.53-.38-1.32.72-1.13.54-.05.85.47.91,1.28C744.87,398.62,744.6,398.64,744.09,399Zm.27-6.78c0,.54.11,1.35-.7,1.41-.85-.48-1.42-1-1.24-2.07,0-.53.47-.85,1-.89C744.53,390.81,744.32,391.63,744.36,392.17Zm-.65-8.33a1.25,1.25,0,0,1-.7,1.4c-.81.07-1.12-.45-1.43-1,0-.54-.36-1.06-.13-1.62-.06-.81.12-1.9.91-2.23s1.4.7,1.53,2.31A1.68,1.68,0,0,1,743.71,383.84Zm-5.19-69.12c2.66,2.77,1.32,6.39,2.38,9.55C738.6,322.56,738.07,322.6,738.52,314.72Zm2.08,16.07a44.43,44.43,0,0,0,3.5,10c1.62,3.39,1.42,7.73,1.18,11.54-.37,2.19-1,4.41-.82,6.83.11,1.34-.36,2.19-2,1.78-1.1-.18-1.94-.66-1-2.36,1.94-2.85,1.72-9.06.93-12.24-.85-4-2.76-7.63-2.86-12.22a12.2,12.2,0,0,0-4.13-7.79C738.63,326.34,739.88,328.41,740.6,330.79Zm-5.5-32a1.16,1.16,0,0,1,1.16,1,1.46,1.46,0,0,1-1.28.91.85.85,0,0,1-.87-.74A1.16,1.16,0,0,1,735.1,298.76Zm-10.27-17.05c1.26-1.18.28-3.26,1.56-4.18,1.26-1.18,2.53,1.16,4.14,1,1.08-.09,2.42-.19,2.26,1.17-.43,1.39-1.55.94-2.65.75-1.9-.12-2.93.51-3.32,2.43a1.16,1.16,0,0,1-1.84.69C724.42,283.37,724.33,282.29,724.83,281.71Zm5.2,79.67c1.1.18.91,1.28,1,2.09-.21.82.42,1.86-.6,2.75a1,1,0,0,1-.82-.21,3,3,0,0,1-1-2.89C728.75,362.29,728.94,361.2,730,361.38Zm-6.09-39.56c.78-.33,1.61-.12,1.65.41.06.81-.7,1.41-1.75,1.76-.27,0-.58-.49-.85-.47A1.55,1.55,0,0,1,723.94,321.82Zm.52,27.28a2,2,0,0,1-1,.63,1.53,1.53,0,0,1-1.22-1.8,3.67,3.67,0,0,1,1-.89A3.3,3.3,0,0,1,724.46,349.1ZM715.75,273a1.52,1.52,0,0,1,.92,1.28l-.23.56a1,1,0,0,1-1.16-1C715.26,273.54,715.22,273,715.75,273Zm-63.23,7.7c.06.8-.71,1.4-1.49,1.74-.76.6-1.36-.17-1.68-.68-.62-1-1.51-2.05-1.08-3.43,1.32-.38,1.72,1.21,3.07,1.11A1.09,1.09,0,0,1,652.52,280.66Zm9.15,16.59a1.27,1.27,0,0,1-.14,1.63c-2-1.19-2.41-3.06-2.56-4.94.17-1.36.89-2.5.51-3.82a.72.72,0,0,1,.75-.87c.8-.07.85.47,1.16,1a2,2,0,0,1-.17,1.36C660,293.59,660.72,295.43,661.67,297.25Zm5.66-3.69c-.81.06-1.14-.73-1.2-1.53a1.25,1.25,0,0,1,1.28-.92c.54,0,.6.77.91,1.28C668.09,293,667.87,293.51,667.33,293.56Zm19-9.35a1.86,1.86,0,0,1-2.36,1c-1.38-.43-.64-1.31-.16-2.15.67-1.68.67-1.68.19-4.35a2.6,2.6,0,0,1,2.61,2.23C686.71,282,687.09,283.34,686.34,284.21ZM671.62,402.78c-.62-1,.43-1.39,1-1.7,1.75-1.76,2.12-3.95.92-5.48-2.37-2.52-.65-4.82.5-7.35.31.52.89,1,.66,1.57a34.7,34.7,0,0,0,2.34,9c1,2.35.25,3.23-1.9,3.39C673.77,402.61,672.76,403.5,671.62,402.78Zm6.32,8.16c-1.59.39-3.08-1.38-3-3.29-.13-1.61.61-2.48,2-2.59,1.61-.12,3.11,1.65,3.23,3.27C680,410,679.29,410.83,677.94,410.94Zm1.81-49.11c9.51-2.92,19.19-3.68,28.91-3.9a53,53,0,0,1,9,.37c1.63.14,2.48.62,2.61,2.23,1.25,9.1-1.73,15.83-9.5,20.23A29.21,29.21,0,0,1,697.54,385c-4.3.34-8.58.95-13.17,1a10.46,10.46,0,0,1-4.08-.22c-6.37-1.93-8.49-4.74-8.77-11.75C671,367.93,673.67,363.66,679.75,361.83Zm-13.08-4.65a9.17,9.17,0,0,0,1.48-5.26c0-.53.45-1.11,1-.89.27,0,1.12.45,1.16,1-.08,2.44-.18,4.62-.26,7.06.07.8-.74.87-1.55.93C667.17,360.12,665.68,358.34,666.67,357.18Zm-3.06,43.52c.78-.33,1.1.19,1.14.73.31.51.08,1.07-.45,1.11a1,1,0,0,1-1.16-1C663.12,401.29,663.34,400.73,663.61,400.7Zm-25-29.13c.94-1.7-.57-3.74.9-5.75a46.66,46.66,0,0,1,4,16.72,33.05,33.05,0,0,0,1.11,7.22,1,1,0,0,1-.43,1.39c-.79.33-1.1-.19-1.41-.7-.64-1.31-1.8-2.3-1.66-3.93.32-2.73-1-5.34-2-7.69S637.16,374.12,638.59,371.57Z"/><path class="cls-2" d="M885.89,306.88c-.81.07-1.31.65-1.22,1.72.06.81.37,1.32,1.45,1.24s1.3-.64,1.26-1.18C887.27,307.31,887,306.8,885.89,306.88Z"/><path class="cls-2" d="M867.82,294a45.07,45.07,0,0,1,1.78,8.79l7.17,90.87c.32,4,.32,4,4.35,3.71l31.18-2.46c4-.31,4-.31,3.72-4.35l-6.81-86.3a39.66,39.66,0,0,1-.18-5.67c-.49-9.7-2-19-6.26-27.91-3.94-8.88-10-16.53-19.21-20.66a53,53,0,0,0-19.87-4.93c-2.73-.33-5.39.16-8.08.37-9.45.2-18.87.95-27.73,5.16-5.21,2.58-10.1,5.67-13.8,10.29-2.47,2.9-3.85,6-6,9.94-.73-5.9-1.67-11-2.34-16-.17-2.15-1-2.89-3.17-2.45l-28.77,2.27c-3.23.25-3.23.25-3,3.74l.08,1.08a273,273,0,0,1,4.76,32.9c2.82,32.24,5.38,64.77,7.95,97.3l1,12.64c-.1,2.17.75,2.64,3.17,2.45l33.07-2.61c2.15-.16,3.18-.79,2.74-2.92a12.89,12.89,0,0,1-.25-3.22c-2.17-27.43-4.33-54.85-6.76-82.25a80.47,80.47,0,0,1,.16-11.65c.38-8.95,4.17-15.75,12.83-19.13a40.91,40.91,0,0,1,11.16-2.51c3.48-.54,6.77,0,10.3.27C859.28,281.66,865.26,285.51,867.82,294Zm28.62,88.37c-1.91-.12-2.53-1.16-3-3.28.81-.07,1.08-.09,1.1.18,1.12.45,2.75.59,2.61,2.23A.72.72,0,0,1,896.44,382.34Zm9.77-23.5c-1.71-1.22-2.07-2.27-.29-3.76A3.22,3.22,0,0,1,906.21,358.84Zm-7.39-69.75c1.76,1.75,1.64,3.66.18,5.67C896.32,291.72,896.32,291.72,898.82,289.09ZM893.4,289a1,1,0,0,1-.83-.21c-1.14-.72-.66-1.57-.48-2.67.25-.29.23-.56.45-1.11.32.51.6.76.92,1.28A2.49,2.49,0,0,1,893.4,289Zm-1.86-9.87c1.8,2.3,1.8,2.3.09,4.6A4.68,4.68,0,0,1,891.54,279.11Zm-12.76-17.66c3.38,1.63,4,2.13,3.05,4.36-.63,2.22-2.37,4.25,1,5.87l0,.27c-1.78,1.5-1.15,2.53,0,3.79a9.45,9.45,0,0,1,2,4.44c.9,4.53,3.1,8.41,3.73,13,.38,4.84,1.82,9.33,1.93,14.19-.14,1.63.23,3-1,4.68-1.24,1.45,0,3.51,1.21,5,1.13.72,2,1.73,1.32,3.14-1.86.42-1.74-1.48-2.61-2.23-.58-.49-1.16-1-1.94-.66-1.06.36-.43,1.39-.37,2.2a3.29,3.29,0,0,0,.4,1.59c1.2,1.53,1.82,2.56-.22,4.07-.77.61-.39,1.93.73,2.38.85.48,1.67.68,2.52,1.16,1.41.69,2.44.07,2.32-1.54a5.91,5.91,0,0,0-.17-2.15c-.05-.54.2-.83.72-1.14a1,1,0,0,1,1.16,1,12.81,12.81,0,0,0,2.16,6.86c0,.54.11,1.35.67,1.57,2.27,1.45,2.38,2.79,0,3.79.66,1.57,2,1.19,2.83,1.67,2,.93,2.07,2.27,1.17,4.51-.45,1.11-.37,2.19-.82,3.31-.21.82-1,.89-1.82.95a1.46,1.46,0,0,1-.91-1.28l-.22-2.69c-.14-1.88-.5-2.93-2.23-.9-1,.89-1.34.1-1.41-.7-.33-.79.16-1.37.64-2.22,2-2.59.4-5.17-.08-7.84,0-.53-.58-.49-1.12-.45a1.23,1.23,0,0,0-.74.87,7.71,7.71,0,0,0-.08,2.44c.09,1.08.71,2.11-.28,3.27a1,1,0,0,1-1.16-1c-.33-.79-.42-1.86-1.49-1.78s-1.51,1.48-1.16,2.53a36.25,36.25,0,0,1,1.69,7.71c.09,1.08.89,1,1.45,1.24,2.22.64,3.69,2.14,5.9,2.78,3.29.55,3,4.36,5.1,6.36.3.25-.18,1.1-.7,1.41-.76.6-1.09-.18-1.67-.68-.89-1-.73-2.38-1.38-3.68a2.75,2.75,0,0,0-3.14-2.19c-1.86.42-2.36,1-2.48,2.9a14.13,14.13,0,0,1-.71,4.66c0,.54-.19,1.1-.15,1.63.13,1.62,2.08,2.28,1.69,4.2a5.21,5.21,0,0,0,.32,4c1.16,1,2.06-1.24,3.24,0-.12,1.9-3.14,1.33-3,3.48.42,1.86,2.07,2.27,3.24,3.26.55.23.6.76,1.18,1.26.6.76,1.76,1.75.5,2.94s-1.91-.13-2.53-1.16a1.83,1.83,0,0,0-1.69-.95c-3.05-.84-4.85-3.13-4.3-6.42.8-3.58-.26-6.74-1.32-9.91-.4-1.59-.77-2.91.47-4.36A3.66,3.66,0,0,0,890,352c-2.72-3.58-2.79-7.9-2.57-12a6.94,6.94,0,0,0-.59-4,15.85,15.85,0,0,1-1.21-5c-.9-8-2.64-16.29-3-24.65-.11-1.34-1.56-2.58-1.15-4.24.79-.33,1.07-.08,1.39.43.91,1.29,2,2,3.33,1.09a2.75,2.75,0,0,0,1.36-3.35,22.87,22.87,0,0,1-1.57-6.1,1.44,1.44,0,0,0-1.45-1.24c-1.09-.18-1,.63-1.24,1.45.09,1.08.44,2.13-.84,3.05-1.18-1.26-1.6-3.12-2-5-.5-2.93.36-5.7-.95-8.58,0-.27-.08-1.07.18-1.09,3.31-2.7.41-5.17-.34-7.82a21,21,0,0,0-.84-3.72C877.68,268,879.35,265.2,878.78,261.45Zm-5.75-.9c.54,0,1.3-.64,2.17.1.07.81-.72,1.14-.94,1.7-.77.6-1.28.91-1.89.15-.29-.25-.58-.49-.6-.76C871.42,260.68,872.49,260.6,873,260.55ZM851.77,262c-.64-1.3-1.55-2.58-1.12-4,.16-1.36.57-3,1.87-3.66,1.59-.4,2,1.73,3.44,2.43.45-1.12-1-1.82-.21-2.69,1-.89,1.88-.15,2.75.6a4.08,4.08,0,0,1,1.31,2.87c.35,1,.69,1.84,1.51,2,1.1.18,1.55-.94,1.78-1.5.49-.58.72-1.14,1.53-1.2,2.09,2.54-.09,5.69,2.27,8.21a2.19,2.19,0,0,1-2.57-1.69,3.8,3.8,0,0,1-1.16-1c-3.08,2.14-3.62-1.33-5.32-2.28-2-1.2-3-.84-2.6,1.29.5,2.93-3,3.21-3.37,5.4,0,.54-.78.34-1.07.09a4,4,0,0,1-.67-1.57C849.75,263.74,852.75,264.05,851.77,262Zm-42.63,63.15a1.79,1.79,0,0,1,1.43,1c.09,1.07-.16,1.37-1,1.7a1.72,1.72,0,0,1-1.72-1.22A1.27,1.27,0,0,1,809.14,325.11Zm-10.39,60.33c.09,1.08-.12,1.91-1.19,2-.81.07-1.14-.72-1.21-1.52l0-.27c.57-6.54-2.83-11.95-3.32-18.14-.45-5.64-.89-11.29-1-16.69,0-6.76-.5-13.21-2.87-19.25-1.7-4.46-2.09-9.3-3-13.83-1.24-5.31-1.66-10.69-2.62-16-.13-1.62-.81-3.46.67-5.2,2.28,1.45,2.16,3.35,2.31,5.23.46,5.91,2,12,3,18.16,1.53,9.07,4.11,17.8,4.85,27.21l.15,1.88c-1.06,7.12,1.11,14,1.39,21a12,12,0,0,0,1.5,5.29C798.76,378.68,798.5,382.22,798.75,385.44Zm-4.46-90.81c-.2-5.94-2.21-10.92-3.17-16.25C794.58,281.08,796.68,290.65,794.29,294.63Zm5.84,43.1c-1.16-1-1-2.09-.88-4.27C800.47,335.26,801.63,336.25,800.13,337.73ZM800,315c-.21.83-.7,1.41-1.53,1.21-.54,0-.87-.75-.64-1.31.14-1.63-.84-3.72.65-5.46C799.93,311.23,800.89,313.05,800,315Zm5.85,50.13c-.79.33-1.12-.45-1.43-1a1.79,1.79,0,0,1,1-1.43c.53,0,.85.48,1.16,1A1.5,1.5,0,0,1,805.81,365.14Zm8.56,12.58a27,27,0,0,0-3.06-1.11,98.78,98.78,0,0,0-.86-17.79,3.91,3.91,0,0,1-.67-1.57c.23-.56.7-1.41,1.24-1.45,1.06-.35,1.12.45,1.45,1.24,1.21,5,2.69,10.07,2.82,15.2C815.44,374.12,815.84,375.71,814.37,377.72ZM813.25,288c-.23.55-.44,1.38-1.24,1.45a1.38,1.38,0,0,1-1.18-1.26c-.75-2.65-1.52-5.57-.14-8.65C812.51,282.1,814.07,284.68,813.25,288Zm25-26.59c-1.32.37-1.68-.68-1.76-1.76s.68-1.67,1.75-1.76c1.1.19,1.68.68,1.75,1.49A1.71,1.71,0,0,1,838.2,261.41Z"/><path class="cls-2" d="M884.26,289.7a1.23,1.23,0,0,0,1-1.43c-.33-.79-.42-1.86-1.76-1.76-1.08.09-1.28.92-1.2,2C882.6,289.29,883.2,290.05,884.26,289.7Z"/><path class="cls-2" d="M947.48,388.05a69.18,69.18,0,0,0,27.12,4.35c5.67-.17,11.13.48,16.78,0,6.45-.51,12.57-1.8,18.71-2.83a57.28,57.28,0,0,0,23.89-9.19c10-6.47,15.53-15.83,16.48-27.81.71-8.17-.45-15.92-2.45-24.15-3.06-11.39-10.09-18.14-21.39-20.77a71.62,71.62,0,0,0-23.95-1.89c-6.72.53-13.73.81-20.46,1.34a24.93,24.93,0,0,1-6.51-.3c-5-1-9.19-3.33-11-8.6-1.75-5-3.23-10-2.82-15.2.42-8.42,5.35-14.49,13.1-15.64a90.5,90.5,0,0,1,19.09-1.51c7.88.46,14.43,4.54,16.12,12.26a54.69,54.69,0,0,1,.77,13.19c-.08,2.44.23,3,2.38,2.79,10.78-.58,21.51-1.7,32-2.52,1.64.14,2.4-.46,2.52-2.37.68-5.19,1.33-10.65.34-16.26a66,66,0,0,0-1.09-6.94c-1.57-9.62-5.43-17.43-13.71-23a53,53,0,0,0-14.56-6.15c-9.39-2.51-18.89-2.84-28.34-2.64A106.47,106.47,0,0,0,949,242.66c-16,6.94-24.45,19.24-25.53,36.37-.68,12,1.82,23.12,5.92,33.89,6.44,16.53,20.36,24.91,37.65,24.62a185.9,185.9,0,0,0,24.55-.85,47.5,47.5,0,0,1,15.2.69c5.49.92,7.91,4.25,7.53,9.69a11.46,11.46,0,0,1-6.49,10.25c-2.61,1.29-4.94,2.55-7.63,2.77-8.87.69-17.41,2.18-26.12,1.51-9.54-.86-17.92-4.26-24.18-11.61-.61-.77-1.23-1.8-2.59-2-5.9,7.5-11.78,15.26-17.66,23a2.12,2.12,0,0,0,.23,3A33.79,33.79,0,0,0,947.48,388.05Zm81.9-110.61c-1.76-1.76-1.91-3.64-1.57-6.1C1030.67,273.28,1030.8,274.89,1029.38,277.44ZM1025.09,254c.52-.31.83.2,1.14.72.4,1.59.79,3.19.11,4.86-2-1.19-1.6-3.12-2.24-4.42A1.14,1.14,0,0,1,1025.09,254Zm-1.51,18.51c1.18,1.26,1,2.63-.24,3.81-1.7-1-2.08-2.27-1.11-3.7A.77.77,0,0,1,1023.58,272.48Zm-2.41-13.33c.33.78.4,1.59.73,2.38,0,.53-.18,1.09-.14,1.63-.23.56-.72,1.14-1.28.91-.27,0-.83-.2-.85-.47a21.1,21.1,0,0,1-1.64-3.66,1.73,1.73,0,0,1,1.19-2C1020,257.62,1020.84,258.36,1021.17,259.15Zm-4.61-10.46c2.57,1.69,2.74,3.84,2.43,6.84A8.55,8.55,0,0,1,1016.56,248.69Zm-7,4.34a2.93,2.93,0,0,1,2.36,2.52c0,.53-.45,1.11-1,.89a2.87,2.87,0,0,1-2.34-2.25C1008.3,253.67,1008.81,253.36,1009.6,253Zm-8.12,3.34c-.12,1.91,1.12,4-1.15,6.05-.55-3.48-.78-6.44-1.82-9.33C1000.17,253.5,1001.58,254.2,1001.48,256.37ZM995.75,249c.93-2,.26-3.54.12-5.42.22-.56.18-1.1,1-1.43a2.29,2.29,0,0,1,1.41.7c.38,1.33,1.31,2.87.34,4.3-1.46,2-.78,3.85-.34,6C994.66,252.31,994.39,252.33,995.75,249Zm-11-6.43c1.07-.09,1.4.7,1.47,1.5a7.79,7.79,0,0,1,.46,2.4,5.12,5.12,0,0,0,2,4.18,1.3,1.3,0,0,1,.93,1.55c-.2.83-1,.89-1.8,1.22a1.28,1.28,0,0,1-1.45-1.24,69,69,0,0,0-2.22-7.67C984,243.69,983.91,242.88,984.7,242.55ZM933.41,268a1,1,0,0,1,.64,1.3c-.23.56-.21.82-.74.87a1.5,1.5,0,0,1-.92-1.28C932.35,268.32,932.85,267.74,933.41,268Zm-.54,10.32c.51-.31,1.07-.09,1.65.41a.71.71,0,0,1-.74.87c-.52.31-1.08.08-1.12-.45A1,1,0,0,1,932.87,278.29ZM930,293.93a.81.81,0,1,1-.12-1.61c.53,0,.56.22.62,1A.53.53,0,0,1,930,293.93Zm5.26,11.76c-1.32.37-1.43-1-1.76-1.75-.09-1.08.1-2.18,1.44-2.28,1.08-.09,1.16,1,1.25,2.06C936,304.28,936.64,305.58,935.3,305.69Zm-2.37-16.31c0-.54.19-1.1.45-1.12.54-.05.85.47.9,1a.72.72,0,0,1-.75.87C933.26,290.16,933,289.64,932.93,289.38Zm1.5-5a11.88,11.88,0,0,0-4.14-1c-.56-.23-1.14-.72-.66-1.57.2-.83.68-1.68,1.24-1.45,1.42,1,3.31.82,4.74,1.79a1.62,1.62,0,0,1,.35,1.05C935.75,284,935.28,284.86,934.43,284.39Zm44.69-37.07c.52-.31.56.22.85.47,0,.54-.19,1.1-.46,1.12-.53,0-.82-.21-.84-.48C978.36,247.92,978.6,247.63,979.12,247.32Zm-8.63-3.11a1.49,1.49,0,0,1,1.7.95,2,2,0,0,1,.62,1c.1,1.35,1,2.36.56,3.74-3-.84-4.22-2.1-4.1-4C969.48,245.1,969.7,244.54,970.49,244.21Zm-4,7.08c4.1,4,4.1,4,9.43-.47,1.47,1.51-.66,1.94-.87,2.77-.47.85-.09,2.17-.86,2.77-1.32.38-2.48-.61-3.56-.52C966.54,255.88,966.54,255.88,966.45,251.29ZM951,265c2.16,3.35,3.45,5.95,2.88,9-.23.56-.44,1.39-1.53,1.21-.54,0-.87-.75-.65-1.3C952.05,271.09,949.69,268.58,951,265Zm.48-7.61c1.29,2.6.08,4.32-.58,6.27C949.4,261.56,950.06,259.62,951.5,257.34Zm4,50.28a1,1,0,0,1,.64,1.3,1.77,1.77,0,0,1-1.26,1.18c-1.88.15-2.77-.86-3.43-2.44C953,306.46,954.1,307.45,955.47,307.62Zm-12.72-55a2,2,0,0,1,2.23.91,5.31,5.31,0,0,1-.05,6.22c-1.72-1.21-2.16-3.34-3.09-4.89A1.61,1.61,0,0,1,942.75,252.62Zm3.75,13.23c0,.54-.41,1.66-1,1.43-1.37-.16-1.5-1.78-1.85-2.83-.31-.52.2-.83.72-1.14C946,263.45,946.39,264.51,946.5,265.85Zm-7.15,5.43c-1.08.09-1.88.15-2-.92,0-.27.21-.83.48-.85,1.07-.09,1.63.14,2,.92A.56.56,0,0,1,939.35,271.28Zm4.89,34.52c-.52.31-1.39-.44-1.18-1.26a3.08,3.08,0,0,1,1.93-2.86c.52-.31.83.2,1.16,1C945.7,303.79,946.1,305.38,944.24,305.8Zm.22-10.84c-.27,0-.6-.77-.62-1a1,1,0,0,1,1-1.16c.54,0,.6.77.62,1C945.52,294.6,945,295.18,944.46,295Zm-.65-4.82c-.29-.25-.29-.25-.31-.52-.33-.78-.68-1.84.35-2.46.25-.29.53,0,.83.21C945.59,288.65,944.85,289.52,943.81,290.14Zm4.3-3.86c-1-2.62-3.61-4.58-3.33-7.85.14-1.63-1.33-3.14-1.74-5A2.4,2.4,0,0,1,945,270.3c.83.21,1.39.43,1.16,1-.66,1.95.73,2.38,1.62,3.39a2.06,2.06,0,0,1,.73,2.38c-1.42,2.55-.18,4.61,1.07,6.68l.93,1.55a1.47,1.47,0,0,1-.94,1.69C949,287.3,948.42,286.8,948.11,286.28Zm4,33.23c1.26-1.18,2.52-2.36,1.83-4.2,0-.54-.1-1.34.7-1.41.54,0,1.1.19,1.14.73a30.67,30.67,0,0,0,1.4,3.94C955.27,318.72,954,320.17,952.08,319.51Zm5.16,3.66c-.56-.23-1.37-.17-1.43-1a1.16,1.16,0,0,1,1-1.16,1.26,1.26,0,0,1,1.45,1.23C958.31,323.08,957.78,323.12,957.24,323.17ZM956,290.8c-.54,0-1.1-.19-1.14-.72-.06-.81.45-1.12,1.26-1.18a1,1,0,0,1,1.16,1C957.11,290.71,956.87,291,956,290.8Zm.25-27.62a12.07,12.07,0,0,1,.22-7.59c1.53,2.32,1.21,5,1.93,7.42a1.16,1.16,0,0,1-1,1.17A1,1,0,0,1,956.29,263.18Zm2.61,9c-.89-1-.42-1.86.3-3,2-2.05,2.08-4.5,1.31-7.41-.83-3.72-1.13-7.49-2-11.48a6.16,6.16,0,0,1,.74-4.38c.68-1.68,2.31-1.54,3.25,0a4.67,4.67,0,0,1,.79,3.18,11.47,11.47,0,0,0,.53,6.73c.33.78.42,1.86-.66,1.94-1.59.4-2,1.52-1.65,3.11.69,1.84.59,4,3.07,4.63.27,0,.81-.07.85.47a19.45,19.45,0,0,1-3.55,3C960.88,269.86,960.49,271.78,958.9,272.18Zm26.53,58.5c-.15,1.64-1.22,1.72-2.57,1.83-4,.31-4.9-.43-4.68-4.5-.06-.81.14-1.64-.69-1.84-2-1.2-1.55-2.59-.58-4a1.85,1.85,0,0,0-.75-2.65c-3.11-1.65-3.09-4.9-3.35-8.12,5.69.09,7.43,1.58,7.34,7.26a65,65,0,0,0,.57,7.26c.13,1.62.77,2.92,2.65,2.77C985,328.55,985.59,329.32,985.43,330.68Zm4.26-.88c-.23.56-.21.83-.75.87-.51.32-.81.07-1.12-.45a5.43,5.43,0,0,1-.73-2.38c-.39-1.59-.25-3.22-1.18-4.77a1.3,1.3,0,0,1,.37-2.19c.78-.34,1.4.7,1.45,1.23.7,2.11,1.41,4.22,1.81,5.81ZM996.75,313c1.07-.09,1.4.7,1.49,1.77s-.1,2.17-1.45,2.28c-1.07.08-1.15-1-1.22-1.8C995.49,314.2,995.4,313.12,996.75,313Zm4,10.23a6.38,6.38,0,0,0,0,6.22c.27,0,0,.54.06.81a1.78,1.78,0,0,1-1.77,1.49,1.43,1.43,0,0,1-1.45-1.24,15.66,15.66,0,0,0-1.3-6.12,4.29,4.29,0,0,1,.37-2.19,2.33,2.33,0,0,1,2.6-1.29C1000.11,321.41,1001.25,322.13,1000.8,323.25Zm8.3,2.32c-1.85-2.83-2.48-7.38-.83-10.49C1009.11,318.8,1011,321.9,1009.1,325.57Zm17.38,24.87a1.81,1.81,0,0,1,.64-2.22c.82.21,1.14.72,1.47,1.51.31.52,1.47,1.51-.1,2.17C1027.46,352.53,1026.83,351.49,1026.48,350.44Zm5,21.79c-1.35.11-1.7-1-2.06-2l-.08-1.08c-.09-1.07-.17-2.15.88-2.5s1.68.68,2,1.46a4.58,4.58,0,0,1,.42,1.86C1032.68,370.78,1032.52,372.14,1031.45,372.23Zm-1.11-27.78c0-.27.47-.85,1-.89.29.25.85.48.87.74a50.63,50.63,0,0,1,1,6.14C1030.7,349,1030.78,346.58,1030.34,344.45Zm6.84,7.85c1.07-.09,1.14.72,1.18,1.26s.37,1.32-.43,1.39a1.55,1.55,0,0,1-1.74-1.49A1.15,1.15,0,0,1,1037.18,352.3Zm-2.42,3.7c.07.81.15,1.89-1.17,2.26a2.89,2.89,0,0,1,0-3C1034.43,355.22,1035,355.45,1034.76,356Zm-13.87-28.39c.14-1.63-.52-3.2,1.32-3.89a4.06,4.06,0,0,1,4.14,1c.29.25.31.52.6.76a1,1,0,0,0,1.39.43.84.84,0,0,0,.43-1.38,28.77,28.77,0,0,1-.8-6.7c.8-.07,1.32-.38,1.36.16.51,2.94,1,5.6,1.49,8.54.39,1.59-1.18,2.26-1.63,3.37-1,1.7-1.17,2.26-2.89,1-.83-.2-1.33.38-1.53,1.21.1,1.34.48,2.66,1.82,2.56,1.91.12,4.08.22,5.52-2.06,1.89,3.37-1.77,5-1.26,7.94a3.38,3.38,0,0,1-2.1-2.54,1.44,1.44,0,1,0-2.62,1c0,.54.37,1.33.41,1.86.4,1.6,1.31,2.88.08,4.33-1.07-3.17-3.16-5.71-3.44-9.2C1023,333.13,1020.59,330.61,1020.89,327.61Zm-1.07,44.72c-.22.56-.43,1.39-1.22,1.72-.51.31-.84-.47-.89-1a1.81,1.81,0,0,1,.93-2C1019.18,371,1019.51,371.82,1019.82,372.33Zm-4.62-14c.81-.06,1.14.72,1.2,1.53a14.09,14.09,0,0,1,.55,3.47c.35,1.06,1,2.63-.57,3-1.62.13-1.72-1.21-1.85-2.83.18-1.09-.44-2.13-.52-3.2C1013.94,359.54,1014.13,358.44,1015.2,358.36Zm-4.36,3.05c1.89-.15,1.19,1.26,1,2.09-.45,1.11.71,2.11-.26,3.53a3.69,3.69,0,0,1-1.89-3.36C1009.59,362.59,1009.77,361.49,1010.84,361.41Zm-23.19,18.06c1.26-1.18.86-2.77.2-4.34s-.55-3.48-1-5.34a1.36,1.36,0,0,1,1.19-2,1.55,1.55,0,0,1,1.74,1.49,4.42,4.42,0,0,1,.42,1.86c-.3,3,1,5.6,1,8.58-.23.56.35,1.06.89,1,.81-.06,1-.62,1.26-1.18a5.28,5.28,0,0,0-.32-4c-.42-1.86-1.12-4-.17-5.67.24-.29.78-.33.8-.06a6.07,6.07,0,0,1,1.48,5c-.33,2.73.86,4,3.69,5.66-3.7,1.11-6.08,1.84-7.19,4.9-.18,1.1-1.23,1.45-2.33,1.27s-1.16-1-1.25-2.07c0-.54-.1-1.35-.39-1.59C985.4,381.81,986.14,380.94,987.65,379.47Zm-12.37-9.3c.25-.29.48-.85,1-.9a.9.9,0,0,1,.55.23c.94,1.55,1.07,3.16,2.25,4.42a2.73,2.73,0,0,1-.21.83c-.54,0-1,.36-1.34.11C976.43,374.4,975.1,371.26,975.28,370.17Zm.87,7.5c.74-.87,1.55-.93,2.15-.17.62,1-.43,1.39-1.22,1.72a2.63,2.63,0,0,1-2.11.71C974.6,378.61,975.65,378.25,976.15,377.67Zm-8.51-5a2.26,2.26,0,0,1,1.45,1.24c.5,2.94.48,6.19,1.77,8.79,0,.54.11,1.34-.7,1.41a1,1,0,0,1-1.43-1C968.46,379.63,966.57,376.26,967.64,372.66Zm-5,1.21c.27,0,.31.52.6.77-.22.56-.16,1.36-1,1.16a1.41,1.41,0,0,1-.62-1C961.54,374.23,962,373.65,962.59,373.87Zm-8.42-.41c1.08-.09,1.39.43,1.45,1.23-.22.56.13,1.62-.94,1.7-1.06.35-1.41-.7-1.48-1.51A1.23,1.23,0,0,1,954.17,373.46Z"/><path class="cls-2" d="M753.54,502c3.27-.26,5.06-1.34,4.73-5.54-1.83-17.2-2.73-34.48-4-51.26-.29-3.73-1.8-5-5.49-4.26l-248.4,19.6c-7.46.59-7.46.59-6.87,8l3.93,49.87c.18,2.33,1.23,3.66,4,3.44l86.22-6.81c2.8-.22,4.27.61,4.49,3.4-.28,2.37.33,4.2.48,6.06l18.56,235.35c.52,6.53.52,6.53,7,6l61.06-4.81c5.12-.41,5.08-.87,4.68-6L665.26,518.32c-.81-10.25-1.66-9.25,8.59-10.06l51.26-4C734.44,503.48,743.72,502.28,753.54,502Zm-199.67,1.21c-1.4.11-2.41-.75-1.58-2.22-.08-.93.85-1,1.82-.61.94-.08,1,1.32,1.58,2.22C555.23,502.61,554.37,503.62,553.87,503.19Zm3.2-30.73c-1.43-.36-2.87-.72-2.55-2.61a2.51,2.51,0,0,1,2.15-2.52c1.86-.15,2,1.72,2.12,3.12C559.33,471.34,559,473.24,557.07,472.46Zm7.85,34.08c-2.55-2.61-3.24-5.37-.66-8.39C568.2,500.65,565.63,503.67,564.92,506.54ZM594,494.4c-1.21,2.44-.52,5.2.16,8,.15,1.86.26,3.26-2,4.84a20.78,20.78,0,0,1-1.57-13.94c.71-2.87,1-4.77-2.38-6.38-2.87-.71-3.59-3.94-2.88-6.81a6.42,6.42,0,0,1,4.37-4.09c1.86-.15,3.83,1.1,2.58,3.08-2.11,3-.56,4.73.55,7C594.93,488.7,595.58,491,594,494.4Zm39.32,11c.39-1,1.33-1.05,2.26-1.12.5.43,1.43.36,1,1.32.07.94-.82,1.48-1.75,1.55C633.44,507.23,632.9,506.33,633.29,505.37ZM644.45,617c-2.74-4.94-2.74-4.94-1.21-9.28C645.33,610.4,645.05,612.77,644.45,617ZM626.82,459c3,2.11,3,2.11,1,7C626.22,463.25,626.07,461.39,626.82,459Zm21.56,243.56c1.32-1,1.54,1.75,1.19,3.19-.82,1.47.25,3.26-1,4.77C648.78,707.67,645.73,704.62,648.38,702.54ZM628.07,510.47a4.47,4.47,0,0,1,1.37,5.52c-2.15,2.51-1.46,5.27-2.56,9.11-2.16-3.58-3.32-6.31-3.57-9.57-.19-2.33.13-4.23,2.39-5.34C626.63,510.11,627.53,509.57,628.07,510.47Zm3,32.12c-3.09-3.51-2.88-6.81-2.71-10.57C632.81,535,632.88,535.88,631.07,542.59Zm-12.54-52c.39-1,.74-2.41,2.18-2s3,2.11,2.55,2.61c-3,4-.81,7.57.45,11.69,0,.46-.78,1.94-1.71,2-1.37.58-1.9-.32-2-1.25-1.15-2.72-.91-5.56-2.45-7.31C617.85,493.92,618.21,492.49,618.53,490.59Zm12.72,179.07c-.94.07-1.48-.82-1.59-2.22.4-1,.79-1.94,1.72-2,1,.39,1,1.32,1.15,2.72C632.57,668.62,633.15,670,631.25,669.66ZM616.08,507.19c2,2.19,3.17,4.44,2.46,7.31-.43.5-1.29,1.51-1.76,1.55a2.1,2.1,0,0,1-1.5-1.29A6.59,6.59,0,0,1,616.08,507.19ZM613.27,537c0-.47.86-1,1.8-1.08a2.41,2.41,0,0,1,1.65,3.15,2.1,2.1,0,0,1-1.29,1.51C614,539.72,612.92,538.39,613.27,537Zm5.19,83.53c-2.41-.75-2.63-3.55-2-6.88,2.87.71,5.31,1.93,8.64,2.6C623,618.26,621.33,621.2,618.46,620.49Zm10,62c2.65-2.09,1.5-4.81,2.21-7.68,2.44,1.21,3,3,2.66,4-1.89,5.78,1.24,9.75,3,13.83,1.61,2.69,2.73,4.95-.31,8-2.73-4.94-4.07-10-7.66-13.93A3,3,0,0,1,628.51,682.54Zm8,29.85c-.43.5-1.36.57-1.4.11-1.58-2.22-.33-4.2.46-6.13l1,.39C637.6,708.55,638.25,710.84,636.49,712.39Zm7.13,30.86c-2.3.64-2.48-1.69-3-2.58-2.16-3.58-.59-7.46-1.82-11.11a5.14,5.14,0,0,0,2.3-.65c1.22,3.65,2.88,6.8,4.11,10.46A4.28,4.28,0,0,1,643.62,743.25ZM632.93,578.08c-1.86.15-3.33-.67-3-2.57-.11-1.4.72-2.87,1.69-2.48,1.43.35,2,2.18,3,3A1.71,1.71,0,0,1,632.93,578.08Zm-5.08-10.85a1.32,1.32,0,0,1-2.33.18c-.46,0-.57-1.36-.61-1.83-.07-.93.79-1.94.71-2.87.64-3.8,2.47-4.41,5.88-2.8,1,.39,2.37.28,3,2.11C632.8,564.49,629,564.32,627.85,567.23Zm6.49-18.8c.08.93-.82,1.47-1.71,2-1-.86-2-1.72-1.66-3.15-.07-.94.32-1.91,1.25-2C634.09,545.16,634.66,546.53,634.34,548.43Zm15.77,176c-1.44-.35-1.51-1.28-1.59-2.22a1.5,1.5,0,0,1,1.29-1.5c1.44.35,1.51,1.28,1.58,2.22C651,723.9,650.57,724.41,650.11,724.44Zm-.68-32.3a1.23,1.23,0,0,1-1.28,1.51,2.27,2.27,0,0,1-1.62-2.69c-.08-.93.82-1.47,1.79-1.08C649.25,689.81,649.83,691.17,649.43,692.14Zm.8-31.48c-.43.5-.35,1.43-.78,1.93-.4,1-1.33,1-2.26,1.12-1-.39-1.51-1.29-.69-2.76,1.25-2,1.54-4.34,1.82-6.71.88-6.63-2.79-11.5-3.73-17.52-.83-4.63-2.6-9.18-2.5-13.87.9-.54,1.4-.11,1.43.35C648.67,635,652.46,647.35,650.23,660.66ZM639.66,514.71c-.94.08-2.33.19-2-1.25-.11-1.4.79-1.94,2.22-1.58.9-.54,1,.39,1.47.82A1.71,1.71,0,0,1,639.66,514.71Zm28.9,223.75c-.93.08-1.47-.82-1.58-2.22-.07-.93.32-1.9,1.25-2a2,2,0,0,1,2,1.72C670.35,737.38,670,738.35,668.56,738.46Zm-.13-13.59a.87.87,0,0,1-1.4.11c-2-2.18-1.73-4.08.45-6.13C670,721,669.68,722.9,668.43,724.87Zm-20.18-196.3c-2.22,1.58-2.83-.25-3-2.11-.18-2.33.68-3.33,3.12-2.12,1,.86,1.9.32,1.79-1.08.43-.5-.08-.93-.61-1.83-4-3-4.49-3.39-1.09-7.88,1.67-2.48-.84-4.63,1.7-8.11,3,7.74,1.72,15.81,7.36,21.93C654.42,529.49,651.4,526.92,648.25,528.57Zm10.06-44.87c-.39,1-.86,1-1.36.57-2.44-1.21-1.62-2.68-1.34-5C658.09,480.9,659.1,481.76,658.31,483.7Zm-1.21-15.38c.22,2.79,1.37,5.52-1.67,8.57-2.34-5.91.55-10.83-.36-16.38C659.49,463,656.91,466,657.1,468.32Zm11,32c-.93.07-1.4.11-1.94-.79-.68-2.76-.4-5.12,1.2-8.53,2.59,3.08.91,5.55,2.07,8.28C669.89,499.67,668.53,500.24,668.06,500.28Zm18.15-31.45c0-.46-.57-1.36-.61-1.82-.61-1.83-.72-3.23-1.41-6C690.62,465.2,690.62,465.2,686.21,468.83Zm9.18,15.22c-.83,1.48-1.79,1.08-3.23.73-1-.86-1.58-2.22-.72-3.23.78-1.94,1.86-.14,2.83.25A1.7,1.7,0,0,1,695.39,484.05ZM715,494.23a3.51,3.51,0,0,1-3.55,2.63,3,3,0,0,1-2.15-3.58,52,52,0,0,1,.3-8c.28-2.37.06-5.16-1.95-6.88-4.06-3.9-2.56-8.71-1.49-13,.75-2.41,1.53-4.34-.05-6.56a6.75,6.75,0,0,1,.06-5.17c1.25-2,4-2.19,5.13-.4a4,4,0,0,1,1.61,2.69c-.3,8,4,15.62,3.78,24.08C718.41,484.58,716.44,489.43,715,494.23Zm8.85-36.33a1.71,1.71,0,0,0,1.44.35c5.48-1.84,6-1.41,6.28,2.32-.31,8-.3,14.09-.28,20.19.11,1.4-.25,2.83-2.15,2.51-.93.08-1.51-1.29-1.58-2.22l-.52-6.52c-.29-3.73-.59-7.46-4.07-10-.54-.89-1.11-2.26-1.66-3.15C721.12,459.52,720.51,457.69,723.8,457.9Z"/><path class="cls-2" d="M833.73,655.76c-1.54-16.11-2.84-32.51-3.84-48.66a137.91,137.91,0,0,0-3.46-23.27c-3.86-14.57-12.23-24.73-26.66-29.27-7.22-2.41-14.59-3.18-22.18-3.39-14.6.07-29.16.67-43.11,5.56-6.58,2.41-12.86,5.07-18.19,9.55-10.4,8.67-13.55,20.28-13.06,33.23a141,141,0,0,0,1.72,15c.88,4.26,0,4.05,4.62,3.69,5.4-.15,11-.87,16.4-1.29l18.28-1.44-.61-7.8a78.3,78.3,0,0,1-.1-8.11c.46-7.88,5.16-13.39,12.85-15.35a48.13,48.13,0,0,1,16.42-1c6.54.57,11.91,3.39,14.05,10,3.49,10,4.57,20.2,5.37,30.41.17,2.16-.88,2.51-2.49,2.64-2.69.21-5.13.13-7.82.34-12.91,1-25.59,1.48-38.32,4.65-7.44,1.67-14.6,3.58-21.33,7.36-8,4.42-13.49,10.8-14.94,19.85a66,66,0,0,0,1.61,27.19,31.82,31.82,0,0,0,7,13c8.83,9,19.88,12,31.77,11.83a181.39,181.39,0,0,0,21-1.65c11.23-1.7,21.17-6,28.87-14.73,1-1.16,1.69-2.56,3.8-3.27l.7,8.87c.28,3.5.28,3.5,3.5,3.24l30.92-2.44c1.61-.12,2.38-.73,2.23-2.61a61.79,61.79,0,0,0-1.07-6.68C836.13,679.38,834.66,667.59,833.73,655.76ZM726.94,574.37c.06.81-.7,1.41-1.48,1.74-.77.6-1.37-.16-1.68-.68-.62-1-1.52-2-1.08-3.43,1.32-.38,1.72,1.22,3.06,1.11C726.3,573.07,727.15,573.54,726.94,574.37ZM736.09,591a1.25,1.25,0,0,1-.14,1.63c-2-1.19-2.4-3.05-2.55-4.93.16-1.37.88-2.51.51-3.83a.71.71,0,0,1,.74-.87c.81-.06.85.47,1.16,1a1.94,1.94,0,0,1-.16,1.36C734.45,587.3,735.14,589.14,736.09,591Zm5.67-3.69c-.81.06-1.14-.72-1.21-1.53a1.25,1.25,0,0,1,1.28-.91c.54-.05.6.76.92,1.28C742.52,586.67,742.29,587.23,741.76,587.27Zm19-9.35a1.85,1.85,0,0,1-2.36,1c-1.39-.43-.64-1.3-.17-2.15.68-1.68.68-1.68.2-4.34a2.61,2.61,0,0,1,2.61,2.22C761.13,575.73,761.51,577.05,760.77,577.92ZM718.62,684.86c-.79.33-1.1-.19-1.41-.7-.65-1.3-1.81-2.29-1.67-3.93.33-2.73-1-5.33-1.95-7.69s-2-4.71-.58-7.26c1-1.7-.56-3.74.9-5.75a46.73,46.73,0,0,1,4,16.73,32.87,32.87,0,0,0,1.11,7.21A1,1,0,0,1,718.62,684.86Zm20.1,11.4a1,1,0,0,1-1.16-1c0-.27.21-.83.48-.85.78-.33,1.09.18,1.13.72C739.49,695.66,739.26,696.22,738.72,696.26Zm2.37-45.37a9.16,9.16,0,0,0,1.48-5.25c0-.54.46-1.12,1-.89.27,0,1.12.45,1.17,1-.08,2.44-.18,4.61-.26,7,.06.81-.74.87-1.55.93C741.6,653.83,740.1,652.05,741.09,650.89Zm4.95,45.6c-.62-1,.44-1.38,1-1.7,1.76-1.76,2.13-3.95.92-5.48-2.36-2.52-.65-4.82.51-7.34.31.51.89,1,.66,1.57a34.22,34.22,0,0,0,2.33,9c1,2.36.26,3.23-1.89,3.4C748.2,696.32,747.18,697.21,746,696.49Zm6.33,8.16c-1.59.4-3.09-1.38-3-3.28-.12-1.62.62-2.49,2-2.59,1.62-.13,3.11,1.65,3.24,3.26C754.46,703.67,753.71,704.54,752.37,704.65Zm32.79-30.18A29.26,29.26,0,0,1,772,678.76c-4.3.34-8.58.94-13.18,1a10.61,10.61,0,0,1-4.07-.22c-6.38-1.94-8.49-4.74-8.77-11.76-.49-6.18,2.15-10.44,8.23-12.28,9.5-2.91,19.18-3.68,28.9-3.9a53,53,0,0,1,9,.38c1.64.14,2.48.61,2.61,2.22C795.91,663.34,792.92,670.07,785.16,674.47Zm27.79-66c2.65,2.77,1.32,6.39,2.38,9.56C813,616.27,812.49,616.32,813,608.43Zm-3.42-16a1.16,1.16,0,0,1,1.16,1,1.52,1.52,0,0,1-1.28.92.86.86,0,0,1-.87-.75A1.15,1.15,0,0,1,809.53,592.47Zm-5.07,62.62c1.09.19.91,1.28,1,2.09-.2.83.42,1.86-.59,2.75a1,1,0,0,1-.83-.2,3.07,3.07,0,0,1-1-2.9C803.18,656,803.36,654.91,804.46,655.09Zm1.84,13.11c-.18,1.1-.7,1.41-1.5,1.48a26.36,26.36,0,0,0-1-6.15C806.3,664.69,806.18,666.59,806.3,668.2ZM789.7,567.53c0-.27-.06-.81.48-.85a1.46,1.46,0,0,1,.91,1.28l-.23.56A1,1,0,0,1,789.7,567.53Zm8.16,75.91a1.54,1.54,0,0,1-1.23-1.8,3.74,3.74,0,0,1,1-.89,3.32,3.32,0,0,1,1.24,2.07A2,2,0,0,1,797.86,643.44Zm-.45-26.21a1.56,1.56,0,0,1,1-1.69c.79-.34,1.61-.13,1.66.41.06.8-.7,1.4-1.76,1.76C798,617.73,797.68,617.21,797.41,617.23Zm11.07,64.87c-.52.31-1.34.1-1.39-.43-.56-3.75-4.27-6.16-4.05-10.23a1.43,1.43,0,0,1,1.49-1.74c.08,1.07-.06,2.71,1.08,3.43,2.59,2,2.31,5.23,3.3,7.58C809.22,681.23,809,682.06,808.48,682.1Zm-4.84-95.66c-.83-.2-1.43-1-1.2-1.52.45-1.12.34-2.47,1.67-2.84.87.74.42,1.86.75,2.64C804.94,585.8,804.74,586.63,803.64,586.44Zm.93-12.24c-1.91-.12-2.94.5-3.33,2.42a1.16,1.16,0,0,1-1.84.69c-.56-.23-.64-1.3-.14-1.88,1.25-1.18.28-3.27,1.56-4.18,1.26-1.19,2.52,1.15,4.14,1,1.07-.08,2.42-.19,2.25,1.18C806.78,574.83,805.67,574.38,804.57,574.2Zm13.94,118.47c-.8.06-.87-.74-.89-1,0-.54-.37-1.33.72-1.14.54,0,.85.47.92,1.28C819.3,692.34,819,692.36,818.51,692.67Zm.28-6.79c0,.54.1,1.35-.7,1.41-.85-.47-1.43-1-1.25-2.06,0-.54.48-.85,1-.9C819,684.52,818.75,685.35,818.79,685.88Zm-.66-8.33a1.23,1.23,0,0,1-.7,1.41c-.8.06-1.12-.46-1.43-1,0-.54-.35-1.06-.12-1.62-.07-.8.12-1.9.9-2.23s1.41.7,1.54,2.31A1.63,1.63,0,0,1,818.13,677.55ZM819.7,646c-.36,2.2-1,4.41-.81,6.83.11,1.35-.37,2.2-2,1.79-1.1-.19-2-.66-1-2.36,1.94-2.86,1.72-9.06.93-12.25-.86-4-2.77-7.63-2.86-12.22a12.22,12.22,0,0,0-4.13-7.79c3.25,0,4.49,2.08,5.22,4.46a44.48,44.48,0,0,0,3.49,10C820.14,637.89,819.94,642.24,819.7,646Z"/><path class="cls-2" d="M876.34,518.33a7.76,7.76,0,0,1,.65-1c.23-.56.7-1.41.42-1.66-1.16-1.31-.85-2.74-.67-4a8.73,8.73,0,0,0-1.11,3.12A4.72,4.72,0,0,0,876.34,518.33Z"/><path class="cls-2" d="M922.36,668.25c-.46-2.4-.63-4.55-1.09-7-.37-1.33-1-2.36-3.08-1.38-3.86,2.47-8.14,3.07-12.74,3.17-5.68-.1-10.51-3-11.51-8.83-.51-2.94-1-5.61-1.22-8.57L875.43,434.63c-.29-3.77-.29-3.77-4.06-3.47l-29.84,2.36c-5.38.42-5.15-.14-4.73,5.24L849,585.84c2.19,27.69,4.35,55.11,6.8,82.78.79,10,5,18.55,13.56,24.36,5.74,4.15,12.34,5.52,19.41,6a78.71,78.71,0,0,0,13.73-.82,62.12,62.12,0,0,0,20.37-5.93c3.38-1.62,3.38-1.62,2.84-5.09C924.7,680.78,923.41,674.65,922.36,668.25Zm-42.12-112.2c0,.54-.46,1.12-1,.9a1.68,1.68,0,0,1-1.52-2.05,1.44,1.44,0,1,1,2.53,1.15Zm-1.67,37.2c.34.78-.45,1.12-1.26,1.18-.53,0-1.07.08-1.4-.7a1,1,0,0,1,1-1.16A1.19,1.19,0,0,1,878.57,593.25Zm-5.22-53.57c-2-4.71-1.28-9.36,1.36-13.63C874.53,530.66,875.16,535.21,873.35,539.68Zm5.71,59.75c0-.54.14-1.63,1-1.7,1.07-.08,1.16,1,1.2,1.53.06.81-.14,1.64-1,1.7A1.19,1.19,0,0,1,879.06,599.43ZM869.6,468.11c1.88-.15,2,2,2.43,3.32a2,2,0,0,1-1.7,2.57c-1.61.13-2.5-.88-2.65-2.76C867.57,469.89,867.7,468,869.6,468.11ZM868,482a4.1,4.1,0,0,1,1.63-3.37c.23-.56.16-1.37,1-.89.83.2.6.76.37,1.32a16.45,16.45,0,0,1,0,3.52,1.25,1.25,0,0,1-1.5,1.47A1.68,1.68,0,0,1,868,482ZM871.1,494a6.52,6.52,0,0,1-2.27-4.69c-.06-.81.1-2.17,1.47-2,1.09.19,1.43,1,1.24,2.07.13,1.61-.84,3-.44,4.63,1,5.61-.75,11.15-.3,16.8.06.8-.14,1.63-1.24,1.45-.81.06-.87-.75-.93-1.55,0-4.06.44-8.15.12-12.18C868.35,496.88,868.14,494.19,871.1,494Zm1,62.46c-2.07-2.27-2.76-4.11-1.63-6.9C871.79,551.85,872.73,553.4,872.15,556.42Zm-7.23-92.81c1.42,1,2.05,2,1.32,3.14l-.8.06C864.3,466.09,864.21,465,864.92,463.61Zm-.26,7.05a.84.84,0,0,0,.56.23,3,3,0,0,1,1,2.36l-.52.31c-.83-.21-.89-1-1.2-1.53A3.53,3.53,0,0,1,864.66,470.66Zm-.16,4.89c.27,0,1.6-.4,1.74,1.48.11,1.34-1.21,1.72-2.27,2.07-1.34.11-2-.92-2.07-2.27S862.89,475.67,864.5,475.55Zm-10.25-20.3c-.13-1.61,0-3.51,1.25-4.7a5.9,5.9,0,0,0,1.29-4.16,4.25,4.25,0,0,1,1.32-3.89c1.46,4.76,1,8.86.48,12.95-.12,1.91-2,2.05-3.06,2.41C854.46,457.94,854.06,456.35,854.25,455.25Zm15.5,122.19c.33.79.11,1.35-.66,1.95-.51.31-.82-.21-.87-.75a2.06,2.06,0,0,1,.44-1.38C868.9,577,869.73,577.17,869.75,577.44Zm-13.3-114.79a1.44,1.44,0,0,1-1.45-1.23,1.23,1.23,0,0,1,1-1.43c.81-.07,1.93.39,2,1.19C858,461.72,857.24,462.32,856.45,462.65Zm6.36,64.48a.72.72,0,0,1-.75.87c-.26,0-.82-.2-.84-.47-.32-.52.18-1.1.72-1.14A.87.87,0,0,1,862.81,527.13Zm-1.43,19.59c-2-1.46-2.12-2.81-1.71-4.46C861.64,543.18,861.21,544.57,861.38,546.72ZM848.6,527.66c-1.21-5-.25-10,.69-15.21.55-3.29.49-4.09-3.15-5.7a9,9,0,0,0,2.39-4c1.29-4.16,1-8.2.63-12.5-.54-3.47-.55-7-1.36-10.44-.79-3.19,1.93-6.38-.74-9.41-.31-.52.45-1.12,1-1.43a2,2,0,0,0-.28-3.5c-.87-.74-1.74-1.48-1.31-2.87.78-3.85,1.54-8,2.32-11.81.18-1.1.65-1.95,2-1.79,1.12.46,1.2,1.53,1.29,2.61a2.85,2.85,0,0,1-1.47,2c-1.57.66-1.46,2-1.6,3.64-.1,2.17-.49,4.1,1.27,5.85.87.74.44,2.13.54,3.48-.67,5.19.31,10.79-.07,16.23-.63,5.73.63,11.31,1.88,16.9.08,1.07.7,2.11.23,2.95a9,9,0,0,0-.52,7.08,3.58,3.58,0,0,1,.07,1.88,3.35,3.35,0,0,1,1.25-1.12,1.13,1.13,0,0,1,1.68.68c.93,1.55,3.19,2.72,1.5,5.29a6.57,6.57,0,0,0-.76,4.12,4.24,4.24,0,0,1-1.31,3.89c-.71-2.11-.88-4.26-2.64-6,0-.06-.08-.13-.12-.18a8.43,8.43,0,0,0-.88,7c.39,1.6.23,3-1.63,3.38C849.2,528.42,848.89,527.91,848.6,527.66ZM865.48,633a.82.82,0,0,0,.51-.32,3.73,3.73,0,0,1,.38,1.33c-.23.56-.17,1.36-1,1.69l-.56-.22A3,3,0,0,1,865.48,633ZM863.81,629c-.89-1-.44-2.13.82-3.31.92,1.28,1,2.35,0,3.25Zm-10.44-53.55c0-.54-.4-1.59.68-1.68.78-.33,1.11.45,1.45,1.24.35,1.05.46,2.4.83,3.72-.18,1.1.79,3.18-.82,3.31-2.15.17-2-2-1.62-3.39C854.34,577.57,853.72,576.54,853.37,575.49Zm1.33,13.42c1.69,1,3.35,1.36,2.67,3-.21.83-1,1.43-1.53,1.21C853.9,592.49,854.84,590.79,854.7,588.91Zm4.14,45.66c.16-1.36,0-3.52,1.87-3.66,1.86-.42,2.28,1.44,2.39,2.78.15,1.89-.58,3-2.19,3.15A2,2,0,0,1,858.84,634.57Zm2.37,6c.76-.61.83.2,1.14.72a4.08,4.08,0,0,1,2.13,3.08,1.66,1.66,0,0,1-1.17,2.25,1.25,1.25,0,0,1-1.72-1.21,16.64,16.64,0,0,1-.54-3.48C860.73,641.45,860.42,640.94,861.21,640.61Zm6.46,33.84c-1.06.36-1.39-.43-1.45-1.23-.45-5.65-3-10.86-2.93-16.55.14-1.63-1-2.89-1.17-4.5-.35-1.06-.15-1.88.91-2.24,1.32-.37,1.69,1,1.76,1.76a6.47,6.47,0,0,1-1.5,5c3-.23,3.17,2.46,3,4.09.31,4,1.44,8,2,12C868.41,673.58,868.47,674.39,867.67,674.45Zm.32-33.57c-1.09-.18-2.46-.34-2.56-1.69-.15-1.88,1.21-1.72,1.48-1.74,1.61-.13,2.67-.48,2.77.86S869.34,640.78,868,640.88Zm-6.71-92a14.82,14.82,0,0,0,3.52,3.51,1.66,1.66,0,0,1,.42,1.86c-.48.85-1.3.65-2.11.71C859.53,554.17,859.15,552.85,861.28,548.89Zm6.53,52a4.57,4.57,0,0,1-.29-3.76C869,598.33,869.32,599.39,867.81,600.86Zm5,22.6c-.83-.21-1.68-.68-1.72-1.22-.06-.81,1-1.43,1.78-1.49a1.23,1.23,0,0,1,1.18,1.26A1.46,1.46,0,0,1,872.84,623.46Zm.16-4.88c-1.1-.19-3,0-3.4-1.9-1.12-4-2.25-7.94-1.55-12.86a4.22,4.22,0,0,1,1.9,3.63,5.93,5.93,0,0,0,1.94,3.91c1.43,1,1.84,2.83,2,4.44C874.21,616.86,874.07,618.49,873,618.58Zm-3.33-49c-1.18-1.26-.68-1.84-.75-2.64s-.43-2.13.89-2.51,2.87-1.31,4.26-.87a.57.57,0,0,1,.58.49c0,.54-.19,1.1-.45,1.12C871.8,565.65,870.85,567.34,869.67,569.6Zm18.05,101.92c1.75,5,3.48,9.73,3.07,14.91-.24.29-.47.84-.72,1.14-1.9-.13-2.28-1.45-2.14-3.08a8.31,8.31,0,0,0-2.76-7.63c-.31-.52-.91-1.28-.67-1.57,1.45-2.28-.6-4.28-.19-5.94a9,9,0,0,0-1.63-6.9c-.6-.77-.15-1.88-.23-3,.36-5.71.72-11.42-.8-17-1.23-5.31-1.14-11-2.62-16-.1-1.35-.75-2.65,0-3.52,1.47-2,.78-3.85.34-6-.39-1.59-.5-2.94-2.15-3.35a2.85,2.85,0,0,1-1.77-1.75c-.08-1.07-.17-2.15.87-2.77,1.32-.38,1.92.39,2.28,1.44,1.37,3.68,2.76,7.63,4.14,11.31.64,1.3-.1,2.17-.85,3a2,2,0,0,0,.28,3.49c.56.23,1.41.7,1.18,1.26-2.17,3.42,1,6.14.74,9.41-.26,3.54.28,7,.29,10.53.34,4.3.66,8.34,2.59,12.24a8.93,8.93,0,0,0,3,3.55C886.6,667.55,886.66,668.36,887.72,671.52Zm11.36,10.19c-2.49-4.13-2.58-8.72-3.48-13.25C898.87,672.26,900.31,676.75,899.08,681.71Z"/><path class="cls-2" d="M1068,680.29l-.93-1.55c-6.82-7.58-12.88-15.76-19.2-23.92-8.71-10.94-17.44-22.16-26.42-33.08-2.69-3.3-2.69-3.3-.24-6.47,7.55-10.61,14.83-21.19,21.82-32a76,76,0,0,0,11.23-46.34c-.36-4.57-.36-4.57-4.93-4.21-9.7.5-19.38,1.26-29.06,2-6.72.54-6.72.54-6.71,7.57a53.6,53.6,0,0,1-5.72,23.44c-6.51,13.5-15,25.81-23.22,38.36a3.62,3.62,0,0,1-3.12,1.59l-9.41.75c-6.45.51-5.58,1.25-6.11-5.47L952.4,428.35c-.32-4-.32-4-4.35-3.71l-31.45,2.48c-4.31.34-4.06.05-3.7,4.62L933.2,689c.32,4,.32,4,4.35,3.72l31.72-2.51c3.77-.29,3.77-.29,3.47-4.06l-3.54-44.89c-.4-1.6.64-2.22,2-2.33l12.91-1a3.35,3.35,0,0,1,3.08,1.38c3.65,5.12,7.82,9.93,11.47,15,7.79,9.67,15.32,19.35,22.85,29a5.31,5.31,0,0,0,5.32,2.28l40.06-3.16C1068.48,682.42,1068.69,681.59,1068,680.29ZM937.59,439.94c.77,2.92,2.2,3.89,4.35,3.72,1.08-.09,1.68.68,1.49,1.77-.16,1.37-1,.89-1.84.69C936.71,446,935.84,445.22,937.59,439.94Zm-12.07-5.54c1.08-.08,2,1.46,3.31.82s.91-2.23,2.19-3.15c1.06,3.17,2.37,6,.72,9.14-1.43-1-1-2.89-2.2-3.88-.87-.74-2.48-.62-2.38.73.17,2.15-1.87,3.66-1.43,5.79C922.76,440.57,924.14,437.48,925.52,434.4Zm10.36,79.39c.06.81.64,1.3,1.74,1.49,1.38.43,2.64-.75,5.11-.4a5.53,5.53,0,0,0-2.29,5.31c0,.54-.45,1.12-1,.9-.81.06-1.66-.41-1.45-1.24,1.15-2.53-.21-2.69-1.89-3.37-2.53-1.15-3.18-6-1.42-7.73a.25.25,0,0,0,.24-.29c1-1.16,3.07,1.11,3.73-.84.45-1.11-.19-2.42.8-3.58a1.58,1.58,0,0,1,1-.35c.29.25.6.76.89,1a5.09,5.09,0,0,1-2.51,5.88c-.52.31-1.57.67-2.09,1C935.73,511.91,935.52,512.74,935.88,513.79Zm13.21,6.26c-1.64-.14-1.72-1.21-2.06-2-.89-4.53-2.06-9-3-13.56-.35-1.06.08-2.44.24-3.81a1.47,1.47,0,0,1,1.28-.91A1.27,1.27,0,0,1,947,501C946.21,507.57,948.58,513.6,949.09,520.05Zm0,24.08c1.08-.08,1.68.68,1.49,1.78-.16,1.36-1,.89-1.84.68-4.88-.15-5.75-.9-4-6.17C945.51,543.33,946.94,544.3,949.09,544.13Zm-12.65,55.64c.35,1.06-.7,1.41-1.49,1.74a1.55,1.55,0,0,1-1.74-1.48c-.15-1.88.82-3.31,1.52-4.72.81-.06,1.55-.93,2.15-.17.58.5.65,1.3-.14,1.63A2.2,2.2,0,0,0,936.44,599.77Zm-4.28-6.15s.23-.56.5-.58c1.35-.11.93,1.55,1.78,2C933.37,595.15,932.27,595,932.16,593.62Zm10.25,64.66c1.38.43,1.74,1.48,1.33,3.14C942.31,660.45,942,659.66,942.41,658.28Zm-1.34-27.22c-.29-.25-.85-.47-.89-1,0-.27.76-.6,1-.62s.58.49.87.74C942.12,630.71,941.88,631,941.07,631.06ZM936,559.5c-1.25-2.06-1-2.62,2-5.83.44,2.13,1.66,3.92.47,5.91C937.42,560.74,936.61,560.8,936,559.5Zm2-12.33c2.28,1.44.77,2.92.63,4.55C936.05,550.3,938.07,548.52,938,547.17Zm-1.28-9.37c-.87-.74-2.48-.61-2.38.73.17,2.15-1.87,3.67-1.43,5.8-3-3.29-1.59-6.37-.21-9.45,1.08-.09,2,1.46,3.31.82s.91-2.24,2.19-3.15c1.06,3.16,2.37,6,.72,9.14C937.46,540.72,937.85,538.79,936.69,537.8Zm-8.19-18c-1.55-2.58-1.14-4.24-.5-6.45C929.57,516.18,929.57,516.18,928.5,519.78Zm3.12,5.17c2.07,2.27,3.09,4.89.63,8.06C932,530.06,930.48,527.74,931.62,525ZM935,505.48c-2-1.47-2.92-2.75-2-5,.21-.83.39-1.93,1.76-1.76a2.24,2.24,0,0,1,1.78,2C936.6,502.37,935.9,503.78,935,505.48ZM928.82,459c-1.25-2.07-1-2.62,2-5.84.44,2.13,1.66,3.93.47,5.92C930.27,460.27,929.46,460.33,928.82,459Zm2-12.33c2.28,1.44.77,2.91.63,4.55C928.9,449.82,930.92,448,930.82,446.7Zm-8.11,34.45c.62-2.48,3.15-1.33,4.67-2.53.25-.29.85.47,1.17,1,.06.81-.12,1.9-.66,1.95-3.31-.83-2,2.59-3.24,3.5a.84.84,0,0,0-.52.31C923,484.11,921.79,483.12,922.71,481.15Zm7.16,100.48c.61-2.49,3.14-1.33,4.67-2.54.24-.29.85.48,1.16,1,.06.81-.12,1.91-.66,1.95-3.31-.82-2,2.59-3.24,3.5a.84.84,0,0,0-.52.31C930.1,584.58,928.94,583.59,929.87,581.63Zm3.93,56.77c.19-1.1-.79-3.19,1.07-3.6,1.59-.4,1.52,2,2.14,3.07,1.82,2.56-.38,5.44.63,8.07,1,2.35,3.07,4.63,1.41,7.46-.46,1.12,1,2.63-.18,4.62-.86-4-1.94-7.43-2.77-11.15C935.59,643.94,933,641.71,933.8,638.4ZM939.1,661c2,1.47,1.89,3.37,1.5,5.3C939.67,664.72,938.73,663.17,939.1,661Zm6.57,18.15c-1.57.67-3.51,0-3.64-1.6-.21-2.69-1.23-5.32-.39-8.36.77,2.91,3.09,4.89,4.36,7.23C946.6,677.15,947.24,678.46,945.67,679.12Zm7.76,2.36c-.16,1.37-.92,2-2,1.52-1.37-.16-1.16-1-.69-1.84,1-1.16.64-2.22.29-3.27a1.83,1.83,0,0,1,1.15-2.52A12.56,12.56,0,0,1,953.43,681.48Zm6.77,0c-.48.85-.93,2-2,1.78-1.36-.16-1.47-1.5-1.55-2.58.32-2.73-.92-4.8-1.38-7.19-.17-2.15-1.13-4-4-2.93-.52.31-1.32.37-1.63-.14-1.58-2.86-3.11-1.65-5.07.94.22-4.08,2-5.3,4.54-4.15,4.21,1.83,4.47,1.81,4.65-2.8,0-.54.21-.83.41-1.66,2.28,1.45.36,4.57,2.89,5.73,1.59-.4.61-2.49,2.45-3.17,1.31,2.87,1.57,6.1,2.09,9.3A8.71,8.71,0,0,1,960.2,681.49Zm-15.8-83.7c1.09.19,2.21.64,2.3,1.72l.65,8.33c-5.42-3.63-7.52-9.69-5.75-14.7,1.11.46.66,1.58.72,2.38C942.7,596.85,943.05,597.9,944.4,597.79Zm13.54,58.45c-1.43-1-1.54-2.31-1.65-3.66C959.34,653.43,959.34,653.43,957.94,656.24Zm2,1.47c.24,2.95.24,2.95-1.52,4.71C957.47,660.61,958.75,659.69,959.94,657.71Zm-3.69-15.94c-.49.58-1.32.37-1.9-.12-1.2-1.53-2.14-3.08-1.52-5.57,1.47,1.51,2.63,2.5,3.81,3.76C957.22,640.34,957,641.16,956.25,641.77Zm-2.8-35.49c-1-2.36-3.32-4.34-1.71-8C953.59,601.13,953.26,603.86,953.45,606.28Zm.4,25.67c.36,1-.41,1.65-1.17,2.25a56.54,56.54,0,0,1-2.93-6.26A7,7,0,0,1,953.85,632Zm-4.53-12.9c-.52.31-.83-.21-.87-.75s-.11-1.34.43-1.38c.79-.34,1.1.18,1.14.72C950.08,618.45,950.13,619,949.32,619.05Zm1.48,25.58c1.08,3.43,2.7,6.82,1.92,10.67-3-6.53-3.27-14.08-5.44-20.94C950.72,636.79,950,640.91,950.8,644.63Zm-6.74-16.78c-.85-.48.27-3.54,1.32-3.89a1.23,1.23,0,0,1,1.43,1c.44,2.13,1.14,4.23.82,7C945.91,630.68,945.49,628.82,944.06,627.85Zm13.81-13.53c-.22.55-.47.84-1,.62-.27,0-.56-.23-.6-.77.23-.56.5-.58,1-.62C957.54,613.53,958.1,613.75,957.87,614.32Zm-3.16-29.78c-.82-.21-1.88.14-2-.93a2.06,2.06,0,0,1,1.4-2.82c1.34-.1,1.45,1.24,1.76,1.76C956.28,583.87,955.79,584.45,954.71,584.54Zm7,54.09c1.45,1.24,1.8,2.29.29,3.77A3.79,3.79,0,0,1,961.69,638.63Zm-2.24-35.26c1.38.43.66,1.57.48,2.67A3.19,3.19,0,0,1,959.45,603.37ZM964.4,649c-2-.93-1.81-2.29-1.44-4.49C963.89,646,964.79,647,964.4,649Zm-5.93-58a1.27,1.27,0,0,1-1.45-1.24,1.48,1.48,0,0,1,1.78-1.49,1.85,1.85,0,0,1,1.2,1.53A1.47,1.47,0,0,1,958.47,591Zm-1.11-17.49c-2.6,1.28-4.87,3.36-8.25,1.73-1.1-.18-2.91.77-4.24,1.14-1.55.94-1.42,2.55-.78,3.85,1.67,3.93,2,8,2,12.29.09,1.07.44,2.12-.57,3-2-.93-1.82-2.57-1.7-4.47.15-4.88-1.57-9.61-2.78-14.66-.07-.8-1.23-1.8-1-2.62.37-2.19-3.91-1.59-1.93-3.91.72-1.14,2-1.78,3-3.21.91,1.28,1.8,2.29,1.62,3.39-.86,2.77.79,3.18,3,3.28,2.71.06,5.73.63,8-1.71.49-.58,1.57-.66,2.35-1a1.83,1.83,0,0,1,2.53,1.16C958.93,572.84,958.15,573.17,957.36,573.51Zm-.08-18.12c0,.27.05.53-.22.56l-4.71,2c-.77.6-1.93-.39-2.53-1.15.95-1.7,2.58-1.56,3.66-1.64,1.59-.4,2.62-1,1.15-2.53-.62-1-.93-1.55.39-1.92.79-.34,1.86-.42,2,.65A20.26,20.26,0,0,1,957.28,555.39Zm-2.73-20.89a1.89,1.89,0,0,1-2.07-2.27,2.09,2.09,0,0,1,1.71-2.3c1.64.14,1.21,1.53,1.54,2.31C955.52,533.07,955.9,534.4,954.55,534.5ZM950.21,473c-2.6,1.29-4.88,3.36-8.25,1.73-1.1-.18-2.92.77-4.24,1.15-1.55.93-1.42,2.55-.78,3.85,1.67,3.93,2,8,2,12.28.09,1.08.44,2.13-.57,3-2-.92-1.82-2.56-1.7-4.46.15-4.88-1.57-9.62-2.78-14.66-.07-.81-1.23-1.8-1-2.63.37-2.19-3.91-1.58-1.93-3.9.72-1.14,2-1.78,3-3.21.91,1.28,1.8,2.29,1.62,3.39-.86,2.77.79,3.18,3,3.28,2.71.05,5.73.63,8-1.71.49-.58,1.57-.67,2.35-1a1.83,1.83,0,0,1,2.53,1.15C951.78,472.37,951,472.7,950.21,473Zm-.08-18.12c0,.27,0,.54-.22.56l-4.72,2c-.76.6-1.92-.39-2.52-1.16,1-1.7,2.58-1.55,3.66-1.64,1.59-.39,2.62-1,1.15-2.52-.62-1-.93-1.55.39-1.93.78-.33,1.86-.42,1.94.66A19.46,19.46,0,0,1,950.13,454.91Zm15,162.62c-1-2.09-2.22-4.16-1.11-7.22,1.54,2.31.9,4.53,2.89,5.72.85.48,1.45,1.24.44,2.13A1.43,1.43,0,0,1,965.16,617.53Zm4.54,12.9a1.5,1.5,0,0,1-1.21-1.53c-.42-1.86-.29-3.77-2-5.25-.61-.77-.11-1.35.65-1.95a1.09,1.09,0,0,1,1.66.41C970.51,623.6,970.85,627.9,969.7,630.43ZM976.9,612c0-.27.74-.87.74-.87.56.23,1.14.72,1.18,1.26a3.45,3.45,0,0,1-1,3.87c-.75.87-2.15.17-3.56-.53C974.9,614.05,977.05,613.88,976.9,612Zm4.8,19.64c-.21.83-.42,1.66-1.24,1.45s-.87-.74-.92-1.28c.33-2.73-.38-4.84-3.17-6,1-1.43,2-2.32,3.2-4C980.42,625.79,982.25,628.35,981.7,631.64Zm50,16.08c.91,1.28.46,2.4-.24,3.81a1.16,1.16,0,0,1-1.84.68c-.85-.47-1.72-1.22-1-2.35A3.74,3.74,0,0,1,1031.66,647.72Zm-8.93-6.87c.16-1.37.32-2.73,2.31-1.54.27,0,.29.25.58.5.83.21,1.47-2,2.4-.46a2.31,2.31,0,0,1-1.65,3.11c-1.34.1-1.21,1.72-2.54,2.09A3.34,3.34,0,0,1,1022.73,640.85Zm0-57.9c-.78.34-.85-.47-.89-1-.29-.24-.06-.8.47-.85.81-.06.85.48,1.16,1C1023.28,582.64,1023.3,582.91,1022.76,583Zm12.71-7c-.79.33-1.12-.45-1.43-1a12.85,12.85,0,0,1-.88-7.77c1.78,2,2.26,4.69,3,7.33C1036.5,575.38,1036.27,575.94,1035.47,576Zm-4.42-18.32c2.9,2.48,2.9,2.48.73,5.9C1031.61,561.43,1031.75,559.79,1031.05,557.68Zm-.83-10.48c-.06-.81-.11-1.35.7-1.41s1.16,1,.93,1.55c-1.11,3.06.36,4.57,3.37,4.88a1.53,1.53,0,0,1,1.22,1.79,1.72,1.72,0,0,1-1.78,1.49c-1.36-.16-2.46-.34-4.09-.48A72.84,72.84,0,0,1,1030.22,547.2Zm-.07,30c2,1.2,1.58,2.85,2,4.18.64,1.3.77,2.91,2.65,2.76a.94.94,0,0,1,.91,1.28c-.72,1.14-.86,2.78-2.74,2.93-.81.06-1.14-.73-1.18-1.26C1031,583.93,1029.89,580.77,1030.15,577.23ZM1019,549.43c.23-.55.46-1.12,1.26-1.18a1.16,1.16,0,0,1,1.16,1c.77,2.92,3.16,5.71,1,8.85-.74.87-.41,1.66,0,2.71.72,2.38.72,2.38-.7,4.93C1018.56,560.56,1018.4,555.16,1019,549.43Zm.16,36.32c-.8-1.65-2.33-3.08-.72-5.7C1020,582,1018.84,583.94,1019.19,585.75Zm-2.94-13.37s.51-.31.53,0c1.16,1,1.25,2.06.55,3.47C1015.63,574.86,1015.55,573.79,1016.25,572.38Zm1.35,34.25c-.11-1.35.09-2.18,1.42-2.55,1.36.16,2,.93,1.78,2a1.92,1.92,0,0,1-1.71,2.3C1017.5,608.8,1017.66,607.43,1017.6,606.63Zm-4.32-17c1.1.19,2.19.37,1.76,1.76a5.14,5.14,0,0,1-1.65,3.11c-1.43-1-1-2.09-1.06-3.17C1012.27,590.55,1011.91,589.49,1013.28,589.65Zm-3.65,5.16c.33.79-.14,1.64-.89,2.51a2.15,2.15,0,0,1-1.15-1c-.07-.81.11-1.91.9-2.24C1009,593.78,1009.57,594,1009.63,594.81Zm-5.52,2.06c-.7,1.41-2,2-2.17,3.42a6.93,6.93,0,0,0,1.13,4,25.09,25.09,0,0,1,1.51,8.81c.19,2.41,1.41,4.21,1.06,6.67.05.54.13,1.62-.94,1.7-.81.06-1.14-.72-1.19-1.26-.72-2.37-1.72-4.73-1.33-6.66.57-3-.43-5.37-1.18-8-1.37-3.68-.86-7.51-2.25-11.45C1000.24,595.82,1002.17,596.21,1004.11,596.87Zm-14.68,36.87c-3.12-1.92-2.44-3.6-1.54-5.83C989.39,629.68,989.24,631.32,989.43,633.74Zm10.22-11.09c-1.26,1.18-1.67,2.84-2.35,4.52-1.21,1.71-1.67,2.83.84,3.72.85.47.62,1,.15,1.88-1.92,3.13-1.44,5.79,1.48,8.54,1.74,1.48,1.69,4.19,2.39,6.3.27,0-.22.56-.47.85-.52.31-.81.06-1.1-.18-1.51-2-3-3.82-4.52-5.87-.29-.25-.58-.49-.6-.76,1-3.87-2.64-6-3.18-9.49a6,6,0,0,1-.3-3.77c.39-1.92.51-3.82-1.73-4.73a1.4,1.4,0,0,1-.46-2.4c1.51-1.47,1.14-2.79.74-4.38-.46-2.4-.63-4.55-1.61-6.64-1.55-2.58,0-3.78,2-5.83,1.12,4,.86,7.5,2.44,10.35.35,1.06.75,2.65,2.07,2.27,1.3-.64,1.2-2,.57-3-.31-.51-.35-1,.39-1.92a31,31,0,0,1,4.09,7.25A2.94,2.94,0,0,1,999.65,622.65Zm8.68,7.16c-.05,2.71-1.09,3.33-3.32,2.43a9,9,0,0,1-2.82-1.4c-1.14-.72-1-1.82.64-2.22,1.86-.41,2.29-1.8,2.74-2.92.21-.83.43-1.39,1.26-1.18,1.1.18,1.16,1,1.2,1.53a5.16,5.16,0,0,0-.11,1.9C1008,628.76,1008.29,629.27,1008.33,629.81Zm-2.12-47.44c1.18,1.26,1,2.89,2,4.17.58.5.64,1.3-.15,1.64-1,.62-1.63-.15-2-.93C1005.12,585.7,1005.53,584,1006.21,582.37Zm1.35,20.45a1.7,1.7,0,0,1,1.21-1.72c1.06-.35.6.77,1.18,1.26.34.79-.18,1.1-.72,1.14S1007.62,603.63,1007.56,602.82Zm3.92,18.9a.71.71,0,0,1-.74.87c-.29-.25-.58-.5-.36-1.06,0-.26.21-.82.77-.6A.52.52,0,0,1,1011.48,621.72Zm-2-14.73a5.51,5.51,0,0,1,.09,4.6C1008.38,609.79,1007.73,608.49,1009.51,607Zm2,32.58a2.47,2.47,0,0,1-.26-3.23c2.27-2.07,1.55-4.45,1.06-7.11,1.37.16,2.22.63,1.72,1.21-1.15,2.53.34,4.3.78,6.43.11,1.35.73,2.38-.57,3A2,2,0,0,1,1011.54,639.57Zm7.59,24.29c-.8.06-1.13-.72-1.2-1.53.23-.56.45-1.12,1-1.16.81-.06,1.14.72,1.21,1.53A1,1,0,0,1,1019.13,663.86Zm4-.86c-1.2-1.53-1.9-3.64-4.14-4.54-.56-.23-.09-1.08.14-1.64.45-1.11,1.78-1.49,1.92-3.12a3,3,0,0,1-2.92-2.75,1.85,1.85,0,0,0-2-1.73c-2.94.5-2.28-1.44-2.41-3.06a5.66,5.66,0,0,1,.66-1.94c.47-.85.61-2.49,1.73-2,1.68.68.69,1.84-.05,2.71-.23.56-.44,1.38.12,1.61,2.73.32,2.7,3.3,4.69,4.5,2,1.46,2.27,1.44,4.28-.61.91,1.28.81,3.45,2.24,4.42s2.61,2.23,1.64,3.66c-1.22,1.72-1.81,4.47-4.77,4.7C1024,663.48,1023.15,663.27,1023.12,663Zm8.2,14.78c-.74.86-1.52,1.2-2.4.45-1.71-1.21-3.72-2.68-3.67-5.39l-.08-1.07c2.35-1,1.69-2.57,1-4.14a2.05,2.05,0,0,1,.46-1.12,1.45,1.45,0,0,1,1.12.45,3.87,3.87,0,0,1,.66,1.57c.21,2.69.42,5.38,3,7.34A1.65,1.65,0,0,1,1031.32,677.78Zm4.24-4.67c-1.5-1.77-3.75-3-4.75-5.3a5.32,5.32,0,0,1-.77-2.92,1.46,1.46,0,0,1,1.28-.91c.51-.31.8-.07,1.11.45,1.29,2.6,2.6,5.48,3.89,8.08C1036.07,672.8,1035.8,672.82,1035.56,673.11Z"/><path class="cls-2" d="M1048.71,654.79c-.83-.21-1,.62-1,1.16,0,.27.36,1,.63,1,.82.21.76-.6,1-1.16C1049.29,655.28,1049.25,654.75,1048.71,654.79Z"/><path class="cls-2" d="M981.88,671.69c-1.06.36-.68,1.68-.35,2.47.37,1.32-.33,2.73,1.12,4a4.49,4.49,0,0,0,1-4.4C983.59,672.91,983.47,671.3,981.88,671.69Z"/><path class="cls-2" d="M1019.69,619.47c-1.35.11-1,1.43-.89,2.51.07.81-.1,2.17,1.25,2.06,1.07-.08,1.26-1.18,1.17-2.25S1021,619.37,1019.69,619.47Z"/></svg>