<?xml version="1.0" encoding="UTF-8" standalone="no"?>
<!DOCTYPE svg PUBLIC "-//W3C//DTD SVG 1.1//EN" "http://www.w3.org/Graphics/SVG/1.1/DTD/svg11.dtd">
<svg version="1.1" xmlns="http://www.w3.org/2000/svg" xmlns:xlink="http://www.w3.org/1999/xlink" preserveAspectRatio="xMidYMid meet" viewBox="0 0 640 640" width="640" height="640"><defs><path d="M339.2 363.45C317.85 345.55 315.04 313.74 332.94 292.38C340.13 283.81 349.96 277.86 360.9 275.49C344.95 244.57 357.08 206.58 388 190.63C396.93 186.03 406.84 183.62 416.9 183.63C420.68 183.63 424.46 183.98 428.19 184.66C428.36 180.87 428.49 177.18 428.58 173.59C428.22 146.95 428.02 132.15 427.98 129.19C427.29 116.43 426.38 108.89 426.38 108.57C426.38 108.57 426.38 108.57 426.38 108.57C426.38 108.57 426.38 108.57 426.38 108.57C425.51 108.49 229.88 89.24 119.22 197.79C8.56 306.34 28.53 505.37 28.68 506.22C28.68 506.23 28.63 506.27 28.63 506.28C56.81 510.71 85.48 511.11 113.77 507.46C223.34 493.15 293.64 421.13 318.36 393.01C316.52 392.03 307.28 387.14 290.67 378.33C316.55 370.39 332.73 365.43 339.2 363.45Z" id="cIPq4qyPC"></path><path d="M339 363.27C365.99 327.13 387.57 298.21 392.97 290.98C410.57 237.82 424.65 195.29 428.17 184.66C428.34 180.87 428.46 177.19 428.55 173.59C428.55 173.28 428.52 170.79 428.52 170.47C415.13 164.65 400.69 161.65 386.09 161.66C327.39 161.66 279.8 209.25 279.8 267.96C279.79 308.41 302.74 345.36 339 363.27Z" id="e1rtoiSh5V"></path><path d="M501.83 354.38C566.04 418.58 601.7 454.25 608.84 461.39C616.84 469.39 616.79 482.6 608.69 490.72C608.69 490.72 608.69 490.72 608.69 490.72C600.6 498.82 587.4 498.88 579.36 490.86C572.23 483.72 536.57 448.05 472.38 383.83L501.83 354.38Z" id="bLLUzDbyN"></path><path d="M244.54 267.96C244.54 346.14 307.91 409.52 386.09 409.52C464.27 409.52 527.64 346.13 527.64 267.97C527.64 189.8 464.27 126.4 386.09 126.4C307.91 126.4 244.54 189.78 244.54 267.96ZM279.8 267.96C279.8 209.25 327.39 161.66 386.09 161.66C444.79 161.66 492.39 209.25 492.39 267.96C492.39 326.67 444.8 374.26 386.09 374.26C327.39 374.25 279.8 326.66 279.8 267.96Z" id="f5nG3Nn7a"></path><path d="M306.84 393.6C339.58 362.44 365.82 325.1 384.05 283.74C417.23 208.21 414.25 139.87 410.62 107.2" id="dH6nRj8Z8"></path><path d="M515.2 350.87C531.15 326.16 539.62 297.37 539.58 267.96C539.58 202.14 497.93 145.87 439.61 124.1C439.11 116.26 438.57 110.72 438.25 107.77C437.86 101.92 433.3 97.22 427.47 96.66C419.2 95.87 223.63 78.6 110.84 189.24C84.43 215.16 63.05 248.11 47.31 287.17C34.83 318.1 25.84 352.95 20.59 390.73C12.59 448.13 15.75 494.95 16.69 505.88C16.55 512.05 21.08 517.33 27.2 518.13C28.27 518.27 47.61 520.54 77.4 520.54C88.77 520.54 94.46 520.51 99.8 520.29C99.8 520.29 107.34 519.97 114.54 519.38C193.7 512.78 265.37 459.64 265.37 459.64C286.42 444 305.48 425.84 322.13 405.57C329.38 409.84 337.07 413.3 345.07 415.89C362.13 421.41 376.09 421.46 386.09 421.46C415.43 421.5 444.17 413.07 468.84 397.19C479.05 407.4 560.72 489.08 570.93 499.29C577.02 505.38 585.29 508.8 593.9 508.76C593.92 508.76 594.05 508.76 594.06 508.76C612.09 508.68 626.68 494.09 626.75 476.07C626.83 467.4 623.42 459.06 617.28 452.94C617.28 452.94 525.41 361.08 515.2 350.87ZM127.57 206.27C182.21 152.67 259.49 132.14 314.7 124.36C323.58 123.1 332.18 122.13 340.41 121.39C278.01 140.88 232.6 199.21 232.6 267.94C232.6 273.47 232.9 279 233.49 284.5C229.93 288.06 212.12 305.88 180.07 337.95C180.07 283.72 180.07 253.6 180.07 247.57C180.21 240.98 174.97 235.52 168.38 235.38C161.78 235.24 156.32 240.47 156.18 247.07C156.18 247.24 156.18 247.41 156.18 247.57C156.18 258.98 156.18 350.2 156.18 361.6C156.18 361.67 156.18 361.73 156.18 361.8C151.9 366.09 130.49 387.51 91.95 426.06C91.95 400.67 91.95 386.57 91.95 383.74C92.09 377.15 86.86 371.69 80.26 371.55C73.66 371.41 68.2 376.64 68.06 383.24C68.06 383.41 68.06 383.58 68.06 383.74C68.06 389.98 68.06 439.9 68.06 446.14C68.07 447.27 68.23 448.4 68.55 449.48C65.62 452.42 42.15 475.88 39.22 478.82C38.67 449.78 40.45 420.75 44.53 392C52.45 336.68 73.29 259.55 127.57 206.27ZM108.97 442.83C159.16 442.83 187.04 442.83 192.61 442.83C199.21 442.69 204.44 437.23 204.3 430.63C204.17 424.23 199.01 419.07 192.61 418.94C188.63 418.94 168.72 418.94 132.88 418.94C196.68 355.12 232.13 319.67 239.22 312.58C242.65 324.5 247.7 335.89 254.23 346.44C270.18 372.16 291.15 386.51 303.42 393.54C285.05 416.1 233.5 473 147.81 492.1C117.56 498.79 86.37 500.16 55.64 496.16C55.64 496.16 73.42 478.38 108.97 442.83ZM386.09 138.36C457.55 138.36 515.69 196.5 515.69 267.96C515.69 339.43 457.55 397.56 386.09 397.56C314.62 397.56 256.49 339.43 256.49 267.96C256.49 196.5 314.62 138.36 386.09 138.36ZM512.18 381.62L499.61 394.18C492.67 387.24 488.81 383.38 488.04 382.61C492.47 378.67 496.67 374.47 500.61 370.05C502.16 371.6 506.01 375.45 512.18 381.62ZM593.95 484.87C593.95 484.87 593.91 484.87 593.9 484.87C591.63 484.89 589.44 484 587.83 482.39C583.07 477.64 559.3 453.86 516.5 411.07L529.07 398.5C571.86 441.3 595.63 465.07 600.39 469.83C602 471.45 602.9 473.66 602.87 475.95C602.86 478.32 601.92 480.58 600.25 482.25C598.58 483.93 596.32 484.87 593.95 484.87Z" id="anO2WJ3YS"></path><path d="M180.07 208.94C180.07 208.94 180.07 208.94 180.07 208.93C180.07 208.92 180.07 208.79 180.07 208.78C180.21 202.18 174.97 196.72 168.38 196.58C161.78 196.44 156.32 201.68 156.18 208.27C156.18 208.44 156.18 208.61 156.18 208.78C156.18 208.79 156.18 208.92 156.18 208.93C156.18 215.53 161.53 220.88 168.13 220.88C174.72 220.88 180.07 215.53 180.07 208.94Z" id="bRHxwHOoP"></path><path d="M231.25 418.94C224.66 418.8 219.2 424.04 219.06 430.64C218.92 437.23 224.15 442.69 230.75 442.83C230.92 442.84 231.09 442.84 231.25 442.83C231.27 442.83 231.39 442.83 231.41 442.83C238 442.97 243.47 437.74 243.6 431.14C243.74 424.54 238.51 419.08 231.91 418.94C231.74 418.94 231.58 418.94 231.41 418.94C231.38 418.94 231.27 418.94 231.25 418.94Z" id="aSCtuSqFn"></path><path d="M386.09 173.86C334.12 173.86 291.99 215.99 291.99 267.96C291.99 319.93 334.12 362.06 386.09 362.06C438.06 362.06 480.19 319.93 480.19 267.96C480.19 215.99 438.06 173.86 386.09 173.86Z" id="b3ohCXNeAo"></path><path d="M244.54 267.97C244.54 346.14 307.91 409.52 386.09 409.52C464.27 409.52 527.64 346.14 527.64 267.97C527.64 189.79 464.27 126.42 386.09 126.42C307.91 126.42 244.54 189.79 244.54 267.97ZM279.79 267.97C279.79 209.26 327.38 161.67 386.09 161.67C444.79 161.67 492.38 209.26 492.38 267.97C492.38 326.67 444.79 374.27 386.09 374.27C327.39 374.27 279.79 326.67 279.79 267.97Z" id="d1XkqpkVYY"></path><path d="M386.1 126.4C307.92 126.4 244.55 189.77 244.55 267.95C244.55 346.12 307.92 409.49 386.1 409.49C464.27 409.49 527.64 346.12 527.64 267.95C527.64 189.77 464.27 126.4 386.1 126.4Z" id="a4FQLBBfA"></path></defs><g><g><g><use xlink:href="#cIPq4qyPC" opacity="1" fill="#7a7a79" fill-opacity="1"></use><g><use xlink:href="#cIPq4qyPC" opacity="1" fill-opacity="0" stroke="#000000" stroke-width="1" stroke-opacity="0"></use></g></g><g><use xlink:href="#e1rtoiSh5V" opacity="1" fill="#7a7a7a" fill-opacity="1"></use><g><use xlink:href="#e1rtoiSh5V" opacity="1" fill-opacity="0" stroke="#000000" stroke-width="1" stroke-opacity="0"></use></g></g><g><use xlink:href="#bLLUzDbyN" opacity="1" fill="#7a7a79" fill-opacity="1"></use><g><use xlink:href="#bLLUzDbyN" opacity="1" fill-opacity="0" stroke="#000000" stroke-width="1" stroke-opacity="0"></use></g></g><g><use xlink:href="#f5nG3Nn7a" opacity="1" fill="#178fa7" fill-opacity="1"></use><g><use xlink:href="#f5nG3Nn7a" opacity="1" fill-opacity="0" stroke="#000000" stroke-width="1" stroke-opacity="0"></use></g></g><g><use xlink:href="#dH6nRj8Z8" opacity="1" fill="#000000" fill-opacity="0"></use><g><use xlink:href="#dH6nRj8Z8" opacity="1" fill-opacity="0" stroke="#b4b4b4" stroke-width="49" stroke-opacity="1"></use></g></g><g><use xlink:href="#anO2WJ3YS" opacity="1" fill="#e6e6e6" fill-opacity="1"></use><g><use xlink:href="#anO2WJ3YS" opacity="1" fill-opacity="0" stroke="#6c756b" stroke-width="0.75" stroke-opacity="1"></use></g></g><g><use xlink:href="#bRHxwHOoP" opacity="1" fill="#cbcccb" fill-opacity="1"></use><g><use xlink:href="#bRHxwHOoP" opacity="1" fill-opacity="0" stroke="#000000" stroke-width="1" stroke-opacity="0"></use></g></g><g><use xlink:href="#aSCtuSqFn" opacity="1" fill="#c1c8c0" fill-opacity="1"></use><g><use xlink:href="#aSCtuSqFn" opacity="1" fill-opacity="0" stroke="#000000" stroke-width="1" stroke-opacity="0"></use></g></g><g><use xlink:href="#b3ohCXNeAo" opacity="1" fill="#000000" fill-opacity="0"></use><g><use xlink:href="#b3ohCXNeAo" opacity="1" fill-opacity="0" stroke="#6c756b" stroke-width="49" stroke-opacity="1"></use></g></g><g><use xlink:href="#d1XkqpkVYY" opacity="1" fill="#939393" fill-opacity="1"></use><g><use xlink:href="#d1XkqpkVYY" opacity="1" fill-opacity="0" stroke="#000000" stroke-width="1" stroke-opacity="0"></use></g></g><g><use xlink:href="#a4FQLBBfA" opacity="1" fill="#c2b8b8" fill-opacity="0"></use><g><use xlink:href="#a4FQLBBfA" opacity="1" fill-opacity="0" stroke="#b2b6b2" stroke-width="49" stroke-opacity="1"></use></g></g></g></g></svg>