<?xml version="1.0" standalone="no"?>
<!DOCTYPE svg PUBLIC "-//W3C//DTD SVG 20010904//EN"
 "http://www.w3.org/TR/2001/REC-SVG-20010904/DTD/svg10.dtd">
<svg version="1.0" xmlns="http://www.w3.org/2000/svg"
 width="477.000000pt" height="414.000000pt" viewBox="0 0 477.000000 414.000000"
 preserveAspectRatio="xMidYMid meet">

<g transform="translate(0.000000,414.000000) scale(0.100000,-0.100000)"
fill="#000000" stroke="none">
<path d="M2335 4106 c-34 -15 -2282 -2273 -2304 -2313 -8 -17 -12 -46 -9 -80
8 -89 79 -143 171 -128 40 7 97 62 1119 1089 l1078 1081 1069 -1073 c726 -728
1080 -1077 1105 -1087 66 -28 120 -13 169 44 35 42 42 91 20 141 -24 53 -2239
2288 -2299 2319 -46 24 -76 26 -119 7z"/>
<path d="M2350 3313 c-14 -2 -42 -16 -63 -31 -20 -15 -386 -391 -812 -836
l-775 -809 0 -731 c0 -503 4 -743 11 -771 14 -50 72 -107 126 -123 29 -9 169
-12 502 -12 l461 0 0 728 c0 811 -3 768 70 839 65 63 70 64 536 61 l421 -3 48
-30 c36 -22 57 -45 77 -84 l28 -53 0 -729 0 -729 465 0 464 0 55 24 c40 18 62
36 83 67 l28 43 3 760 2 761 -432 450 c-938 978 -1131 1176 -1159 1190 -31 17
-100 26 -139 18z"/>
</g>
</svg>
