<?xml version="1.0" encoding="iso-8859-1"?>
<!-- Generator: Adobe Illustrator 19.0.0, SVG Export Plug-In . SVG Version: 6.00 Build 0)  -->
<svg version="1.1" id="Layer_1" xmlns="http://www.w3.org/2000/svg" xmlns:xlink="http://www.w3.org/1999/xlink" x="0px" y="0px"
	 viewBox="0 0 512 512" style="enable-background:new 0 0 512 512;" xml:space="preserve">
<path style="fill:#9AD14B;" d="M338.965,70.636c-29.121,12.571-48.071,33.841-60.372,55.51l0,0c0,0,2.13-74.944-22.588-126.146
	c-24.718,51.202-22.588,126.146-22.588,126.146c20.516,36.124,22.588,73.367,22.588,73.367s25.024-0.6,46,8.593
	C291.577,151.794,338.318,71.754,338.965,70.636z"/>
<path style="fill:#90BC42;" d="M233.418,126.146L233.418,126.146c-0.926-1.629-1.889-3.257-2.892-4.878
	c-12.329-19.941-30.561-39.007-57.491-50.633c0.647,1.118,47.389,81.159,36.96,137.469c20.975-9.193,46.011-8.593,46.011-8.593V0
	C231.288,51.202,233.418,126.146,233.418,126.146z"/>
<path style="fill:#F7B239;" d="M330.149,238.344c0,16.196-3.59,43.763-9.864,75.921c-0.565,2.907-1.154,5.85-1.766,8.828
	c-0.6,2.907-1.212,5.862-1.848,8.828C303.194,394.87,280.936,469.732,256.006,512c-15.714-26.661-30.38-66.269-42.445-107.702
	c-0.859-2.931-1.707-5.874-2.531-8.828c-0.824-2.943-1.636-5.885-2.437-8.828c-10.488-38.678-18.551-77.545-22.965-107.69
	c-0.447-3.037-0.859-5.979-1.224-8.828c-0.4-3.06-0.753-6.003-1.059-8.828c-0.977-9.04-1.495-16.82-1.495-22.953
	c0-20.705,13.007-32.428,28.144-39.067c20.975-9.193,46.011-8.593,46.011-8.593s25.024-0.6,46,8.593
	C317.131,205.916,330.149,217.628,330.149,238.344z"/>
<path style="fill:#E09B2D;" d="M241.787,395.471c3.955,44.575,8.899,87.986,14.219,116.529
	c-16.832-28.544-32.452-71.954-44.976-116.529c-12.759-45.423-22.305-92.035-26.625-125.346c-1.66-12.854-2.554-23.73-2.554-31.781
	c0-20.705,13.007-32.428,28.144-39.067c19.28-8.451,41.986-8.628,45.541-8.593c-1.789,0.024-8.404,0.73-14.078,8.593
	c-4.779,6.639-8.899,18.362-8.899,39.067c0,8.051,0.283,18.927,0.812,31.781C234.736,303.436,237.75,350.048,241.787,395.471z"/>
<g>
	<path style="fill:#4D4D4D;" d="M224.225,270.125c0,4.873-3.955,8.828-8.828,8.828h-29.768c-0.447-3.037-0.859-5.979-1.224-8.828
		c-0.4-3.06-0.753-6.003-1.059-8.828h32.051C220.27,261.297,224.225,265.252,224.225,270.125z"/>
	<path style="fill:#4D4D4D;" d="M256.006,395.471c0,4.873-3.955,8.828-8.828,8.828h-33.617c-0.859-2.931-1.707-5.874-2.531-8.828
		c-0.824-2.943-1.636-5.885-2.437-8.828h38.584C252.051,386.643,256.006,390.597,256.006,395.471z"/>
	<path style="fill:#4D4D4D;" d="M320.285,314.265c-0.565,2.907-1.154,5.85-1.766,8.828c-0.6,2.907-1.212,5.862-1.848,8.828h-43.01
		c-4.873,0-8.828-3.955-8.828-8.828c0-4.873,3.955-8.828,8.828-8.828H320.285z"/>
</g>
<g>
</g>
<g>
</g>
<g>
</g>
<g>
</g>
<g>
</g>
<g>
</g>
<g>
</g>
<g>
</g>
<g>
</g>
<g>
</g>
<g>
</g>
<g>
</g>
<g>
</g>
<g>
</g>
<g>
</g>
</svg>
