<svg width="1797" height="512" xmlns="http://www.w3.org/2000/svg">

 <g>
  <title>background</title>
  <rect fill="none" id="canvas_background" height="514" width="1799" y="-1" x="-1"/>
 </g>
 <g>
  <title>Layer 1</title>
  <path id="svg_1" fill="#9AD14B" d="m338.965,70.636c-29.121,12.571 -48.071,33.841 -60.372,55.51l0,0c0,0 2.13,-74.944 -22.588,-126.146c-24.718,51.202 -22.588,126.146 -22.588,126.146c20.516,36.124 22.588,73.367 22.588,73.367s25.024,-0.6 46,8.593c-10.428,-56.312 36.313,-136.352 36.96,-137.47z"/>
  <path id="svg_2" fill="#90BC42" d="m233.418,126.146l0,0c-0.926,-1.629 -1.889,-3.257 -2.892,-4.878c-12.329,-19.941 -30.561,-39.007 -57.491,-50.633c0.647,1.118 47.389,81.159 36.96,137.469c20.975,-9.193 46.011,-8.593 46.011,-8.593l0,-199.511c-24.718,51.202 -22.588,126.146 -22.588,126.146z"/>
  <path id="svg_3" fill="#F7B239" d="m330.149,238.344c0,16.196 -3.59,43.763 -9.864,75.921c-0.565,2.907 -1.154,5.85 -1.766,8.828c-0.6,2.907 -1.212,5.862 -1.848,8.828c-13.477,62.949 -35.735,137.811 -60.665,180.079c-15.714,-26.661 -30.38,-66.269 -42.445,-107.702c-0.859,-2.931 -1.707,-5.874 -2.531,-8.828c-0.824,-2.943 -1.636,-5.885 -2.437,-8.828c-10.488,-38.678 -18.551,-77.545 -22.965,-107.69c-0.447,-3.037 -0.859,-5.979 -1.224,-8.828c-0.4,-3.06 -0.753,-6.003 -1.059,-8.828c-0.977,-9.04 -1.495,-16.82 -1.495,-22.953c0,-20.705 13.007,-32.428 28.144,-39.067c20.975,-9.193 46.011,-8.593 46.011,-8.593s25.024,-0.6 46,8.593c15.126,6.64 28.144,18.352 28.144,39.068z"/>
  <path id="svg_4" fill="#E09B2D" d="m241.787,395.471c3.955,44.575 8.899,87.986 14.219,116.529c-16.832,-28.544 -32.452,-71.954 -44.976,-116.529c-12.759,-45.423 -22.305,-92.035 -26.625,-125.346c-1.66,-12.854 -2.554,-23.73 -2.554,-31.781c0,-20.705 13.007,-32.428 28.144,-39.067c19.28,-8.451 41.986,-8.628 45.541,-8.593c-1.789,0.024 -8.404,0.73 -14.078,8.593c-4.779,6.639 -8.899,18.362 -8.899,39.067c0,8.051 0.283,18.927 0.812,31.781c1.365,33.311 4.379,79.923 8.416,125.346z"/>
  <g id="svg_5">
   <path id="svg_6" fill="#4D4D4D" d="m224.225,270.125c0,4.873 -3.955,8.828 -8.828,8.828l-29.768,0c-0.447,-3.037 -0.859,-5.979 -1.224,-8.828c-0.4,-3.06 -0.753,-6.003 -1.059,-8.828l32.051,0c4.873,0 8.828,3.955 8.828,8.828z"/>
   <path id="svg_7" fill="#4D4D4D" d="m256.006,395.471c0,4.873 -3.955,8.828 -8.828,8.828l-33.617,0c-0.859,-2.931 -1.707,-5.874 -2.531,-8.828c-0.824,-2.943 -1.636,-5.885 -2.437,-8.828l38.584,0c4.874,0 8.829,3.954 8.829,8.828z"/>
   <path id="svg_8" fill="#4D4D4D" d="m320.285,314.265c-0.565,2.907 -1.154,5.85 -1.766,8.828c-0.6,2.907 -1.212,5.862 -1.848,8.828l-43.01,0c-4.873,0 -8.828,-3.955 -8.828,-8.828c0,-4.873 3.955,-8.828 8.828,-8.828l46.624,0z"/>
  </g>
  <g id="svg_9"/>
  <g id="svg_10"/>
  <g id="svg_11"/>
  <g id="svg_12"/>
  <g id="svg_13"/>
  <g id="svg_14"/>
  <g id="svg_15"/>
  <g id="svg_16"/>
  <g id="svg_17"/>
  <g id="svg_18"/>
  <g id="svg_19"/>
  <g id="svg_20"/>
  <g id="svg_21"/>
  <g id="svg_22"/>
  <g id="svg_23"/>
  <text style="cursor: move;" stroke="#000" transform="matrix(12.441634276022521,0,0,17.869447762818336,-4170.302406216389,-5267.791728281183) " xml:space="preserve" text-anchor="start" font-family="Junction, sans-serif" font-size="24" id="svg_26" y="321.847424" x="364.772682" stroke-width="0" fill="#ffffff">BeansTalk</text>
 </g>
</svg>