<?xml version="1.0" encoding="UTF-8" standalone="no"?>
<!DOCTYPE svg PUBLIC "-//W3C//DTD SVG 1.1//EN" "http://www.w3.org/Graphics/SVG/1.1/DTD/svg11.dtd">
<svg version="1.1" xmlns="http://www.w3.org/2000/svg" xmlns:xlink="http://www.w3.org/1999/xlink" preserveAspectRatio="xMidYMid meet" viewBox="0 0 640 640" width="640" height="640"><defs><path d="M408.5 164.54C408.5 184.18 424.42 200.1 444.06 200.1C463.7 200.1 479.62 184.18 479.62 164.54C465.4 164.54 422.72 164.54 408.5 164.54Z" id="a3X3vEVSg6"></path><path d="M479.62 164.54C479.62 184.18 495.54 200.1 515.18 200.1C534.82 200.1 550.75 184.18 550.75 164.54C536.52 164.54 493.85 164.54 479.62 164.54Z" id="a1BbkP1LG"></path><path d="M337.37 164.54C337.37 184.18 353.29 200.1 372.93 200.1C392.57 200.1 408.5 184.18 408.5 164.54C394.27 164.54 351.6 164.54 337.37 164.54Z" id="b1diSHAXSo"></path><path d="M266.25 164.54C266.25 184.18 282.17 200.1 301.81 200.1C321.45 200.1 337.37 184.18 337.37 164.54C323.15 164.54 280.47 164.54 266.25 164.54Z" id="fySh8QPDI"></path><path d="M195.12 164.54C195.12 184.18 211.04 200.1 230.68 200.1C250.32 200.1 266.25 184.18 266.25 164.54C252.02 164.54 209.35 164.54 195.12 164.54Z" id="ahZzRPTwy"></path><path d="M195.12 164.54C195.12 184.18 179.2 200.1 159.56 200.1C139.92 200.1 123.99 184.18 123.99 164.54C138.22 164.54 180.89 164.54 195.12 164.54Z" id="b1C7D7X2ti"></path><path d="M158.42 70.04L516.33 70.04L550.75 164.54L123.99 164.54L123.99 164.54L158.42 70.04Z" id="akUBtpMZb"></path><path d="M337.37 330.16C337.37 330.16 337.37 330.16 337.37 330.16C337.37 369.18 337.37 390.85 337.37 395.19C337.37 395.19 337.37 395.19 337.37 395.19C244.71 395.19 193.22 395.19 182.93 395.19C182.93 395.19 182.93 395.19 182.93 395.19C182.93 356.17 182.93 334.5 182.93 330.16C182.93 330.16 182.93 330.16 182.93 330.16C275.59 330.16 327.07 330.16 337.37 330.16Z" id="a10Hc44miL"></path><path d="M387.17 346.42C373.7 346.42 362.78 357.34 362.78 370.81C362.78 384.27 373.7 395.19 387.17 395.19C400.63 395.19 411.55 384.27 411.55 370.81C411.55 357.34 400.63 346.42 387.17 346.42Z" id="a2AgwyL6tf"></path><path d="M435.94 346.42C422.47 346.42 411.56 357.34 411.56 370.81C411.56 384.27 422.47 395.19 435.94 395.19C449.41 395.19 460.33 384.27 460.33 370.81C460.33 357.34 449.41 346.42 435.94 346.42Z" id="b3QYqrmxA7"></path><path d="M411.55 304.17C398.09 304.17 387.17 315.09 387.17 328.55C387.17 342.02 398.09 352.94 411.55 352.94C425.02 352.94 435.94 342.02 435.94 328.55C435.94 315.09 425.02 304.17 411.55 304.17Z" id="c7mOXZDSqN"></path><path d="M460.33 304.17C446.86 304.17 435.94 315.09 435.94 328.55C435.94 342.02 446.86 352.94 460.33 352.94C473.79 352.94 484.71 342.02 484.71 328.55C484.71 315.09 473.79 304.17 460.33 304.17Z" id="aUjNN4Xz"></path><path d="M484.71 346.42C471.24 346.42 460.33 357.34 460.33 370.81C460.33 384.27 471.24 395.19 484.71 395.19C498.18 395.19 509.09 384.27 509.09 370.81C509.09 357.34 498.18 346.42 484.71 346.42Z" id="ctNCCyAbt"></path><path d="M532.46 395.19C532.46 395.19 532.46 395.19 532.46 395.19C532.46 500.05 532.46 558.3 532.46 569.95C532.46 569.95 532.46 569.95 532.46 569.95C298.35 569.95 168.29 569.95 142.28 569.95C142.28 569.95 142.28 569.95 142.28 569.95C142.28 465.09 142.28 406.84 142.28 395.19C142.28 395.19 142.28 395.19 142.28 395.19C376.39 395.19 506.45 395.19 532.46 395.19Z" id="eOUcbmF"></path><path d="M376.03 447.6C362.77 434.35 342.06 433.55 329.76 445.87C317.46 458.19 281.33 516.61 294.16 529.44C306.99 542.27 365.46 506.13 377.75 493.87C390.05 481.57 389.28 460.85 376.03 447.6Z" id="k3ikUyapXq"></path><path d="M562.5 164.54C562.5 164.54 562.5 164.54 562.5 164.54C562.5 163.35 562.3 162.18 561.9 161.06C558.46 151.61 530.91 76.01 527.47 66.57C526.01 62.55 522.19 59.88 517.92 59.88C482.13 59.88 195.79 59.88 160 59.88C155.73 59.88 151.92 62.55 150.45 66.57C147.01 76.02 119.48 151.62 116.04 161.07C115.64 162.18 115.44 163.36 115.44 164.54C115.44 164.54 115.44 164.54 115.44 164.54C115.44 164.68 115.44 164.81 115.44 164.94C115.44 164.99 115.44 165.04 115.44 165.09C115.72 190.33 136.41 210.55 161.64 210.27C175.29 210.12 188.15 203.87 196.71 193.24C212.52 212.88 241.26 215.99 260.9 200.18C263.45 198.12 265.78 195.79 267.84 193.24C283.65 212.88 312.38 215.99 332.02 200.18C334.58 198.12 336.91 195.79 338.97 193.24C354.77 212.88 383.51 215.99 403.15 200.18C405.7 198.12 408.03 195.79 410.09 193.24C425.9 212.88 454.63 215.99 474.27 200.18C476.83 198.12 479.16 195.79 481.22 193.24C497.05 212.89 525.81 215.99 545.46 200.16C556.09 191.6 562.33 178.74 562.49 165.09C562.49 165.04 562.5 164.99 562.5 164.93C562.5 164.8 562.5 164.67 562.5 164.54ZM537.84 154.4L491.39 154.4L491.39 80.21L510.82 80.21L537.84 154.4ZM206.88 80.21L257.69 80.21L257.69 154.4L206.88 154.4L206.88 80.21ZM278.01 80.21L328.81 80.21L328.81 154.4L278.01 154.4L278.01 80.21ZM349.13 80.21L399.94 80.21L399.94 154.4L349.13 154.4L349.13 80.21ZM420.26 80.21L471.06 80.21L471.06 154.4L420.27 154.4L420.26 80.21ZM167.13 80.21L186.55 80.21L186.55 154.4L140.1 154.4L167.13 80.21ZM137.89 174.72C142.54 174.72 179.77 174.72 184.42 174.72C180.37 183.96 171.24 189.93 161.16 189.94C151.07 189.93 141.94 183.96 137.89 174.72ZM209.02 174.72C213.67 174.72 250.89 174.72 255.55 174.72C251.5 183.96 242.37 189.93 232.28 189.94C222.2 189.93 213.07 183.96 209.02 174.72ZM280.14 174.72C284.8 174.72 322.02 174.72 326.67 174.72C322.62 183.96 313.5 189.93 303.41 189.94C293.32 189.93 284.19 183.96 280.14 174.72ZM351.27 174.72C355.92 174.72 393.14 174.72 397.8 174.72C393.75 183.96 384.62 189.93 374.53 189.94C364.45 189.93 355.32 183.96 351.27 174.72ZM422.4 174.72C427.05 174.72 464.28 174.72 468.93 174.72C464.88 183.96 455.75 189.93 445.66 189.94C435.57 189.93 426.45 183.96 422.4 174.72ZM493.52 174.72C498.17 174.72 535.4 174.72 540.05 174.72C536 183.95 526.88 189.93 516.8 189.94C506.7 189.93 497.57 183.96 493.52 174.72Z" id="b6IjBdhdf"></path><path d="M190.64 320C186.98 320 184.95 320 184.55 320C178.95 320 174.4 324.53 174.39 330.13C174.39 333.79 174.39 352.09 174.39 385.03L154.06 385.03C154.06 272.63 154.06 210.18 154.06 197.69C154.06 192.08 149.51 187.53 143.9 187.53C138.28 187.53 133.74 192.08 133.74 197.69C133.74 197.69 133.74 197.69 133.74 197.69C133.74 234.92 133.74 532.73 133.74 569.96C133.74 575.56 138.27 580.1 143.87 580.12C182.89 580.12 495.05 580.12 534.07 580.12C539.67 580.1 544.2 575.56 544.2 569.96C544.2 532.73 544.2 234.92 544.2 197.69C544.2 192.08 539.66 187.53 534.04 187.53C528.43 187.53 523.88 192.08 523.88 197.69C523.88 210.18 523.88 272.63 523.88 385.03C520.23 385.03 518.2 385.03 517.79 385.03C525.66 367.67 517.96 347.21 500.6 339.34C498.89 338.57 497.13 337.94 495.32 337.45C500.24 319.02 489.29 300.1 470.86 295.18C458.96 292 446.27 295.4 437.55 304.11C424.06 290.63 402.19 290.65 388.72 304.14C380.01 312.86 376.61 325.55 379.79 337.45C361.38 342.4 350.47 361.34 355.42 379.75C355.91 381.56 356.54 383.32 357.31 385.03C356.77 385.03 354.05 385.03 349.14 385.03C349.14 352.11 349.14 333.82 349.14 330.16C349.13 324.57 344.6 320.04 339.01 320.03C338.6 320.03 336.56 320.03 332.89 320.03M486.33 385.07C478.47 385.07 472.1 378.7 472.09 370.84C472.09 362.98 478.46 356.61 486.32 356.61C486.32 356.61 486.32 356.61 486.33 356.61C494.17 356.62 500.52 362.96 500.55 370.81C500.55 378.69 494.19 385.06 486.33 385.07ZM437.55 356.61C445.41 356.61 451.78 362.98 451.78 370.83C451.78 378.69 445.41 385.06 437.55 385.06C437.55 385.06 437.55 385.06 437.55 385.06C429.69 385.05 423.32 378.67 423.33 370.81C423.33 370.81 423.33 370.81 423.33 370.81C423.33 362.98 429.7 356.61 437.55 356.61ZM476.16 328.58C476.16 336.44 469.79 342.81 461.94 342.81C454.08 342.81 447.71 336.44 447.71 328.58C447.71 328.57 447.71 328.55 447.71 328.53C447.73 320.69 454.09 314.34 461.94 314.33C469.79 314.36 476.16 320.73 476.16 328.58ZM427.39 328.58C427.39 336.44 421.03 342.81 413.17 342.81C405.31 342.81 398.95 336.44 398.95 328.58C398.95 328.57 398.95 328.55 398.95 328.53C398.97 320.69 405.33 314.34 413.17 314.33C421.03 314.36 427.39 320.73 427.39 328.58ZM388.78 356.61C396.64 356.61 403 362.98 403 370.83C403 378.69 396.64 385.06 388.78 385.06C388.78 385.06 388.78 385.06 388.78 385.06C380.92 385.05 374.55 378.67 374.56 370.81C374.56 370.81 374.56 370.81 374.56 370.81C374.56 362.98 380.92 356.61 388.78 356.61ZM312.55 320L292.24 320M271.92 320L251.6 320M231.28 320L210.96 320M194.68 340.32L328.82 340.32L328.82 385.03L194.68 385.03L194.68 352.53L194.68 340.32ZM523.91 559.79L154.06 559.79L154.06 405.33L523.91 405.33L523.91 559.79Z" id="a3tNZ3ba6"></path><path d="M286.92 533.39C286.92 533.39 287.43 533.96 288.02 534.53C288.61 535.1 296 540.27 303.47 540.27C312.99 540.27 325.58 536.21 341.76 528.04C358.86 519.41 378.27 506.62 385.96 498.93C398.49 486.4 400.9 467.35 393.43 451.41C395.72 451.9 397.82 453.04 399.48 454.69C403.45 458.66 409.89 458.66 413.86 454.69C417.83 450.72 417.84 444.29 413.87 440.31C404.5 431.04 390.5 428.27 378.31 433.28C362.12 421.75 340.39 422.04 325.85 434.51C321.26 438.44 317.81 442.85 312.75 450.21C309.94 454.3 305.78 460.88 296.86 482.01C296.87 482.01 283.7 513.2 285.94 530.73C286.06 531.68 286.4 532.59 286.92 533.39ZM362.43 495.07C357.18 498.72 350.78 502.81 343.96 506.74C343.14 505.91 336.53 499.3 335.7 498.47C331.4 494.32 324.55 494.44 320.4 498.74C316.35 502.94 316.35 509.58 320.4 513.78C320.73 514.11 323.4 516.77 323.73 517.1C310.51 522.93 303.27 523.91 300.51 523.63C300.92 520.71 301.55 516.76 302.54 512.14C304.49 502.97 307.28 493.99 310.88 485.33C315.75 474.04 322.17 463.48 329.95 453.96C334.54 460.23 338.21 465.27 339.13 466.52C343.36 470.75 350.22 470.74 354.44 466.51C358.67 462.28 358.66 455.43 354.43 451.2C349.56 446.03 345.67 441.9 344.69 440.87C356.12 438.15 367.97 442.34 374.68 451.42C383.34 463.17 379.88 478.3 373.91 486C372.16 488.29 368.88 490.56 362.43 495.07Z" id="a1aS9QG9qW"></path></defs><g><g><g><use xlink:href="#a3X3vEVSg6" opacity="1" fill="#5f5f5f" fill-opacity="1"></use><g><use xlink:href="#a3X3vEVSg6" opacity="1" fill-opacity="0" stroke="#000000" stroke-width="1" stroke-opacity="0"></use></g></g><g><use xlink:href="#a1BbkP1LG" opacity="1" fill="#5f5f5f" fill-opacity="1"></use><g><use xlink:href="#a1BbkP1LG" opacity="1" fill-opacity="0" stroke="#000000" stroke-width="1" stroke-opacity="0"></use></g></g><g><use xlink:href="#b1diSHAXSo" opacity="1" fill="#5f5f5f" fill-opacity="1"></use><g><use xlink:href="#b1diSHAXSo" opacity="1" fill-opacity="0" stroke="#000000" stroke-width="1" stroke-opacity="0"></use></g></g><g><use xlink:href="#fySh8QPDI" opacity="1" fill="#5f5f5f" fill-opacity="1"></use><g><use xlink:href="#fySh8QPDI" opacity="1" fill-opacity="0" stroke="#000000" stroke-width="1" stroke-opacity="0"></use></g></g><g><use xlink:href="#ahZzRPTwy" opacity="1" fill="#5f5f5f" fill-opacity="1"></use><g><use xlink:href="#ahZzRPTwy" opacity="1" fill-opacity="0" stroke="#000000" stroke-width="1" stroke-opacity="0"></use></g></g><g><use xlink:href="#b1C7D7X2ti" opacity="1" fill="#5f5f5f" fill-opacity="1"></use><g><use xlink:href="#b1C7D7X2ti" opacity="1" fill-opacity="0" stroke="#000000" stroke-width="1" stroke-opacity="0"></use></g></g><g><use xlink:href="#akUBtpMZb" opacity="1" fill="#d7d7d7" fill-opacity="1"></use><g><use xlink:href="#akUBtpMZb" opacity="1" fill-opacity="0" stroke="#000000" stroke-width="1" stroke-opacity="0"></use></g></g><g><use xlink:href="#a10Hc44miL" opacity="1" fill="#5f5f5f" fill-opacity="1"></use><g><use xlink:href="#a10Hc44miL" opacity="1" fill-opacity="0" stroke="#000000" stroke-width="1" stroke-opacity="0"></use></g></g><g><use xlink:href="#a2AgwyL6tf" opacity="1" fill="#5f5f5f" fill-opacity="1"></use><g><use xlink:href="#a2AgwyL6tf" opacity="1" fill-opacity="0" stroke="#000000" stroke-width="1" stroke-opacity="0"></use></g></g><g><use xlink:href="#b3QYqrmxA7" opacity="1" fill="#5f5f5f" fill-opacity="1"></use><g><use xlink:href="#b3QYqrmxA7" opacity="1" fill-opacity="0" stroke="#000000" stroke-width="1" stroke-opacity="0"></use></g></g><g><use xlink:href="#c7mOXZDSqN" opacity="1" fill="#5f5f5f" fill-opacity="1"></use><g><use xlink:href="#c7mOXZDSqN" opacity="1" fill-opacity="0" stroke="#000000" stroke-width="1" stroke-opacity="0"></use></g></g><g><use xlink:href="#aUjNN4Xz" opacity="1" fill="#5f5f5f" fill-opacity="1"></use><g><use xlink:href="#aUjNN4Xz" opacity="1" fill-opacity="0" stroke="#000000" stroke-width="1" stroke-opacity="0"></use></g></g><g><use xlink:href="#ctNCCyAbt" opacity="1" fill="#5f5f5f" fill-opacity="1"></use><g><use xlink:href="#ctNCCyAbt" opacity="1" fill-opacity="0" stroke="#000000" stroke-width="1" stroke-opacity="0"></use></g></g><g><use xlink:href="#eOUcbmF" opacity="1" fill="#868686" fill-opacity="1"></use><g><use xlink:href="#eOUcbmF" opacity="1" fill-opacity="0" stroke="#000000" stroke-width="1" stroke-opacity="0"></use></g></g><g><use xlink:href="#k3ikUyapXq" opacity="1" fill="#757373" fill-opacity="1"></use><g><use xlink:href="#k3ikUyapXq" opacity="1" fill-opacity="0" stroke="#000000" stroke-width="1" stroke-opacity="0"></use></g></g><g><use xlink:href="#b6IjBdhdf" opacity="1" fill="#ffffff" fill-opacity="1"></use><g><use xlink:href="#b6IjBdhdf" opacity="1" fill-opacity="0" stroke="#000000" stroke-width="1" stroke-opacity="0"></use></g></g><g><use xlink:href="#a3tNZ3ba6" opacity="1" fill="#ffffff" fill-opacity="1"></use><g><use xlink:href="#a3tNZ3ba6" opacity="1" fill-opacity="0" stroke="#000000" stroke-width="1" stroke-opacity="0"></use></g></g><g><use xlink:href="#a1aS9QG9qW" opacity="1" fill="#fbfbfb" fill-opacity="1"></use><g><use xlink:href="#a1aS9QG9qW" opacity="1" fill-opacity="0" stroke="#000000" stroke-width="1" stroke-opacity="0"></use></g></g></g></g></svg>