<svg id="Layer_2" data-name="Layer 2" xmlns="http://www.w3.org/2000/svg" viewBox="0 0 1200 1000"><defs><style>.cls-1{fill:#b0ce99;}.cls-2{fill:#faab65;}</style></defs><title>Beans Talk</title><path class="cls-1" d="M204.74,307.63c-4.79-14-8.93-20.11-18.28-31.49-1.42-1.73-3.6-4.26-6.38-4.18-3.68.12-7,4.76-8.41,8.5-1.61,4.26-.42,6.51-2,7.58-2.63,1.72-6.56-3.63-12.09-3.69-6.42-.08-13.33,6.93-14.49,12.27-1.23,5.6,3.35,11.86,11.9,18.85a12.53,12.53,0,0,0-1.67,3.38c-1.13,3.72.46,5.74-.79,7.36-1.77,2.3-5.29-1.33-10.14.49-3.49,1.31-6.88,5.14-8.61,9.35-6.17.62-11.55,2.31-12.58,5.61-1.58,5,8.38,9.44,7.72,18.63-.41,5.75-4.49,6.56-4.14,11.46.51,7,9.22,11.79,13.83,13.9a11.53,11.53,0,0,0-.17,6.61,15.57,15.57,0,0,0,3,14.53,4.11,4.11,0,0,0,.29.3,11.22,11.22,0,0,0-2.3,3.73c-1.8,5,.15,11.89,4.31,15.53.93.81,5.13,4.23,15.4,2.41,11.65-2.07,18.36-8.61,33.14-22.93a113.78,113.78,0,0,0,14.32-4.33c24.81-10.07,47.76-10.81,63.22-10.54l2.81.66c-4.87,10.76-7.24,12.49-7.65,19.85-.22,4-.43,19.38,11.71,29.81A34.74,34.74,0,0,0,309.22,448C320,444.44,318,438,331.3,431.8c11.51-5.36,24.43-5.8,30.55-6,10.78-.37,16.87,1.13,17.59-.92.95-2.69-9.13-6.24-19.93-18.36A62,62,0,0,1,349,391.18c-5.11-10.89-2.3-14.42-6.06-23.05-3.88-8.91-12.65-18.39-24.95-21.62-1.82-.48-17.83-4.45-28.86,4.6-6.91,5.68-5.09,10.91-12.07,29.67-9.87-9.19-20.73-19.38-32.43-30.49C208.57,316,206.58,313,204.74,307.63Z"/><path class="cls-1" d="M549.26,214.84c14-4.79,20.12-8.93,31.5-18.29,1.72-1.42,4.26-3.59,4.17-6.38-.11-3.68-4.76-7-8.5-8.41-4.25-1.61-6.51-.42-7.57-2-1.73-2.63,3.62-6.55,3.69-12.08.07-6.42-6.94-13.34-12.28-14.5-5.6-1.22-11.86,3.35-18.85,11.9a12.5,12.5,0,0,0-3.38-1.66c-3.72-1.14-5.74.46-7.36-.8-2.29-1.77,1.34-5.29-.49-10.14-1.3-3.49-5.14-6.88-9.35-8.61-.62-6.16-2.31-11.55-5.61-12.58-5-1.57-9.44,8.38-18.63,7.72-5.74-.41-6.56-4.49-11.46-4.13-7,.5-11.79,9.21-13.9,13.82a11.53,11.53,0,0,0-6.61-.17,15.58,15.58,0,0,0-14.53,3.05l-.3.28a11.28,11.28,0,0,0-3.73-2.3c-5-1.79-11.89.16-15.52,4.31-.81.93-4.23,5.13-2.41,15.41,2.06,11.64,8.6,18.35,22.92,33.13a113.78,113.78,0,0,0,4.33,14.32c10.07,24.81,10.81,47.77,10.54,63.22q-.33,1.39-.66,2.82c-10.76-4.88-12.49-7.24-19.84-7.66-4-.22-19.39-.42-29.82,11.71a34.74,34.74,0,0,0-6.67,32.54c3.52,10.74,10,8.83,16.15,22.08,5.36,11.52,5.81,24.44,6,30.55.37,10.78-1.13,16.87.92,17.59,2.69,1,6.24-9.13,18.36-19.92a62,62,0,0,1,15.32-10.51c10.89-5.11,14.42-2.3,23.05-6.06,8.91-3.88,18.39-12.65,21.62-24.94.48-1.83,4.45-17.84-4.6-28.87-5.67-6.91-10.91-5.08-29.67-12.06,9.19-9.87,19.38-20.73,30.49-32.43C540.86,218.67,543.9,216.67,549.26,214.84Z"/><path class="cls-1" d="M640.49,585c4.79,14,8.93,20.12,18.28,31.5,1.42,1.73,3.6,4.26,6.38,4.17,3.69-.11,7-4.76,8.42-8.49,1.6-4.26.41-6.52,2-7.58,2.63-1.72,6.56,3.62,12.09,3.69,6.42.08,13.33-6.94,14.5-12.27,1.22-5.61-3.36-11.86-11.9-18.85a13,13,0,0,0,1.66-3.39c1.14-3.72-.46-5.74.79-7.36,1.78-2.29,5.3,1.34,10.15-.48,3.48-1.31,6.87-5.15,8.6-9.36,6.17-.62,11.55-2.3,12.58-5.6,1.58-5-8.38-9.45-7.72-18.64.42-5.74,4.5-6.56,4.14-11.46-.5-7-9.21-11.79-13.82-13.9a11.5,11.5,0,0,0,.17-6.6,15.62,15.62,0,0,0-3.05-14.54l-.28-.3a11.26,11.26,0,0,0,2.29-3.73c1.8-5-.15-11.88-4.31-15.52-.92-.81-5.13-4.23-15.4-2.41-11.64,2.06-18.35,8.6-33.14,22.92a116.05,116.05,0,0,0-14.31,4.33c-24.82,10.07-47.77,10.81-63.22,10.54l-2.82-.66c4.87-10.76,7.24-12.49,7.65-19.84.23-4,.43-19.39-11.7-29.81A34.75,34.75,0,0,0,536,444.69c-10.74,3.52-8.83,10-22.08,16.16-11.52,5.35-24.44,5.8-30.56,6-10.77.37-16.86-1.13-17.59.92-.94,2.69,9.14,6.24,19.93,18.36a62,62,0,0,1,10.5,15.32c5.12,10.89,2.3,14.42,6.06,23.05,3.89,8.91,12.65,18.39,25,21.62,1.83.48,17.84,4.45,28.86-4.6,6.92-5.67,5.09-10.9,12.07-29.67,9.87,9.19,20.73,19.38,32.43,30.49C636.66,576.61,638.66,579.65,640.49,585Z"/><path class="cls-1" d="M293.72,666.75c-14,4.79-20.12,8.93-31.5,18.29-1.73,1.41-4.26,3.59-4.17,6.38.11,3.68,4.76,7,8.49,8.41,4.26,1.61,6.51.41,7.58,2,1.72,2.64-3.62,6.56-3.69,12.09-.08,6.42,6.94,13.33,12.27,14.5,5.61,1.22,11.86-3.35,18.85-11.9a12.65,12.65,0,0,0,3.38,1.66c3.72,1.14,5.75-.46,7.37.8,2.29,1.77-1.34,5.29.48,10.14,1.31,3.49,5.15,6.87,9.36,8.6.61,6.17,2.3,11.55,5.6,12.58,5,1.58,9.45-8.38,18.63-7.72,5.75.42,6.56,4.5,11.46,4.14,7-.5,11.79-9.21,13.91-13.82a11.49,11.49,0,0,0,6.6.17,15.63,15.63,0,0,0,14.54-3.05l.29-.28a11.33,11.33,0,0,0,3.74,2.3c5,1.79,11.88-.16,15.52-4.32.81-.92,4.23-5.12,2.41-15.4-2.06-11.64-8.6-18.35-22.92-33.14a114.73,114.73,0,0,0-4.34-14.31c-10.07-24.82-10.81-47.77-10.54-63.22.22-.93.44-1.87.67-2.82,10.75,4.88,12.48,7.24,19.84,7.66,4,.22,19.38.42,29.81-11.71A34.74,34.74,0,0,0,434,562.28c-3.51-10.74-10-8.83-16.15-22.08-5.35-11.52-5.8-24.44-6-30.55-.38-10.78,1.13-16.87-.93-17.59-2.68-.95-6.23,9.13-18.35,19.92a62,62,0,0,1-15.32,10.51c-10.89,5.11-14.43,2.3-23.06,6.06-8.91,3.88-18.38,12.65-21.62,24.94-.48,1.83-4.44,17.84,4.6,28.86,5.68,6.92,10.91,5.09,29.67,12.07-9.18,9.87-19.38,20.73-30.49,32.43C302.12,662.92,299.08,664.92,293.72,666.75Z"/><path class="cls-1" d="M376.73,153.74c-3.29-2.6-9.58-1-13.54,1.22-4.51,2.53-5.13,5.36-7.32,5.1-3.55-.43-3.05-7.95-7.81-12.06-5.2-4.49-15.4-3.8-21.59.05a17.65,17.65,0,0,0-4.75,4.4,13.94,13.94,0,0,0-1.25-5.12c-2.38-5-8.46-9.1-13.61-8.17-3.73.66-6.25,3.83-7.83,6.5a34.68,34.68,0,0,0-1.85,3.39,19.28,19.28,0,0,0-1.67,5,9,9,0,0,0-1.79-.86c-5-1.78-12.83,0-17.59,4a13.26,13.26,0,0,0-3,3.68,21.16,21.16,0,0,0-3.14,11c-5.79-1.27-13.68-.28-16.87,4.25a7.07,7.07,0,0,0-.44.73h0c-4,5.65,2.45,12.35-2,20.19l0,.05c-2.48,3.72-5.35,3.21-9.55,9.19-.63.9-1.43,2-2.19,3.3-1.74,2.75-3.49,6.34-2.88,10a10.2,10.2,0,0,0,1.36,3.61,20.41,20.41,0,0,0-5.41.64,11.81,11.81,0,0,0-2.84,1.18c-5.22,3-8.56,10.44-7.61,16.65.21,1.38,1.36,7.43,11.62,13.37,12.74,7.37,24.26,5.74,52.63,3.85l9.6-.61c-.08.55-.15,1.07-.22,1.53-1,6.82-1.45,10.22-.51,14.09,1.68,7,4.89,5.74,10.62,17.35,0,0,5.8,11.76,9.71,16.62,1,1.26.49.5,7.35,8.33,5.19,5.93,5.89,6.82,6.5,7.63,3.31,4.4,3.8,6.15,6.83,10.8a97,97,0,0,0,8.25,10.66c6.52,7.65,8,7.77,15.05,15.37,6.47,7,5,6.66,14,16.73,7.55,8.51,8.35,8.49,11.39,13,3.86,5.74,4.14,8.13,8,11.57,3.43,3,5.05,2.81,8.53,6.38,2.48,2.56,2.84,3.89,5.81,8.25,3.24,4.75,8.27,12.12,10.11,11.41,2.57-1-1.84-17.27-2.3-18.95a153.7,153.7,0,0,0-5.73-16.3c-4.95-12.62-5.79-12.52-6.68-17-1.62-8.26,1.1-9.41.53-19.46-.14-2.66-.38-3.32-5.26-22.16-4.4-17-5-19.36-5.71-23.05-1.72-8.6-1.23-8.62-2.72-14.51-2.12-8.39-3.51-9.93-5.84-18.81-2.29-8.73-1.2-8.24-3.14-14.86A85.57,85.57,0,0,0,371.14,243c-4.14-7.07-6.2-10.61-10.42-14a29.39,29.39,0,0,0-9.58-5.17c1-.48,2-1,3-1.59a44.69,44.69,0,0,0,16-16.3c.7-1.12,1.31-2.16,1.86-3.1,6.81-11.68,6.93-21.38,7.17-40.77C379.25,159.5,379.21,155.7,376.73,153.74Z"/><path class="cls-1" d="M697.84,396.9c2.6-3.28,1-9.57-1.23-13.53-2.52-4.51-5.35-5.13-5.09-7.33.43-3.54,8-3.05,12.06-7.8,4.49-5.2,3.79-15.4-.05-21.59a17.65,17.65,0,0,0-4.4-4.75,13.77,13.77,0,0,0,5.12-1.26c5-2.37,9.09-8.45,8.17-13.6-.67-3.73-3.83-6.25-6.51-7.83a31.65,31.65,0,0,0-3.38-1.85,18.56,18.56,0,0,0-5-1.67,9.68,9.68,0,0,0,.86-1.8c1.78-5,0-12.82-4-17.59a13.36,13.36,0,0,0-3.67-3,21.3,21.3,0,0,0-11-3.13c1.27-5.79.28-13.68-4.26-16.87a6.15,6.15,0,0,0-.73-.44h0c-5.65-4-12.36,2.45-20.19-2l-.06,0c-3.71-2.48-3.21-5.35-9.18-9.55-.9-.63-2-1.43-3.3-2.19-2.76-1.75-6.35-3.49-10-2.88a10.33,10.33,0,0,0-3.62,1.36,20.38,20.38,0,0,0-.63-5.41,11.65,11.65,0,0,0-1.18-2.84c-3-5.22-10.44-8.57-16.65-7.62-1.38.22-7.43,1.36-13.37,11.63-7.38,12.74-5.74,24.26-3.85,52.63.23,3.49.43,6.68.6,9.6l-1.52-.22c-6.82-1-10.23-1.45-14.09-.51-7,1.68-5.74,4.89-17.36,10.62,0,0-11.75,5.8-16.61,9.71-1.27,1-.51.49-8.33,7.34-5.94,5.2-6.83,5.9-7.63,6.51-4.4,3.31-6.16,3.79-10.81,6.83a96.72,96.72,0,0,0-10.66,8.25c-7.64,6.52-7.76,8-15.37,15.05-7,6.47-6.65,5-16.72,14-8.51,7.55-8.49,8.35-13,11.39-5.74,3.86-8.13,4.14-11.57,8-3,3.42-2.81,5-6.39,8.53-2.55,2.48-3.88,2.84-8.24,5.81-4.75,3.24-12.13,8.27-11.42,10.11,1,2.57,17.28-1.85,19-2.31a152.06,152.06,0,0,0,16.3-5.72c12.62-4.95,12.51-5.8,17-6.68,8.26-1.62,9.41,1.1,19.46.53,2.66-.15,3.31-.38,22.15-5.26,17-4.4,19.37-5,23-5.71,8.61-1.72,8.63-1.23,14.51-2.72,8.4-2.12,9.94-3.51,18.81-5.84s8.25-1.2,14.86-3.14a85,85,0,0,0,19.84-8.83c7.07-4.13,10.6-6.2,14-10.42a29.18,29.18,0,0,0,5.17-9.57c.47,1,1,2,1.58,3a44.7,44.7,0,0,0,16.31,16c1.11.7,2.16,1.31,3.1,1.86,11.68,6.81,21.37,6.93,40.77,7.17C692.08,399.43,695.87,399.39,697.84,396.9Z"/><path class="cls-1" d="M464.46,721.24c3.29,2.6,9.58,1,13.53-1.22,4.52-2.53,5.13-5.36,7.33-5.09,3.55.43,3.05,8,7.81,12.05,5.2,4.5,15.39,3.8,21.58-.05a17.2,17.2,0,0,0,4.75-4.4,13.92,13.92,0,0,0,1.26,5.12c2.38,5,8.46,9.1,13.6,8.18,3.73-.67,6.25-3.84,7.83-6.51a30.85,30.85,0,0,0,1.85-3.39,18.91,18.91,0,0,0,1.68-5,9.28,9.28,0,0,0,1.79.85c5,1.78,12.83,0,17.59-4a13.26,13.26,0,0,0,3-3.68,21.26,21.26,0,0,0,3.13-11c5.8,1.27,13.68.28,16.87-4.25a7.2,7.2,0,0,0,.45-.73h0c4-5.65-2.45-12.35,2-20.19l0-.05c2.49-3.72,5.35-3.21,9.55-9.18.64-.91,1.44-2,2.2-3.31,1.74-2.75,3.49-6.34,2.87-10a10,10,0,0,0-1.36-3.61,20.48,20.48,0,0,0,5.42-.64,11.75,11.75,0,0,0,2.83-1.18c5.23-3,8.57-10.44,7.62-16.64-.21-1.39-1.36-7.44-11.62-13.38-12.74-7.37-24.27-5.74-52.64-3.85l-9.59.61c.08-.55.15-1.06.22-1.53,1-6.81,1.44-10.22.51-14.09-1.69-7-4.89-5.74-10.62-17.35,0,0-5.81-11.76-9.71-16.62-1-1.26-.5-.5-7.35-8.33-5.2-5.93-5.89-6.82-6.5-7.63-3.32-4.4-3.8-6.15-6.84-10.8a94.61,94.61,0,0,0-8.25-10.66c-6.51-7.65-8-7.76-15-15.37-6.47-7-5-6.66-14-16.73-7.55-8.51-8.36-8.49-11.39-13-3.86-5.74-4.14-8.13-8-11.57-3.43-3-5.05-2.81-8.53-6.38-2.49-2.56-2.84-3.89-5.82-8.25-3.24-4.75-8.26-12.12-10.11-11.41-2.56,1,1.85,17.28,2.31,18.95a151.3,151.3,0,0,0,5.72,16.3c5,12.62,5.8,12.52,6.68,17,1.63,8.26-1.09,9.41-.53,19.46.15,2.66.38,3.32,5.27,22.16,4.4,17,5,19.36,5.7,23.05,1.73,8.6,1.24,8.62,2.72,14.51,2.12,8.39,3.52,9.93,5.84,18.81s1.21,8.24,3.15,14.86A84.94,84.94,0,0,0,470.05,632c4.13,7.07,6.2,10.61,10.42,14a29.07,29.07,0,0,0,9.58,5.17c-1,.48-2,1-3,1.59A44.8,44.8,0,0,0,471,669.07c-.69,1.12-1.3,2.16-1.85,3.1-6.82,11.68-6.94,21.38-7.17,40.77C461.94,715.48,462,719.28,464.46,721.24Z"/><path class="cls-1" d="M140.67,483.68c-2.6,3.29-1,9.58,1.22,13.53,2.53,4.52,5.36,5.13,5.09,7.33-.43,3.55-7.95,3-12,7.81-4.5,5.2-3.8,15.39,0,21.58a17.2,17.2,0,0,0,4.4,4.75,13.92,13.92,0,0,0-5.12,1.26c-5,2.38-9.1,8.46-8.18,13.6.67,3.73,3.84,6.25,6.51,7.83a30.85,30.85,0,0,0,3.39,1.85,18.91,18.91,0,0,0,5,1.68,9.28,9.28,0,0,0-.85,1.79c-1.78,5,0,12.83,4,17.59a13.26,13.26,0,0,0,3.68,3,21.26,21.26,0,0,0,11,3.13c-1.27,5.8-.28,13.68,4.25,16.87a7.2,7.2,0,0,0,.73.45h0c5.65,4,12.35-2.45,20.19,2l0,0c3.72,2.49,3.21,5.35,9.18,9.55.91.64,2,1.44,3.31,2.2,2.75,1.74,6.34,3.49,10,2.87a10,10,0,0,0,3.61-1.36,20.48,20.48,0,0,0,.64,5.42,11.75,11.75,0,0,0,1.18,2.83c3,5.23,10.44,8.57,16.64,7.62,1.39-.21,7.44-1.36,13.38-11.62,7.37-12.75,5.74-24.27,3.85-52.64-.23-3.49-.43-6.68-.61-9.59l1.53.22c6.81,1,10.22,1.44,14.09.51,7-1.69,5.74-4.89,17.35-10.62,0,0,11.76-5.81,16.62-9.71,1.26-1,.5-.5,8.33-7.35,5.93-5.2,6.82-5.9,7.63-6.5,4.4-3.32,6.15-3.8,10.8-6.84a95.79,95.79,0,0,0,10.66-8.25c7.65-6.51,7.76-8,15.37-15,7-6.47,6.66-5,16.73-14,8.51-7.55,8.49-8.36,13-11.39,5.74-3.86,8.13-4.14,11.57-8,3-3.43,2.81-5.05,6.38-8.53,2.56-2.49,3.89-2.84,8.25-5.82,4.75-3.24,12.12-8.26,11.41-10.11-1-2.56-17.28,1.85-18.95,2.31a151.3,151.3,0,0,0-16.3,5.72c-12.62,4.95-12.52,5.8-17,6.68-8.26,1.63-9.41-1.09-19.46-.53-2.66.15-3.32.38-22.16,5.27-17,4.4-19.36,5-23.05,5.7-8.6,1.73-8.62,1.24-14.51,2.72-8.39,2.12-9.93,3.52-18.81,5.84s-8.24,1.21-14.86,3.15a84.94,84.94,0,0,0-19.83,8.82c-7.07,4.13-10.61,6.2-14,10.42a29.07,29.07,0,0,0-5.17,9.58c-.48-1-1-2-1.59-3a44.8,44.8,0,0,0-16.3-16.05c-1.12-.69-2.16-1.3-3.1-1.85-11.68-6.82-21.38-6.94-40.77-7.17C146.43,481.16,142.63,481.2,140.67,483.68Z"/><path class="cls-2" d="M460.29,406.67c19.84-27.82,21.26-57.48,10.33-89-8.29-21.86-23.56-37.07-46.12-43.73-19.74-6.41-40-8.1-60.54-6.48-47.57,3.29-95.54,7.54-143.07,11.29-7,.55-7,.55-6.48,7.08L238,584.59c.58,7.46.58,7.46,8,6.87l128.16-10.11c9.79-.77,20.08-1.12,30.19-3.79,11.5-2.78,23-5.1,34.4-9.75,36.75-15.56,48.38-46.49,46.06-81.94-.41-5.13-1.28-10.22-2.15-15.31-2.79-17.6-9.17-33-23.64-44.09-3-2.58-7.36-4.11-10.42-7.15C452.49,414.79,456.89,411.16,460.29,406.67Zm-12.76-90.43c1.4-.11,2.33-.19,2.87.71a1.72,1.72,0,0,1-1.72,2,2.57,2.57,0,0,1-2.44-1.22C445.63,315.92,447.6,317.17,447.53,316.24Zm-7.26-8.81c2.47,1.68,3.52,3,2.27,5a1.75,1.75,0,0,1-1.37.58C439.67,311.7,439.52,309.83,440.27,307.43Zm-45.94-23.58c.93-.07,1.43.36,1.47.83a2.47,2.47,0,0,1-1.61,3.4,1.18,1.18,0,0,1-1.94-.78A3.13,3.13,0,0,1,394.33,283.85Zm-15.15,27.93a2.41,2.41,0,0,1,1.14-3.37,2,2,0,0,1,2.91,1.18,56.35,56.35,0,0,1,2.84,6.34c.15,1.86-.21,3.29-1.1,3.83-1.87.15-3.34-.67-3.45-2.07C381.77,314.86,380.26,313.57,379.18,311.78ZM382.54,289c-.86,1-5.38-2.85-4.05,2.2.69,2.76.91,5.55,1.6,8.32.07.93.14,1.86-1.22,2.44s-1.94-.79-2.05-2.19l-2.61-15.27C380.66,283.06,380.66,283.06,382.54,289Zm-19.27-6.45a4.68,4.68,0,0,1,1.68-2.47,2.54,2.54,0,0,1,2.44,1.21c.58,1.36,2.13,3.12,1.73,4.08-1.49,4.81.7,8.86,2,13.91-2.29.65-4.23-.13-4.27-.6C366.45,293.09,362.32,288.26,363.27,282.55Zm-38.43,18c5.51-1.37,7.21,2.25,7.93,5.47s-1,5.7-3.14,7.75a3.53,3.53,0,0,1-3.77-.17c-1-.86-.57-1.36.29-2.37C329.47,305.85,329.47,305.85,324.84,300.59Zm-15.19,9.64a9.37,9.37,0,0,1,.31,9.82c-2.12-3.11-1.91-6.41-4-8.59-.58-1.37-.22-2.8,1.18-2.91C308.5,307.51,309.07,308.87,309.65,310.23ZM302,284.11c.4-1-.18-2.33.75-2.41,1.83-.61,2.41.75,3,2.11l.59,7.46a32.37,32.37,0,0,1,1.41,6c.15,1.87-.64,3.81-2.54,3.49-2.33.18-1.54-1.76-1.19-3.19C304.53,292.81,301.87,288.8,302,284.11ZM290.8,463.66c-.24,2.83,0,6.09-.23,8.92A3,3,0,0,1,288.5,476c-1.86.15-2.48-1.68-3.05-3a2.86,2.86,0,0,1-.69-2.76c2.07-3.45.81-7.57,2.88-11C290.51,459.93,291.12,461.75,290.8,463.66ZM292,490.29c-1.79,1.08-3.26.26-4.74-.56-1-.86-1.54-1.76-.72-3.23.39-1,1.87-.14,2.37.29C290.31,487.14,292.25,487.93,292,490.29ZM259.43,297.78c.93-.07,2.37.28,2.48,1.68.15,1.86-1.18,2.9-3.08,2.59-.93.07-2.37-.29-2.48-1.68C256.17,298,258.07,298.35,259.43,297.78ZM243.92,285.4c2.9,1.18,3.05,3,2.34,5.91C243.32,289.67,243.17,287.81,243.92,285.4Zm2.46,13.41c1,.39,1,.39,1.44.35,1.61,2.69,1.3,4.59-.38,7.07-.9.54-1.4.11-1.9-.32C243.92,303.22,244.7,301.29,246.38,298.81Zm-15.93,47.68c2.12,3.12,1.41,6,2.56,8.71C230.5,353.05,227.52,350.94,230.45,346.49ZM231.87,412c-.22-2.8-.91-5.55.3-8,2.37.28,2.52,2.14,2.66,4,.52,6.52,1.5,13,1.51,19.1.38,10.76,2.59,20.9,4.8,31.05,1.62,8.78-.47,17.85,4.38,25.91-3.21,6.82,2.79,11.5,2.84,18.06-.46,6.14,1.42,12.09,2.36,18.11.11,1.4.69,2.76-.67,3.33-1.83.62-2.41-.74-3-1.64a6,6,0,0,1-2.3-5.45c.64-3.8-1-6.95-2.71-10.57-1.73-4.08-4-8.59-1-13.05a3.51,3.51,0,0,0-.76-3.69c-3.09-3.51-2.49-7.77-2.82-12C235.75,455.34,233.56,433.47,231.87,412Zm24.59,163.13c-1.79,1.08-2.83-.24-3.41-1.61-3.31-6.3-7.05-12.1-6.71-19.63.25-2.84,0-6.1-2.56-8.71a5.06,5.06,0,0,1-.4-5.13,7.18,7.18,0,0,0-.59-7.45,2.84,2.84,0,0,1-.3-3.73c0-.47.86-1,1.33-1,.89-.54,1.39-.11,1.47.82,1.35,11.15,9.07,19.92,9.49,31.14.11,1.4,1.19,3.19.8,4.16-1.15,3.37.87,5.08,2,7.34C258.18,573.15,257.82,574.58,256.46,575.16ZM232.85,293.78a3.14,3.14,0,0,1,1.11-3.84l1.86-.15A2.07,2.07,0,0,1,237,293c-1.64,2.95,2.27,5,2.1,8.75C235.16,299.22,234.47,296.46,232.85,293.78Zm16.42,35.75c-1.3-4.59-3.92-8.13-4.25-12.32l-.19-2.34c-.14-1.86.18-3.76,2.51-3.95,1.9.32,2,2.19,1.73,4.09-1.5,4.81,1.63,8.78,2.93,13.37.54.89.61,1.83-.79,1.94C250.32,330.85,249.35,330.46,249.27,329.53Zm26.55,247.39c-.93.07-1.93-.79-1.54-1.76-.07-.93.78-1.94,1.75-1.54a1.23,1.23,0,0,1,1.51,1.28C277.15,575.87,276.76,576.84,275.82,576.92ZM263.05,349.55a4.84,4.84,0,0,1-2.11,3c-1.83.61-2.84-.25-3.88-1.57-2.12-3.12-3.35-6.77-4.65-11.36,6.49-1,7-1,6.43,4.18-.32,1.9-.21,3.3,1.69,3.62C262,347.76,263.4,348.11,263.05,349.55Zm-4.13-40.48c-.54-.89.35-1.43,1.75-1.54a1.5,1.5,0,0,1,1.51,1.29c0,.46-.86,1-1.33,1C260,310.4,259,310,258.92,309.07Zm23.82,248.54a1,1,0,0,1-1.47-.82c-.69-2.76-1.34-5-2-7.81a3.62,3.62,0,0,0,1.83-.62A15.79,15.79,0,0,1,284,556.1,1.24,1.24,0,0,1,282.74,557.61ZM276,365.41c-.56,4.73.7,8.85,1.07,13.51C273,374.56,274,369.78,276,365.41Zm3.33,36.31c-2.12-3.12-3.31-6.3-1.77-10.65,7,5.55,4.72,12.29,5.23,18.82a4.19,4.19,0,0,1-.28,2.37c-.82,1.47,1.69,3.61-1,5.23l-1-.39c-2.05-2.18-2.7-4.48-1.95-6.88.43-.5.39-1,.86-1C282.09,406.66,281.44,404.37,279.35,401.72Zm16.16,103.77c-4.23-.14-6.48,1-9.36.27C290.05,501.7,290.05,501.7,295.51,505.49Zm.24,8.89c-.4,1-1.26,2-2.22,1.58a2.88,2.88,0,0,1-1.19-3.19c.42-.5.82-1.47,1.32-1A2.58,2.58,0,0,1,295.75,514.38Zm-2.42,28.8c-1.58-2.22.24-2.84,1.1-3.84,2.58-3,3.29-5.89,1.13-9.47-1.55-1.75-2.16-3.58.49-5.67,3.16,4.44,4,9.53,5.84,14.55.65,2.29-.64,3.8-3,4C297.05,542.88,295.26,544,293.33,543.18Zm13,9.76c.18,2.33-.6,4.27-3.4,4.49-3.26.26-4.3-1.07-4.71-6.19.32-1.91-.87-5.09,2.86-5.39C303.84,545.63,306.46,549.17,306.29,552.94Zm27.51,21.75c-1.33,1-2.41-.75-3.34-.68-6.67-1.35-8.9-5.86-8.95-12.42a19.7,19.7,0,0,0-2.42-6.85c-1.22-3.65-1.22-3.65.7-9,3.09,3.51,3,8.2,4.65,11.36,3.17,4.44,3.18,10.53,8.56,13.39C334,571.39,335.08,573.18,333.8,574.69Zm57.47-38.3c-1.4.11-1-1.33-1.62-2.69,0-.46.36-1.43.82-1.47,1.4-.11,1.94.79,2,2.18C393.06,535.31,392.67,536.28,391.27,536.39Zm6.38,33.26c-.9.54-1.48-.82-1.55-1.75.21-3.3-2.84-6.35-.42-11.23a74.72,74.72,0,0,1,3.65,10.5C399.87,568.07,399,569.54,397.65,569.65ZM409,553.28c-2.41-.75-2.59-3.08-3.17-4.44s-.65-2.3.75-2.41a1.71,1.71,0,0,1,2.4.75C411,548.9,411.2,551.23,409,553.28Zm.14-16c.54.9-.35,1.44-1.71,2-3.17-4.44-3.11-9.6-3-14.3-.07-.93.36-1.43,1.25-2,.94-.08,1.48.82,2,1.71.51.44,1.05,1.33.62,1.83C407.21,530.44,408.4,533.63,409.16,537.32Zm4.21-47.69c-.54,16.92-8.26,26-29.09,29.49-12.47,2.39-25.13,2.45-37.71,3.44l-36.82,2.91c-5.13.4-5.59.44-6-4.69-1.28-16.31-2.14-33.12-3.89-49.4-.3-3.73,1-5.23,4.72-5.53l38.68-3.05c11.18-.88,21.94-1.26,33.09-2.61,6.49-1,12.69.4,18.93,2.26C408.78,467,413.63,475.07,413.37,489.63Zm-99.62-62a3.59,3.59,0,0,1,1.94.79c.69,2.76-1.57,3.87-3.86,4.52C310.67,430.2,311.5,428.73,313.75,427.61Zm9.8,5.33c.9-.55,2.19-2.05,3.69-.77,1.12,2.26-.67,3.34-2,3.92-1.33,1-3.58,2.16-4.66.36C319.43,434.2,322.19,433.51,323.55,432.94Zm78-4.28c1.37,5.52,2.75,11,6,16.41,2.2,4.05,1.6,8.31,1.54,13.48-3.92-2-5.57-5.19-5.76-7.52,0-6.1-3.71-11.43-3.72-17.53-.26-3.26-1.92-6.41-4.11-10.46C399.73,423.64,400.84,425.9,401.53,428.66Zm-2.4-18.57c2.62,3.55,3.31,6.3,3.21,11C399.68,417.08,398.1,414.86,399.13,410.09Zm-3.46-8.17c-3,4-6.44,7.55-12.68,5.69-1.94-.78-4.23-.13-6.56.05l-76,6c-3.69.75-5.2-.53-5.53-4.73-.49-12.15-1.95-24.7-2.94-37.28-1-12.12-1.45-24.27-2.87-36.35-.29-3.73,1-5.24,4.72-5.53l64.78-5.12c12.16-.48,23.6,1.89,34.05,9.51,5.49,4.26,9.66,9.56,11.11,16C407.54,368.16,406.61,386.05,395.67,401.92Zm36.26,150.49c0,.46-.36,1.43-1.33,1a1.25,1.25,0,0,1-1.51-1.29,10.08,10.08,0,0,1,1.2-8.53C432.42,546.74,432.17,549.58,431.93,552.41ZM411.86,304c-1.5-1.29-2-1.25-2-1.71-1.08-1.79.53-5.2-2.81-5.88-3.84-1.1-.6,4.27-4.33,4.56.21-3.3-.51-6.52.2-9.39,1.22-2.44,5-2.27,7.67-3.89A32.31,32.31,0,0,1,411.86,304Zm5.82,2.36a2,2,0,0,1,1.71-2c1.9.31,2.91,1.17,2.59,3.07,0,.47.15,1.87-1.25,2C418.83,309.12,418.25,307.76,417.68,306.4Zm3.9,13.76c.46,0,.53.89,1,1.32-.36,1.44-.75,2.41-2.11,3a10.14,10.14,0,0,1-.61-1.82C419.78,321.24,420.18,320.27,421.58,320.16Zm9.55,8.16c.91,5.55,3.14,10.06,3.58,15.66-2.38-6.38-8-6.41-13.28-7.87C426.05,335.28,430.17,334,431.13,328.32Zm-5.68,29.05c-1-1.33-1.66-3.15-.37-4.66.43-.5,1.36-.58,1.79-1.08a33.34,33.34,0,0,0,4.81,1.5c1.9.31,4.19-.34,3.91,2,.22,2.8-2.54,3.48-4.33,4.56C429,360.84,427,359.12,425.45,357.37ZM442,543.64c-1.69-3.62-.51-6.53-1.28-10.22C446.2,537.21,446.2,537.21,442,543.64Zm2.69-19.44a4.48,4.48,0,0,1-2,4.38.9.9,0,0,1-1.44-.36,5,5,0,0,1,0-5.63c.85-1,1.25-2,2.65-2.08C445,521.37,444.6,522.8,444.71,524.2ZM441,465.87c-.82,1.47.26,3.26-1.49,4.81-2.41-.75-3-2.58-3.63-4.4-.15-1.87.67-3.34,2.42-4.88l1.4-.12C441.72,462.54,441.4,464.44,441,465.87Zm-1.6-32.23c-.9.54-1.9-.32-2-1.25a3.13,3.13,0,0,1,2.08-3.45c.93-.07,1.9.32,1.93.79C441.62,431.59,441.3,433.49,439.44,433.64Zm-3.2-40.55c-.93.08-2.8.23-3-2.1-.15-1.87,1.61-3.41,3.43-4,2.26-1.11,2,1.25,2.95,1.65C439.86,391.4,438.57,392.91,436.24,393.09Zm.8-13.66c-.47,0-1-.39-1.44-.35-1.19-3.19-2.84-6.34-4-9.53a3,3,0,0,1,2.5-3.95c2.33-.18,1.55,1.75,1.66,3.15-.68,3.34,2.26,5,2.91,7.27C439.26,377.85,438.9,379.29,437,379.43Zm4.64-30.38a2,2,0,0,1,3.37,1.15c-.43.5-.9.53-1.83.61S441.75,350,441.68,349.05Zm6.53,23.41a2,2,0,0,1-1.62-2.69,1.59,1.59,0,0,1,.4-1,3.16,3.16,0,0,1,2.08,2.65Zm-1.59-44a2.57,2.57,0,0,1-2.09-2.65c.36-1.43.75-2.4,2.15-2.51s2,1.25,2.05,2.18C448.37,327,448,328.39,446.62,328.5Zm3.2,4.91c.36-1.44.75-2.41,2.61-2.55,1.47.82,1.12,2.25.72,3.22-.82,1.47,1.34,5.05-2,4.38C448.29,337.75,449.5,335.31,449.82,333.41Z"/><path class="cls-2" d="M528.05,411.13a57,57,0,0,0,31.11,10.26,143.3,143.3,0,0,0,47.75-5.12,42.58,42.58,0,0,0,25.22-19.84c1.63-3.38,1.85-3.94-1-6.14-4.66-4.24-9.07-8.76-14.23-12.41a24.48,24.48,0,0,1-6.38-5.45,3.59,3.59,0,0,0-1,.9c-4.76,8.22-11.39,13.34-21,15.45a67,67,0,0,1-19.34,1.79c-6.24-.32-12.31-1.73-17-6.77-4.11-4-5.61-9.3-7.1-14.59-1.46-4.75-1.19-4.77,3.65-5.16l78.77-6.21c1.63.14,2.11-.71,2.25-2.34.28-3.27,0-6.23.33-9.5a167.22,167.22,0,0,0-.63-28.62A87.48,87.48,0,0,0,626.06,299c-5.37-16.61-16-28-33.38-32.26-4.14-1-8.22-1.24-12-1.75a90.73,90.73,0,0,0-17.09-.55c-8.09.37-15.53,2-23.22,4A52.84,52.84,0,0,0,513.7,284c-7.2,8.15-10.47,18.14-12.09,28.55-1.77,11.77-.59,23.31.07,35.16a140.79,140.79,0,0,0,6.81,34.9C512.36,394,518,404.07,528.05,411.13Zm79.63-16c1.34-.11,1.18,1.26,1.51,2s.13,1.62-1,1.7c-.78.33-1.12-.45-1.18-1.26S606.64,395.73,607.68,395.11Zm-5.9,7.5c.55.22,1.11.45,1.15,1,.07.81-.14,1.63-1,1.43-.54,0-.85-.48-.92-1.28C601,403.21,601.26,402.92,601.78,402.61Zm-11.63.1a1,1,0,0,1,1.39.43,4.57,4.57,0,0,1,.64,1.31c-.2.82.13,1.61-.93,2-.53,0-.85-.47-.89-1a3.81,3.81,0,0,1-.66-1.57C589.66,403.29,589.88,402.73,590.15,402.71Zm-4.89,6.61a2.12,2.12,0,0,1,1,1.82c0,.54-.21.83-1,.89a1.92,1.92,0,0,1-.94-1.55C584.23,409.94,584.7,409.09,585.26,409.32ZM600,304.55c1.47,1.51,2.18,3.61,4.12,4.27-.94,1.7-2.22,2.61-3.65,1.64C598.18,309,599.91,307,600,304.55Zm2.4,9.82c1-.89,1.9.12,2.23.9.38,1.33,1,2.63.36,4.57-1.67-.67-2.32-2-3.21-3C600.9,316.11,601.63,315,602.39,314.37Zm16.45,2.76c.8-.06.87.74,1.18,1.26-.23.56-.45,1.12-.45,1.12-1.08.08-1.43-1-1.5-1.78C618,317.19,618.28,316.9,618.84,317.13Zm-9.09-26.07c.22-.56.16-1.36,1.28-.91.56.23.6.77.37,1.32a3.29,3.29,0,0,0,.61,4.28c1.72,1.22,1.31,2.88.36,4.58C611.6,297.41,608.16,295,609.75,291.06ZM612,305.77c-1.55.93-2.56,1.82-4,.31C609.24,305.17,610.33,305.36,612,305.77Zm-4.66-21.28a3.47,3.47,0,0,1,.53,3.21c-.25.29-.52.31-.83-.21C606.16,286.75,606.08,285.67,607.33,284.49Zm.38,46c-.51.31-1.07.08-1.65-.41-.62-1-1.54-2.31-2.18-3.62a1,1,0,0,1,.43-1.38,1.27,1.27,0,0,1,1.64.14,13.45,13.45,0,0,1,2.44,3.59A1.62,1.62,0,0,1,607.71,330.45ZM602,295.73c2,1.74,1.15,4.24,2.14,6.6-2.5-.89-4.18-1.57-6.12-2.22l-.09-1.08A5.64,5.64,0,0,0,602,295.73Zm-6.29-11.13c0-.54.5-.58.77-.61a1.4,1.4,0,0,1,1.18,1.26.72.72,0,0,1-.75.87C596.09,285.92,595.51,285.42,595.71,284.6Zm-63.1,98.58c-.54,0-1.39-.44-1.43-1,.21-.83,1-1.16,2.07-1.25a1.17,1.17,0,0,1,1.16,1A1.82,1.82,0,0,1,532.61,383.18ZM529,334c.44,2.13.81,3.46.4,5.11C527.1,337.35,527.1,337.35,529,334Zm2.76,38.47a2.76,2.76,0,0,1,1.72,1.22,1.27,1.27,0,0,1-1.24,1.45c-.82-.21-1.38-.43-1.2-1.53C531,373,531.25,372.73,531.76,372.42Zm7.39,35.4c-1.32.37-1.94-.66-2-2a2.57,2.57,0,0,1,1.11-3.07,2.46,2.46,0,0,1,2.64,2.5C541,406.59,540.77,407.69,539.15,407.82Zm8.33-4.18c2.39,2.79,3.47,6.22,4.3,9.95a1.19,1.19,0,0,1-.68,1.67c-1.05.36-1.9-.12-2-.93C548.57,410.59,547,407.2,547.48,403.64ZM546,344.24c-.45,1.12-.61,2.49-2.25,2.34-.27,0-.31-.51-.31-.51-.13-1.61.88-2.51,2.77-2.66C546.29,344,546.31,344.22,546,344.24Zm3.36,4.88c-.54,0-1.34.1-1.41-.7s.73-1.14,1.24-1.45a.8.8,0,0,1,1.14.72C550.46,348.76,549.94,349.08,549.4,349.12ZM589.21,353c-2.66-2.77-2.37-6-3.19-9.49C588.34,345.5,589.47,349.47,589.21,353Zm-1-74.85c-.48-2.67,1.69-2.57,3-3s1.72,1.22,1.81,2.3a31.73,31.73,0,0,1,.67,5.08c.06.81-.14,1.64-1.24,1.45-1.07.09-2.19-.36-1.76-1.75.21-.83,1-1.7-.42-1.86-.82-.21-.7,1.41-1.8,1.22A15,15,0,0,0,588.17,278.16Zm-10.41,8.66c2.26,1.18,2.68,3,2.58,5.21,0,.54-.21.83-1,1.16a1.16,1.16,0,0,1-1.16-1C577.23,290.38,578.45,288.66,577.76,286.82ZM575.31,273c.54,0,1.35-.11,1.66.41.89,1,2.36,2.52,1.12,4-1.5,1.47-.86,2.77-1.23,5-2.09-2.54-1.76-5.28-2.49-7.65C574,273.86,574.8,273.26,575.31,273Zm-5.19-.67c1.35-.11,1.7.94,1.78,2a1.91,1.91,0,0,1-1.42,2.55c-1.1-.19-1.43-1-1.51-2.05S569.07,272.63,570.12,272.28Zm-19.64,15.07c3.12-1.6.53-3.56.13-5.15a1.65,1.65,0,0,1,2.16-.17c1.11.46,1.22,1.8,1.3,2.88.44,2.13-.53,3.55-2.12,3.95a1.4,1.4,0,0,1-1.12-.45A.67.67,0,0,1,550.48,287.35Zm-9.69-2.75c-.45-2.4-1.45-4.75-.57-7.26a4.91,4.91,0,0,1,2.22,4.15c.3,3.77,1.65,7.18,1.12,10.74a9.26,9.26,0,0,0,.57,3.74c.15,1.88.15,1.88-2.75,2.92C542.61,293.93,541.42,289.15,540.79,284.6Zm-.91,29.56c1.66-9.87,9.84-15.93,18.69-16.89l10.48-.83c11.36-.09,20.49,6,22.29,18.53.7,5.35,1.64,10.42,1.26,15.86-.54,3.56-.27,3.54-4,3.84l-45.44,3.58c-3,.23-3.22.25-3.46-2.7C539.37,328.27,538.55,321.3,539.88,314.16Zm-6.57,23c.24-.29.8-.06,1.36.17,1.45,1.23,1.27,2.33,0,3.51-.31-.52-.58-.49-.6-.76C533.46,339,532.32,338.29,533.31,337.13ZM537,401a1,1,0,0,1-1.39-.44c-.29-.24-.58-.49-.08-1.07.74-.87.34-2.46,1.87-3.67C539,398.63,538.81,400,537,401Zm-.57-7.26c0,.26-.52.31-.54,0-1.45-1.24.12-1.91,0-3C536.54,391.79,537.16,392.83,536.42,393.7Zm-3.49-27.05a1.16,1.16,0,0,1-1,1.16,1.37,1.37,0,0,1-1.18-1.26c.1-2.17-.09-4.59,1.06-7.12C534.45,361.93,532.76,364.5,532.93,366.65Zm-2.62-36.59c.87.75.38,1.33-.12,1.91a1.31,1.31,0,0,1-2.19-.37,3.34,3.34,0,0,1-.52-3.21C528.82,328.29,529.44,329.32,530.31,330.06Zm-4.54-16.41c1,1.82,0,3.78.43,5.38C525.51,317.19,524,315.68,525.77,313.65Zm-9.93-12.74c.54-.05,1.37.16,1.39.43.25,3.22,3.38,5.14,2.6,9-2.63-2.5-3.65-5.12-4.94-7.73C514.56,301.82,515.06,301.24,515.84,300.91Z"/><path class="cls-2" d="M653,400.46c8.83,9,19.88,12,31.77,11.83a181.74,181.74,0,0,0,21-1.65c11.23-1.7,21.17-6,28.87-14.72,1-1.17,1.69-2.57,3.8-3.28l.7,8.87c.27,3.5.27,3.5,3.5,3.24l30.92-2.44c1.61-.12,2.38-.73,2.23-2.61A61.79,61.79,0,0,0,774.7,393c-1.47-11.78-2.94-23.57-3.88-35.4C769.28,341.51,768,325.11,767,309a136.62,136.62,0,0,0-3.45-23.26c-3.86-14.58-12.24-24.74-26.66-29.28-7.22-2.41-14.59-3.18-22.18-3.39-14.6.07-29.16.67-43.12,5.56-6.57,2.42-12.85,5.07-18.18,9.55-10.41,8.67-13.55,20.28-13.07,33.23a141.05,141.05,0,0,0,1.73,15c.87,4.26.05,4.05,4.62,3.69,5.39-.15,11-.87,16.4-1.29l18.28-1.44-.62-7.8c-.21-2.69-.15-5.4-.1-8.11.47-7.88,5.17-13.39,12.86-15.35a47.86,47.86,0,0,1,16.42-1c6.54.56,11.9,3.39,14,10,3.5,10,4.57,20.2,5.38,30.41.17,2.16-.88,2.51-2.5,2.64-2.69.21-5.13.13-7.81.34-12.91,1-25.59,1.48-38.32,4.65-7.45,1.67-14.6,3.59-21.33,7.36-8,4.42-13.49,10.8-14.94,19.85a66.21,66.21,0,0,0,1.6,27.19A31.84,31.84,0,0,0,653,400.46ZM745.58,384c-.52.31-1.35.1-1.39-.43-.56-3.75-4.27-6.16-4.05-10.23a1.42,1.42,0,0,1,1.48-1.74c.09,1.07,0,2.71,1.09,3.43,2.59,2,2.3,5.23,3.3,7.58C746.32,383.09,746.12,383.92,745.58,384Zm-4.71-18.57c2.52,1.16,2.4,3.06,2.53,4.67-.18,1.1-.7,1.41-1.51,1.48A25.78,25.78,0,0,0,740.87,365.39Zm-.13-77.08c-.83-.21-1.43-1-1.2-1.53.45-1.12.34-2.47,1.66-2.84.88.74.42,1.86.75,2.65C742,287.66,741.83,288.49,740.74,288.31Zm14.87,106.22c-.81.06-.87-.74-.89-1,0-.54-.38-1.33.72-1.14.54,0,.85.47.91,1.28C756.39,394.2,756.13,394.22,755.61,394.53Zm.28-6.78c0,.53.1,1.34-.7,1.4-.85-.47-1.43-1-1.25-2.06,0-.54.47-.85,1-.89C756.05,386.38,755.84,387.21,755.89,387.75Zm-.66-8.34a1.25,1.25,0,0,1-.7,1.41c-.81.06-1.12-.45-1.43-1,0-.54-.35-1.06-.13-1.61-.06-.81.12-1.91.91-2.24s1.41.7,1.53,2.31A1.62,1.62,0,0,1,755.23,379.41Zm-5.18-69.11c2.65,2.76,1.31,6.38,2.37,9.55C750.12,318.13,749.59,318.18,750.05,310.3Zm2.08,16.06a44,44,0,0,0,3.49,10c1.62,3.38,1.42,7.73,1.18,11.53-.37,2.2-1,4.41-.81,6.83.1,1.35-.37,2.2-2,1.79-1.09-.19-1.94-.66-1-2.36,1.94-2.86,1.72-9.06.92-12.25-.85-4-2.76-7.62-2.85-12.22a12.22,12.22,0,0,0-4.13-7.78C750.15,321.92,751.4,324,752.13,326.36Zm-5.51-32a1.16,1.16,0,0,1,1.16,1,1.49,1.49,0,0,1-1.28.92.87.87,0,0,1-.87-.75A1.18,1.18,0,0,1,746.62,294.33Zm-10.27-17c1.26-1.18.29-3.27,1.57-4.18,1.26-1.18,2.52,1.15,4.13,1,1.08-.08,2.42-.19,2.26,1.18-.43,1.39-1.55.93-2.64.75-1.91-.12-2.94.5-3.33,2.42a1.16,1.16,0,0,1-1.84.69C735.94,278.94,735.86,277.87,736.35,277.29Zm5.2,79.66c1.1.19.92,1.28,1,2.09-.21.83.42,1.86-.59,2.75a1,1,0,0,1-.83-.2,3,3,0,0,1-1-2.9C740.27,357.87,740.46,356.77,741.55,357Zm-6.09-39.55c.78-.34,1.61-.13,1.65.41.07.8-.7,1.41-1.75,1.76-.27,0-.58-.5-.85-.48A1.53,1.53,0,0,1,735.46,317.4Zm.53,27.28a2.05,2.05,0,0,1-1,.62,1.55,1.55,0,0,1-1.22-1.8,3.83,3.83,0,0,1,1-.89A3.38,3.38,0,0,1,736,344.68Zm-8.72-76.14a1.47,1.47,0,0,1,.92,1.28l-.23.56a1,1,0,0,1-1.16-1C726.78,269.12,726.74,268.58,727.27,268.54ZM664,276.23c.06.81-.7,1.41-1.49,1.74-.76.6-1.36-.16-1.67-.68-.63-1-1.52-2-1.09-3.43,1.33-.38,1.72,1.22,3.07,1.11C663.39,274.93,664.24,275.4,664,276.23Zm9.15,16.59a1.27,1.27,0,0,1-.14,1.64c-2-1.2-2.4-3.06-2.55-4.94.16-1.37.88-2.51.51-3.83a.71.71,0,0,1,.74-.87c.81-.06.85.47,1.16,1a2.1,2.1,0,0,1-.16,1.37C671.55,289.16,672.24,291,673.19,292.82Zm5.66-3.69c-.8.06-1.14-.72-1.2-1.53a1.24,1.24,0,0,1,1.28-.91c.54-.05.6.76.91,1.28C679.62,288.53,679.39,289.09,678.85,289.13Zm19-9.35a1.84,1.84,0,0,1-2.35,1c-1.39-.43-.65-1.3-.17-2.15.68-1.68.68-1.68.2-4.34a2.61,2.61,0,0,1,2.61,2.22C698.23,277.59,698.61,278.91,697.86,279.78ZM683.14,398.35c-.62-1,.43-1.38,1-1.69,1.75-1.77,2.12-4,.92-5.49-2.36-2.52-.65-4.82.5-7.34.31.51.89,1,.67,1.57a34.22,34.22,0,0,0,2.33,9c1,2.36.25,3.23-1.89,3.4C685.29,398.18,684.28,399.07,683.14,398.35Zm6.32,8.16c-1.59.4-3.08-1.38-3-3.28-.13-1.62.62-2.49,2-2.59,1.61-.13,3.11,1.65,3.23,3.26C691.55,405.53,690.81,406.4,689.46,406.51Zm1.81-49.11c9.51-2.91,19.19-3.67,28.91-3.9a53,53,0,0,1,9,.38c1.63.14,2.48.61,2.61,2.22,1.26,9.1-1.73,15.83-9.5,20.23a29.22,29.22,0,0,1-13.19,4.29c-4.3.34-8.58.94-13.17,1a10.6,10.6,0,0,1-4.07-.22c-6.38-1.94-8.49-4.74-8.78-11.76C682.56,363.5,685.19,359.24,691.27,357.4Zm-13.08-4.65a9.14,9.14,0,0,0,1.48-5.25c0-.54.45-1.12,1-.89.27,0,1.12.45,1.16,1-.08,2.44-.17,4.61-.25,7,.06.81-.75.87-1.55.93C678.69,355.69,677.2,353.91,678.19,352.75Zm-3.06,43.53c.79-.33,1.1.18,1.14.72.31.52.09,1.08-.45,1.12a1,1,0,0,1-1.16-1C674.64,396.86,674.86,396.3,675.13,396.28Zm-25-29.14c.95-1.7-.57-3.74.9-5.75a46.51,46.51,0,0,1,4,16.73,33.48,33.48,0,0,0,1.11,7.21,1,1,0,0,1-.43,1.39c-.78.33-1.1-.18-1.41-.7-.64-1.3-1.8-2.29-1.66-3.93.33-2.73-1-5.33-2-7.69S648.69,369.69,650.11,367.14Z"/><path class="cls-2" d="M897.41,302.46c-.81.06-1.3.64-1.22,1.71.06.81.37,1.33,1.45,1.24s1.3-.64,1.26-1.18C898.79,302.89,898.48,302.37,897.41,302.46Z"/><path class="cls-2" d="M879.34,289.54a44.35,44.35,0,0,1,1.78,8.79l7.17,90.87c.32,4,.32,4,4.35,3.72l31.19-2.46c4-.32,4-.32,3.71-4.35l-6.81-86.31a39.57,39.57,0,0,1-.17-5.66c-.5-9.7-2-19.05-6.26-27.91-3.95-8.89-10-16.53-19.22-20.67a53.39,53.39,0,0,0-19.86-4.93c-2.73-.32-5.4.16-8.09.37-9.45.21-18.86.95-27.73,5.16-5.21,2.58-10.1,5.67-13.79,10.29-2.48,2.9-3.86,6-6,9.94-.74-5.89-1.68-11-2.35-16-.17-2.16-1-2.9-3.17-2.46l-28.77,2.27c-3.22.25-3.22.25-3,3.75l.09,1.07a275,275,0,0,1,4.76,32.9c2.81,32.24,5.38,64.77,7.94,97.31l1,12.63c-.1,2.17.75,2.65,3.17,2.46l33.07-2.61c2.15-.17,3.18-.79,2.74-2.92a13,13,0,0,1-.25-3.23c-2.16-27.42-4.33-54.85-6.76-82.25a80.31,80.31,0,0,1,.16-11.64c.38-9,4.17-15.75,12.83-19.14a40.88,40.88,0,0,1,11.17-2.5c3.47-.55,6.76,0,10.3.27C870.8,277.23,876.78,281.09,879.34,289.54ZM908,377.91c-1.9-.12-2.53-1.15-3-3.28.81-.06,1.08-.08,1.1.18,1.12.46,2.75.6,2.61,2.23A.71.71,0,0,1,908,377.91Zm9.78-23.49c-1.72-1.22-2.08-2.27-.3-3.77A3.25,3.25,0,0,1,917.74,354.42Zm-7.4-69.76c1.76,1.76,1.64,3.66.18,5.67C907.84,287.29,907.84,287.29,910.34,284.66Zm-5.42-.11a1,1,0,0,1-.83-.21c-1.14-.72-.66-1.57-.48-2.66.25-.29.23-.56.46-1.12.31.52.6.76.91,1.28A2.49,2.49,0,0,1,904.92,284.55Zm-1.86-9.86c1.8,2.29,1.8,2.29.09,4.59A4.66,4.66,0,0,1,903.06,274.69ZM890.31,257c3.37,1.62,4,2.12,3.05,4.36-.64,2.21-2.37,4.24,1,5.87l0,.27c-1.77,1.49-1.15,2.52,0,3.78a9.34,9.34,0,0,1,2,4.45c.9,4.52,3.1,8.41,3.73,13,.38,4.84,1.82,9.32,1.93,14.18-.14,1.64.23,3-1,4.68-1.24,1.45,0,3.51,1.21,5,1.14.73,2,1.74,1.33,3.14-1.86.42-1.74-1.48-2.61-2.22-.58-.5-1.16-1-2-.66-1,.35-.43,1.38-.37,2.19a3.38,3.38,0,0,0,.4,1.59c1.2,1.53,1.82,2.56-.22,4.08-.76.6-.39,1.92.73,2.38.85.47,1.67.67,2.52,1.15,1.41.7,2.45.08,2.32-1.54a5.93,5.93,0,0,0-.17-2.15c0-.53.2-.82.72-1.14a1,1,0,0,1,1.16,1,12.85,12.85,0,0,0,2.16,6.87c.05.53.11,1.34.67,1.57,2.28,1.44,2.38,2.79,0,3.78.66,1.57,2,1.2,2.83,1.67,2,.93,2.08,2.28,1.17,4.51-.45,1.12-.37,2.19-.82,3.31-.2.83-1,.89-1.82,1a1.49,1.49,0,0,1-.91-1.29l-.21-2.68c-.15-1.89-.5-2.94-2.24-.91-1,.89-1.34.11-1.41-.7-.33-.79.17-1.37.64-2.21,2-2.59.4-5.18-.08-7.84,0-.54-.58-.5-1.11-.46a1.26,1.26,0,0,0-.75.87,7.78,7.78,0,0,0-.08,2.45c.09,1.07.71,2.1-.28,3.26a1,1,0,0,1-1.16-1c-.33-.78-.42-1.86-1.49-1.77s-1.51,1.47-1.16,2.52a37,37,0,0,1,1.7,7.71c.08,1.08.89,1,1.45,1.24,2.21.64,3.68,2.15,5.9,2.78,3.29.56,3.05,4.36,5.1,6.36.29.25-.19,1.1-.7,1.41-.77.6-1.1-.18-1.68-.68-.89-1-.73-2.37-1.37-3.68a2.75,2.75,0,0,0-3.15-2.18c-1.86.41-2.36,1-2.48,2.9a14.07,14.07,0,0,1-.71,4.65c0,.54-.19,1.1-.14,1.64.12,1.61,2.07,2.27,1.68,4.19a5.29,5.29,0,0,0,.32,4c1.16,1,2.06-1.25,3.25,0-.12,1.9-3.15,1.33-3,3.48.42,1.86,2.08,2.27,3.24,3.26.56.23.6.77,1.18,1.26.6.77,1.76,1.76.5,2.94s-1.9-.12-2.53-1.15a1.8,1.8,0,0,0-1.69-.95c-3-.84-4.85-3.14-4.3-6.43.8-3.58-.26-6.74-1.32-9.9-.4-1.59-.77-2.92.47-4.37a3.64,3.64,0,0,0-.34-4.3c-2.72-3.57-2.79-7.89-2.57-12a6.9,6.9,0,0,0-.59-4,15.85,15.85,0,0,1-1.21-5.05c-.9-8-2.63-16.29-3-24.65-.11-1.34-1.56-2.58-1.15-4.23.79-.34,1.08-.09,1.39.43.91,1.28,2,2,3.33,1.09a2.75,2.75,0,0,0,1.36-3.35,23,23,0,0,1-1.56-6.1A1.46,1.46,0,0,0,896,288.5c-1.1-.19-1,.62-1.24,1.45.08,1.07.44,2.13-.84,3-1.19-1.26-1.6-3.12-2-5-.5-2.94.36-5.71-1-8.58,0-.27-.08-1.08.19-1.1,3.3-2.69.4-5.17-.35-7.82a22.09,22.09,0,0,0-.83-3.72C889.2,263.61,890.87,260.77,890.31,257Zm-5.76-.9c.54,0,1.31-.64,2.18.1.06.8-.73,1.14-1,1.7-.77.6-1.28.91-1.88.14-.29-.24-.58-.49-.6-.76C882.94,256.26,884,256.17,884.55,256.13Zm-21.26,1.4c-.64-1.3-1.55-2.58-1.12-4,.16-1.37.57-3,1.88-3.67,1.59-.39,2,1.74,3.43,2.44.46-1.12-1-1.82-.21-2.69,1-.89,1.88-.15,2.75.59a4,4,0,0,1,1.31,2.87c.36,1.06.69,1.84,1.52,2,1.09.18,1.55-.94,1.77-1.49.5-.58.72-1.14,1.53-1.21,2.09,2.54-.09,5.69,2.27,8.21a2.19,2.19,0,0,1-2.57-1.69,3.82,3.82,0,0,1-1.16-1c-3.08,2.14-3.62-1.34-5.32-2.29-2-1.19-3-.84-2.6,1.29.5,2.94-3,3.21-3.36,5.41,0,.53-.79.33-1.08.08a3.81,3.81,0,0,1-.66-1.57C861.27,259.32,864.27,259.62,863.29,257.53Zm-42.63,63.16a1.77,1.77,0,0,1,1.43,1c.09,1.08-.16,1.37-.94,1.7a1.7,1.7,0,0,1-1.72-1.21A1.26,1.26,0,0,1,820.66,320.69ZM810.27,381c.09,1.08-.12,1.9-1.19,2-.81.06-1.14-.72-1.21-1.53l0-.27c.57-6.54-2.83-11.95-3.32-18.13-.45-5.65-.89-11.29-1-16.69,0-6.77-.5-13.22-2.87-19.25-1.7-4.47-2.08-9.31-3-13.84-1.23-5.31-1.66-10.69-2.62-16-.13-1.61-.81-3.45.67-5.2,2.28,1.45,2.16,3.35,2.31,5.23.47,5.92,2,12,3.06,18.16,1.52,9.08,4.1,17.8,4.85,27.21l.15,1.88c-1.07,7.12,1.1,14,1.38,21a12.15,12.15,0,0,0,1.5,5.3C810.28,374.26,810,377.79,810.27,381Zm-4.45-90.82c-.2-5.93-2.22-10.91-3.18-16.25C806.1,276.66,808.21,286.23,805.82,290.2Zm5.83,43.1c-1.16-1-1-2.09-.88-4.26C812,330.84,813.16,331.83,811.65,333.3Zm-.17-22.71c-.2.83-.7,1.41-1.53,1.2-.54,0-.87-.74-.64-1.3.14-1.64-.84-3.72.65-5.46C811.45,306.8,812.41,308.62,811.48,310.59Zm5.85,50.12c-.79.34-1.12-.45-1.43-1a1.79,1.79,0,0,1,1-1.42c.54-.05.85.47,1.16,1A1.47,1.47,0,0,1,817.33,360.71Zm8.57,12.58a27.79,27.79,0,0,0-3.07-1.11A97.77,97.77,0,0,0,822,354.4a3.87,3.87,0,0,1-.66-1.57c.22-.56.7-1.41,1.23-1.45,1.06-.36,1.12.45,1.45,1.23,1.21,5.05,2.69,10.07,2.83,15.2C827,369.69,827.36,371.29,825.9,373.29Zm-1.13-89.72c-.23.56-.43,1.39-1.24,1.45a1.37,1.37,0,0,1-1.18-1.26c-.75-2.65-1.52-5.56-.14-8.65C824,277.68,825.59,280.26,824.77,283.57Zm25-26.59c-1.32.38-1.67-.68-1.76-1.75s.68-1.68,1.76-1.76c1.09.18,1.67.68,1.74,1.48A1.7,1.7,0,0,1,849.72,257Z"/><path class="cls-2" d="M895.78,285.27a1.23,1.23,0,0,0,1-1.43c-.33-.78-.42-1.86-1.76-1.75-1.08.08-1.28.91-1.2,2C894.13,284.86,894.73,285.62,895.78,285.27Z"/><path class="cls-2" d="M959,383.62A69.42,69.42,0,0,0,986.13,388c5.66-.18,11.13.47,16.77,0,6.45-.51,12.57-1.81,18.71-2.83a57.59,57.59,0,0,0,23.9-9.19c10-6.48,15.52-15.83,16.47-27.81.71-8.17-.44-15.93-2.45-24.16-3.06-11.39-10.08-18.14-21.38-20.76a71.4,71.4,0,0,0-24-1.9c-6.72.53-13.73.81-20.45,1.34a24.6,24.6,0,0,1-6.52-.3c-4.94-1-9.19-3.33-11-8.6-1.75-5-3.22-10-2.82-15.2.42-8.42,5.35-14.49,13.1-15.64a90.55,90.55,0,0,1,19.09-1.5c7.88.46,14.43,4.54,16.12,12.25a53.77,53.77,0,0,1,.77,13.2c-.08,2.44.23,2.95,2.38,2.78,10.78-.58,21.51-1.69,32-2.52,1.63.14,2.4-.46,2.51-2.36.68-5.2,1.33-10.66.35-16.26a66.57,66.57,0,0,0-1.09-6.95c-1.57-9.61-5.44-17.43-13.72-23a53.38,53.38,0,0,0-14.55-6.16c-9.4-2.51-18.89-2.84-28.35-2.63a106.2,106.2,0,0,0-41.53,8.41c-16,6.94-24.46,19.25-25.54,36.37-.68,12,1.82,23.12,5.92,33.89,6.44,16.54,20.36,24.91,37.65,24.63a184.23,184.23,0,0,0,24.55-.86,47.29,47.29,0,0,1,15.21.7c5.48.92,7.91,4.24,7.52,9.68a11.43,11.43,0,0,1-6.49,10.25c-2.6,1.29-4.94,2.56-7.63,2.77-8.87.7-17.41,2.18-26.12,1.52-9.54-.87-17.92-4.27-24.18-11.62a3.92,3.92,0,0,0-2.59-2c-5.9,7.5-11.78,15.27-17.66,23a2.11,2.11,0,0,0,.23,2.95A33.74,33.74,0,0,0,959,383.62ZM1040.9,273c-1.76-1.75-1.91-3.63-1.56-6.1C1042.19,268.85,1042.32,270.47,1040.9,273Zm-4.29-23.47c.52-.31.83.21,1.14.73.4,1.59.8,3.18.12,4.86-2-1.2-1.6-3.12-2.25-4.43A1.15,1.15,0,0,1,1036.61,249.54Zm-1.51,18.52c1.18,1.26,1,2.62-.24,3.81-1.7-.95-2.08-2.28-1.1-3.71A.76.76,0,0,1,1035.1,268.06Zm-2.41-13.34c.34.79.4,1.59.73,2.38,0,.54-.18,1.1-.14,1.63-.22.56-.72,1.14-1.28.92-.27,0-.83-.21-.85-.48a21.53,21.53,0,0,1-1.64-3.66,1.72,1.72,0,0,1,1.2-2C1031.49,253.19,1032.36,253.94,1032.69,254.72Zm-4.61-10.45c2.57,1.69,2.74,3.84,2.44,6.84A8.56,8.56,0,0,1,1028.08,244.27Zm-7,4.33a2.94,2.94,0,0,1,2.36,2.52c0,.54-.45,1.12-1,.89a2.86,2.86,0,0,1-2.34-2.25C1019.82,249.24,1020.34,248.93,1021.12,248.6ZM1013,252c-.12,1.9,1.12,4-1.15,6-.54-3.47-.78-6.43-1.82-9.33C1011.69,249.08,1013.1,249.78,1013,252Zm-5.73-7.4c.93-2,.27-3.53.12-5.42.23-.55.18-1.09,1-1.42a2.19,2.19,0,0,1,1.4.7c.38,1.32,1.31,2.87.34,4.3-1.46,2-.77,3.85-.33,6C1006.19,247.89,1005.92,247.91,1007.27,244.55Zm-11-6.43c1.07-.08,1.41.7,1.47,1.51a7.68,7.68,0,0,1,.46,2.4,5.12,5.12,0,0,0,2,4.17,1.32,1.32,0,0,1,.94,1.55c-.21.83-1,.89-1.8,1.23a1.28,1.28,0,0,1-1.45-1.24,65.71,65.71,0,0,0-2.23-7.67C995.5,239.26,995.43,238.45,996.22,238.12Zm-51.29,25.42a1,1,0,0,1,.64,1.3c-.22.56-.2.83-.74.87a1.46,1.46,0,0,1-.91-1.28C943.87,263.89,944.37,263.31,944.93,263.54Zm-.54,10.32c.52-.31,1.08-.08,1.66.41a.72.72,0,0,1-.75.87.68.68,0,0,1-1.12-.45A1,1,0,0,1,944.39,273.86Zm-2.82,15.64a.81.81,0,0,1-.13-1.61c.54,0,.56.23.62,1A.53.53,0,0,1,941.57,289.5Zm5.25,11.76c-1.32.38-1.43-1-1.76-1.75-.08-1.08.1-2.17,1.44-2.28,1.08-.08,1.17,1,1.25,2.07C947.52,299.86,948.17,301.16,946.82,301.26ZM944.45,285c0-.54.19-1.1.46-1.12.53,0,.85.47.89,1a.72.72,0,0,1-.75.87C944.79,285.73,944.47,285.22,944.45,285Zm1.5-5a12.05,12.05,0,0,0-4.14-1c-.55-.22-1.13-.72-.66-1.57.21-.82.68-1.67,1.24-1.45,1.43,1,3.31.82,4.74,1.79a1.63,1.63,0,0,1,.35,1.06C947.28,279.59,946.8,280.43,946,280Zm44.69-37.07c.52-.31.56.23.85.47,0,.54-.18,1.1-.45,1.12-.54,0-.83-.2-.85-.47C989.88,243.49,990.12,243.2,990.64,242.89ZM982,239.78a1.49,1.49,0,0,1,1.7.95,2.05,2.05,0,0,1,.62,1c.11,1.34,1,2.35.57,3.74-3-.84-4.23-2.1-4.11-4A2.11,2.11,0,0,1,982,239.78Zm-4,7.09c4.1,4,4.1,4,9.43-.48,1.47,1.51-.66,2-.86,2.78-.48.84-.1,2.17-.87,2.77-1.32.37-2.48-.62-3.56-.53C978.06,251.46,978.06,251.46,978,246.87Zm-15.42,13.66c2.15,3.34,3.44,6,2.87,9-.23.56-.44,1.38-1.53,1.2-.54,0-.87-.74-.64-1.3C963.57,266.67,961.21,264.15,962.55,260.53Zm.48-7.62c1.29,2.61.07,4.33-.59,6.27C960.93,257.14,961.58,255.19,963,252.91Zm4,50.28a1,1,0,0,1,.65,1.3c-.23.56-.72,1.14-1.26,1.18-1.88.15-2.77-.86-3.44-2.43C964.47,302,965.63,303,967,303.19Zm-12.72-55a2,2,0,0,1,2.23.9,5.32,5.32,0,0,1,0,6.23c-1.71-1.22-2.15-3.35-3.09-4.9A1.6,1.6,0,0,1,954.27,248.2ZM958,261.42c0,.54-.41,1.66-1,1.43-1.37-.16-1.5-1.77-1.85-2.83-.31-.51.21-.82.72-1.14C957.56,259,957.91,260.08,958,261.42Zm-7.15,5.44c-1.07.08-1.88.15-2-.93,0-.27.21-.83.48-.85,1.07-.08,1.63.14,2,.93C951.66,266.52,951.14,266.84,950.87,266.86Zm4.89,34.51c-.52.31-1.39-.43-1.18-1.26a3.09,3.09,0,0,1,1.94-2.86c.51-.31.82.21,1.16,1C957.22,299.36,957.62,301,955.76,301.37Zm.22-10.84c-.26,0-.6-.76-.62-1a1,1,0,0,1,1-1.16c.54,0,.61.76.63,1C957,290.18,956.54,290.76,956,290.53Zm-.64-4.82c-.3-.24-.3-.24-.32-.51-.33-.79-.68-1.84.35-2.46.25-.3.54-.05.83.2C957.11,284.22,956.37,285.09,955.34,285.71Zm4.29-3.85c-1-2.63-3.61-4.59-3.33-7.86.15-1.63-1.33-3.14-1.74-5a2.39,2.39,0,0,1,1.92-3.12c.82.2,1.38.43,1.16,1-.66,1.94.72,2.37,1.62,3.38a2.07,2.07,0,0,1,.72,2.38c-1.42,2.55-.17,4.61,1.07,6.68l.94,1.55a1.49,1.49,0,0,1-1,1.7C960.52,282.87,959.94,282.37,959.63,281.86Zm4,33.23c1.26-1.18,2.52-2.36,1.84-4.2-.05-.54-.11-1.35.7-1.41.53,0,1.09.18,1.14.72a29.16,29.16,0,0,0,1.39,3.95C966.79,314.3,965.55,315.75,963.6,315.09Zm5.16,3.65c-.56-.23-1.37-.16-1.43-1a1.16,1.16,0,0,1,1-1.16,1.27,1.27,0,0,1,1.45,1.24C969.84,318.66,969.3,318.7,968.76,318.74Zm-1.2-32.37c-.54,0-1.1-.18-1.14-.72-.06-.81.45-1.12,1.26-1.18a1,1,0,0,1,1.16,1C968.64,286.29,968.39,286.58,967.56,286.37Zm.26-27.61a12,12,0,0,1,.21-7.59c1.53,2.31,1.21,5,1.94,7.42a1.16,1.16,0,0,1-1,1.16A1,1,0,0,1,967.82,258.76Zm2.6,9c-.89-1-.42-1.86.3-3,2-2.05,2.08-4.49,1.31-7.41-.83-3.72-1.13-7.48-2-11.47a6.13,6.13,0,0,1,.73-4.39c.68-1.68,2.32-1.53,3.25,0a4.6,4.6,0,0,1,.79,3.18,11.52,11.52,0,0,0,.53,6.72c.33.79.42,1.86-.66,1.95-1.59.39-2,1.51-1.64,3.1.68,1.84.58,4,3.07,4.63.26,0,.8-.06.84.47a19.06,19.06,0,0,1-3.55,3C972.4,265.43,972,267.36,970.42,267.75ZM997,326.25c-.14,1.64-1.22,1.72-2.56,1.83-4,.32-4.91-.42-4.69-4.5-.06-.81.14-1.63-.68-1.84-2-1.19-1.56-2.58-.59-4a1.85,1.85,0,0,0-.75-2.65c-3.11-1.65-3.09-4.89-3.35-8.12,5.69.09,7.43,1.58,7.34,7.27a65,65,0,0,0,.57,7.26c.13,1.61.77,2.91,2.66,2.76C996.51,324.13,997.11,324.89,997,326.25Zm4.26-.87c-.23.56-.21.83-.75.87-.51.31-.8.06-1.11-.45a5.39,5.39,0,0,1-.73-2.38c-.4-1.59-.26-3.23-1.19-4.78a1.31,1.31,0,0,1,.37-2.19c.78-.33,1.41.7,1.45,1.24.71,2.11,1.41,4.21,1.81,5.81Zm7.06-16.79c1.07-.08,1.41.7,1.49,1.78s-.1,2.17-1.44,2.27c-1.08.09-1.16-1-1.23-1.79C1007,309.77,1006.92,308.7,1008.27,308.59Zm4.05,10.23a6.45,6.45,0,0,0-.05,6.23c.27,0,0,.53.07.8a1.82,1.82,0,0,1-1.78,1.5,1.45,1.45,0,0,1-1.45-1.24,15.66,15.66,0,0,0-1.3-6.12,4.31,4.31,0,0,1,.37-2.2,2.32,2.32,0,0,1,2.61-1.28C1011.64,317,1012.77,317.7,1012.32,318.82Zm8.3,2.32c-1.85-2.83-2.47-7.38-.83-10.48C1020.63,314.38,1022.5,317.48,1020.62,321.14ZM1038,346a1.81,1.81,0,0,1,.64-2.21c.83.2,1.14.72,1.47,1.5.31.52,1.47,1.51-.1,2.18C1039,348.1,1038.36,347.07,1038,346Zm5,21.79c-1.35.11-1.7-.95-2-2l-.09-1.08c-.08-1.07-.17-2.15.89-2.5s1.67.68,2,1.47a4.38,4.38,0,0,1,.42,1.86C1044.21,366.35,1044,367.72,1043,367.8ZM1041.86,340a1.19,1.19,0,0,1,1-.89c.29.24.85.47.87.74a52.79,52.79,0,0,1,1,6.14C1042.22,344.6,1042.3,342.16,1041.86,340Zm6.84,7.84c1.07-.08,1.14.73,1.18,1.26s.38,1.33-.43,1.39a1.55,1.55,0,0,1-1.74-1.49A1.17,1.17,0,0,1,1048.7,347.87Zm-2.41,3.71c.06.81.15,1.88-1.18,2.26a2.89,2.89,0,0,1,0-3C1046,350.79,1046.51,351,1046.29,351.58Zm-13.88-28.39c.15-1.64-.52-3.21,1.32-3.9a4.05,4.05,0,0,1,4.14,1c.29.25.31.52.6.77a1,1,0,0,0,1.39.43c.78-.33.74-.87.43-1.39a28.77,28.77,0,0,1-.8-6.7c.81-.06,1.32-.37,1.37.16.5,2.94,1,5.61,1.48,8.54.4,1.6-1.17,2.26-1.63,3.38-.94,1.7-1.17,2.25-2.89,1-.83-.21-1.32.37-1.53,1.2.11,1.34.48,2.67,1.83,2.56,1.9.12,4.07.22,5.51-2.06,1.89,3.37-1.76,5-1.26,7.95-1.68-.68-1.76-1.76-2.1-2.54a1.45,1.45,0,1,0-2.62,1c0,.53.37,1.32.42,1.86.39,1.59,1.31,2.87.07,4.32-1.06-3.16-3.16-5.7-3.43-9.2C1034.47,328.71,1032.11,326.19,1032.41,323.19Zm-1.07,44.72c-.22.56-.43,1.39-1.21,1.72-.52.31-.85-.48-.89-1a1.8,1.8,0,0,1,.92-2C1030.7,366.61,1031,367.39,1031.34,367.91Zm-4.61-14c.8-.06,1.13.73,1.2,1.53a14.2,14.2,0,0,1,.54,3.48c.36,1.05,1,2.62-.57,3-1.62.12-1.72-1.22-1.85-2.83.19-1.1-.44-2.13-.52-3.21C1025.47,355.12,1025.65,354,1026.73,353.93Zm-4.36,3.05c1.88-.15,1.18,1.26,1,2.09-.45,1.12.71,2.11-.26,3.54a3.71,3.71,0,0,1-1.89-3.37C1021.11,358.17,1021.29,357.07,1022.37,357Zm-23.2,18.07c1.26-1.19.87-2.78.2-4.35s-.54-3.47-1-5.33a1.36,1.36,0,0,1,1.19-2,1.56,1.56,0,0,1,1.75,1.48,4.6,4.6,0,0,1,.41,1.86c-.3,3,1,5.61,1,8.59-.23.56.35,1.05.89,1,.81-.07,1-.62,1.26-1.18a5.26,5.26,0,0,0-.32-4c-.41-1.86-1.12-4-.17-5.66.24-.29.78-.34.8-.07a6.08,6.08,0,0,1,1.48,5c-.32,2.73.86,4,3.69,5.66-3.7,1.1-6.07,1.83-7.18,4.89-.19,1.1-1.24,1.45-2.34,1.27s-1.16-1-1.24-2.07c-.05-.53-.11-1.34-.4-1.59C996.92,377.39,997.67,376.52,999.17,375.05Zm-12.36-9.31c.25-.29.47-.85,1-.89a1,1,0,0,1,.56.23c.93,1.55,1.06,3.16,2.24,4.42a2.73,2.73,0,0,1-.21.83c-.53,0-1,.35-1.34.1C988,370,986.62,366.84,986.81,365.74Zm.86,7.51c.74-.87,1.55-.94,2.15-.17.62,1-.43,1.38-1.22,1.72a2.57,2.57,0,0,1-2.1.7C986.12,374.18,987.17,373.83,987.67,373.25Zm-8.51-5a2.2,2.2,0,0,1,1.45,1.23c.5,2.94.49,6.19,1.77,8.79,0,.54.11,1.35-.7,1.41-1,.36-1.38-.43-1.43-1C980,375.21,978.09,371.84,979.16,368.24Zm-5,1.21c.27,0,.32.51.61.76-.23.56-.17,1.37-1,1.16a1.42,1.42,0,0,1-.62-1C973.06,369.8,973.55,369.22,974.11,369.45Zm-8.42-.42c1.08-.09,1.39.43,1.45,1.24-.22.56.13,1.61-.94,1.69-1.06.36-1.41-.69-1.47-1.5A1.23,1.23,0,0,1,965.69,369Z"/><path class="cls-2" d="M765.07,497.55c3.26-.26,5-1.34,4.72-5.53-1.83-17.21-2.72-34.49-4-51.27-.29-3.72-1.8-5-5.49-4.25l-248.4,19.59c-7.46.59-7.46.59-6.87,8.05L508.91,514c.19,2.33,1.23,3.65,4,3.43l86.21-6.8c2.8-.22,4.27.6,4.49,3.4-.28,2.36.33,4.19.48,6.05l18.57,235.36c.51,6.52.51,6.52,7,6l61-4.82c5.12-.4,5.09-.87,4.68-6L676.79,513.89c-.81-10.25-1.67-9.24,8.58-10.05l51.27-4C746,499.06,755.24,497.86,765.07,497.55Zm-199.68,1.21c-1.4.11-2.4-.74-1.58-2.21-.07-.94.86-1,1.83-.62.93-.07,1,1.33,1.58,2.22C566.75,498.19,565.89,499.2,565.39,498.76Zm3.2-30.73c-1.43-.35-2.87-.71-2.55-2.61a2.52,2.52,0,0,1,2.15-2.52c1.86-.14,2,1.72,2.12,3.12C570.85,466.91,570.53,468.82,568.59,468Zm7.85,34.08c-2.55-2.61-3.24-5.37-.66-8.38C579.73,496.23,577.15,499.24,576.44,502.11Zm29-12.14c-1.21,2.45-.52,5.2.16,8,.15,1.87.26,3.27-2,4.85a20.86,20.86,0,0,1-1.57-13.95c.71-2.87,1-4.77-2.38-6.37-2.87-.72-3.59-3.94-2.88-6.81a6.43,6.43,0,0,1,4.37-4.1c1.86-.14,3.84,1.11,2.59,3.08-2.11,3-.57,4.73.55,7C606.45,484.27,607.1,486.56,605.49,490Zm39.32,11c.4-1,1.33-1,2.26-1.12.5.43,1.44.36,1,1.33.08.93-.82,1.47-1.75,1.54C645,502.81,644.42,501.91,644.81,500.94ZM656,612.61c-2.74-5-2.74-5-1.2-9.29C656.85,606,656.57,608.34,656,612.61Zm-17.63-158c3,2.11,3,2.11,1,6.95C637.74,458.82,637.59,457,638.34,454.56ZM659.9,698.12c1.32-1,1.54,1.75,1.19,3.18-.82,1.47.26,3.27-1,4.77C660.3,703.24,657.25,700.2,659.9,698.12ZM639.59,506a4.47,4.47,0,0,1,1.37,5.52c-2.14,2.51-1.46,5.27-2.56,9.11-2.16-3.58-3.31-6.3-3.57-9.56-.18-2.33.13-4.24,2.39-5.35C638.15,505.69,639.05,505.15,639.59,506Zm3,32.12c-3.09-3.5-2.88-6.8-2.71-10.57C644.33,530.52,644.41,531.45,642.59,538.16Zm-12.54-52c.39-1,.75-2.4,2.18-2.05s3,2.11,2.55,2.62c-3,4-.81,7.56.46,11.68,0,.47-.79,1.94-1.72,2-1.36.58-1.9-.31-2-1.25-1.15-2.72-.9-5.55-2.45-7.31C629.37,489.5,629.73,488.06,630.05,486.16Zm12.72,179.07c-.93.08-1.47-.82-1.58-2.22.39-1,.78-1.94,1.71-2,1,.39,1,1.33,1.16,2.72C644.09,664.19,644.67,665.55,642.77,665.23ZM627.61,502.77c2,2.18,3.16,4.44,2.45,7.31-.43.5-1.29,1.51-1.76,1.54a2.08,2.08,0,0,1-1.5-1.29A6.56,6.56,0,0,1,627.61,502.77Zm-2.81,29.76c0-.46.85-1,1.79-1.08a2.41,2.41,0,0,1,1.65,3.15,2.09,2.09,0,0,1-1.28,1.51C625.48,535.29,624.44,534,624.8,532.53ZM630,616.06c-2.4-.74-2.62-3.54-2-6.88,2.87.72,5.31,1.93,8.65,2.6C634.49,613.83,632.85,616.78,630,616.06Zm10,62.05c2.65-2.08,1.5-4.81,2.21-7.68,2.44,1.22,3,3,2.66,4-1.89,5.78,1.24,9.75,3,13.84,1.62,2.68,2.73,4.94-.31,8-2.73-4.94-4.07-10-7.66-13.93A3,3,0,0,1,640,678.11ZM648,708c-.44.5-1.37.58-1.4.11-1.59-2.22-.33-4.19.45-6.13l1,.39C649.12,704.12,649.77,706.42,648,708Zm7.12,30.86c-2.29.65-2.48-1.68-3-2.58-2.16-3.58-.59-7.45-1.81-11.11a5,5,0,0,0,2.29-.65c1.23,3.66,2.88,6.81,4.11,10.46A4.27,4.27,0,0,1,655.14,738.82ZM644.45,573.65c-1.86.15-3.33-.67-3-2.57-.11-1.4.71-2.87,1.68-2.48,1.43.36,2,2.19,3,3A1.71,1.71,0,0,1,644.45,573.65Zm-5.07-10.85a1.32,1.32,0,0,1-2.33.18c-.47,0-.58-1.36-.62-1.82-.07-.93.79-1.94.71-2.87.64-3.8,2.47-4.42,5.88-2.81,1,.39,2.37.28,3,2.11C644.32,560.07,640.55,559.89,639.38,562.8Zm6.49-18.8c.07.93-.83,1.47-1.72,2-1-.86-2-1.71-1.66-3.15-.07-.93.32-1.9,1.26-2C645.61,540.74,646.19,542.1,645.87,544Zm15.76,176c-1.44-.36-1.51-1.29-1.58-2.22a1.48,1.48,0,0,1,1.28-1.51c1.44.36,1.51,1.29,1.58,2.22C662.52,719.48,662.09,720,661.63,720ZM661,687.71a1.23,1.23,0,0,1-1.28,1.51,2.26,2.26,0,0,1-1.62-2.68c-.08-.94.82-1.48,1.79-1.08C660.77,685.38,661.35,686.75,661,687.71Zm.8-31.48c-.43.51-.35,1.44-.78,1.94-.39,1-1.33,1-2.26,1.12-1-.4-1.51-1.29-.68-2.76,1.25-2,1.53-4.35,1.81-6.71.88-6.64-2.78-11.51-3.73-17.53-.83-4.62-2.6-9.17-2.5-13.87.9-.54,1.4-.11,1.44.36C660.2,630.56,664,642.92,661.75,656.23ZM651.18,510.29c-.93.07-2.33.18-2-1.26-.11-1.39.79-1.93,2.22-1.58.9-.54,1,.4,1.48.82A1.72,1.72,0,0,1,651.18,510.29ZM680.08,734c-.93.07-1.47-.82-1.58-2.22-.07-.93.32-1.9,1.25-2a2,2,0,0,1,2,1.72C681.88,733,681.48,733.93,680.08,734ZM680,720.45a.88.88,0,0,1-1.4.11c-2-2.18-1.73-4.09.46-6.13C681.52,716.57,681.2,718.47,680,720.45Zm-20.17-196.3c-2.22,1.58-2.84-.25-3-2.11-.18-2.33.68-3.34,3.12-2.13,1,.86,1.9.32,1.79-1.07.43-.51-.07-.94-.61-1.83-4-3-4.49-3.4-1.09-7.89,1.68-2.47-.84-4.62,1.7-8.11,3,7.74,1.72,15.81,7.36,21.93C665.94,525.07,662.93,522.49,659.78,524.15Zm10.05-44.88c-.39,1-.85,1-1.36.58-2.44-1.22-1.62-2.69-1.33-5.06C669.61,476.48,670.62,477.33,669.83,479.27Zm-1.21-15.38c.22,2.8,1.37,5.52-1.67,8.57-2.34-5.91.56-10.82-.35-16.38C671,458.54,668.44,461.56,668.62,463.89Zm11,32c-.93.08-1.39.11-1.93-.78-.69-2.76-.41-5.13,1.2-8.54,2.59,3.08.91,5.56,2.06,8.28C681.41,495.24,680.05,495.82,679.58,495.85Zm18.16-31.44c0-.47-.58-1.36-.62-1.83-.61-1.83-.72-3.22-1.41-6C702.14,460.78,702.14,460.78,697.74,464.41Zm9.17,15.22c-.82,1.47-1.79,1.08-3.23.72-1-.86-1.58-2.22-.72-3.22.78-1.94,1.86-.15,2.83.24A1.71,1.71,0,0,1,706.91,479.63Zm19.56,10.18a3.49,3.49,0,0,1-3.54,2.62,3,3,0,0,1-2.16-3.58,51.81,51.81,0,0,1,.3-8c.29-2.37.07-5.17-2-6.89-4.06-3.9-2.56-8.7-1.49-13,.75-2.4,1.53-4.34,0-6.56a6.77,6.77,0,0,1,.06-5.16c1.25-2,4.05-2.2,5.13-.41a4.11,4.11,0,0,1,1.62,2.69c-.31,8,4,15.62,3.77,24.09C729.93,480.16,728,485,726.47,489.81Zm8.86-36.34a1.73,1.73,0,0,0,1.43.36c5.48-1.84,6-1.41,6.28,2.31-.31,8-.29,14.1-.28,20.19.11,1.4-.25,2.83-2.15,2.52-.93.07-1.51-1.29-1.58-2.22l-.52-6.53c-.29-3.73-.58-7.46-4.07-10-.54-.9-1.11-2.26-1.65-3.16C732.64,455.09,732,453.26,735.33,453.47Z"/><path class="cls-2" d="M845.25,651.33c-1.54-16.11-2.84-32.51-3.84-48.66A137.65,137.65,0,0,0,838,579.41c-3.85-14.58-12.23-24.74-26.66-29.28-7.22-2.4-14.58-3.18-22.18-3.39-14.6.07-29.16.68-43.11,5.57-6.57,2.41-12.86,5.07-18.18,9.55-10.41,8.66-13.55,20.27-13.07,33.22a140.44,140.44,0,0,0,1.72,15c.88,4.26,0,4.06,4.62,3.7,5.4-.16,11-.87,16.4-1.3l18.28-1.44-.61-7.8a81,81,0,0,1-.1-8.1c.46-7.89,5.17-13.4,12.86-15.36a48.1,48.1,0,0,1,16.42-1c6.54.57,11.9,3.39,14,10,3.49,10,4.57,20.2,5.38,30.42.17,2.15-.89,2.5-2.5,2.63-2.69.21-5.13.13-7.82.35-12.9,1-25.58,1.47-38.32,4.64-7.44,1.67-14.59,3.59-21.33,7.37-8,4.42-13.49,10.8-14.94,19.84a66.1,66.1,0,0,0,1.61,27.2,32,32,0,0,0,7,13c8.83,9.05,19.88,12,31.78,11.83a181.74,181.74,0,0,0,21-1.65c11.22-1.7,21.17-6,28.86-14.72,1-1.16,1.69-2.57,3.8-3.28l.7,8.88c.28,3.49.28,3.49,3.5,3.24L848,696c1.62-.13,2.38-.73,2.23-2.61a61.4,61.4,0,0,0-1.07-6.68C847.65,675,846.18,663.16,845.25,651.33ZM738.46,569.94c.07.81-.7,1.41-1.48,1.74-.77.61-1.37-.16-1.68-.67-.62-1-1.51-2-1.08-3.44,1.32-.37,1.72,1.22,3.06,1.11C737.82,568.64,738.67,569.12,738.46,569.94Zm9.16,16.6a1.27,1.27,0,0,1-.14,1.63c-2-1.2-2.41-3.06-2.56-4.94.17-1.36.89-2.5.51-3.83a.73.73,0,0,1,.75-.87c.8-.06.84.48,1.16,1a2,2,0,0,1-.17,1.37C746,582.88,746.66,584.72,747.62,586.54Zm5.66-3.7c-.81.07-1.14-.72-1.2-1.53a1.24,1.24,0,0,1,1.28-.91c.53,0,.6.77.91,1.28C754,582.24,753.82,582.8,753.28,582.84Zm19-9.34a1.84,1.84,0,0,1-2.36,1c-1.38-.43-.64-1.3-.17-2.15.68-1.67.68-1.67.2-4.34a2.59,2.59,0,0,1,2.61,2.23C772.66,571.3,773,572.63,772.29,573.5ZM730.14,680.43c-.79.34-1.1-.18-1.41-.7-.64-1.3-1.81-2.29-1.66-3.92.32-2.74-1-5.34-2-7.69s-2-4.72-.57-7.26c.94-1.7-.57-3.75.89-5.75a46.63,46.63,0,0,1,4,16.72,33.05,33.05,0,0,0,1.11,7.22A1,1,0,0,1,730.14,680.43Zm20.1,11.4a1,1,0,0,1-1.16-1c0-.27.21-.83.48-.85.78-.33,1.09.19,1.14.72C751,691.23,750.78,691.79,750.24,691.83Zm2.38-45.36a9.27,9.27,0,0,0,1.48-5.26c-.05-.54.45-1.12,1-.89.27,0,1.12.45,1.16,1-.08,2.44-.18,4.61-.26,7.05.07.81-.74.87-1.55.94C753.12,649.4,751.63,647.63,752.62,646.47Zm5,45.6c-.63-1,.43-1.39.94-1.7,1.76-1.76,2.13-4,.92-5.48-2.36-2.52-.65-4.82.51-7.35.31.52.89,1,.66,1.57a34.7,34.7,0,0,0,2.34,9c1,2.35.25,3.22-1.9,3.39C759.72,691.9,758.7,692.79,757.57,692.07Zm6.32,8.15c-1.59.4-3.08-1.38-3-3.28-.13-1.61.61-2.48,2-2.59,1.61-.13,3.1,1.65,3.23,3.26C766,699.25,765.23,700.12,763.89,700.22ZM796.68,670a29.22,29.22,0,0,1-13.19,4.29c-4.3.34-8.58.95-13.17,1a10.46,10.46,0,0,1-4.08-.22c-6.37-1.93-8.49-4.74-8.77-11.75-.49-6.18,2.15-10.45,8.23-12.28,9.51-2.92,19.19-3.68,28.91-3.91a52.88,52.88,0,0,1,8.95.38c1.64.14,2.49.61,2.61,2.23C807.43,658.92,804.45,665.64,796.68,670Zm27.79-66c2.65,2.76,1.32,6.39,2.38,9.55C824.55,611.85,824,611.89,824.47,604Zm-3.42-16a1.15,1.15,0,0,1,1.16,1,1.47,1.47,0,0,1-1.28.91.86.86,0,0,1-.87-.74A1.16,1.16,0,0,1,821.05,588.05ZM816,650.67c1.1.18.91,1.28,1,2.08-.21.83.41,1.86-.6,2.76a1,1,0,0,1-.83-.21,3,3,0,0,1-1-2.89C814.7,651.58,814.88,650.48,816,650.67Zm1.85,13.11c-.19,1.09-.71,1.41-1.51,1.47a26.28,26.28,0,0,0-1-6.14C817.82,660.26,817.7,662.16,817.83,663.78ZM801.23,563.1c0-.27-.07-.81.47-.85a1.47,1.47,0,0,1,.91,1.28l-.22.56A1,1,0,0,1,801.23,563.1ZM809.38,639a1.53,1.53,0,0,1-1.23-1.79,3.74,3.74,0,0,1,1-.89,3.3,3.3,0,0,1,1.24,2.06A2,2,0,0,1,809.38,639Zm-.45-26.2a1.56,1.56,0,0,1,1-1.7c.79-.33,1.62-.13,1.66.41.06.81-.7,1.41-1.76,1.76C809.52,613.3,809.2,612.79,808.93,612.81ZM820,677.67c-.51.31-1.34.11-1.38-.43-.57-3.74-4.28-6.15-4.06-10.23a1.44,1.44,0,0,1,1.49-1.74c.08,1.08-.06,2.71,1.08,3.43,2.59,2,2.31,5.23,3.31,7.58C820.75,676.8,820.54,677.63,820,677.67ZM815.16,582c-.82-.21-1.43-1-1.2-1.53.45-1.12.35-2.46,1.67-2.84.87.75.42,1.86.75,2.65C816.46,581.38,816.26,582.2,815.16,582Zm.93-12.25c-1.9-.12-2.94.5-3.32,2.43a1.16,1.16,0,0,1-1.84.68c-.56-.22-.65-1.3-.15-1.88,1.26-1.18.28-3.27,1.56-4.18,1.26-1.18,2.53,1.15,4.14,1,1.08-.09,2.42-.19,2.26,1.17C818.3,570.41,817.19,570,816.09,569.77ZM830,688.24c-.81.07-.87-.74-.9-1,0-.54-.37-1.32.73-1.14.53,0,.84.48.91,1.28C830.82,687.91,830.55,687.93,830,688.24Zm.27-6.78c0,.54.11,1.34-.7,1.41-.85-.48-1.43-1-1.24-2.07,0-.54.47-.85,1-.89C830.47,680.09,830.27,680.92,830.31,681.46Zm-.66-8.34a1.23,1.23,0,0,1-.7,1.41c-.8.07-1.11-.45-1.42-1,0-.53-.36-1-.13-1.61-.07-.81.12-1.9.9-2.24s1.41.7,1.54,2.32A1.6,1.6,0,0,1,829.65,673.12Zm1.58-31.5c-.37,2.19-1,4.41-.82,6.83.11,1.34-.37,2.19-2,1.78-1.1-.19-1.95-.66-1-2.36,1.94-2.86,1.72-9.06.93-12.24-.86-4-2.77-7.63-2.86-12.22a12.2,12.2,0,0,0-4.13-7.79c3.25,0,4.49,2.08,5.22,4.45a44.33,44.33,0,0,0,3.5,10C831.67,633.47,831.47,637.81,831.23,641.62Z"/><path class="cls-2" d="M887.87,513.9a7.4,7.4,0,0,1,.65-1c.22-.56.7-1.41.41-1.65-1.16-1.32-.85-2.75-.67-4a8.91,8.91,0,0,0-1.11,3.13A4.7,4.7,0,0,0,887.87,513.9Z"/><path class="cls-2" d="M933.89,663.82c-.46-2.4-.63-4.55-1.09-7-.38-1.32-1-2.35-3.09-1.38-3.86,2.47-8.14,3.08-12.73,3.17-5.69-.09-10.52-3-11.52-8.83-.5-2.94-1-5.6-1.22-8.56L887,430.2c-.3-3.76-.3-3.76-4.07-3.46l-29.84,2.35c-5.38.42-5.15-.13-4.72,5.24l12.23,147.08c2.19,27.69,4.35,55.12,6.81,82.79.78,9.94,5,18.54,13.55,24.36,5.74,4.14,12.34,5.52,19.41,6a77.85,77.85,0,0,0,13.74-.81,62.15,62.15,0,0,0,20.36-5.94c3.39-1.62,3.39-1.62,2.84-5.09C936.23,676.35,934.93,670.23,933.89,663.82ZM891.76,551.63c0,.54-.45,1.12-1,.89a1.68,1.68,0,0,1-1.52-2,2,2,0,0,1,1.26-1.18A1.9,1.9,0,0,1,891.76,551.63Zm-1.66,37.19c.33.79-.46,1.12-1.26,1.18-.54,0-1.08.09-1.41-.7a1,1,0,0,1,1-1.16A1.21,1.21,0,0,1,890.1,588.82Zm-5.22-53.56c-2-4.71-1.28-9.37,1.35-13.64C886.06,526.24,886.69,530.79,884.88,535.26Zm5.7,59.74c0-.53.14-1.63.95-1.69,1.08-.09,1.16,1,1.2,1.53.07.8-.14,1.63-.94,1.69A1.19,1.19,0,0,1,890.58,595Zm-9.46-131.32c1.88-.15,2,2,2.43,3.33a2,2,0,0,1-1.69,2.57c-1.62.12-2.51-.89-2.66-2.77C879.1,465.47,879.22,463.56,881.12,463.68Zm-1.61,13.93a4.14,4.14,0,0,1,1.63-3.38c.23-.56.16-1.36,1-.89.83.21.6.76.38,1.32a17.13,17.13,0,0,1,0,3.52,1.26,1.26,0,0,1-1.51,1.47A1.67,1.67,0,0,1,879.51,477.61Zm3.11,11.93a6.47,6.47,0,0,1-2.26-4.7c-.07-.8.09-2.17,1.46-2,1.1.19,1.43,1,1.25,2.07.12,1.61-.85,3-.45,4.64,1,5.6-.75,11.15-.3,16.79.06.81-.14,1.64-1.24,1.45-.8.07-.87-.74-.93-1.55,0-4.05.44-8.15.12-12.18C879.87,492.46,879.66,489.77,882.62,489.54Zm1,62.46c-2.07-2.28-2.76-4.12-1.62-6.91C883.31,547.43,884.25,549,883.67,552Zm-7.23-92.82c1.43,1,2,2,1.33,3.15l-.81.06C875.82,461.67,875.74,460.59,876.44,459.18Zm-.26,7.06a.79.79,0,0,0,.56.22,3,3,0,0,1,1,2.36l-.52.31c-.83-.2-.89-1-1.2-1.53A3.7,3.7,0,0,1,876.18,466.24Zm-.15,4.88c.26,0,1.59-.4,1.74,1.48.1,1.35-1.22,1.72-2.27,2.08-1.35.1-2-.93-2.08-2.27S874.41,471.25,876,471.12Zm-10.26-20.29c-.13-1.62,0-3.52,1.25-4.7a6,6,0,0,0,1.3-4.16,4.23,4.23,0,0,1,1.31-3.89c1.46,4.75,1,8.85.48,12.94-.12,1.91-2,2.06-3.05,2.41C866,453.52,865.58,451.92,865.77,450.83ZM881.27,573c.34.79.11,1.35-.65,2-.52.31-.83-.2-.87-.74a2,2,0,0,1,.43-1.39C880.42,572.54,881.25,572.75,881.27,573ZM868,458.23a1.46,1.46,0,0,1-1.46-1.24,1.24,1.24,0,0,1,1-1.43c.8-.06,1.92.39,2,1.2C869.53,457.29,868.76,457.89,868,458.23Zm6.35,64.48a.72.72,0,0,1-.74.87c-.27,0-.83-.21-.85-.48a.8.8,0,0,1,.72-1.14A.86.86,0,0,1,874.33,522.71ZM872.9,542.3c-2-1.47-2.12-2.81-1.71-4.47C873.16,538.76,872.73,540.14,872.9,542.3Zm-12.78-19.07c-1.21-5-.25-10,.69-15.2.56-3.29.49-4.1-3.15-5.7a9,9,0,0,0,2.39-4c1.29-4.16,1-8.19.64-12.5-.55-3.47-.56-7-1.37-10.44-.79-3.18,1.93-6.37-.74-9.41-.31-.51.45-1.12,1-1.43a2,2,0,0,0-.28-3.49c-.87-.74-1.74-1.49-1.31-2.87.78-3.85,1.54-8,2.32-11.82.18-1.1.66-1.95,2-1.78,1.12.45,1.21,1.53,1.29,2.6a2.87,2.87,0,0,1-1.46,2c-1.58.67-1.47,2-1.61,3.64-.1,2.18-.49,4.1,1.27,5.86.87.74.44,2.13.55,3.47-.68,5.19.31,10.8-.08,16.24-.62,5.73.63,11.31,1.88,16.89.08,1.08.71,2.11.23,3a9,9,0,0,0-.52,7.07,3.58,3.58,0,0,1,.07,1.88,3.62,3.62,0,0,1,1.25-1.12,1.14,1.14,0,0,1,1.68.68c.94,1.55,3.19,2.73,1.5,5.29a6.57,6.57,0,0,0-.76,4.12,4.2,4.2,0,0,1-1.31,3.89c-.71-2.1-.88-4.26-2.64-6,0-.06-.07-.12-.12-.18a8.49,8.49,0,0,0-.88,7c.39,1.59.23,3-1.63,3.37C860.72,524,860.41,523.48,860.12,523.23ZM877,628.54a.81.81,0,0,0,.51-.31,3.44,3.44,0,0,1,.38,1.32c-.23.56-.16,1.37-.95,1.7l-.56-.23A3,3,0,0,1,877,628.54Zm-1.66-3.93c-.9-1-.44-2.13.82-3.31.91,1.28,1,2.36,0,3.25Zm-10.45-53.55c0-.54-.4-1.59.68-1.67.78-.34,1.11.45,1.45,1.23.35,1.06.46,2.4.83,3.72-.18,1.1.79,3.19-.82,3.32-2.15.17-2-2-1.62-3.39C865.86,573.15,865.24,572.12,864.89,571.06Zm1.33,13.42c1.69.95,3.35,1.36,2.67,3-.2.83-1,1.43-1.53,1.2C865.42,588.06,866.37,586.36,866.22,584.48Zm4.14,45.67c.16-1.37,0-3.52,1.88-3.67,1.86-.42,2.27,1.44,2.38,2.79.15,1.88-.57,3-2.19,3.15A2,2,0,0,1,870.36,630.15Zm2.37,6c.76-.6.83.21,1.14.72A4.12,4.12,0,0,1,876,640a1.67,1.67,0,0,1-1.18,2.26,1.26,1.26,0,0,1-1.72-1.22,16.55,16.55,0,0,1-.54-3.47C872.26,637,871.94,636.51,872.73,636.18ZM879.19,670c-1.06.35-1.39-.43-1.45-1.24-.45-5.65-3-10.85-2.93-16.54.14-1.64-1-2.9-1.17-4.51-.35-1-.15-1.88.91-2.24,1.32-.37,1.7,1,1.76,1.76a6.49,6.49,0,0,1-1.5,5c3-.24,3.17,2.45,3,4.09.32,4,1.44,8,2,12C879.93,669.16,880,670,879.19,670Zm.33-33.57c-1.1-.19-2.47-.35-2.57-1.69-.15-1.89,1.22-1.72,1.48-1.74,1.62-.13,2.67-.49,2.78.86S880.86,636.35,879.52,636.46Zm-6.72-92a14.82,14.82,0,0,0,3.52,3.51,1.65,1.65,0,0,1,.42,1.86c-.47.85-1.3.64-2.11.71C871.05,549.75,870.68,548.42,872.8,544.47Zm6.53,52a4.6,4.6,0,0,1-.29-3.76C880.49,593.91,880.84,595,879.33,596.43Zm5,22.6c-.82-.2-1.67-.68-1.72-1.22-.06-.8,1-1.42,1.78-1.49a1.23,1.23,0,0,1,1.18,1.26A1.44,1.44,0,0,1,884.36,619Zm.16-4.88c-1.1-.18-3,0-3.4-1.9-1.12-4-2.25-7.93-1.55-12.86a4.25,4.25,0,0,1,1.91,3.64,5.91,5.91,0,0,0,1.93,3.9c1.43,1,1.84,2.83,2,4.45C885.74,612.43,885.59,614.06,884.52,614.15Zm-3.32-49c-1.18-1.26-.69-1.84-.75-2.65s-.44-2.13.88-2.5,2.87-1.31,4.26-.88a.57.57,0,0,1,.58.49c0,.54-.18,1.1-.45,1.12C883.32,561.22,882.37,562.92,881.2,565.18Zm18,101.91c1.74,5,3.47,9.74,3.07,14.91-.25.29-.48.85-.73,1.14-1.9-.12-2.27-1.44-2.13-3.08a8.35,8.35,0,0,0-2.77-7.63c-.31-.51-.91-1.28-.66-1.57,1.44-2.27-.61-4.28-.2-5.93A9,9,0,0,0,894.2,658c-.6-.76-.15-1.88-.23-2.95.36-5.71.72-11.42-.8-17-1.23-5.31-1.14-11-2.62-16-.1-1.34-.75-2.65,0-3.52,1.46-2,.78-3.84.34-6-.4-1.6-.5-2.94-2.16-3.35a2.85,2.85,0,0,1-1.76-1.76c-.09-1.07-.17-2.15.86-2.77,1.32-.38,1.92.39,2.28,1.44,1.37,3.68,2.76,7.63,4.14,11.31.64,1.3-.1,2.17-.85,3a2,2,0,0,0,.28,3.5c.56.22,1.41.7,1.18,1.26-2.16,3.41,1,6.14.74,9.41-.26,3.53.29,7,.29,10.52.34,4.31.66,8.34,2.59,12.24a9,9,0,0,0,3,3.56C898.12,663.12,898.18,663.93,899.25,667.09Zm11.35,10.2c-2.49-4.13-2.58-8.72-3.48-13.25C910.4,667.84,911.83,672.32,910.6,677.29Z"/><path class="cls-2" d="M1079.57,675.86l-.94-1.55c-6.82-7.58-12.88-15.75-19.2-23.91-8.71-10.95-17.44-22.16-26.41-33.09-2.7-3.3-2.7-3.3-.25-6.47,7.55-10.6,14.83-21.19,21.83-32a76,76,0,0,0,11.22-46.33c-.36-4.57-.36-4.57-4.93-4.21-9.7.49-19.38,1.26-29.06,2-6.72.53-6.72.53-6.71,7.56a53.64,53.64,0,0,1-5.72,23.45c-6.51,13.5-15,25.8-23.22,38.35a3.63,3.63,0,0,1-3.12,1.6l-9.41.74c-6.45.51-5.58,1.25-6.11-5.47l-13.62-172.6c-.31-4-.31-4-4.35-3.72l-31.45,2.48c-4.3.34-4.06.05-3.7,4.62l20.3,257.3c.32,4,.32,4,4.35,3.71l31.73-2.5c3.76-.3,3.76-.3,3.46-4.06l-3.54-44.9c-.39-1.59.64-2.22,2-2.32l12.91-1a3.37,3.37,0,0,1,3.08,1.38c3.65,5.12,7.82,9.93,11.47,15.06,7.8,9.66,15.32,19.35,22.85,29a5.31,5.31,0,0,0,5.32,2.29l40.06-3.16C1080,678,1080.21,677.16,1079.57,675.86ZM949.11,435.52c.77,2.91,2.2,3.88,4.35,3.71,1.08-.08,1.68.68,1.5,1.78-.17,1.36-1,.89-1.84.68C948.23,441.54,947.36,440.79,949.11,435.52ZM937,430c1.08-.09,2,1.46,3.31.82s.91-2.24,2.19-3.15c1.06,3.16,2.37,6,.72,9.14-1.43-1-1-2.9-2.2-3.89-.87-.74-2.48-.61-2.38.73.17,2.15-1.87,3.67-1.43,5.8C934.28,436.14,935.66,433.06,937,430Zm10.36,79.39c.06.8.64,1.3,1.74,1.48,1.39.43,2.65-.75,5.11-.4a5.55,5.55,0,0,0-2.29,5.32c0,.54-.45,1.12-1,.89-.81.06-1.66-.41-1.45-1.24,1.15-2.52-.21-2.69-1.89-3.37-2.52-1.15-3.17-6-1.42-7.73a.27.27,0,0,0,.25-.29c1-1.16,3.06,1.11,3.72-.83.45-1.12-.19-2.42.8-3.58a1.61,1.61,0,0,1,1-.36c.29.25.6.77.89,1a5.06,5.06,0,0,1-2.51,5.88c-.51.31-1.57.67-2.08,1C947.25,507.48,947.05,508.31,947.4,509.37Zm13.21,6.26c-1.64-.14-1.72-1.22-2.05-2-.9-4.52-2.07-9-3-13.56-.35-1.05.08-2.44.24-3.8a1.52,1.52,0,0,1,1.28-.92,1.27,1.27,0,0,1,1.45,1.24C957.73,503.14,960.1,509.18,960.61,515.63Zm0,24.07c1.08-.08,1.68.68,1.5,1.78-.17,1.37-1,.89-1.84.69-4.89-.16-5.75-.9-4-6.18C957,538.91,958.46,539.87,960.61,539.7ZM948,595.35c.35,1-.7,1.41-1.49,1.74a1.56,1.56,0,0,1-1.74-1.49c-.14-1.88.83-3.31,1.53-4.72.8-.06,1.54-.93,2.15-.17.58.5.64,1.31-.15,1.64A2.2,2.2,0,0,0,948,595.35Zm-4.27-6.16s.22-.56.49-.58c1.35-.1.94,1.55,1.79,2C944.89,590.72,943.79,590.54,943.69,589.19Zm10.24,64.66c1.39.43,1.74,1.49,1.33,3.14C953.83,656,953.5,655.24,953.93,653.85Zm-1.34-27.22c-.29-.24-.85-.47-.89-1,0-.27.77-.6,1-.62s.58.5.87.74C953.65,626.28,953.4,626.57,952.59,626.63Zm-5.1-71.55c-1.25-2.07-1-2.63,2-5.84.44,2.13,1.67,3.93.47,5.92C948.94,556.31,948.13,556.38,947.49,555.08Zm2-12.33c2.28,1.44.77,2.91.63,4.55C947.57,545.87,949.6,544.09,949.49,542.75Zm-1.28-9.37c-.87-.74-2.48-.62-2.38.73.17,2.15-1.87,3.66-1.43,5.79-3-3.28-1.59-6.37-.21-9.45,1.08-.09,2,1.46,3.31.82s.91-2.24,2.19-3.15c1.06,3.16,2.37,6,.72,9.14C949,536.29,949.37,534.37,948.21,533.38Zm-8.18-18c-1.56-2.58-1.15-4.24-.51-6.45C941.1,511.76,941.1,511.76,940,515.36Zm3.11,5.16c2.07,2.27,3.09,4.9.64,8.07C943.54,525.63,942,523.32,943.14,520.52Zm3.33-19.47c-2-1.46-2.92-2.74-2-5,.2-.83.39-1.92,1.75-1.76a2.25,2.25,0,0,1,1.78,2C948.12,498,947.42,499.35,946.47,501.05Zm-6.13-46.45c-1.25-2.06-1-2.62,2-5.83.44,2.13,1.66,3.92.47,5.91C941.79,455.84,941,455.9,940.34,454.6Zm2-12.33c2.28,1.44.77,2.92.63,4.55C940.42,445.4,942.45,443.62,942.34,442.27Zm-8.1,34.46c.61-2.49,3.14-1.33,4.67-2.54.25-.29.85.48,1.16,1,.06.8-.12,1.9-.66,1.94-3.31-.82-2,2.59-3.24,3.5a.84.84,0,0,0-.52.31C934.47,479.68,933.31,478.69,934.24,476.73Zm7.15,100.47c.61-2.48,3.14-1.33,4.67-2.53.25-.29.85.47,1.16,1,.06.8-.12,1.9-.66,1.94-3.31-.82-2,2.59-3.24,3.51a.84.84,0,0,0-.52.31C941.62,580.16,940.46,579.17,941.39,577.2ZM945.33,634c.18-1.1-.8-3.18,1.06-3.6,1.6-.4,1.52,2,2.14,3.08,1.83,2.56-.38,5.44.64,8.06,1,2.36,3.07,4.63,1.4,7.47-.46,1.11,1,2.62-.18,4.61-.85-4-1.94-7.42-2.77-11.14C947.12,639.51,944.51,637.28,945.33,634Zm5.29,22.58c2,1.46,1.89,3.36,1.5,5.29C951.19,660.29,950.26,658.74,950.62,656.55Zm6.58,18.15c-1.57.66-3.52,0-3.65-1.61-.21-2.69-1.23-5.31-.39-8.36.77,2.92,3.09,4.9,4.36,7.23C958.12,672.73,958.77,674,957.2,674.7Zm7.76,2.36c-.17,1.36-.93,2-2.05,1.51-1.36-.16-1.16-1-.68-1.84,1-1.16.63-2.21.28-3.27a1.84,1.84,0,0,1,1.15-2.52A12.71,12.71,0,0,1,965,677.06Zm6.76,0c-.47.85-.93,2-2,1.79-1.37-.16-1.47-1.51-1.56-2.58.33-2.74-.92-4.8-1.38-7.2-.17-2.15-1.12-4-4-2.93-.51.31-1.32.38-1.63-.14-1.58-2.85-3.11-1.65-5.07.94.22-4.07,2-5.3,4.55-4.15,4.2,1.84,4.47,1.82,4.64-2.8,0-.53.21-.82.41-1.65,2.28,1.44.37,4.57,2.89,5.72,1.59-.39.62-2.48,2.46-3.17,1.3,2.87,1.56,6.1,2.08,9.31A8.68,8.68,0,0,1,971.72,677.06Zm-15.8-83.69c1.1.18,2.21.63,2.3,1.71l.66,8.34c-5.43-3.63-7.53-9.69-5.76-14.7,1.12.45.66,1.57.73,2.38C954.22,592.42,954.58,593.47,955.92,593.37Zm13.54,58.45c-1.43-1-1.54-2.32-1.64-3.66C970.86,649,970.86,649,969.46,651.82Zm2,1.46c.23,3,.23,3-1.52,4.72C969,656.18,970.27,655.27,971.47,653.28Zm-3.69-15.94a1.35,1.35,0,0,1-1.91-.12c-1.2-1.53-2.13-3.08-1.52-5.56,1.47,1.51,2.63,2.49,3.81,3.75C968.74,635.91,968.54,636.74,967.78,637.34ZM965,601.85c-1-2.35-3.32-4.34-1.72-8C965.11,596.7,964.78,599.43,965,601.85Zm.4,25.67c.35,1.05-.41,1.65-1.18,2.26a56.78,56.78,0,0,1-2.93-6.27A7.08,7.08,0,0,1,965.38,627.52Zm-4.54-12.9c-.51.31-.82-.2-.87-.74s-.1-1.35.43-1.39c.79-.33,1.1.19,1.14.72C961.61,614,961.65,614.56,960.84,614.62Zm1.48,25.58c1.08,3.44,2.7,6.82,1.92,10.67-3-6.53-3.27-14.08-5.43-20.94C962.24,632.37,961.48,636.48,962.32,640.2Zm-6.73-16.78c-.85-.47.26-3.54,1.31-3.89a1.23,1.23,0,0,1,1.43,1c.44,2.13,1.15,4.24.82,7C957.43,626.25,957,624.39,955.59,623.42Zm13.81-13.53c-.23.56-.48.85-1,.62-.27,0-.55-.23-.6-.76.23-.56.5-.58,1-.63C969.06,609.1,969.62,609.33,969.4,609.89Zm-3.16-29.78c-.83-.21-1.89.15-2-.93a2.05,2.05,0,0,1,1.4-2.81c1.34-.11,1.45,1.23,1.76,1.75C967.81,579.44,967.31,580,966.24,580.11Zm7,54.1c1.45,1.23,1.8,2.29.29,3.76A3.77,3.77,0,0,1,973.21,634.21ZM971,598.94c1.39.44.66,1.57.48,2.67A3.18,3.18,0,0,1,971,598.94Zm4.95,45.6c-2-.93-1.81-2.29-1.44-4.48C975.42,641.61,976.31,642.62,975.92,644.54Zm-5.93-58a1.29,1.29,0,0,1-1.45-1.24,1.47,1.47,0,0,1,1.78-1.49,1.8,1.8,0,0,1,1.2,1.52A1.48,1.48,0,0,1,970,586.58Zm-1.11-17.5c-2.6,1.29-4.87,3.36-8.25,1.73-1.09-.18-2.91.77-4.24,1.15-1.54.93-1.42,2.54-.77,3.85,1.66,3.92,2,8,2,12.28.08,1.08.44,2.13-.57,3-2-.93-1.83-2.56-1.71-4.46.16-4.89-1.57-9.62-2.78-14.66-.06-.81-1.22-1.8-1-2.63.37-2.19-3.91-1.58-1.93-3.9.72-1.14,2-1.79,3-3.22.92,1.28,1.81,2.3,1.62,3.39-.86,2.78.8,3.19,3,3.29,2.71.05,5.73.63,8-1.72.49-.58,1.57-.66,2.35-1a1.82,1.82,0,0,1,2.53,1.15C970.45,568.42,969.67,568.75,968.88,569.08ZM968.81,551c0,.27,0,.54-.23.56l-4.71,2c-.77.61-1.93-.38-2.53-1.15.95-1.7,2.59-1.56,3.66-1.64,1.59-.4,2.62-1,1.15-2.52-.62-1-.93-1.56.39-1.93.79-.33,1.86-.42,2,.66A20.94,20.94,0,0,1,968.81,551Zm-2.73-20.88A1.9,1.9,0,0,1,964,527.8a2.08,2.08,0,0,1,1.72-2.29c1.63.14,1.2,1.52,1.53,2.31C967.05,528.65,967.42,530,966.08,530.08Zm-4.35-61.47c-2.6,1.28-4.87,3.36-8.25,1.73-1.1-.18-2.91.77-4.24,1.14-1.54.94-1.42,2.55-.77,3.85,1.66,3.93,2,8,2,12.29.08,1.07.44,2.12-.58,3-2-.93-1.82-2.57-1.7-4.47.16-4.88-1.57-9.61-2.78-14.66-.06-.8-1.22-1.79-1-2.62.37-2.19-3.91-1.59-1.93-3.91.72-1.14,2-1.78,3-3.21.92,1.28,1.81,2.29,1.62,3.39-.86,2.77.79,3.18,3,3.28,2.71.06,5.73.63,8-1.71.49-.58,1.57-.66,2.35-1a1.83,1.83,0,0,1,2.53,1.16C963.3,467.94,962.52,468.27,961.73,468.61Zm-.08-18.12c0,.27.05.53-.22.56l-4.71,2c-.77.6-1.93-.39-2.53-1.15.95-1.7,2.58-1.56,3.66-1.64,1.59-.4,2.62-1,1.15-2.53-.62-1-.93-1.55.39-1.92.79-.34,1.86-.42,2,.65A20.26,20.26,0,0,1,961.65,450.49Zm15,162.61c-1-2.09-2.22-4.15-1.11-7.22,1.54,2.32.9,4.53,2.89,5.73.85.47,1.45,1.24.44,2.13A1.44,1.44,0,0,1,976.68,613.1Zm4.54,12.9a1.47,1.47,0,0,1-1.2-1.53c-.42-1.86-.3-3.76-2-5.25-.6-.76-.11-1.34.66-2a1.08,1.08,0,0,1,1.65.42C982,619.17,982.37,623.47,981.22,626Zm7.2-18.42c0-.27.74-.87.74-.87a1.8,1.8,0,0,1,1.19,1.26,3.46,3.46,0,0,1-1.05,3.86c-.74.88-2.15.17-3.56-.53C986.42,609.63,988.57,609.46,988.42,607.58Zm4.8,19.64c-.21.82-.41,1.65-1.24,1.45s-.87-.75-.91-1.28c.32-2.73-.39-4.84-3.18-6,1-1.42,2-2.32,3.2-4C991.94,621.37,993.77,623.93,993.22,627.22Zm50,16.07c.91,1.29.46,2.4-.24,3.81a1.16,1.16,0,0,1-1.84.69c-.85-.48-1.72-1.22-1-2.36A3.75,3.75,0,0,1,1043.18,643.29Zm-8.93-6.87c.17-1.36.33-2.73,2.31-1.53.27,0,.3.25.59.49.82.21,1.46-2,2.39-.46a2.3,2.3,0,0,1-1.64,3.11c-1.35.11-1.22,1.72-2.54,2.09A3.33,3.33,0,0,1,1034.25,636.42Zm0-57.89c-.78.33-.85-.47-.89-1-.29-.25-.06-.81.48-.85.8-.07.84.47,1.16,1C1034.8,578.22,1034.82,578.49,1034.28,578.53Zm12.71-6.95c-.79.33-1.12-.46-1.43-1a12.89,12.89,0,0,1-.88-7.78c1.78,2,2.26,4.69,3,7.34C1048,571,1047.8,571.51,1047,571.58Zm-4.42-18.32c2.9,2.47,2.9,2.47.73,5.89C1043.13,557,1043.28,555.37,1042.57,553.26Zm-.83-10.49c-.06-.8-.1-1.34.7-1.41s1.16,1,.94,1.55c-1.11,3.07.36,4.57,3.36,4.88a1.53,1.53,0,0,1,1.22,1.8,1.72,1.72,0,0,1-1.77,1.49c-1.37-.16-2.47-.35-4.1-.49C1041.88,547.9,1041.69,545.48,1041.74,542.77Zm-.06,30c2,1.19,1.57,2.85,2,4.17.64,1.3.77,2.92,2.65,2.77a.94.94,0,0,1,.92,1.28c-.73,1.14-.87,2.77-2.75,2.92-.81.06-1.14-.72-1.18-1.26C1042.48,579.51,1041.41,576.34,1041.68,572.81ZM1030.56,545c.22-.56.45-1.12,1.26-1.18a1.16,1.16,0,0,1,1.16,1c.77,2.91,3.15,5.7,1,8.85-.75.87-.41,1.65-.06,2.71.73,2.37.73,2.37-.69,4.92C1030.08,556.14,1029.93,550.74,1030.56,545Zm.15,36.31c-.8-1.65-2.32-3.07-.71-5.7C1031.52,577.56,1030.36,579.51,1030.71,581.32ZM1027.77,568s.51-.31.54,0c1.16,1,1.24,2.06.54,3.47C1027.15,570.43,1027.07,569.36,1027.77,568Zm1.35,34.25c-.11-1.34.1-2.17,1.42-2.54,1.36.16,2,.92,1.78,2a1.92,1.92,0,0,1-1.71,2.3C1029,604.37,1029.18,603,1029.12,602.2Zm-4.32-17c1.1.18,2.2.37,1.76,1.75a5.1,5.1,0,0,1-1.64,3.11c-1.43-1-1-2.09-1.07-3.16C1023.79,586.12,1023.44,585.06,1024.8,585.23Zm-3.65,5.16c.33.78-.14,1.63-.88,2.5a2.1,2.1,0,0,1-1.16-1c-.07-.81.12-1.9.9-2.24C1020.53,589.35,1021.09,589.58,1021.15,590.39Zm-5.52,2.05c-.7,1.41-2,2.06-2.16,3.42a6.88,6.88,0,0,0,1.12,4,24.87,24.87,0,0,1,1.51,8.81c.19,2.42,1.41,4.22,1.07,6.68,0,.54.12,1.61-.95,1.7-.81.06-1.14-.73-1.18-1.26-.73-2.38-1.73-4.74-1.34-6.66.57-3-.42-5.38-1.17-8-1.38-3.68-.87-7.51-2.26-11.46C1011.76,591.4,1013.69,591.79,1015.63,592.44ZM1001,629.31c-3.13-1.92-2.45-3.59-1.54-5.83C1000.91,625.26,1000.77,626.89,1001,629.31Zm10.21-11.08c-1.25,1.18-1.67,2.83-2.34,4.51-1.22,1.72-1.68,2.84.83,3.72.85.47.62,1,.15,1.88-1.92,3.13-1.44,5.8,1.48,8.54,1.74,1.49,1.69,4.2,2.39,6.31.27,0-.22.55-.47.84-.52.32-.81.07-1.1-.18-1.51-2-3-3.82-4.52-5.86-.29-.25-.58-.5-.6-.77,1-3.87-2.64-6-3.18-9.49a6,6,0,0,1-.3-3.76c.39-1.93.51-3.83-1.72-4.73a1.4,1.4,0,0,1-.46-2.4c1.5-1.47,1.13-2.8.73-4.39-.46-2.4-.63-4.55-1.6-6.63-1.56-2.59,0-3.79,2-5.84,1.12,4,.86,7.5,2.44,10.36.36,1,.75,2.64,2.07,2.27,1.31-.65,1.2-2,.58-3-.32-.52-.36-1.06.39-1.93a32.12,32.12,0,0,1,4.09,7.25A3,3,0,0,1,1011.17,618.23Zm8.68,7.16c-.05,2.7-1.09,3.33-3.32,2.42a9,9,0,0,1-2.82-1.4c-1.14-.72-1-1.82.64-2.21,1.86-.42,2.29-1.81,2.75-2.92.2-.83.43-1.39,1.26-1.19,1.09.19,1.15,1,1.2,1.53a5.2,5.2,0,0,0-.12,1.9C1019.5,624.33,1019.81,624.85,1019.85,625.39Zm-2.11-47.45c1.18,1.26,1,2.89,2,4.17.58.5.64,1.31-.14,1.64-1,.62-1.64-.14-2-.93C1016.65,581.27,1017.06,579.62,1017.74,577.94Zm1.34,20.45a1.71,1.71,0,0,1,1.21-1.72c1.06-.35.61.77,1.19,1.26.33.79-.19,1.1-.72,1.14S1019.14,599.2,1019.08,598.39Zm3.92,18.9a.71.71,0,0,1-.74.87c-.29-.25-.58-.49-.35-1,0-.27.2-.83.76-.6C1022.94,616.48,1023.25,617,1023,617.29Zm-2-14.72a5.45,5.45,0,0,1,.09,4.59C1019.9,605.36,1019.25,604.06,1021,602.57Zm2,32.57a2.44,2.44,0,0,1-.25-3.22c2.27-2.08,1.54-4.45,1.06-7.12,1.36.16,2.21.63,1.72,1.22-1.16,2.52.34,4.3.77,6.43.11,1.34.73,2.37-.57,3A2,2,0,0,1,1023.06,635.14Zm7.6,24.29c-.81.07-1.14-.72-1.21-1.53.23-.56.46-1.11,1-1.16.81-.06,1.14.72,1.21,1.53A1,1,0,0,1,1030.66,659.43Zm4-.85c-1.21-1.53-1.91-3.64-4.15-4.55-.56-.22-.08-1.07.14-1.63.46-1.12,1.78-1.49,1.92-3.13a2.94,2.94,0,0,1-2.92-2.74,1.85,1.85,0,0,0-2-1.74c-2.94.51-2.28-1.44-2.41-3a5.7,5.7,0,0,1,.66-2c.47-.85.62-2.48,1.73-2,1.68.68.69,1.84,0,2.71-.23.56-.44,1.39.13,1.61,2.73.33,2.69,3.31,4.68,4.5,2,1.47,2.28,1.45,4.28-.61.91,1.28.81,3.46,2.24,4.43s2.61,2.23,1.64,3.66c-1.21,1.71-1.81,4.47-4.77,4.7C1035.5,659.05,1034.67,658.84,1034.65,658.58Zm8.2,14.77c-.75.87-1.53,1.2-2.4.46-1.72-1.22-3.73-2.68-3.67-5.39l-.09-1.08c2.36-1,1.69-2.57,1-4.14a2.06,2.06,0,0,1,.45-1.12,1.41,1.41,0,0,1,1.12.46,3.76,3.76,0,0,1,.66,1.57c.22,2.69.43,5.38,3,7.33A1.68,1.68,0,0,1,1042.85,673.35Zm4.23-4.66c-1.5-1.78-3.75-3-4.75-5.31a5.32,5.32,0,0,1-.77-2.92,1.49,1.49,0,0,1,1.28-.91c.52-.31.81-.06,1.12.45,1.29,2.61,2.59,5.48,3.88,8.09C1047.59,668.37,1047.32,668.4,1047.08,668.69Z"/><path class="cls-2" d="M1060.24,650.36c-.83-.2-1,.62-1,1.16,0,.27.35,1.06.62,1,.83.2.76-.61,1-1.17C1060.82,650.86,1060.77,650.32,1060.24,650.36Z"/><path class="cls-2" d="M993.4,667.27c-1.06.35-.68,1.67-.35,2.46.38,1.32-.33,2.73,1.12,4a4.49,4.49,0,0,0,1-4.41C995.12,668.48,995,666.87,993.4,667.27Z"/><path class="cls-2" d="M1031.21,615.05c-1.34.1-1,1.43-.89,2.5.07.81-.09,2.17,1.25,2.07,1.07-.09,1.26-1.18,1.17-2.26S1032.55,614.94,1031.21,615.05Z"/></svg>