<?xml version="1.0" encoding="UTF-8" standalone="no"?>
<!DOCTYPE svg PUBLIC "-//W3C//DTD SVG 1.1//EN" "http://www.w3.org/Graphics/SVG/1.1/DTD/svg11.dtd">
<svg version="1.1" xmlns="http://www.w3.org/2000/svg" xmlns:xlink="http://www.w3.org/1999/xlink" preserveAspectRatio="xMidYMid meet" viewBox="0 0 640 640" width="640" height="640"><defs><path d="M552.82 321.13C552.82 321.13 552.82 321.13 552.82 321.13C552.82 458.4 552.82 534.66 552.82 549.91C552.82 549.91 552.82 549.91 552.82 549.91C278.27 549.91 125.74 549.91 95.23 549.91C95.23 549.91 95.23 549.91 95.23 549.91C95.23 412.64 95.23 336.38 95.23 321.13C95.23 321.13 95.23 321.13 95.23 321.13C369.78 321.13 522.31 321.13 552.82 321.13Z" id="b1SyoCscK"></path><path d="M473.48 318.23C475.31 315.34 476.82 312.26 477.97 309.03C502.97 313.67 527 297.15 531.63 272.15C536.03 248.4 521.34 225.29 497.98 219.2C513.19 198.82 508.99 169.96 488.61 154.76C472.22 142.53 449.74 142.57 433.4 154.86C420.79 143.67 403.75 138.89 387.16 141.87C380.83 113.94 355.89 92.37 326.07 92.37C299.53 92.38 275.86 109.1 267 134.13C234.44 127.52 202.38 147.45 193.9 179.58C193.9 188.71 193.9 234.35 193.9 316.5C343.01 317.42 436.2 318 473.48 318.23Z" id="dNsqxYJOD"></path><path d="M214.76 321.13C219.83 302.51 224.28 284.99 227.5 270.46C230.86 255.35 232.88 243.51 232.88 237.13C232.88 201.86 202.07 173.26 164.08 173.26C126.09 173.26 95.28 201.86 95.28 237.13C95.28 249.64 103.06 283.11 113.41 321.1C133.68 321.11 194.49 321.12 214.76 321.13Z" id="hxKPcW6EA"></path><path d="M322.17 321.13C322.48 288.25 296.08 261.35 263.21 261.04C230.33 260.73 203.43 287.12 203.12 320C203.12 320.37 203.12 320.75 203.12 321.13C226.93 321.13 298.36 321.13 322.17 321.13Z" id="b2FckoB2oh"></path><path d="M306.23 219.8C266.09 220.28 241.65 261.94 240.53 263.92C240.53 263.92 313.53 261.01 324.92 310.32C344.86 315.87 365.82 316.7 386.13 312.73C385.34 258.41 345.48 219.33 306.23 219.8Z" id="e2Niy4aSPe"></path><path d="M511.66 504.33C507.57 501.23 501.73 502.03 498.63 506.13C495.53 510.22 496.33 516.06 500.43 519.16C500.43 519.16 500.43 519.16 500.43 519.16C500.43 519.17 500.5 519.22 500.51 519.23C504.66 522.26 510.48 521.35 513.51 517.2C516.46 513.16 515.69 507.5 511.75 504.4C511.73 504.39 511.67 504.34 511.66 504.33Z" id="b1FhoZk5Jx"></path><path d="M496.98 442.97C501.07 446.07 506.9 445.26 510.01 441.17C513.11 437.08 512.31 431.24 508.21 428.14C508.2 428.13 508.14 428.08 508.13 428.07C504.03 424.97 498.2 425.78 495.1 429.87C491.99 433.96 492.8 439.8 496.89 442.9C496.89 442.9 496.89 442.9 496.89 442.9C496.91 442.91 496.97 442.96 496.98 442.97Z" id="b8mnIeVa8"></path><path d="M496.98 366.7C501.12 369.73 506.94 368.82 509.97 364.67C512.93 360.63 512.15 354.97 508.21 351.88C508.2 351.87 508.14 351.82 508.13 351.81C504.09 348.64 498.24 349.34 495.07 353.37C491.89 357.41 492.59 363.26 496.63 366.43C496.71 366.5 496.8 366.57 496.89 366.63C496.91 366.65 496.97 366.69 496.98 366.7Z" id="bcrfR0hh1"></path><path d="M518.58 311.83C517.88 311.82 517.31 311.25 517.31 310.55C517.32 310.14 517.52 309.75 517.86 309.51C543.11 292.3 549.63 257.87 532.41 232.62C527.34 225.19 520.54 219.1 512.59 214.89C512.01 214.59 511.76 213.9 512.01 213.29C517.29 200.83 517.88 186.57 513.13 172.41C507.7 156.39 494.88 143.98 478.7 139.07C463.17 134.34 447.66 135.95 434.59 143.07C434.18 143.3 433.67 143.28 433.28 143.01C422.56 135.65 409.86 131.7 396.85 131.71C396.26 131.71 395.67 131.71 395.08 131.74C394.53 131.76 394.03 131.42 393.84 130.9C383.76 102.73 356.61 83.1 326.07 83.1C298.71 83.14 273.74 98.64 261.57 123.14C261.34 123.6 260.86 123.88 260.34 123.84C257.42 123.61 255.06 123.63 254.48 123.6C225.95 123.61 200.12 140.46 188.61 166.57C188.36 167.15 187.71 167.46 187.1 167.28C185.2 166.74 183.64 166.37 183.26 166.27C182.63 166.12 182.21 165.54 182.27 164.9C183.47 153.55 187.21 144.82 193.44 138.89C199.04 133.55 204.67 132.45 204.9 132.4C204.9 132.4 204.85 132.4 204.78 132.4C204.78 132.4 204.78 132.4 204.78 132.4C209.36 131.75 212.76 127.83 212.76 123.2C212.79 118.09 208.66 113.92 203.55 113.9C203 113.89 202.45 113.94 201.91 114.03C201.91 114.03 201.91 114.03 201.91 114.03C196.93 114.82 190.3 117.41 183.94 122.52C183.4 122.96 182.6 122.89 182.15 122.34C181.97 122.12 181.87 121.84 181.86 121.54C181.86 118.54 181.86 94.47 181.86 91.46C181.87 86.81 178.1 83.03 173.45 83.03C173.45 83.03 173.44 83.03 173.44 83.03C171.03 83.03 151.77 83.03 149.36 83.03C144.71 83.03 140.94 86.8 140.94 91.45C140.94 91.46 140.94 91.46 140.94 91.46C140.94 94.68 140.94 120.42 140.94 123.63C140.94 124.34 140.38 124.91 139.67 124.91C139.3 124.91 138.95 124.74 138.71 124.46C132.56 117.36 125.53 111.07 117.79 105.75C113.44 103.02 107.7 104.35 104.98 108.71C102.33 112.94 103.5 118.5 107.62 121.31C107.92 121.51 135.31 139.85 140.06 166.37C140.17 166.99 139.79 167.61 139.18 167.79C108.25 177.54 85.92 204.95 85.92 237.15C85.92 250.44 93.36 281.99 100.8 310.22C100.98 310.89 100.59 311.59 99.91 311.78C99.8 311.81 99.69 311.82 99.57 311.82C99.05 311.82 94.87 311.82 94.35 311.82C89.7 311.82 85.93 315.59 85.92 320.24C85.92 320.24 85.92 320.24 85.92 320.24C85.92 343.3 85.92 527.74 85.92 550.8C85.92 555.45 89.69 559.22 94.34 559.22C94.35 559.22 94.35 559.22 94.35 559.22C140.28 559.22 507.75 559.22 553.69 559.22C558.34 559.23 562.12 555.46 562.13 550.81C562.13 550.81 562.13 550.8 562.13 550.8C562.13 527.74 562.13 343.3 562.13 320.25C562.13 315.6 558.35 311.83 553.7 311.83C553.7 311.83 553.69 311.83 553.69 311.83C553.69 311.83 522.09 311.83 518.58 311.83ZM392.78 310.55C392.78 310.55 392.78 310.55 392.78 310.55C392.85 293.09 388.9 275.85 381.22 260.17C375.83 249.28 367.2 231.82 347.27 220.47C329.18 210.17 311.33 210.34 304.13 210.5C291.86 210.78 283.41 213.63 281.42 214.33C274.71 216.67 268.42 220.05 262.75 224.33C255.06 230.15 248.66 237.51 243.97 245.93C243.62 246.54 242.85 246.75 242.24 246.41C241.79 246.15 241.55 245.66 241.61 245.15C241.94 242.5 242.12 239.82 242.14 237.15C242.14 225.1 238.98 213.27 232.99 202.81C232.81 202.49 232.78 202.1 232.9 201.75C238.9 186.27 255.18 177.36 271.45 180.67C276.02 181.62 280.59 179.04 282.13 174.63C284.16 168.89 287.69 163.78 292.35 159.85C294.93 157.76 296.09 154.39 295.35 151.15C293.43 143.58 285.12 141.55 280.08 145.87C275.19 150.06 271.1 155.1 268.01 160.75C267.78 161.18 267.33 161.43 266.85 161.41C266.14 161.41 265.42 161.37 264.72 161.37C247.09 161.38 230.63 170.21 220.87 184.89C220.49 185.48 219.7 185.65 219.12 185.26C219.05 185.22 219 185.18 218.94 185.13C215.04 181.52 210.78 178.33 206.23 175.59C205.67 175.26 205.44 174.58 205.69 173.99C214.23 154.65 233.38 142.18 254.51 142.17C258.1 142.17 261.67 142.53 265.18 143.24C269.72 144.16 274.25 141.6 275.79 137.23C285.59 109.45 316.05 94.87 343.83 104.66C357.93 109.64 369.3 120.3 375.16 134.06C375.43 134.71 375.12 135.45 374.47 135.72C374.46 135.73 374.44 135.73 374.42 135.74C349.08 145.2 332.34 169.46 332.48 196.5C332.46 199.86 334.38 202.93 337.4 204.39C344.33 207.59 351.07 202.63 351.07 196.09C351.1 170.79 371.62 150.31 396.91 150.33C408.31 150.34 419.3 154.61 427.73 162.29C430.68 165.01 435.16 165.22 438.35 162.77C448.39 154.91 461.58 152.74 474.62 157.37C484.17 160.77 491.71 168.24 495.21 177.75C499.9 190.62 497.94 203.7 490.41 213.75C489.49 214.96 488.91 216.39 488.72 217.89C488.1 222.6 491.09 227.02 495.69 228.19C515.37 233.18 527.28 253.17 522.3 272.85C518.16 289.15 503.49 300.57 486.67 300.57C484.04 300.57 481.42 300.29 478.85 299.74C474.79 298.9 470.74 301.24 469.45 305.19C468.76 307.26 467.88 309.26 466.83 311.18C466.61 311.58 466.18 311.83 465.71 311.83C460.94 311.83 437.05 311.83 394.05 311.83C393.2 311.44 392.77 311.02 392.78 310.55ZM250.35 260.09C250.25 259.79 250.27 259.48 250.39 259.2C252.87 253.37 262.4 240 275.33 233.3C295.6 222.85 315.92 226.81 319.87 227.66C339.18 231.77 350.93 243.12 357.41 249.52C376.54 268.5 377.6 296.29 377.27 310.42C377.26 311.12 376.69 311.67 376 311.67C371.69 311.65 337.2 311.55 332.89 311.54C332.24 311.54 331.7 311.06 331.63 310.42C330.9 304.17 327.74 280.07 306.18 266.25C284.33 252.27 260.04 258.3 251.97 260.92C251.28 261.12 250.57 260.75 250.35 260.09ZM317.33 311.8C317.24 311.82 317.15 311.83 317.06 311.83C306.84 311.83 225.07 311.83 214.85 311.83C214.15 311.83 213.58 311.26 213.58 310.56C213.58 310.47 213.58 310.38 213.6 310.3C219.93 281.38 248.49 263.07 277.4 269.39C297.86 273.87 313.83 289.84 318.31 310.3C318.45 310.98 318.01 311.66 317.33 311.8ZM167.8 101.63C168.5 101.64 169.06 102.21 169.06 102.9C169.06 108.89 169.06 156.75 169.06 162.73C169.06 163.43 168.5 164 167.8 164C167.8 164 167.79 164 167.79 164C161.39 164 156.27 164.09 154.99 164.1C154.29 164.1 153.72 163.54 153.71 162.84C153.71 162.84 153.71 162.83 153.71 162.83C153.71 156.84 153.71 108.9 153.71 102.9C153.71 102.2 154.29 101.63 154.99 101.63C154.99 101.63 155 101.63 155 101.63C157.56 101.63 166.52 101.63 167.8 101.63ZM106.26 229.96C106.47 229.96 106.67 229.96 106.87 229.96C111.51 229.96 148.63 229.96 153.27 229.96C156.59 230 159.63 228.13 161.11 225.16C164.41 218.23 159.43 211.38 152.86 211.38C148.96 211.38 117.78 211.38 113.89 211.38C113.18 211.38 112.61 210.81 112.61 210.11C112.61 209.86 112.68 209.62 112.82 209.41C123.2 193.37 142.27 182.59 164.05 182.59C196.87 182.59 223.57 207.07 223.57 237.16C223.57 239.48 223.22 243.68 221.9 251.25C221.79 251.87 221.26 252.32 220.64 252.32C217.01 252.32 188 252.32 184.37 252.32C181.05 252.28 178 254.15 176.53 257.13C173.22 264.06 178.2 270.9 184.78 270.9C187.55 270.9 209.77 270.9 212.55 270.9C213.25 270.91 213.82 271.48 213.82 272.18C213.82 272.51 213.69 272.83 213.45 273.06C203.38 283.34 196.8 296.52 194.62 310.74C194.52 311.35 194 311.81 193.37 311.81C186.18 311.81 128.64 311.81 121.44 311.81C120.87 311.8 120.36 311.41 120.22 310.86C110.21 273.44 104.53 246.78 104.53 237.15C104.53 235.11 104.66 233.06 104.91 231.03C105.01 230.37 105.6 229.9 106.26 229.96ZM461.25 388.09C457.93 388.06 454.88 389.93 453.42 392.91C450.11 399.85 455.09 406.69 461.67 406.69C469.72 406.69 534.18 406.69 542.24 406.69C542.94 406.69 543.51 407.26 543.51 407.96C543.51 413.47 543.51 457.57 543.51 463.08C543.51 463.78 542.94 464.35 542.24 464.35C542.24 464.35 542.24 464.35 542.24 464.35C512.99 464.35 279.01 464.35 249.76 464.35C246.44 464.32 243.39 466.2 241.93 469.18C238.62 476.11 243.6 482.95 250.18 482.95C279.38 482.95 513.03 482.95 542.24 482.95C542.94 482.95 543.51 483.52 543.51 484.22C543.51 484.22 543.51 484.22 543.51 484.23C543.51 489.74 543.51 533.83 543.51 539.35C543.51 540.05 542.94 540.62 542.24 540.62C498.59 540.62 149.44 540.62 105.8 540.62C105.1 540.62 104.53 540.05 104.53 539.35C104.53 533.83 104.53 489.74 104.53 484.23C104.53 483.52 105.1 482.95 105.8 482.95C113.9 482.95 178.69 482.95 186.79 482.95C190.1 482.99 193.15 481.12 194.62 478.15C197.93 471.22 192.95 464.38 186.37 464.38C178.31 464.38 113.86 464.38 105.8 464.38C105.1 464.38 104.53 463.81 104.53 463.1C104.53 457.59 104.53 413.47 104.53 407.96C104.53 407.26 105.1 406.69 105.8 406.69C135.05 406.69 369.03 406.69 398.27 406.69C401.59 406.73 404.64 404.86 406.11 401.89C409.42 394.96 404.43 388.11 397.86 388.11C368.65 388.11 135.01 388.11 105.8 388.11C105.1 388.11 104.53 387.55 104.53 386.85C104.53 381.33 104.53 337.21 104.53 331.7C104.53 330.99 105.1 330.42 105.8 330.42C149.44 330.42 498.59 330.42 542.24 330.42C542.94 330.42 543.51 330.99 543.51 331.69C543.51 331.7 543.51 331.7 543.51 331.7C543.51 337.21 543.51 381.31 543.51 386.82C543.51 387.52 542.94 388.09 542.24 388.09C542.24 388.09 469.35 388.09 461.25 388.09Z" id="a3eCvikAzd"></path><path d="M154.71 504.34C150.62 501.23 144.78 502.03 141.67 506.13C138.57 510.22 139.37 516.06 143.47 519.16C143.48 519.17 143.54 519.22 143.55 519.23C147.59 522.4 153.44 521.7 156.61 517.67C159.79 513.63 159.09 507.78 155.05 504.61C154.97 504.54 154.88 504.47 154.79 504.41C154.79 504.41 154.72 504.34 154.71 504.34Z" id="c21oySQOzX"></path><path d="M143.55 442.97C147.65 446.07 153.48 445.26 156.58 441.17C159.69 437.08 158.88 431.24 154.79 428.14C154.78 428.13 154.71 428.08 154.7 428.07C150.61 424.97 144.78 425.78 141.67 429.87C138.57 433.96 139.37 439.8 143.47 442.9C143.47 442.9 143.54 442.96 143.55 442.97Z" id="b4rvxqKCi9"></path><path d="M143.55 366.7C147.59 369.87 153.44 369.18 156.61 365.14C159.79 361.1 159.09 355.25 155.05 352.08C154.97 352.01 154.88 351.94 154.79 351.88C154.78 351.87 154.71 351.82 154.7 351.81C150.56 348.78 144.74 349.69 141.71 353.84C138.75 357.88 139.53 363.54 143.47 366.63C143.48 366.65 143.54 366.69 143.55 366.7Z" id="bqsQrPBim"></path><path d="M165.17 92.37C168.55 92.37 170.23 94.06 170.23 97.43C170.23 138.15 170.23 160.76 170.23 165.29C170.23 168.66 168.55 170.35 165.17 170.35C160.66 170.35 158.15 170.35 157.65 170.35C154.27 170.35 152.59 168.66 152.59 165.29C152.59 124.57 152.59 101.96 152.59 97.43C152.59 94.06 154.27 92.37 157.65 92.37C162.16 92.37 164.67 92.37 165.17 92.37Z" id="bnxwz9d0J"></path></defs><g><g><g><use xlink:href="#b1SyoCscK" opacity="1" fill="#737472" fill-opacity="1"></use><g><use xlink:href="#b1SyoCscK" opacity="1" fill-opacity="0" stroke="#ba6d40" stroke-width="5" stroke-opacity="1"></use></g></g><g><use xlink:href="#dNsqxYJOD" opacity="1" fill="#737472" fill-opacity="1"></use><g><use xlink:href="#dNsqxYJOD" opacity="1" fill-opacity="0" stroke="#000000" stroke-width="1" stroke-opacity="0"></use></g></g><g><use xlink:href="#hxKPcW6EA" opacity="1" fill="#737472" fill-opacity="1"></use><g><use xlink:href="#hxKPcW6EA" opacity="1" fill-opacity="0" stroke="#000000" stroke-width="1" stroke-opacity="0"></use></g></g><g><use xlink:href="#b2FckoB2oh" opacity="1" fill="#737472" fill-opacity="1"></use><g><use xlink:href="#b2FckoB2oh" opacity="1" fill-opacity="0" stroke="#000000" stroke-width="1" stroke-opacity="0"></use></g></g><g><use xlink:href="#e2Niy4aSPe" opacity="1" fill="#737472" fill-opacity="1"></use><g><use xlink:href="#e2Niy4aSPe" opacity="1" fill-opacity="0" stroke="#000000" stroke-width="1" stroke-opacity="0"></use></g></g><g><use xlink:href="#b1FhoZk5Jx" opacity="1" fill="#ffffff" fill-opacity="1"></use><g><use xlink:href="#b1FhoZk5Jx" opacity="1" fill-opacity="0" stroke="#000000" stroke-width="1" stroke-opacity="0"></use></g></g><g><use xlink:href="#b8mnIeVa8" opacity="1" fill="#f9f9f9" fill-opacity="1"></use><g><use xlink:href="#b8mnIeVa8" opacity="1" fill-opacity="0" stroke="#000000" stroke-width="1" stroke-opacity="0"></use></g></g><g><use xlink:href="#bcrfR0hh1" opacity="1" fill="#fbfbfb" fill-opacity="1"></use><g><use xlink:href="#bcrfR0hh1" opacity="1" fill-opacity="0" stroke="#000000" stroke-width="1" stroke-opacity="0"></use></g></g><g><use xlink:href="#a3eCvikAzd" opacity="1" fill="#ffffff" fill-opacity="1"></use><g><use xlink:href="#a3eCvikAzd" opacity="1" fill-opacity="0" stroke="#000000" stroke-width="1" stroke-opacity="0"></use></g></g><g><use xlink:href="#c21oySQOzX" opacity="1" fill="#ffffff" fill-opacity="1"></use><g><use xlink:href="#c21oySQOzX" opacity="1" fill-opacity="0" stroke="#000000" stroke-width="1" stroke-opacity="0"></use></g></g><g><use xlink:href="#b4rvxqKCi9" opacity="1" fill="#fbfbfb" fill-opacity="1"></use><g><use xlink:href="#b4rvxqKCi9" opacity="1" fill-opacity="0" stroke="#000000" stroke-width="1" stroke-opacity="0"></use></g></g><g><use xlink:href="#bqsQrPBim" opacity="1" fill="#fbfbfb" fill-opacity="1"></use><g><use xlink:href="#bqsQrPBim" opacity="1" fill-opacity="0" stroke="#000000" stroke-width="1" stroke-opacity="0"></use></g></g><g><use xlink:href="#bnxwz9d0J" opacity="1" fill="#737472" fill-opacity="1"></use><g><use xlink:href="#bnxwz9d0J" opacity="1" fill-opacity="0" stroke="#000000" stroke-width="1" stroke-opacity="0"></use></g></g></g></g></svg>